<svg width="378" height="378" viewBox="0 0 378 378" fill="none" xmlns="http://www.w3.org/2000/svg">
<path fill-rule="evenodd" clip-rule="evenodd" d="M177.18 1.07375C163.361 1.71038 155.851 2.78615 143.38 5.9152C134.988 8.02061 122.156 12.3056 116.396 14.9264C115.736 15.2261 113.397 16.2738 111.198 17.2533C67.8866 36.56 30.4225 75.9513 14.0647 119.385C13.0262 122.142 12.0148 124.759 11.8179 125.2C10.2148 128.79 5.83725 144.533 4.62592 151.066C2.26524 163.792 1.63659 169.315 1.10189 182.051C0.802057 189.2 1.03393 199.425 1.65458 206.409C2.06335 211.012 3.5835 221.771 4.23214 224.656C4.43103 225.538 4.81082 227.343 5.07667 228.666C5.34352 229.989 6.0931 233.147 6.74274 235.684C7.39238 238.22 8.06001 240.837 8.22591 241.499C8.39282 242.161 8.76261 243.424 9.04745 244.306C9.3333 245.188 9.70609 246.361 9.87699 246.913C10.7175 249.626 13.5829 257.427 14.6653 259.946C18.9759 269.987 20.1493 272.444 24.145 279.797C43.856 316.069 78.4027 347.147 116.196 362.607C118.724 363.642 121.153 364.636 121.593 364.815C125.293 366.33 136.428 370.028 137.289 370.029C137.567 370.029 138.106 370.202 138.488 370.412C139.519 370.98 153.024 374.081 157.972 374.887C166.952 376.348 171.147 376.779 179.16 377.062C195.061 377.625 213.639 376.361 224.935 373.946C227.024 373.5 229.452 372.996 230.332 372.826C231.74 372.553 237.728 371.004 241.126 370.032C241.786 369.844 243.045 369.486 243.924 369.237C244.804 368.988 245.973 368.625 246.523 368.429C247.073 368.234 249.411 367.421 251.72 366.623C254.029 365.825 256.277 365.015 256.717 364.824C257.157 364.633 259.766 363.527 262.514 362.366C269.694 359.333 280.54 353.812 286.287 350.263C321.338 328.616 349.151 296.196 363.252 260.548C364.168 258.232 365.081 255.976 365.281 255.535C366.644 252.518 371.605 235.964 372.492 231.473C372.709 230.37 373.041 228.746 373.23 227.864C376.192 214.04 377.021 205.633 377.011 189.565C377.003 176.973 376.785 173.424 375.274 161.293C374.415 154.383 371.991 143.467 369.444 135.025C369.077 133.812 368.685 132.321 368.571 131.712C368.456 131.102 368.204 130.506 368.009 130.384C367.814 130.264 367.655 129.845 367.655 129.454C367.655 128.87 364.622 120.621 363.289 117.58C363.096 117.139 362.587 115.966 362.159 114.974C345.942 77.3639 317.982 45.6343 283.502 25.7131C279.838 23.5957 265.614 16.3199 265.139 16.3199C265.028 16.3199 263.986 15.8838 262.826 15.3515C256.608 12.4991 243.497 8.04968 235.729 6.15782C228.341 4.35719 226.41 3.92809 222.736 3.26739C219.331 2.65481 218.027 2.46933 210.343 1.50285C205.856 0.938398 185.761 0.677729 177.18 1.07375ZM298.668 64.0326C300.298 64.6542 299.97 65.1926 294.942 70.1303C288.702 76.2591 287.928 77.7689 288.208 83.2601C288.405 87.1039 288.625 87.9622 291.627 96.5262L292.821 99.9349L293.061 116.778C293.193 126.042 293.591 139.035 293.944 145.652C296.113 186.174 294.609 192.342 282.803 191.331C276.877 190.824 274.859 188.306 274.121 180.494C273.335 172.179 273.884 124.345 274.957 107.594C275.419 100.38 275.597 99.4948 277.89 92.9319C280.219 86.2698 280.08 82.2725 277.566 83.5538C275.231 84.7429 258.247 97.5127 248.722 105.24C241.987 110.704 241.967 110.819 245.646 122.994C246.08 124.428 246.557 126.052 246.706 126.604C246.855 127.155 247.149 128.238 247.358 129.01C252.058 146.306 246.027 160.315 227.334 175.529C218.055 183.081 215.56 187.052 215.808 193.881C216.102 202.016 219.677 206.266 237.078 219.17C249.651 228.493 253.866 234.329 257.255 247.113C258.791 252.907 259.235 263.915 258.168 269.772C254.691 288.87 239.321 303.256 215.14 310.042C207.894 312.075 202.936 312.935 195.152 313.505C184.836 314.262 170.745 313.861 165.457 312.66C164.419 312.424 162.76 312.049 161.77 311.826C152.352 309.705 142.542 305.582 134.862 300.517C115.189 287.541 110.654 269.729 122.286 251.134C130.964 237.26 143.901 228.832 164.369 223.718C170.399 222.211 181.027 220.829 191.454 220.195C193.817 220.052 195.751 219.887 195.751 219.829C195.751 219.772 195.064 218.578 194.223 217.177C189.108 208.65 187.54 200.002 189.701 192.242C190.237 190.317 190.328 189.466 190.009 189.372C188.442 188.914 184.517 188.361 182.791 188.357C181.006 188.352 176.196 187.579 170.565 186.392C149.503 181.952 136.138 166.609 131.934 142.043C131.556 139.838 131.076 137.807 130.868 137.532C130.574 137.141 125.45 137.029 107.651 137.027C81.4161 137.024 79.4162 136.925 79.4162 135.634C79.4162 134.805 84.2515 130.247 95.0075 120.939C96.6565 119.512 104.122 113.037 111.598 106.55C119.074 100.063 129.148 91.3288 133.986 87.139C138.823 82.9503 142.871 79.4202 142.981 79.2939C143.091 79.1685 144.525 77.8963 146.169 76.4666C147.812 75.0379 149.881 73.2122 150.766 72.4112C151.651 71.6111 154.26 69.3102 156.564 67.298L160.754 63.6416H229.198C272.702 63.6416 298.016 63.784 298.668 64.0326ZM177.961 96.7217C167.113 99.0617 160.609 106.341 157.352 119.786C156.647 122.694 156.635 134.446 157.334 137.431C158.943 144.307 159.708 146.986 160.253 147.638C160.428 147.847 160.571 148.276 160.571 148.592C160.571 152.741 172.076 168.407 179.115 173.843C211.787 199.074 239.418 153.164 214.2 115.547C204.337 100.835 191.002 93.9074 177.961 96.7217ZM185.957 229.071C177.773 229.906 170.516 231.613 165.568 233.865C164.908 234.166 163.346 234.878 162.097 235.448C137.769 246.549 134.795 276.929 156.573 291.896C171.51 302.162 194.538 305.121 213.741 299.243C215.743 298.631 216.75 298.241 219.738 296.918C238.774 288.498 245.568 270.159 236.631 251.324C232.76 243.163 219.193 233.655 206.921 230.501C204.248 229.814 191.83 228.278 190.954 228.526C190.844 228.557 188.595 228.802 185.957 229.071Z" fill="#4484F3"/>
<path fill-rule="evenodd" clip-rule="evenodd" d="M172.007 0.325962C169.611 0.510436 167.542 0.776118 167.41 0.915477C167.276 1.05584 168.876 1.03378 170.965 0.866351C173.053 0.69892 178.181 0.438251 182.358 0.28586L189.954 0.0101491L183.158 0.000125012C179.42 -0.00488788 174.402 0.141487 172.007 0.325962ZM195.851 0.174573C197.115 0.253777 199.184 0.253777 200.448 0.174573C201.712 0.0943671 200.678 0.0291991 198.149 0.0291991C195.621 0.0291991 194.586 0.0943671 195.851 0.174573ZM203.779 0.424214C203.871 0.503417 206.015 0.662828 208.544 0.778124C211.499 0.91247 212.426 0.873369 211.142 0.66784C209.115 0.34501 203.474 0.157528 203.779 0.424214ZM164.268 1.35761C164.653 1.45787 165.283 1.45787 165.668 1.35761C166.052 1.25635 165.737 1.17414 164.968 1.17414C164.198 1.17414 163.884 1.25635 164.268 1.35761ZM213.841 1.35761C214.225 1.45787 214.855 1.45787 215.24 1.35761C215.625 1.25635 215.31 1.17414 214.54 1.17414C213.771 1.17414 213.456 1.25635 213.841 1.35761ZM151.575 3.08606L150.776 3.43095L151.575 3.41892C152.015 3.4129 152.825 3.26251 153.374 3.08606L154.374 2.76523L153.374 2.7532C152.825 2.74719 152.015 2.89657 151.575 3.08606ZM227.533 3.69563C230.537 4.37437 231.219 4.36635 229.132 3.67658C228.253 3.38583 226.993 3.14922 226.334 3.15022C225.585 3.15223 226.036 3.35675 227.533 3.69563ZM235.529 5.49726C236.848 5.92937 238.107 6.27325 238.327 6.26022C238.968 6.22413 236.032 5.21553 234.515 4.95186C233.754 4.81851 234.209 5.06414 235.529 5.49726ZM139.182 6.08276C137.035 6.79259 137.88 6.81966 140.382 6.12186C141.481 5.81507 142.021 5.56142 141.581 5.55942C141.141 5.55641 140.062 5.79202 139.182 6.08276ZM132.661 7.98265C131.274 8.42378 130.213 8.8599 130.305 8.95214C130.397 9.04438 131.802 8.68245 133.428 8.14707C135.054 7.6127 136.114 7.17658 135.784 7.17858C135.454 7.17958 134.049 7.54151 132.661 7.98265ZM245.291 8.32754C246.482 8.75163 247.527 9.02934 247.612 8.94512C247.798 8.75764 244.157 7.48537 243.553 7.52648C243.317 7.54252 244.1 7.90345 245.291 8.32754ZM251.32 10.2374C251.65 10.441 252.369 10.7297 252.919 10.8771C253.613 11.0636 253.735 11.0315 253.319 10.7728C252.989 10.5693 252.269 10.2806 251.719 10.1332C251.025 9.9467 250.903 9.97878 251.32 10.2374ZM123.191 11.2982C120.546 12.5484 121.046 12.5634 124.023 11.3242C125.324 10.7818 126.12 10.3417 125.79 10.3457C125.46 10.3507 124.291 10.7788 123.191 11.2982ZM256.55 12.0692C256.895 12.401 261.855 14.3069 261.999 14.1635C262.081 14.0803 260.969 13.5399 259.528 12.9604C257.056 11.9679 256.169 11.7022 256.55 12.0692ZM118.794 13.0898C117.914 13.5079 117.374 13.8497 117.594 13.8517C118.14 13.8557 121.294 12.3739 120.793 12.3499C120.573 12.3399 119.673 12.6727 118.794 13.0898ZM264.113 15.3175C265.102 15.8489 266.091 16.284 266.311 16.284C266.531 16.284 265.902 15.8489 264.912 15.3175C263.923 14.7861 262.933 14.351 262.713 14.351C262.493 14.351 263.123 14.7861 264.113 15.3175ZM111.598 16.0935C108.971 17.3618 109.483 17.4009 112.246 16.1426C113.429 15.6042 114.216 15.1551 113.996 15.1451C113.776 15.135 112.697 15.5621 111.598 16.0935ZM107.8 17.9242C107.03 18.3473 106.545 18.7002 106.72 18.7092C107.144 18.7313 109.399 17.5553 109.399 17.3126C109.399 17.05 109.376 17.059 107.8 17.9242ZM270.542 18.0736C270.954 18.4425 273.307 19.5283 273.307 19.3489C273.307 19.1173 271.091 17.9242 270.662 17.9242C270.505 17.9242 270.451 17.9914 270.542 18.0736ZM101.703 20.7585C100.879 21.1956 100.204 21.6418 100.204 21.7521C100.204 21.9305 103.361 20.4497 103.769 20.0808C104.229 19.6627 103.027 20.0577 101.703 20.7585ZM274.507 20.1138C274.507 20.2241 275.226 20.6823 276.106 21.1325C276.985 21.5826 277.705 21.8603 277.705 21.75C277.705 21.6398 276.985 21.1816 276.106 20.7314C275.226 20.2813 274.507 20.0036 274.507 20.1138ZM95.6986 24.1502C93.9985 25.1478 92.6083 26.0712 92.6083 26.2015C92.6083 26.3318 93.0131 26.1724 93.5078 25.8486C94.0025 25.5247 95.4417 24.6746 96.706 23.9597C98.6699 22.8499 99.3625 22.3356 98.8968 22.3356C98.8368 22.3356 97.3976 23.1516 95.6986 24.1502ZM279.704 22.916C279.704 23.0263 280.244 23.3973 280.903 23.7392C281.563 24.081 282.103 24.2715 282.103 24.1612C282.103 24.051 281.563 23.68 280.903 23.3381C280.244 22.9963 279.704 22.8058 279.704 22.916ZM283.302 24.9001C283.302 24.9954 284.115 25.5308 285.11 26.0882C286.105 26.6456 286.812 26.9294 286.682 26.7178C286.423 26.2977 283.302 24.6184 283.302 24.9001ZM88.8974 28.1816C87.6401 28.9706 86.6116 29.7125 86.6116 29.8318C86.6116 29.9501 87.0904 29.7326 87.6761 29.3476C88.2617 28.9626 89.3411 28.2919 90.0747 27.8577C91.2251 27.177 91.6988 26.7469 91.296 26.7469C91.2351 26.7469 90.1557 27.3926 88.8974 28.1816ZM287.899 27.7565C288.339 28.1164 289.059 28.5866 289.498 28.8032L290.298 29.1972L289.498 28.5445C289.059 28.1846 288.339 27.7144 287.899 27.4978L287.1 27.1038L287.899 27.7565ZM291.297 29.7626C291.297 29.8739 292.332 30.6249 293.596 31.4319C294.86 32.238 297.22 33.8772 298.84 35.0733C300.459 36.2694 301.661 37.0474 301.51 36.8017C300.954 35.8994 291.297 29.2433 291.297 29.7626ZM84.7347 30.9948L83.6133 32.0335L84.9126 31.1673C86.1029 30.3742 86.4907 29.9551 86.034 29.9551C85.937 29.9551 85.3524 30.4233 84.7347 30.9948ZM78.4162 35.4042L77.2169 36.4378L78.5162 35.5756C79.2308 35.1014 79.8154 34.6352 79.8154 34.5399C79.8154 34.2392 79.6465 34.3444 78.4162 35.4042ZM75.185 37.8043L73.6189 39.237L75.318 37.9377C76.8701 36.7506 77.2489 36.3716 76.8841 36.3716C76.8101 36.3716 76.0455 37.0163 75.185 37.8043ZM302.091 37.29C302.091 37.3752 303.576 38.5693 305.39 39.9428C307.204 41.3164 307.968 41.7785 307.089 40.9705C305.49 39.5007 302.091 36.9973 302.091 37.29ZM310.268 43.7456C310.937 44.3832 313.891 47.0902 316.83 49.7611C327.197 59.1843 339.78 73.9884 346.439 84.5956C347.373 86.0845 348.222 87.3026 348.325 87.3026C348.429 87.3026 348.378 87.077 348.213 86.8013C340.917 74.5929 327.331 58.5196 315.484 48.0757C310.518 43.6975 308.147 41.7294 310.268 43.7456ZM64.405 46.629L61.6256 49.2678L64.524 46.7483C67.1915 44.4294 67.6332 43.9912 67.3034 43.9912C67.2385 43.9912 65.9342 45.1783 64.405 46.629ZM55.2162 55.2361C52.1449 58.3331 49.5483 60.995 49.4464 61.1514C49.3445 61.3078 51.908 58.8214 55.1432 55.6261C58.3784 52.4309 61.0259 49.7691 61.0259 49.7109C61.0259 49.4152 60.3783 50.0318 55.2162 55.2361ZM47.6084 63.341L46.4341 64.6443L47.7334 63.4663C48.9447 62.3685 49.2165 62.0376 48.9077 62.0376C48.8387 62.0376 48.2541 62.6241 47.6084 63.341ZM271.009 64.3426C274.252 64.4097 279.559 64.4097 282.802 64.3426C286.045 64.2754 283.392 64.2202 276.905 64.2202C270.419 64.2202 267.766 64.2754 271.009 64.3426ZM157.069 67.4967C155.253 69.1259 153.884 70.4593 154.026 70.4593C154.167 70.4593 155.653 69.2492 157.327 67.7704C159.001 66.2916 160.445 65.0283 160.537 64.9632C160.628 64.898 160.628 64.7747 160.537 64.6895C160.445 64.6042 158.885 65.8675 157.069 67.4967ZM298.437 64.7235C298.801 64.8689 297.877 66.083 295.639 68.401L292.297 71.8619L295.273 69.0547C299.54 65.0313 299.989 64.4127 298.593 64.4759C298.108 64.497 298.06 64.5731 298.437 64.7235ZM40.2375 72.0634C39.5409 72.9457 39.0612 73.6675 39.1711 73.6675C39.2811 73.6675 39.9407 72.9457 40.6373 72.0634C41.3339 71.1811 41.8137 70.4593 41.7037 70.4593C41.5938 70.4593 40.9342 71.1811 40.2375 72.0634ZM150.176 73.7387C147.641 76.1429 147.548 76.2712 149.577 74.5678C151.825 72.68 153.702 70.8383 153.336 70.8774C153.247 70.8874 151.825 72.1747 150.176 73.7387ZM289.996 73.9683C288.801 75.2225 287.315 78.2864 287.322 79.4825C287.324 79.9236 287.653 79.3321 288.055 78.1671C288.456 77.0031 289.357 75.3338 290.059 74.4576C291.538 72.6118 291.509 72.3812 289.996 73.9683ZM37.9678 74.9709C37.0663 75.9755 36.4996 76.8758 36.7685 76.8758C36.8654 76.8758 37.4251 76.2442 38.0118 75.4722C39.2151 73.8891 39.1911 73.6084 37.9678 74.9709ZM145.554 77.7781L144.379 79.0815L145.679 77.9034C146.89 76.8056 147.162 76.4748 146.853 76.4748C146.784 76.4748 146.199 77.0613 145.554 77.7781ZM35.4402 78.4799C34.9705 79.1416 34.6766 79.683 34.7866 79.683C34.8965 79.683 35.3703 79.1416 35.84 78.4799C36.3097 77.8182 36.6036 77.2768 36.4936 77.2768C36.3837 77.2768 35.91 77.8182 35.4402 78.4799ZM140.781 81.9498C139.242 83.3996 138.703 84.0402 139.582 83.3725C141.109 82.2145 144.133 79.2649 143.758 79.298C143.66 79.306 142.321 80.5001 140.781 81.9498ZM287.097 82.9324C287.259 85.5822 288.054 89.4862 288.368 89.1714C288.46 89.0792 288.339 88.2149 288.099 87.2515C287.86 86.287 287.5 84.3249 287.3 82.8912L286.935 80.2845L287.097 82.9324ZM32.6418 82.4902C32.172 83.1519 31.8782 83.6933 31.9881 83.6933C32.0981 83.6933 32.5718 83.1519 33.0416 82.4902C33.5113 81.8285 33.8051 81.2871 33.6952 81.2871C33.5853 81.2871 33.1115 81.8285 32.6418 82.4902ZM276.392 83.2321C275.34 83.8537 274.261 84.5916 273.993 84.8723C273.726 85.1531 274.407 84.8453 275.506 84.1896C276.606 83.5329 277.865 82.797 278.305 82.5544C278.744 82.3118 278.924 82.1112 278.704 82.1082C278.485 82.1052 277.444 82.6115 276.392 83.2321ZM280.097 85.1972C280.093 86.2449 279.75 88.4556 279.335 90.1098C278.453 93.6269 278.558 94.3577 279.501 91.2518C280.186 88.996 280.802 83.2923 280.362 83.2923C280.22 83.2923 280.101 84.1495 280.097 85.1972ZM30.7358 85.1972C29.7004 86.697 29.3646 87.3026 29.5665 87.3026C29.6604 87.3026 30.2131 86.5807 30.7958 85.6985C31.9781 83.9059 31.9262 83.4717 30.7358 85.1972ZM136.359 85.7987L135.185 87.1021L136.484 85.924C137.198 85.2764 137.783 84.6899 137.783 84.6207C137.783 84.3109 137.453 84.5836 136.359 85.7987ZM270.209 87.5242C268.615 88.7403 267.311 89.8241 267.311 89.9324C267.311 90.0406 268.66 89.1102 270.309 87.865C272.914 85.899 273.62 85.2744 273.207 85.3045C273.153 85.3095 271.803 86.308 270.209 87.5242ZM133.364 88.4054L131.986 89.9093L133.485 88.5277C134.31 87.7668 134.985 87.09 134.985 87.0239C134.985 86.7171 134.647 87.0058 133.364 88.4054ZM28.5521 88.6059C27.6776 89.9584 26.893 91.5696 27.3317 91.1124C27.8924 90.5279 29.5415 87.7036 29.3226 87.7036C29.2197 87.7036 28.8729 88.1097 28.5521 88.6059ZM349.897 89.9093C350.296 90.571 351.053 91.8794 351.578 92.8168C352.102 93.7542 352.617 94.5212 352.722 94.5212C353.019 94.5212 350.932 90.8297 350.002 89.7088L349.17 88.7062L349.897 89.9093ZM128.988 92.2072C127.559 93.5356 127.109 94.06 127.989 93.3732C130.911 91.0893 131.957 90.1469 131.77 89.9684C131.669 89.8712 130.417 90.8788 128.988 92.2072ZM265.312 91.362C263.919 92.5872 263.918 92.5882 265.2 91.733C265.908 91.2608 266.593 90.7023 266.723 90.4918C267.108 89.8662 266.788 90.0637 265.312 91.362ZM289.72 93.6108C289.691 94.2675 290.953 97.4066 291.161 97.197C291.251 97.1068 290.97 96.1523 290.534 95.0756C290.098 93.9988 289.732 93.3391 289.72 93.6108ZM24.9511 94.6214C23.9117 96.2185 19.8489 104.001 19.8559 104.38C19.8589 104.582 20.6805 103.214 21.6799 101.339C22.6793 99.4639 24.0276 96.9825 24.6752 95.8245C25.8636 93.698 26.0345 92.9561 24.9511 94.6214ZM259.3 96.1544L257.916 97.3865L259.415 96.3067C260.74 95.3533 261.171 94.9222 260.799 94.9222C260.736 94.9222 260.062 95.4766 259.3 96.1544ZM177.961 95.5959C176.289 95.9719 173.318 97.0156 173.475 97.173C173.565 97.2632 174.431 97.0527 175.4 96.7048C176.369 96.3569 178.6 95.9288 180.359 95.7523C183.41 95.4475 183.447 95.4325 181.159 95.4245C179.84 95.4195 178.4 95.4967 177.961 95.5959ZM184.657 95.611C185.262 95.7022 186.251 95.7022 186.856 95.611C187.46 95.5187 186.966 95.4435 185.756 95.4435C184.547 95.4435 184.052 95.5187 184.657 95.611ZM190.554 96.3428C193.316 97.0346 193.969 97.0276 192.153 96.3258C191.383 96.028 190.214 95.7864 189.554 95.7884C188.7 95.7914 188.988 95.9508 190.554 96.3428ZM353.862 96.9273C354.203 97.589 354.573 98.1304 354.683 98.1304C354.793 98.1304 354.603 97.589 354.262 96.9273C353.921 96.2656 353.552 95.7242 353.442 95.7242C353.332 95.7242 353.522 96.2656 353.862 96.9273ZM170.665 98.357C168.337 99.7566 168.508 100.031 170.865 98.6778C173.135 97.3735 173.198 97.3274 172.731 97.3324C172.529 97.3344 171.599 97.7956 170.665 98.357ZM119.593 100.387C117.048 102.785 117.813 102.391 120.825 99.7546C121.936 98.7811 122.832 97.7124 122.516 97.7404C122.448 97.7464 121.132 98.9375 119.593 100.387ZM195.784 97.8577C196.419 98.346 198.949 99.6704 198.949 99.515C198.949 99.2463 196.432 97.7324 195.984 97.7304C195.783 97.7304 195.693 97.7865 195.784 97.8577ZM252.251 101.333C250.235 102.865 248.448 104.34 248.281 104.611C248.011 105.052 254.251 100.388 255.703 99.0648C257.083 97.8076 255.662 98.741 252.251 101.333ZM165.006 102.843C162.455 105.43 158.72 110.963 159.524 110.963C159.634 110.963 160.311 109.836 161.027 108.457C161.848 106.879 163.493 104.799 165.467 102.843C167.193 101.133 168.484 99.7346 168.337 99.7346C168.189 99.7346 166.691 101.133 165.006 102.843ZM200.148 100.282C200.148 100.392 200.688 100.867 201.348 101.339C202.007 101.81 202.547 102.105 202.547 101.994C202.547 101.884 202.007 101.409 201.348 100.938C200.688 100.466 200.148 100.172 200.148 100.282ZM357.707 104.031C358.871 106.283 359.896 108.052 359.987 107.961C360.173 107.774 356.597 100.963 355.985 100.336C355.769 100.116 356.545 101.778 357.707 104.031ZM292.273 111.966C292.273 118.142 292.329 120.612 292.396 117.456C292.464 114.299 292.464 109.246 292.396 106.227C292.328 103.207 292.273 105.79 292.273 111.966ZM275.807 102.742C275.811 103.625 275.893 103.938 275.989 103.439C276.085 102.941 276.081 102.219 275.981 101.835C275.881 101.452 275.802 101.86 275.807 102.742ZM206.999 106.178C210.617 109.822 212.327 111.849 215.452 116.191L216.162 117.179L215.698 116.177C214.638 113.893 207.468 105.665 204.441 103.26C203.564 102.564 204.716 103.877 206.999 106.178ZM112.197 106.661C111.208 107.594 109.229 109.414 107.8 110.707C106.371 112 105.921 112.512 106.8 111.847C108.583 110.496 114.509 104.991 114.196 104.976C114.086 104.971 113.187 105.729 112.197 106.661ZM244.75 107.543C243.306 108.97 242.126 110.459 242.126 110.851C242.128 111.347 242.36 111.183 242.89 110.311C243.309 109.621 244.613 108.132 245.787 107.003C246.961 105.873 247.799 104.949 247.649 104.948C247.499 104.948 246.195 106.116 244.75 107.543ZM275.443 109.56C275.445 111.324 275.515 111.996 275.599 111.053C275.684 110.11 275.683 108.667 275.597 107.844C275.511 107.023 275.442 107.795 275.443 109.56ZM361.294 111.565C361.294 111.786 361.728 112.778 362.258 113.771C362.787 114.763 363.221 115.395 363.221 115.174C363.221 114.954 362.787 113.961 362.258 112.969C361.728 111.976 361.294 111.344 361.294 111.565ZM158.449 112.868C158.013 113.638 156.921 117.425 157.039 117.759C157.112 117.965 157.555 116.883 158.022 115.351C158.787 112.844 158.929 112.019 158.449 112.868ZM242.192 113.169C242.186 114.023 243.216 117.457 243.274 116.778C243.293 116.558 243.058 115.475 242.752 114.372C242.447 113.269 242.194 112.728 242.192 113.169ZM96.6061 120.229C92.0986 124.19 87.9609 127.908 87.4112 128.49C86.8615 129.073 88.4806 127.762 91.0092 125.577C102.42 115.717 105.606 112.836 104.925 112.998C104.857 113.014 101.114 116.268 96.6061 120.229ZM274.767 125.694C274.625 131.819 274.444 145.582 274.366 156.28C274.288 166.977 274.276 173.203 274.339 170.116C275.166 129.487 275.401 114.935 275.23 114.764C275.117 114.651 274.91 119.57 274.767 125.694ZM363.299 115.976C363.303 116.197 363.743 117.28 364.277 118.383C364.81 119.485 365.136 119.937 365.001 119.385C364.718 118.236 363.289 115.372 363.299 115.976ZM216.503 117.981C217.197 119.342 217.725 120.009 217.732 119.529C217.735 119.279 217.369 118.647 216.916 118.126C216.27 117.382 216.181 117.351 216.503 117.981ZM219.419 123.587C219.896 124.574 220.356 125.314 220.44 125.23C220.621 125.049 219.006 121.791 218.735 121.791C218.632 121.791 218.94 122.599 219.419 123.587ZM244.563 121.949C244.502 122.509 246.161 127.903 246.339 127.723C246.427 127.634 246.073 126.219 245.551 124.576C245.029 122.934 244.584 121.752 244.563 121.949ZM10.2983 126.659C9.83451 128.037 9.46772 129.356 9.48471 129.589C9.5007 129.822 9.94945 128.763 10.4811 127.235C11.0129 125.708 11.3796 124.39 11.2947 124.306C11.2107 124.222 10.763 125.28 10.2983 126.659ZM155.867 129.01C155.867 131.767 155.99 134.564 156.14 135.226C156.289 135.888 156.348 133.902 156.269 130.814C156.085 123.568 155.866 122.584 155.867 129.01ZM292.539 133.053C292.563 136.895 292.711 141.662 292.868 143.647C293.025 145.633 293.071 142.565 292.97 136.83C292.87 131.095 292.722 126.328 292.642 126.236C292.562 126.144 292.516 129.212 292.539 133.053ZM221.358 128.007C221.352 128.228 221.71 129.491 222.153 130.814C222.741 132.574 222.896 132.818 222.729 131.722C222.508 130.265 221.377 127.203 221.358 128.007ZM82.9057 132.334C79.1288 135.849 79.0459 136.253 82.1142 136.154L84.4129 136.08L82.3141 135.933C79.6645 135.747 79.6335 135.856 83.3135 132.377C85.0175 130.766 86.3218 129.447 86.2119 129.446C86.1019 129.444 84.6138 130.744 82.9057 132.334ZM369.067 131.661C369.604 133.877 370.431 136.055 370.193 134.624C370.064 133.852 369.713 132.679 369.411 132.018C369.109 131.356 368.955 131.195 369.067 131.661ZM7.7007 134.875C7.3459 135.919 7.06905 136.965 7.08504 137.202C7.10104 137.438 7.46083 136.653 7.8836 135.458C8.30636 134.263 8.58321 133.216 8.49926 133.13C8.4143 133.046 8.0555 133.83 7.7007 134.875ZM247.913 139.808C247.918 142.989 248.036 145.064 248.174 144.419C248.525 142.79 248.533 137.559 248.189 135.627C248.015 134.65 247.907 136.285 247.913 139.808ZM107.999 136.624L131.585 136.83L132.065 139.437L132.546 142.043L132.328 139.637C131.99 135.918 134.196 136.216 107.851 136.324L84.4129 136.419L107.999 136.624ZM5.66784 142.455C5.29405 144.139 5.06517 145.594 5.16012 145.689C5.25407 145.784 5.63386 144.481 6.00365 142.792C6.37344 141.105 6.60231 139.649 6.51137 139.559C6.42042 139.468 6.04063 140.771 5.66784 142.455ZM157.003 139.776C156.962 140.497 158.204 144.751 158.399 144.556C158.483 144.472 158.21 143.24 157.793 141.82C157.375 140.398 157.019 139.479 157.003 139.776ZM224.335 146.436C224.335 150.371 224.46 152.886 224.612 152.027C224.95 150.112 224.934 142.082 224.588 140.462C224.449 139.813 224.335 142.501 224.335 146.436ZM371.902 141.442C372.042 142.214 372.313 143.206 372.506 143.647C372.746 144.198 372.776 144.009 372.602 143.046C372.462 142.274 372.191 141.281 371.998 140.84C371.758 140.29 371.728 140.478 371.902 141.442ZM159.771 148.807C159.771 149.284 160.918 151.869 161.129 151.869C161.239 151.869 161.049 151.192 160.708 150.365C160.067 148.812 159.771 148.32 159.771 148.807ZM293.43 151.869C293.43 153.523 293.501 154.2 293.587 153.372C293.674 152.545 293.674 151.192 293.587 150.365C293.501 149.538 293.43 150.214 293.43 151.869ZM134.446 151.067C134.902 152.873 135.836 155.08 135.568 153.717C135.443 153.08 135.083 151.997 134.767 151.311C134.336 150.373 134.256 150.313 134.446 151.067ZM374.146 151.067C374.146 151.618 374.283 152.611 374.451 153.272C374.723 154.345 374.756 154.367 374.756 153.473C374.756 152.921 374.619 151.929 374.451 151.267C374.179 150.194 374.146 150.172 374.146 151.067ZM3.05829 154.275C2.79344 155.848 2.65852 157.216 2.75846 157.316C2.85741 157.415 3.15124 156.206 3.4111 154.629C3.67095 153.051 3.80588 151.683 3.71093 151.588C3.61698 151.493 3.32315 152.702 3.05829 154.275ZM161.37 152.417C161.37 152.851 163.357 156.681 163.582 156.681C163.692 156.681 163.308 155.734 162.728 154.576C161.613 152.349 161.37 151.963 161.37 152.417ZM244.588 154.091C243.919 155.566 244.047 155.881 244.77 154.54C245.109 153.914 245.311 153.326 245.219 153.235C245.128 153.143 244.844 153.529 244.588 154.091ZM293.805 157.884C293.805 158.877 293.883 159.283 293.978 158.786C294.074 158.29 294.074 157.478 293.978 156.982C293.883 156.485 293.805 156.892 293.805 157.884ZM242.725 157.884C242.384 158.546 242.194 159.087 242.304 159.087C242.414 159.087 242.783 158.546 243.124 157.884C243.465 157.222 243.655 156.681 243.545 156.681C243.435 156.681 243.065 157.222 242.725 157.884ZM136.612 157.283C136.612 157.503 136.87 158.135 137.183 158.686C137.497 159.238 137.755 159.508 137.755 159.288C137.755 159.067 137.497 158.435 137.183 157.884C136.87 157.333 136.612 157.062 136.612 157.283ZM222.218 161.126C221.933 162.1 221.618 163.168 221.519 163.499C221.42 163.829 221.709 163.323 222.162 162.373C222.615 161.423 222.93 160.355 222.861 160.001C222.792 159.646 222.503 160.152 222.218 161.126ZM166.405 161.419C168.998 165.945 177.621 174.432 182.158 176.922C183.275 177.535 182.017 176.512 179.36 174.645C176.358 172.536 170.691 166.769 167.968 163.052C165.733 160.002 165.383 159.636 166.405 161.419ZM239.898 162.195C239.28 163.022 237.415 165.155 235.752 166.934L232.73 170.17L236.139 166.734C239.202 163.647 241.678 160.691 241.2 160.691C241.101 160.691 240.516 161.368 239.898 162.195ZM376.143 163.097C376.143 163.869 376.225 164.185 376.326 163.799C376.426 163.413 376.426 162.782 376.326 162.396C376.225 162.01 376.143 162.325 376.143 163.097ZM220.768 165.005C220.635 165.426 219.898 166.838 219.131 168.143C218.364 169.449 218.115 170.067 218.579 169.518C219.605 168.301 221.463 164.696 221.2 164.431C221.096 164.326 220.901 164.584 220.768 165.005ZM376.737 168.511C376.857 170.717 377.021 172.597 377.102 172.689C377.38 173.004 377.19 168.11 376.855 166.306C376.625 165.073 376.588 165.77 376.737 168.511ZM142.197 167.672C142.948 168.721 143.736 169.687 143.947 169.818C144.158 169.948 143.715 169.197 142.964 168.147C142.213 167.099 141.425 166.132 141.214 166.002C141.003 165.872 141.446 166.623 142.197 167.672ZM294.24 169.915C294.24 172.01 294.308 172.868 294.39 171.82C294.472 170.772 294.472 169.058 294.39 168.01C294.308 166.962 294.24 167.82 294.24 169.915ZM0.911492 169.414C0.779565 170.02 0.59067 173.314 0.492725 176.733L0.313825 182.949L0.650637 177.535C0.835534 174.557 1.09939 171.263 1.23731 170.216C1.50816 168.147 1.30027 167.634 0.911492 169.414ZM146.552 172.817C147.966 174.293 149.945 176.06 150.95 176.744C152.529 177.82 152.587 177.836 151.375 176.863C150.606 176.244 148.627 174.479 146.978 172.938L143.98 170.137L146.552 172.817ZM230.706 171.619L229.532 172.923L230.831 171.745C231.546 171.097 232.13 170.511 232.13 170.441C232.13 170.132 231.801 170.404 230.706 171.619ZM215.981 172.719C213.345 176.187 209.516 178.978 205.176 180.597C203.84 181.096 203.131 181.513 203.6 181.524C206.435 181.593 215.452 175.056 217.301 171.591C218.041 170.203 217.621 170.562 215.981 172.719ZM228.029 173.741C227.426 174.301 226.933 174.877 226.933 175.019C226.933 175.161 227.473 174.759 228.133 174.126C229.235 173.067 229.504 172.722 229.228 172.722C229.171 172.722 228.631 173.18 228.029 173.741ZM377.38 175.73C377.382 177.274 377.454 177.856 377.541 177.024C377.628 176.192 377.626 174.929 377.538 174.217C377.449 173.505 377.378 174.186 377.38 175.73ZM222.863 178.237C219.592 181.119 218.146 182.734 217.387 184.352L216.916 185.355L217.591 184.352C217.961 183.801 220.042 181.59 222.214 179.439C224.386 177.289 226.111 175.529 226.048 175.53C225.985 175.53 224.552 176.749 222.863 178.237ZM183.757 177.733C183.757 178.003 187.804 180.025 187.984 179.846C188.066 179.763 187.149 179.212 185.945 178.619C184.742 178.028 183.757 177.629 183.757 177.733ZM153.15 178.296C153.271 178.494 154.013 179.036 154.797 179.5C155.58 179.964 156.121 180.18 155.998 179.982C155.876 179.783 155.134 179.241 154.351 178.778C153.567 178.314 153.027 178.097 153.15 178.296ZM274.627 179.941C274.627 181.154 274.702 181.65 274.794 181.044C274.885 180.437 274.885 179.445 274.794 178.838C274.702 178.231 274.627 178.728 274.627 179.941ZM377.821 188.563C377.821 193.636 377.878 195.656 377.948 193.051C378.018 190.448 378.017 186.297 377.947 183.828C377.877 181.359 377.82 183.49 377.821 188.563ZM191.553 181.144C191.993 181.333 192.712 181.483 193.152 181.477C193.795 181.468 193.756 181.402 192.952 181.144C191.585 180.705 190.535 180.705 191.553 181.144ZM161.805 182.886C162.132 183.256 167.865 185.188 168.059 184.994C168.146 184.907 166.992 184.429 165.494 183.934C163.994 183.438 162.499 182.939 162.169 182.826C161.84 182.713 161.676 182.74 161.805 182.886ZM178.86 187.442C179.355 187.538 180.164 187.538 180.659 187.442C181.154 187.347 180.749 187.269 179.76 187.269C178.77 187.269 178.365 187.347 178.86 187.442ZM215.386 188.402C215.141 189.107 214.953 189.884 214.968 190.127C214.984 190.37 215.254 189.862 215.57 188.999C215.884 188.136 216.072 187.36 215.987 187.275C215.901 187.188 215.632 187.696 215.386 188.402ZM276.752 188.178C277.119 188.738 277.798 189.393 278.262 189.632C278.827 189.924 278.651 189.59 277.727 188.613C276.103 186.9 275.841 186.782 276.752 188.178ZM182.863 187.844C183.36 187.94 184.079 187.936 184.462 187.836C184.844 187.736 184.437 187.657 183.558 187.662C182.678 187.666 182.365 187.748 182.863 187.844ZM189.924 188.721C190.348 188.888 190.829 189.371 190.995 189.796C191.278 190.519 191.299 190.514 191.325 189.709C191.352 188.889 190.629 188.329 189.621 188.391C189.364 188.407 189.501 188.555 189.924 188.721ZM290.293 189.171C289.891 189.615 289.009 190.14 288.332 190.338C287.35 190.623 287.281 190.703 287.993 190.733C288.484 190.753 289.473 190.232 290.192 189.578C290.91 188.922 291.39 188.38 291.259 188.374C291.128 188.367 290.694 188.726 290.293 189.171ZM0 191.972C0 193.847 0.0689623 194.614 0.152915 193.676C0.236869 192.739 0.236869 191.205 0.152915 190.267C0.0689623 189.33 0 190.097 0 191.972ZM190.161 192.234C189.913 193.083 189.637 194.859 189.549 196.183L189.387 198.589L189.76 196.254C189.965 194.969 190.312 193.265 190.532 192.466C190.752 191.668 190.859 190.942 190.771 190.854C190.684 190.766 190.409 191.387 190.161 192.234ZM214.668 193.175C214.668 194.608 214.741 195.195 214.829 194.478C214.918 193.761 214.918 192.588 214.829 191.871C214.741 191.155 214.668 191.741 214.668 193.175ZM214.967 196.423C214.936 197.162 215.764 199.701 215.968 199.495C216.043 199.42 215.854 198.554 215.549 197.57C215.244 196.587 214.981 196.07 214.967 196.423ZM0.390783 199.391C0.392781 200.935 0.464741 201.517 0.551692 200.685C0.638644 199.853 0.636645 198.59 0.548694 197.878C0.459744 197.166 0.388784 197.847 0.390783 199.391ZM189.441 202.8C189.437 203.351 189.578 204.253 189.754 204.805C190.185 206.152 190.185 204.696 189.754 203C189.48 201.919 189.448 201.899 189.441 202.8ZM377.137 205.573C376.979 207.65 376.923 209.423 377.013 209.513C377.259 209.76 377.749 203.917 377.576 202.785C377.493 202.241 377.296 203.496 377.137 205.573ZM0.779566 204.404C0.779566 205.617 0.854523 206.113 0.946472 205.507C1.03742 204.9 1.03742 203.907 0.946472 203.301C0.854523 202.694 0.779566 203.191 0.779566 204.404ZM217.751 203.139C218.003 203.658 219.407 205.296 220.872 206.781C223.453 209.397 223.467 209.405 221.323 207.042C220.107 205.701 218.703 204.063 218.203 203.401C217.558 202.546 217.427 202.471 217.751 203.139ZM1.17335 209.016C1.17634 210.118 1.2543 210.522 1.34625 209.913C1.4382 209.302 1.4362 208.4 1.34125 207.908C1.2463 207.414 1.17035 207.913 1.17335 209.016ZM191.376 209.743C191.342 210.233 193.037 214.077 193.211 213.902C193.294 213.82 192.92 212.776 192.381 211.584C191.841 210.392 191.389 209.564 191.376 209.743ZM224.535 210.143C224.535 210.213 225.119 210.799 225.834 211.447L227.133 212.625L225.959 211.321C224.864 210.106 224.535 209.834 224.535 210.143ZM1.55213 212.825C1.55213 213.597 1.63409 213.913 1.73503 213.527C1.83498 213.141 1.83498 212.51 1.73503 212.124C1.63409 211.738 1.55213 212.053 1.55213 212.825ZM227.342 212.718C227.346 212.887 228.021 213.508 228.841 214.098C229.661 214.687 231.141 215.755 232.13 216.471C234.657 218.298 233.269 216.991 230.032 214.493C228.547 213.348 227.337 212.55 227.342 212.718ZM194.537 216.809C194.978 217.676 195.512 218.492 195.722 218.622C195.933 218.753 195.65 218.044 195.094 217.045C193.853 214.817 193.434 214.639 194.537 216.809ZM196.369 219.743C196.601 220.353 196.354 220.454 194.494 220.517L192.353 220.589L194.308 220.742C196.439 220.908 197.449 220.382 196.606 219.543C196.202 219.141 196.156 219.181 196.369 219.743ZM237.328 220.172C237.328 220.297 238.452 221.262 239.826 222.319C241.2 223.375 243.134 224.964 244.124 225.849C245.113 226.733 245.563 227.03 245.123 226.508C244.683 225.985 242.974 224.466 241.325 223.131C237.456 219.999 237.328 219.904 237.328 220.172ZM184.757 221.247L181.958 221.507L184.357 221.531C185.676 221.544 187.925 221.422 189.354 221.261L191.953 220.968L189.754 220.978C188.545 220.983 186.296 221.105 184.757 221.247ZM179.26 221.931C179.755 222.027 180.564 222.027 181.059 221.931C181.554 221.835 181.149 221.757 180.159 221.757C179.17 221.757 178.765 221.835 179.26 221.931ZM374.713 223.152C374.03 227.419 374.026 227.472 374.39 226.661C374.806 225.734 375.416 221.648 375.14 221.648C375.037 221.648 374.845 222.325 374.713 223.152ZM166.367 223.845C165.268 224.128 164.728 224.364 165.168 224.369C165.608 224.374 166.867 224.146 167.966 223.863C169.066 223.579 169.605 223.343 169.166 223.338C168.726 223.333 167.467 223.561 166.367 223.845ZM157.572 226.059C157.068 226.277 156.994 226.404 157.372 226.404C157.702 226.404 158.332 226.249 158.771 226.059C159.275 225.842 159.349 225.714 158.971 225.714C158.641 225.714 158.012 225.87 157.572 226.059ZM151.051 228.338C150.102 228.675 149.398 229.021 149.484 229.108C149.666 229.291 153.374 228.07 153.374 227.826C153.374 227.575 152.92 227.676 151.051 228.338ZM186.456 228.347C186.951 228.443 187.76 228.443 188.255 228.347C188.75 228.252 188.345 228.174 187.355 228.174C186.366 228.174 185.961 228.252 186.456 228.347ZM196.65 228.341C197.035 228.441 197.665 228.441 198.049 228.341C198.434 228.24 198.119 228.158 197.35 228.158C196.58 228.158 196.265 228.24 196.65 228.341ZM247.722 229.468C248.467 230.24 249.168 230.872 249.278 230.872C249.388 230.872 248.867 230.24 248.122 229.468C247.376 228.696 246.675 228.065 246.565 228.065C246.455 228.065 246.976 228.696 247.722 229.468ZM175.433 229.738C173.603 230.183 172.183 230.623 172.275 230.716C172.368 230.81 173.955 230.532 175.802 230.1C177.649 229.667 179.7 229.24 180.359 229.15C181.482 228.997 181.469 228.985 180.159 228.958C179.39 228.941 177.263 229.293 175.433 229.738ZM205.345 229.669C206.713 230.108 207.763 230.108 206.745 229.669C206.305 229.479 205.585 229.33 205.145 229.336C204.503 229.345 204.542 229.411 205.345 229.669ZM145.279 230.899C144.454 231.336 143.78 231.782 143.78 231.892C143.78 232.071 146.937 230.59 147.345 230.221C147.804 229.803 146.603 230.198 145.279 230.899ZM214.092 232.284C215.275 232.847 216.317 233.234 216.407 233.143C216.498 233.051 215.801 232.664 214.857 232.281C212.122 231.173 211.759 231.174 214.092 232.284ZM250.305 232.777C250.922 233.714 251.503 234.481 251.596 234.481C251.883 234.481 250.353 232.041 249.753 231.542C249.441 231.284 249.689 231.839 250.305 232.777ZM5.31503 233.879C5.44896 234.762 5.7238 235.754 5.92569 236.085C6.16356 236.477 6.19754 236.198 6.02264 235.283C5.60987 233.132 5.0232 231.968 5.31503 233.879ZM216.939 233.462C216.939 233.573 217.659 234.031 218.538 234.481C219.418 234.931 220.137 235.209 220.137 235.099C220.137 234.988 219.418 234.53 218.538 234.08C217.659 233.63 216.939 233.352 216.939 233.462ZM161.77 234.682C160.78 235.213 160.151 235.648 160.37 235.648C160.59 235.648 161.58 235.213 162.569 234.682C163.559 234.15 164.188 233.715 163.968 233.715C163.749 233.715 162.759 234.15 161.77 234.682ZM252.319 236.085C252.66 236.747 253.03 237.288 253.14 237.288C253.25 237.288 253.06 236.747 252.719 236.085C252.378 235.423 252.008 234.882 251.898 234.882C251.788 234.882 251.978 235.423 252.319 236.085ZM136.784 236.321L135.584 237.354L136.884 236.492C137.598 236.018 138.183 235.552 138.183 235.457C138.183 235.156 138.014 235.261 136.784 236.321ZM221.89 236.177C222.305 236.457 224.008 237.654 225.674 238.836C227.34 240.018 228.446 240.676 228.134 240.298C227.485 239.514 223.633 236.842 222.136 236.138C221.295 235.742 221.256 235.748 221.89 236.177ZM157.472 236.933C156.11 237.809 155.668 238.397 156.872 237.732C157.79 237.227 159.227 236.112 158.971 236.104C158.861 236.101 158.187 236.474 157.472 236.933ZM371.315 238.152C371.053 239.287 370.912 240.289 371.001 240.377C371.09 240.466 371.383 239.618 371.653 238.491C371.922 237.364 372.063 236.363 371.965 236.266C371.868 236.168 371.576 237.018 371.315 238.152ZM154.159 239.322L152.775 240.555L154.274 239.475C155.599 238.521 156.03 238.09 155.658 238.09C155.595 238.09 154.921 238.645 154.159 239.322ZM130.768 241.399C129.23 242.998 127.44 244.938 126.79 245.71L125.608 247.113L126.824 245.91C129.116 243.644 133.92 238.491 133.743 238.491C133.645 238.491 132.307 239.8 130.768 241.399ZM149.793 243.003C148.429 244.381 147.126 245.87 146.897 246.311C146.668 246.753 146.647 246.933 146.851 246.712C147.055 246.492 148.456 245.003 149.964 243.404C153.323 239.842 153.202 239.556 149.793 243.003ZM370.282 241.929C370.134 242.517 370.091 243.075 370.185 243.169C370.28 243.264 370.477 242.861 370.624 242.272C370.772 241.685 370.815 241.126 370.721 241.032C370.626 240.938 370.429 241.341 370.282 241.929ZM7.51181 241.7C7.51181 242.03 7.66672 242.662 7.85561 243.103C8.07249 243.608 8.19942 243.683 8.19942 243.304C8.19942 242.973 8.04451 242.341 7.85561 241.9C7.63874 241.395 7.51181 241.321 7.51181 241.7ZM231.958 244.106C233.5 245.76 235.172 247.655 235.672 248.317L236.585 249.52L235.876 248.226C235.488 247.516 233.815 245.621 232.161 244.016L229.154 241.098L231.958 244.106ZM369.454 244.507C369.304 244.981 369.271 245.459 369.381 245.57C369.491 245.68 369.704 245.382 369.854 244.908C370.003 244.434 370.036 243.955 369.926 243.845C369.817 243.735 369.604 244.033 369.454 244.507ZM368.683 247.143C368.535 247.73 368.492 248.288 368.586 248.383C368.681 248.477 368.878 248.074 369.025 247.485C369.173 246.898 369.216 246.339 369.122 246.245C369.027 246.151 368.83 246.554 368.683 247.143ZM145.579 248.517C145.238 249.179 145.048 249.72 145.158 249.72C145.268 249.72 145.638 249.179 145.979 248.517C146.319 247.855 146.509 247.314 146.399 247.314C146.289 247.314 145.92 247.855 145.579 248.517ZM9.70858 248.918C9.84351 249.47 10.1993 250.462 10.4991 251.124C10.9379 252.09 10.9969 252.129 10.8 251.324C10.665 250.773 10.3092 249.78 10.0094 249.119C9.57066 248.152 9.51169 248.113 9.70858 248.918ZM367.302 251.371C366.839 252.746 366.529 253.939 366.613 254.023C366.698 254.107 367.145 253.052 367.608 251.678C368.071 250.304 368.38 249.111 368.296 249.026C368.211 248.942 367.765 249.998 367.302 251.371ZM121.992 252.527C121.651 253.189 121.461 253.731 121.571 253.731C121.681 253.731 122.051 253.189 122.392 252.527C122.732 251.866 122.922 251.324 122.812 251.324C122.703 251.324 122.333 251.866 121.992 252.527ZM257.896 260.749C257.897 267.51 257.933 267.936 258.219 264.535C258.396 262.427 258.396 258.998 258.218 256.916C257.933 253.574 257.895 254.025 257.896 260.749ZM142.626 254.973C142.382 255.679 142.194 256.456 142.209 256.698C142.225 256.941 142.494 256.433 142.81 255.57C143.125 254.707 143.313 253.931 143.228 253.846C143.142 253.76 142.872 254.267 142.626 254.973ZM238.949 255.335C238.943 255.445 239.3 256.618 239.743 257.941C240.391 259.879 240.499 260.037 240.301 258.751C240.1 257.446 238.985 254.628 238.949 255.335ZM119.574 256.976C119.222 257.659 119.006 258.287 119.093 258.374C119.179 258.462 119.549 257.903 119.915 257.134C120.737 255.405 120.452 255.272 119.574 256.976ZM12.2811 256.229C12.2352 256.703 13.5384 259.794 13.7103 259.621C13.7973 259.533 13.5185 258.668 13.0897 257.699C12.6609 256.729 12.2971 256.068 12.2811 256.229ZM117.23 262.653C117.087 263.15 116.9 266.263 116.812 269.571L116.654 275.587L116.974 269.956C117.15 266.859 117.42 263.746 117.576 263.038C117.895 261.579 117.623 261.277 117.23 262.653ZM14.6708 262.256C14.6398 262.766 16.3409 266.207 16.5298 266.017C16.6267 265.92 16.2519 264.965 15.6972 263.896C15.1425 262.827 14.6808 262.089 14.6708 262.256ZM241.018 263.756C241.018 264.528 241.1 264.844 241.201 264.458C241.301 264.072 241.301 263.44 241.201 263.054C241.1 262.668 241.018 262.984 241.018 263.756ZM361.711 265.414C361.238 266.556 360.917 267.558 360.997 267.638C361.078 267.719 361.531 266.85 362.005 265.708C362.478 264.565 362.799 263.564 362.719 263.484C362.638 263.402 362.185 264.272 361.711 265.414ZM17.0625 267.433C17.0415 267.896 18.6106 271.376 18.8405 271.376C18.9614 271.376 18.7975 270.746 18.4767 269.976C17.7931 268.335 17.0795 267.052 17.0625 267.433ZM19.8549 273.638C19.8519 273.888 20.2187 274.52 20.6715 275.041C21.3171 275.785 21.4061 275.816 21.0842 275.186C20.3906 273.825 19.8619 273.158 19.8549 273.638ZM142.599 274.877C142.575 275.493 143.83 278.679 144.02 278.487C144.098 278.41 143.813 277.454 143.389 276.365C142.965 275.275 142.609 274.605 142.599 274.877ZM239.745 277.088C237.562 284.41 231.39 291.254 222.536 296.169C219.302 297.964 218.963 298.459 222.049 296.879C227.141 294.274 232.729 289.666 235.739 285.591C238.009 282.52 240.997 276.126 240.43 275.558C240.333 275.46 240.025 276.149 239.745 277.088ZM21.448 276.342C21.448 276.772 22.6374 278.995 22.8682 278.995C22.9782 278.995 22.7703 278.409 22.4065 277.692C21.6649 276.228 21.448 275.924 21.448 276.342ZM354.462 280.199C354.013 281.081 353.737 281.803 353.846 281.803C353.956 281.803 354.413 281.081 354.862 280.199C355.311 279.316 355.588 278.594 355.478 278.594C355.368 278.594 354.911 279.316 354.462 280.199ZM23.6468 280.6C23.9876 281.261 24.3574 281.803 24.4673 281.803C24.5773 281.803 24.3874 281.261 24.0466 280.6C23.7058 279.938 23.336 279.397 23.226 279.397C23.1161 279.397 23.306 279.938 23.6468 280.6ZM145.837 282.102C146.325 283.039 147.166 284.212 147.707 284.709C148.432 285.376 148.334 285.129 147.334 283.766C146.588 282.75 145.747 281.577 145.464 281.159C145.181 280.741 145.349 281.165 145.837 282.102ZM352.502 283.631C352.04 284.416 351.844 284.947 352.065 284.809C352.499 284.541 353.796 282.204 353.513 282.204C353.419 282.204 352.964 282.846 352.502 283.631ZM25.6457 284.209C25.9865 284.871 26.3563 285.412 26.4662 285.412C26.5762 285.412 26.3863 284.871 26.0455 284.209C25.7047 283.547 25.3349 283.006 25.2249 283.006C25.115 283.006 25.3049 283.547 25.6457 284.209ZM119.796 284.409C121.165 286.742 122.949 289.349 123.343 289.593C123.699 289.813 119.623 283.476 119.135 283.05C118.981 282.916 119.278 283.527 119.796 284.409ZM250.062 286.9C249.35 287.939 248.133 289.519 247.359 290.409C246.018 291.953 246.012 291.975 247.22 290.867C248.47 289.721 251.965 285.011 251.565 285.011C251.451 285.011 250.775 285.861 250.062 286.9ZM26.9939 286.415C27.2098 286.856 27.6786 287.578 28.0374 288.019L28.688 288.821L28.2952 288.019C28.0793 287.578 27.6106 286.856 27.2518 286.415L26.6012 285.612L26.9939 286.415ZM150.576 287.974C152.688 290.203 156.473 293.167 158.571 294.236C160.092 295.01 159.385 294.423 156.701 292.683C155.369 291.819 152.952 289.884 151.329 288.383C148.472 285.74 148.448 285.727 150.576 287.974ZM350.157 287.552C349.724 288.288 349.054 289.416 348.67 290.059L347.971 291.227L348.798 290.224C349.744 289.078 351.408 286.214 351.129 286.214C351.027 286.214 350.589 286.817 350.157 287.552ZM30.1202 291.459C30.518 292.137 31.0986 292.904 31.4105 293.163C31.7223 293.422 31.4744 292.866 30.8578 291.929C29.5635 289.961 29.0528 289.635 30.1202 291.459ZM126.758 293.232C128.315 294.776 130.398 296.642 131.387 297.378C132.906 298.508 132.843 298.413 130.987 296.776C129.778 295.709 127.695 293.844 126.358 292.631C124.24 290.708 124.292 290.785 126.758 293.232ZM31.8422 293.993C31.8422 294.365 36.1198 300.304 37.649 302.055C38.9043 303.492 38.2467 302.443 36.0079 299.434C35.1114 298.229 33.8071 296.44 33.1095 295.459C32.4129 294.478 31.8422 293.819 31.8422 293.993ZM242.7 295.137L241.525 296.44L242.824 295.262C243.539 294.615 244.124 294.028 244.124 293.959C244.124 293.649 243.794 293.922 242.7 295.137ZM345.267 295.037C344.798 295.698 344.504 296.24 344.614 296.24C344.724 296.24 345.197 295.698 345.667 295.037C346.137 294.375 346.431 293.834 346.321 293.834C346.211 293.834 345.737 294.375 345.267 295.037ZM159.937 294.982C160.214 295.431 165.381 297.965 165.591 297.755C165.673 297.672 164.382 296.932 162.724 296.108C161.065 295.285 159.811 294.778 159.937 294.982ZM238.653 298.175C235.3 300.717 234.977 301.171 238.025 299.06C240.14 297.594 241.807 296.163 241.274 296.27C241.192 296.286 240.013 297.143 238.653 298.175ZM167.566 298.609C168.446 299.024 169.795 299.472 170.565 299.604C171.692 299.798 171.575 299.701 169.965 299.103C167.012 298.008 165.738 297.746 167.566 298.609ZM342.244 299.316C341.628 300.126 341.328 300.662 341.578 300.507C342.09 300.19 343.821 297.844 343.543 297.844C343.444 297.844 342.86 298.507 342.244 299.316ZM177.961 301.682C179.06 301.989 180.229 302.227 180.559 302.212C180.889 302.196 180.259 301.932 179.16 301.626C178.061 301.319 176.891 301.08 176.561 301.095C176.232 301.111 176.861 301.375 177.961 301.682ZM207.144 301.453C206.067 301.728 206.047 301.76 206.944 301.767C207.494 301.771 208.394 301.63 208.943 301.453C210.287 301.021 208.835 301.021 207.144 301.453ZM339.333 303.358C337.826 305.37 337.79 305.46 339.054 304.06C340.383 302.586 341.467 301.052 341.179 301.052C341.113 301.052 340.282 302.09 339.333 303.358ZM200.148 302.255L197.55 302.518L199.748 302.552C200.958 302.571 202.847 302.446 203.946 302.273C206.57 301.864 204.139 301.852 200.148 302.255ZM232.03 302.485C230.536 303.298 230.627 303.637 232.13 302.857C232.79 302.515 233.33 302.149 233.33 302.045C233.33 301.786 233.287 301.801 232.03 302.485ZM186.238 302.953C187.713 303.03 190.232 303.03 191.835 302.954C193.439 302.878 192.233 302.815 189.154 302.815C186.076 302.814 184.764 302.876 186.238 302.953ZM39.6669 304.962C47.9302 316.027 65.3685 333.265 75.0521 339.942C77.2209 341.438 75.9496 340.304 71.4591 336.736C60.991 328.42 48.9187 316.273 40.8762 305.965C38.7764 303.274 37.8029 302.467 39.6669 304.962ZM141.381 303.657C141.381 303.927 145.428 305.949 145.608 305.769C145.69 305.687 144.772 305.136 143.569 304.543C142.366 303.952 141.381 303.553 141.381 303.657ZM220.337 307.683C219.338 308.166 219.304 308.222 220.137 308.018C221.269 307.74 222.543 307.089 221.936 307.098C221.716 307.101 220.997 307.364 220.337 307.683ZM155.787 309.652C156.565 309.939 157.824 310.283 158.585 310.415C159.347 310.549 158.891 310.303 157.572 309.87C154.907 308.997 153.572 308.833 155.787 309.652ZM212.815 309.699C210.131 310.434 209.661 310.694 211.542 310.403C213.241 310.142 216.353 309.115 215.34 309.151C215.01 309.163 213.874 309.41 212.815 309.699ZM169.365 312.699C170.575 312.867 172.284 312.996 173.163 312.987C174.546 312.973 174.464 312.929 172.564 312.665C171.354 312.498 169.645 312.368 168.766 312.377C167.384 312.391 167.466 312.435 169.365 312.699ZM198.249 312.569C198.854 312.66 199.843 312.66 200.448 312.569C201.053 312.477 200.558 312.401 199.349 312.401C198.139 312.401 197.645 312.477 198.249 312.569ZM193.659 312.973C194.377 313.062 195.457 313.06 196.058 312.969C196.658 312.878 196.071 312.804 194.751 312.806C193.432 312.808 192.94 312.884 193.659 312.973ZM330.257 314.386L328.677 316.091L330.376 314.506C331.956 313.031 332.259 312.682 331.956 312.682C331.891 312.682 331.126 313.449 330.257 314.386ZM179.681 313.383C181.946 313.454 185.544 313.454 187.676 313.382C189.809 313.31 187.955 313.252 183.558 313.252C179.16 313.252 177.416 313.311 179.681 313.383ZM322.475 322.596C319.29 325.842 318.032 327.241 319.682 325.704C322.865 322.736 328.741 316.692 328.444 316.692C328.347 316.692 325.66 319.348 322.475 322.596ZM315.059 329.626L313.885 330.929L315.184 329.751C315.899 329.103 316.483 328.517 316.483 328.448C316.483 328.138 316.154 328.411 315.059 329.626ZM310.687 333.389L308.288 335.619L310.559 333.876C311.808 332.916 312.927 331.907 313.045 331.631C313.351 330.917 313.334 330.929 310.687 333.389ZM305.889 337.39L304.29 338.825L305.989 337.55C307.451 336.453 307.979 335.925 307.588 335.948C307.533 335.951 306.769 336.6 305.889 337.39ZM302.256 340.084C298.562 342.96 298.397 343.123 300.708 341.613C302.036 340.746 303.363 339.747 303.656 339.393C304.403 338.489 304.13 338.624 302.256 340.084ZM76.7612 341.064C77.077 341.577 79.4157 343.314 79.4157 343.035C79.4157 342.936 78.755 342.349 77.9485 341.732C77.1409 341.114 76.6062 340.813 76.7612 341.064ZM80.7089 344.053C81.8963 345.065 84.213 346.516 84.213 346.247C84.213 346.156 83.1786 345.415 81.9143 344.601C80.65 343.787 80.1073 343.54 80.7089 344.053ZM296.195 344.404C295.26 345.067 294.496 345.7 294.496 345.808C294.496 345.918 295.305 345.447 296.295 344.765C297.284 344.082 298.094 343.441 298.094 343.342C298.094 343.065 298.018 343.108 296.195 344.404ZM292.578 346.942C290.721 348.259 290.46 348.636 292.028 347.734C292.76 347.314 293.546 346.745 293.776 346.469C294.367 345.76 294.089 345.869 292.578 346.942ZM288.118 349.787C286.919 350.554 286.093 351.181 286.284 351.181C286.674 351.181 290.498 348.778 290.498 348.532C290.498 348.278 290.404 348.327 288.118 349.787ZM90.2096 350.108C90.2096 350.355 93.091 352.197 94.0075 352.537C94.4873 352.714 94.6472 352.689 94.4073 352.474C93.8266 351.953 90.2096 349.915 90.2096 350.108ZM278.305 355.403C275.666 356.824 273.671 357.989 273.872 357.993C274.313 358 282.543 353.675 283.082 353.153C283.748 352.508 283.205 352.764 278.305 355.403ZM97.8054 354.53C97.8054 354.795 104.685 358.45 104.857 358.276C104.933 358.2 103.378 357.282 101.4 356.236C99.4235 355.19 97.8054 354.422 97.8054 354.53ZM105.401 358.596C105.401 358.871 107.849 360.088 108.032 359.904C108.119 359.817 107.562 359.446 106.795 359.079C106.029 358.712 105.401 358.495 105.401 358.596ZM270.909 359.202C270.139 359.625 269.653 359.978 269.829 359.987C270.253 360.009 272.508 358.833 272.508 358.59C272.508 358.327 272.485 358.336 270.909 359.202ZM264.312 362.2C263.213 362.72 262.493 363.149 262.713 363.154C262.933 363.159 264.013 362.738 265.112 362.218C266.211 361.699 266.931 361.27 266.711 361.265C266.491 361.26 265.412 361.681 264.312 362.2ZM113.397 362.41C114.166 362.833 114.976 363.178 115.196 363.178C115.416 363.178 114.966 362.833 114.196 362.41C113.427 361.987 112.617 361.642 112.397 361.642C112.177 361.642 112.627 361.987 113.397 362.41ZM115.795 363.327C115.795 363.604 121.051 365.692 121.249 365.494C121.336 365.407 120.461 364.965 119.301 364.512C118.143 364.061 116.88 363.564 116.495 363.409C116.11 363.253 115.795 363.217 115.795 363.327ZM258.516 364.616C257.966 364.93 257.696 365.189 257.916 365.189C258.136 365.189 258.766 364.93 259.315 364.616C259.865 364.301 260.135 364.042 259.915 364.042C259.695 364.042 259.065 364.301 258.516 364.616ZM252.994 366.694C252.045 367.031 251.341 367.377 251.427 367.464C251.61 367.646 255.317 366.425 255.317 366.182C255.317 365.931 254.863 366.031 252.994 366.694ZM124.59 366.754C124.92 366.958 125.64 367.246 126.19 367.394C126.884 367.58 127.006 367.548 126.589 367.289C126.26 367.086 125.54 366.797 124.99 366.65C124.296 366.463 124.174 366.495 124.59 366.754ZM131.986 369.385C132.646 369.688 133.815 370.041 134.585 370.17C135.794 370.372 135.746 370.325 134.229 369.825C131.591 368.954 130.642 368.768 131.986 369.385ZM245.723 369.227C244.899 369.492 244.864 369.554 245.523 369.582C245.963 369.601 246.592 369.441 246.922 369.227C247.623 368.773 247.136 368.773 245.723 369.227ZM237.328 371.634C235.898 372.032 235.089 372.374 235.529 372.392C235.968 372.41 237.407 372.083 238.727 371.665C241.776 370.698 240.763 370.676 237.328 371.634ZM140.673 371.859C140.979 372.166 145.032 373.234 145.779 373.205C146.108 373.192 145.209 372.839 143.78 372.422C141.043 371.622 140.303 371.487 140.673 371.859ZM149.054 374.014C149.646 374.204 151.086 374.461 152.252 374.585C153.968 374.768 154.108 374.744 152.981 374.457C150.942 373.939 147.669 373.569 149.054 374.014ZM224.535 374.671L222.336 375.213L224.288 374.995C225.361 374.875 226.62 374.622 227.086 374.434C228.325 373.932 227.059 374.05 224.535 374.671ZM164.968 376.849C166.799 377.195 170.435 377.37 170.132 377.099C170.04 377.017 168.436 376.851 166.567 376.73C164.098 376.57 163.661 376.603 164.968 376.849ZM211.442 376.723C211.827 376.823 212.456 376.823 212.841 376.723C213.226 376.621 212.911 376.539 212.142 376.539C211.372 376.539 211.057 376.621 211.442 376.723ZM203.546 377.248L200.348 377.502L203.147 377.541C204.686 377.562 206.845 377.439 207.944 377.266C210.51 376.865 208.473 376.857 203.546 377.248ZM171.469 377.536C172.078 377.628 172.977 377.626 173.468 377.531C173.96 377.436 173.463 377.359 172.364 377.362C171.264 377.365 170.862 377.444 171.469 377.536ZM180.859 377.949C183.772 378.017 188.54 378.017 191.453 377.949C194.367 377.881 191.983 377.825 186.156 377.825C180.329 377.825 177.946 377.881 180.859 377.949Z" fill="#A4BCEB"/>
</svg>
