<svg width="378" height="378" viewBox="0 0 378 378" fill="none" xmlns="http://www.w3.org/2000/svg">
<path fill-rule="evenodd" clip-rule="evenodd" d="M177.18 1.07375C163.361 1.71038 155.851 2.78615 143.38 5.9152C134.988 8.02061 122.156 12.3056 116.396 14.9264C115.736 15.2261 113.397 16.2738 111.198 17.2533C67.8866 36.56 30.4225 75.9513 14.0647 119.385C13.0262 122.142 12.0148 124.759 11.8179 125.2C10.2148 128.79 5.83725 144.533 4.62592 151.066C2.26524 163.792 1.63659 169.315 1.10189 182.051C0.802056 189.2 1.03393 199.425 1.65458 206.409C2.06335 211.012 3.5835 221.771 4.23214 224.656C4.43103 225.538 4.81082 227.343 5.07667 228.666C5.34352 229.989 6.0931 233.147 6.74274 235.684C7.39238 238.22 8.06001 240.837 8.22591 241.499C8.39282 242.161 8.76261 243.424 9.04745 244.306C9.3333 245.188 9.70609 246.361 9.87699 246.913C10.7175 249.626 13.5829 257.427 14.6653 259.946C18.9759 269.987 20.1493 272.444 24.145 279.797C43.856 316.069 78.4027 347.147 116.196 362.607C118.724 363.642 121.153 364.636 121.593 364.815C125.293 366.33 136.428 370.028 137.289 370.029C137.567 370.029 138.106 370.202 138.488 370.412C139.519 370.98 153.024 374.081 157.972 374.887C166.952 376.348 171.147 376.779 179.16 377.062C195.061 377.625 213.639 376.361 224.935 373.946C227.024 373.5 229.452 372.996 230.332 372.826C231.74 372.553 237.728 371.004 241.126 370.032C241.786 369.844 243.045 369.486 243.924 369.237C244.804 368.988 245.973 368.625 246.523 368.429C247.073 368.234 249.411 367.421 251.72 366.623C254.029 365.825 256.277 365.015 256.717 364.824C257.157 364.633 259.766 363.527 262.514 362.366C269.694 359.333 280.54 353.812 286.287 350.263C321.338 328.616 349.151 296.196 363.252 260.548C364.168 258.232 365.081 255.976 365.281 255.535C366.644 252.518 371.605 235.964 372.492 231.473C372.709 230.37 373.041 228.746 373.23 227.864C376.192 214.04 377.021 205.633 377.011 189.565C377.003 176.973 376.785 173.424 375.274 161.293C374.415 154.383 371.991 143.467 369.444 135.025C369.077 133.812 368.685 132.321 368.571 131.712C368.456 131.102 368.204 130.506 368.009 130.384C367.814 130.264 367.655 129.845 367.655 129.454C367.655 128.87 364.622 120.621 363.289 117.58C363.096 117.139 362.587 115.966 362.159 114.974C345.942 77.3639 317.982 45.6343 283.502 25.7131C279.838 23.5957 265.614 16.3199 265.139 16.3199C265.028 16.3199 263.986 15.8838 262.826 15.3515C256.608 12.4991 243.497 8.04968 235.729 6.15782C228.341 4.35719 226.41 3.92809 222.736 3.26739C219.331 2.65481 218.027 2.46933 210.343 1.50285C205.856 0.938397 185.761 0.677728 177.18 1.07375ZM298.668 64.0326C300.298 64.6542 299.97 65.1926 294.942 70.1303C288.702 76.2591 287.928 77.7689 288.208 83.2601C288.405 87.1039 288.625 87.9622 291.627 96.5262L292.821 99.9349L293.061 116.778C293.193 126.042 293.591 139.035 293.944 145.652C296.113 186.174 294.609 192.342 282.803 191.331C276.877 190.824 274.859 188.306 274.121 180.494C273.335 172.179 273.884 124.345 274.957 107.594C275.419 100.38 275.597 99.4948 277.89 92.9319C280.219 86.2698 280.08 82.2725 277.566 83.5538C275.231 84.7429 258.247 97.5127 248.722 105.24C241.987 110.704 241.967 110.819 245.646 122.994C246.08 124.428 246.557 126.052 246.706 126.604C246.855 127.155 247.149 128.238 247.358 129.01C252.058 146.306 246.027 160.315 227.334 175.529C218.055 183.081 215.56 187.052 215.808 193.881C216.102 202.016 219.677 206.266 237.078 219.17C249.651 228.493 253.866 234.329 257.255 247.113C258.791 252.907 259.235 263.915 258.168 269.772C254.691 288.87 239.321 303.256 215.14 310.042C207.894 312.075 202.936 312.935 195.152 313.505C184.836 314.262 170.745 313.861 165.457 312.66C164.419 312.424 162.76 312.049 161.77 311.826C152.352 309.705 142.542 305.582 134.862 300.517C115.189 287.541 110.654 269.729 122.286 251.134C130.964 237.26 143.901 228.832 164.369 223.718C170.399 222.211 181.027 220.829 191.454 220.195C193.817 220.052 195.751 219.887 195.751 219.829C195.751 219.772 195.064 218.578 194.223 217.177C189.108 208.65 187.54 200.002 189.701 192.242C190.237 190.317 190.328 189.466 190.009 189.372C188.442 188.914 184.517 188.361 182.791 188.357C181.006 188.352 176.196 187.579 170.565 186.392C149.503 181.952 136.138 166.609 131.934 142.043C131.556 139.838 131.076 137.807 130.868 137.532C130.574 137.141 125.45 137.029 107.651 137.027C81.4161 137.024 79.4162 136.925 79.4162 135.634C79.4162 134.805 84.2515 130.247 95.0075 120.939C96.6565 119.512 104.122 113.037 111.598 106.55C119.074 100.063 129.148 91.3288 133.986 87.139C138.823 82.9503 142.871 79.4202 142.981 79.2939C143.091 79.1685 144.525 77.8963 146.169 76.4666C147.812 75.0379 149.881 73.2122 150.766 72.4112C151.651 71.6111 154.26 69.3102 156.564 67.298L160.754 63.6416H229.198C272.702 63.6416 298.016 63.784 298.668 64.0326ZM177.961 96.7217C167.113 99.0617 160.609 106.341 157.352 119.786C156.647 122.694 156.635 134.446 157.334 137.431C158.943 144.307 159.708 146.986 160.253 147.638C160.428 147.847 160.571 148.276 160.571 148.592C160.571 152.741 172.076 168.407 179.115 173.843C211.787 199.074 239.418 153.164 214.2 115.547C204.337 100.835 191.002 93.9074 177.961 96.7217ZM185.957 229.071C177.773 229.906 170.516 231.613 165.568 233.865C164.908 234.166 163.346 234.878 162.097 235.448C137.769 246.549 134.795 276.929 156.573 291.896C171.51 302.162 194.538 305.121 213.741 299.243C215.743 298.631 216.75 298.241 219.738 296.918C238.774 288.498 245.568 270.159 236.631 251.324C232.76 243.163 219.193 233.655 206.921 230.501C204.248 229.814 191.83 228.278 190.954 228.526C190.844 228.557 188.595 228.802 185.957 229.071Z" fill="white"/>
</svg>
