<svg width="378" height="378" viewBox="0 0 378 378" fill="none" xmlns="http://www.w3.org/2000/svg">
<path d="M352.5 189C352.5 279.299 279.299 352.5 189 352.5C98.7014 352.5 25.5 279.299 25.5 189C25.5 98.7014 98.7014 25.5 189 25.5C279.299 25.5 352.5 98.7014 352.5 189Z" stroke="black" stroke-width="51"/>
<path fill-rule="evenodd" clip-rule="evenodd" d="M41.6868 191.345L41.2529 225.626C40.5589 280.459 84.154 325.622 138.977 326.865L189 328L240.267 326.837C294.598 325.605 338 281.208 338 226.863V189.3V143C338 87.7715 293.228 43 238 43H192.065H141.687C86.4583 43 41.6868 87.7715 41.6868 143V191.345ZM251.449 71.6425C252.335 71.8773 253.651 72.0708 254.374 72.0718C255.097 72.0729 256.049 72.2653 256.49 72.499C256.93 72.7337 257.626 72.9251 258.035 72.9251C258.444 72.9251 259.028 73.1006 259.331 73.3163C259.635 73.531 260.321 73.8048 260.856 73.9232C262.786 74.3515 269.065 78.8526 270.676 80.9631C271.19 81.6366 271.772 82.29 271.968 82.4159C272.166 82.5406 272.325 82.7574 272.325 82.897C272.325 83.0355 272.701 83.5684 273.159 84.0801C273.619 84.5929 274.204 85.4631 274.461 86.0151C274.718 86.567 275.098 87.1909 275.305 87.4023C275.512 87.6127 275.681 88.0251 275.681 88.318C275.681 88.6119 275.807 88.9302 275.96 89.0275C276.402 89.3055 276.287 90.771 275.791 91.1898C275.264 91.636 274.318 92.2133 273.724 92.4501C273.493 92.5432 272.864 92.853 272.325 93.1384C271.788 93.425 270.466 94.0076 269.389 94.4326C268.314 94.8577 267.008 95.4001 266.488 95.638C264.788 96.4183 263.597 95.6771 262.528 93.1733C262.364 92.7885 261.639 91.7639 260.916 90.8958C260.194 90.0277 259.352 89.0095 259.044 88.6331C257.933 87.2733 257.072 86.5723 256.317 86.4126C255.895 86.3228 255.549 86.1367 255.549 85.9992C255.549 85.8618 255.387 85.7497 255.189 85.7497C254.991 85.7497 254.363 85.5086 253.795 85.2126C251.168 83.8475 243.072 83.8739 240.17 85.258C238.542 86.0331 236.248 87.4626 235.704 88.0399C233.114 90.7869 231.161 93.757 230.794 95.5037C230.686 96.0176 230.488 96.578 230.353 96.7493C230.218 96.9206 229.986 98.2031 229.836 99.5988C229.688 100.996 229.436 102.907 229.277 103.847C229.11 104.836 228.989 110.55 228.989 117.385C228.989 124.22 229.11 129.934 229.277 130.923C229.436 131.863 229.688 133.774 229.836 135.171C229.986 136.567 230.218 137.85 230.353 138.021C230.488 138.192 230.692 138.781 230.807 139.33C231.24 141.396 235.908 147.31 237.105 147.31C237.369 147.31 237.741 147.502 237.933 147.738C238.124 147.973 238.508 148.165 238.786 148.165C239.064 148.165 239.457 148.329 239.66 148.529C241.178 150.024 251.448 150.014 254.062 148.515C254.398 148.323 254.918 148.165 255.217 148.165C255.516 148.165 255.916 147.973 256.108 147.738C256.3 147.502 256.602 147.31 256.779 147.31C257.683 147.31 262.531 141.465 262.548 140.355C262.553 140.027 262.742 139.508 262.967 139.204C263.193 138.899 263.378 138.165 263.378 137.571C263.378 136.977 263.57 136.001 263.805 135.403C264.136 134.56 264.215 133.356 264.155 130.054V130.054C264.111 127.675 262.194 125.758 259.816 125.714L256.331 125.65C250.497 125.543 248.496 125.416 248.222 125.137C247.55 124.45 247.717 114.095 248.409 113.58C249.318 112.902 250.909 112.825 264.003 112.825C278.145 112.825 278.157 112.826 278.78 114.749C279.578 117.211 278.608 137.031 277.642 138.016C277.486 138.174 277.359 138.959 277.359 139.76C277.359 140.599 277.185 141.451 276.948 141.769C276.723 142.074 276.534 142.647 276.529 143.043C276.524 143.439 276.35 144.016 276.143 144.326C275.935 144.635 275.689 145.291 275.596 145.785C275.411 146.762 273.19 150.596 272.14 151.752C271.781 152.146 271.487 152.527 271.487 152.597C271.487 152.964 268.179 156.43 267.827 156.43C267.703 156.43 267.279 156.734 266.887 157.104C265.794 158.137 261.559 160.705 260.95 160.705C260.653 160.705 260.165 160.893 259.866 161.123C259.568 161.353 259.032 161.546 258.676 161.551C258.32 161.556 257.753 161.711 257.418 161.895C257.082 162.08 255.863 162.393 254.71 162.59C253.556 162.789 251.983 163.079 251.215 163.236C249.385 163.609 243.729 163.61 242.127 163.238C241.435 163.077 239.826 162.782 238.551 162.583C237.276 162.384 236.088 162.073 235.909 161.89C235.731 161.709 235.242 161.56 234.824 161.56C234.102 161.56 233.727 161.408 231.082 160.05C229.547 159.26 226.444 157.164 225.523 156.293C225.104 155.898 224.668 155.575 224.554 155.575C224.44 155.575 223.886 154.966 223.323 154.221C222.758 153.477 221.978 152.495 221.587 152.039C221.196 151.583 220.877 151.053 220.877 150.858C220.877 150.665 220.688 150.432 220.456 150.342C220.226 150.251 220.037 149.997 220.037 149.776C220.037 149.555 219.863 149.227 219.649 149.047C219.082 148.566 217.521 145.115 217.521 144.34C217.521 143.974 217.332 143.515 217.102 143.32C216.852 143.108 216.682 142.485 216.682 141.774C216.682 141.12 216.531 140.431 216.347 140.242C216.164 140.055 215.925 139.228 215.819 138.405C215.712 137.581 215.358 135.575 215.03 133.947C214.044 129.049 214.122 104.934 215.139 100.141C215.526 98.3142 215.843 96.4691 215.843 96.0419C215.843 95.6137 216.028 95.0152 216.254 94.7107C216.479 94.4062 216.668 93.6217 216.673 92.9661C216.678 92.2989 216.866 91.5873 217.102 91.3484C217.332 91.1126 217.521 90.6484 217.521 90.3143C217.521 89.3013 219.482 85.3796 220.446 84.4671C220.612 84.3106 220.87 83.9046 221.022 83.5652C221.315 82.9044 222.806 80.9874 223.961 79.7873C224.974 78.7331 227.97 76.3446 228.279 76.3446C228.38 76.3446 228.876 76.0242 229.38 75.633C229.884 75.2407 230.427 74.9203 230.585 74.9203C230.744 74.9203 231.02 74.7406 231.197 74.5228C231.376 74.3039 231.983 74.0364 232.546 73.9285C233.109 73.8207 233.825 73.551 234.136 73.329C234.447 73.107 235.09 72.9251 235.563 72.9251C236.036 72.9251 236.571 72.7739 236.752 72.5899C236.933 72.4059 238.059 72.1575 239.255 72.0401C240.45 71.9217 241.931 71.7028 242.546 71.5527C244.366 71.1096 249.644 71.1636 251.449 71.6425ZM153.909 125.102C154.677 125.253 156.502 125.504 157.963 125.66C159.423 125.817 160.831 126.066 161.09 126.215C161.349 126.365 162.34 126.614 163.293 126.771C164.244 126.927 165.515 127.316 166.115 127.634C166.716 127.954 167.494 128.215 167.844 128.215C168.194 128.215 168.725 128.403 169.024 128.634C169.322 128.863 169.888 129.056 170.283 129.061C170.676 129.066 171.242 129.259 171.541 129.488C171.839 129.718 172.296 129.911 172.555 129.916C173.151 129.927 177.848 132.425 178.265 132.953C178.436 133.169 178.71 133.345 178.875 133.345C179.039 133.345 179.347 133.523 179.561 133.74C179.774 133.956 180.453 134.396 181.07 134.718C182.09 135.247 183.011 136.064 187.113 140.068C187.843 140.78 188.441 141.489 188.441 141.642C188.441 141.943 188.439 141.939 190.154 144.028C190.795 144.808 191.493 145.834 191.705 146.307C191.917 146.78 192.396 147.681 192.771 148.308C193.144 148.935 193.456 149.785 193.462 150.196C193.468 150.609 193.663 151.104 193.893 151.3C194.124 151.495 194.312 151.836 194.312 152.058C194.312 152.281 194.551 152.939 194.841 153.52C197.732 159.304 197.754 176.206 194.88 181.926C194.568 182.547 194.312 183.334 194.312 183.673C194.312 184.012 194.124 184.45 193.893 184.645C193.663 184.84 193.474 185.297 193.474 185.661C193.474 186.023 193.352 186.399 193.201 186.493C193.052 186.587 192.796 187.172 192.632 187.792C192.468 188.412 192.213 188.919 192.065 188.919C191.917 188.919 191.796 189.091 191.796 189.3C191.796 189.509 191.281 190.429 190.653 191.345C190.023 192.261 189.397 193.307 189.261 193.672C189.126 194.037 188.885 194.335 188.727 194.335C188.569 194.335 188.441 194.514 188.441 194.732C188.441 194.951 188.252 195.202 188.022 195.293C187.79 195.383 187.602 195.648 187.602 195.883C187.602 196.118 186.753 197.194 185.715 198.276C184.676 199.358 183.323 200.808 182.708 201.499C180.873 203.561 175.627 207.669 173.342 208.837C172.65 209.19 171.454 209.858 170.685 210.322C169.916 210.787 168.972 211.292 168.588 211.445C168.204 211.599 167.555 211.916 167.147 212.149C166.739 212.383 166.109 212.579 165.748 212.584C165.388 212.589 164.849 212.782 164.55 213.011C164.251 213.242 163.478 213.43 162.832 213.43C161.524 213.43 161.028 214.033 161.683 214.825C162.29 215.558 164.206 218.798 165.493 221.267C166.147 222.521 166.892 223.804 167.151 224.118C167.981 225.126 168.868 226.509 168.868 226.793C168.868 226.945 169.025 227.244 169.217 227.458C169.664 227.955 170.178 228.771 170.612 229.675C170.8 230.066 171.613 231.303 172.417 232.423C173.22 233.543 174.162 235.018 174.509 235.701C174.855 236.384 175.431 237.263 175.787 237.655C176.144 238.047 176.903 239.073 177.475 239.934C178.046 240.797 178.584 241.566 178.669 241.645C178.754 241.723 179.125 242.301 179.493 242.928C180.18 244.096 181.638 246.116 182.166 246.63C182.615 247.067 184.054 249.101 184.526 249.966C184.757 250.388 185.45 251.286 186.066 251.961C186.683 252.635 187.689 253.955 188.303 254.894C188.917 255.832 189.922 257.125 190.537 257.768C191.708 258.989 193.15 260.778 193.596 261.563C193.74 261.815 193.991 262.163 194.155 262.334C194.587 262.788 197.935 266.626 199.373 268.316C200.05 269.112 200.938 270.012 201.347 270.314C201.755 270.618 203.084 271.826 204.301 272.999C205.518 274.172 206.763 275.302 207.067 275.51C207.371 275.717 208.135 276.23 208.765 276.65C209.395 277.07 210.597 277.893 211.437 278.481C212.278 279.069 213.141 279.554 213.356 279.559C213.57 279.564 213.99 279.756 214.289 279.987C214.587 280.216 215.049 280.404 215.315 280.404C215.581 280.404 216.154 280.585 216.589 280.805C217.552 281.291 219.5 281.795 222.194 282.254C225.087 282.748 225.071 282.722 225.071 286.66C225.071 290.585 224.277 291.782 221.649 291.818C221.147 291.824 220.233 292.028 219.618 292.27C218.167 292.842 209.755 293.129 207.175 292.694C206.176 292.526 204.477 292.246 203.4 292.072C201.088 291.698 196.92 290.458 196.138 289.91C195.834 289.699 195.324 289.525 195.003 289.525C194.682 289.525 194.175 289.337 193.877 289.106C193.578 288.876 193.17 288.684 192.969 288.679C191.962 288.654 189.545 287.241 185.238 284.16C183.15 282.666 183.237 282.744 180.219 279.644C177.096 276.436 176.138 275.344 176.138 274.99C176.138 274.859 176.03 274.71 175.898 274.658C175.517 274.507 172.783 271.058 172.783 270.728C172.783 270.564 172.674 270.429 172.541 270.429C172.408 270.429 171.936 269.885 171.492 269.219C171.048 268.553 170.527 267.838 170.335 267.631C170.144 267.423 169.986 267.078 169.986 266.861C169.986 266.645 169.819 266.366 169.616 266.24C169.094 265.92 166.631 262.772 166.631 262.426C166.631 262.27 166.506 261.985 166.353 261.796C165.315 260.507 163.74 258.299 162.603 256.538C161.869 255.402 161.155 254.4 161.014 254.312C160.874 254.223 160.758 253.902 160.758 253.598C160.758 253.294 160.645 253.045 160.506 253.045C160.368 253.045 159.992 252.628 159.67 252.118C157.19 248.191 156.578 247.167 156.564 246.917C156.556 246.761 156.193 246.278 155.759 245.843C155.325 245.408 154.73 244.575 154.439 243.99C154.147 243.406 153.83 242.863 153.734 242.785C153.639 242.707 153.222 242.002 152.807 241.217C151.548 238.838 150.968 237.89 150.03 236.678C149.536 236.039 148.836 234.876 148.474 234.093C148.112 233.309 147.22 231.764 146.491 230.66C145.762 229.557 144.823 227.984 144.403 227.166C143.984 226.349 143.529 225.609 143.392 225.523C143.255 225.437 143.143 225.049 143.143 224.662C143.143 224.274 142.959 223.885 142.734 223.797C142.509 223.709 142.243 223.361 142.143 223.022C142.042 222.684 141.74 222.151 141.472 221.837C141.203 221.524 140.578 220.498 140.083 219.557C139.59 218.617 139.038 217.702 138.857 217.523C138.634 217.302 135.56 217.135 129.231 217.001V217.001C124.129 216.891 119.935 220.998 119.935 226.101V241.037C119.935 261.66 119.997 265.517 120.354 266.914C120.585 267.816 120.774 269.008 120.774 269.564C120.774 270.519 121.543 273.02 121.972 273.457C122.082 273.569 122.172 273.876 122.172 274.142C122.172 274.838 124.904 278.41 125.435 278.41C125.538 278.41 125.825 278.595 126.071 278.824C126.318 279.051 127.271 279.377 128.19 279.548C129.109 279.719 130.428 279.974 131.12 280.115C131.811 280.255 133.133 280.38 134.055 280.391C134.979 280.402 136.425 280.601 137.271 280.833C138.117 281.063 139.658 281.255 140.697 281.257C143.575 281.262 143.702 281.469 143.702 286.203C143.702 289.468 143.632 290.069 143.213 290.446C142.663 290.939 137.381 290.824 119.655 289.932C112.203 289.557 109.536 289.533 104.836 289.796C89.1151 290.675 79.8544 290.89 79.2641 290.391C78.6396 289.862 78.6251 282.358 79.2476 281.832C79.4768 281.638 80.5329 281.383 81.5931 281.264C82.6543 281.145 83.6782 280.95 83.868 280.83C84.0589 280.71 85.2664 280.503 86.5528 280.37C87.8391 280.237 89.113 280.005 89.3838 279.854C89.6545 279.702 90.474 279.5 91.2044 279.404C91.9347 279.308 92.5322 279.118 92.5322 278.981C92.5322 278.845 92.7563 278.661 93.0291 278.572C93.7397 278.343 96.4473 275.65 96.4473 275.174C96.4473 274.954 96.6361 274.614 96.8664 274.42C97.0967 274.224 97.2855 273.762 97.2855 273.393C97.2855 273.024 97.4712 272.238 97.6983 271.646C98.7399 268.933 98.7834 266.597 98.8789 209.439C98.9816 147.284 98.8758 143.819 96.8083 141.661C96.6091 141.454 96.4473 141.106 96.4473 140.889C96.4473 140.438 94.4337 138.19 94.0291 138.19C93.8829 138.19 93.6152 138.04 93.4358 137.857C92.9451 137.357 91.2261 136.763 89.0373 136.338C87.9605 136.128 86.7488 135.828 86.3442 135.668C85.9386 135.51 84.6284 135.241 83.4323 135.071C82.2352 134.902 81.12 134.651 80.953 134.515C80.7849 134.377 80.2393 134.176 79.7403 134.067V134.067C79.2099 133.952 78.8316 133.482 78.8316 132.94V129.779C78.8316 124.995 78.677 125.196 82.1864 125.391C86.5621 125.634 115.25 125.477 119.794 125.186C125.817 124.8 152.033 124.735 153.909 125.102ZM119.935 170.646V200.368C119.935 201.909 121.124 203.188 122.661 203.3V203.3C124.161 203.409 126.442 203.681 127.73 203.904C130.91 204.455 139.962 204.455 142.036 203.904C142.875 203.682 144.38 203.417 145.379 203.316C147.166 203.137 151.064 202.082 152.869 201.293C153.374 201.071 153.969 200.89 154.191 200.89C155.839 200.89 164.561 195.099 165.744 193.219C166.317 192.307 166.433 192.154 167.48 190.915C167.943 190.366 168.594 189.437 168.926 188.849C169.258 188.261 169.623 187.78 169.736 187.78C169.849 187.78 170.024 187.395 170.126 186.925C170.228 186.455 170.416 186.07 170.545 186.07C170.675 186.07 170.868 185.653 170.975 185.144C171.081 184.634 171.274 184.084 171.402 183.921C171.53 183.759 171.756 183.117 171.904 182.496C172.052 181.875 172.302 180.983 172.459 180.512C173.795 176.511 174.639 168.008 173.931 165.664C173.794 165.209 173.473 163.747 173.216 162.415C172.961 161.083 172.62 159.608 172.46 159.137C172.299 158.668 172.07 157.791 171.95 157.191C171.829 156.59 171.59 155.956 171.417 155.78C171.245 155.605 171.104 155.276 171.104 155.05C171.104 154.55 169.964 152.123 169.543 151.727C169.376 151.571 168.64 150.594 167.909 149.556C167.177 148.52 166.007 147.173 165.307 146.564C164.608 145.955 163.637 145.072 163.15 144.603C162.097 143.589 157.719 141.317 154.911 140.327C154.232 140.088 153.54 139.782 153.373 139.647C153.206 139.512 152.44 139.312 151.671 139.203C150.902 139.093 149.734 138.82 149.074 138.597C148.101 138.266 145.26 138.19 133.906 138.19V138.19C126.19 138.19 119.935 144.445 119.935 152.161V170.646Z" fill="black"/>
</svg>
