<svg width="287" height="201" viewBox="0 0 287 201" fill="none" xmlns="http://www.w3.org/2000/svg">
<g filter="url(#filter0_d)">
<ellipse cx="103" cy="100.5" rx="58" ry="56.5" fill="black"/>
<path d="M154.5 100.5C154.5 127.955 131.604 150.5 103 150.5C74.3957 150.5 51.5 127.955 51.5 100.5C51.5 73.0453 74.3957 50.5 103 50.5C131.604 50.5 154.5 73.0453 154.5 100.5Z" stroke="white" stroke-width="13"/>
</g>
<path d="M145.928 59.3519C149.911 55.7874 150.287 49.6092 146.215 46.148C138.048 39.2077 128.382 34.1782 117.922 31.4883C104.324 27.9915 89.9939 28.6056 76.7448 33.2529C63.4956 37.9002 51.922 46.3719 43.4877 57.5969C35.0533 68.8218 30.1369 82.2957 29.3602 96.3148C28.5835 110.334 31.9814 124.268 39.1241 136.356C46.2669 148.444 56.8338 158.143 69.4885 164.225C82.1432 170.308 96.3174 172.501 110.219 170.528C120.912 169.01 131.075 165.079 139.958 159.083C144.388 156.093 144.696 149.911 141.132 145.928V145.928C137.567 141.946 131.483 141.7 126.906 144.46C120.994 148.025 114.398 150.385 107.498 151.365C97.3874 152.8 87.0777 151.205 77.8733 146.78C68.6688 142.356 60.983 135.302 55.7876 126.51C50.5923 117.718 48.1209 107.582 48.6858 97.3855C49.2507 87.1887 52.8267 77.3884 58.9615 69.2239C65.0963 61.0594 73.5143 54.8974 83.1512 51.5172C92.788 48.1369 103.211 47.6903 113.101 50.2337C119.851 51.9692 126.145 55.0439 131.627 59.2399C135.871 62.4885 141.946 62.9164 145.928 59.3519V59.3519Z" fill="black"/>
<path d="M93.88 113.54C92.04 113.54 90.28 113.22 88.6 112.58C86.96 111.94 85.62 111 84.58 109.76L86.98 106.52C87.98 107.48 89.02 108.22 90.1 108.74C91.22 109.26 92.32 109.52 93.4 109.52C94.72 109.52 95.8 109.26 96.64 108.74C97.48 108.22 97.9 107.42 97.9 106.34C97.9 105.5 97.64 104.82 97.12 104.3C96.6 103.78 96 103.4 95.32 103.16C94.68 102.92 93.58 102.56 92.02 102.08C87.78 100.72 85.66 98.3 85.66 94.82C85.66 92.74 86.42 90.96 87.94 89.48C89.5 88 91.66 87.26 94.42 87.26C96.18 87.26 97.74 87.48 99.1 87.92C100.46 88.36 101.72 89.06 102.88 90.02L100.66 93.44C100.02 92.76 99.2 92.22 98.2 91.82C97.24 91.42 96.32 91.2 95.44 91.16C94.32 91.16 93.36 91.44 92.56 92C91.76 92.52 91.36 93.24 91.36 94.16C91.36 94.92 91.62 95.56 92.14 96.08C92.66 96.56 93.2 96.92 93.76 97.16C94.32 97.36 95.42 97.72 97.06 98.24C99.1 98.92 100.68 99.8 101.8 100.88C102.96 101.96 103.54 103.42 103.54 105.26C103.54 107.66 102.7 109.64 101.02 111.2C99.34 112.76 96.96 113.54 93.88 113.54ZM130.072 87.14C132.392 87.14 134.492 87.7 136.372 88.82C138.252 89.94 139.732 91.52 140.812 93.56C141.892 95.56 142.432 97.88 142.432 100.52C142.432 103.12 141.852 105.42 140.692 107.42C139.532 109.38 137.932 110.9 135.892 111.98C133.852 113.06 131.572 113.6 129.052 113.6C127.252 113.6 125.532 113.22 123.892 112.46C122.252 111.66 120.932 110.6 119.932 109.28V124.94H114.352V87.74H119.212L119.692 91.94C120.972 90.5 122.492 89.34 124.252 88.46C126.052 87.58 127.992 87.14 130.072 87.14ZM127.972 109.1C129.532 109.1 130.972 108.74 132.292 108.02C133.652 107.26 134.732 106.24 135.532 104.96C136.332 103.64 136.732 102.18 136.732 100.58C136.732 98.94 136.352 97.46 135.592 96.14C134.872 94.82 133.872 93.78 132.592 93.02C131.312 92.26 129.892 91.88 128.332 91.88C126.212 91.88 124.392 92.48 122.872 93.68C121.392 94.84 120.412 96.42 119.932 98.42V102.56C120.252 104.48 121.152 106.06 122.632 107.3C124.152 108.5 125.932 109.1 127.972 109.1Z" fill="white"/>
<path d="M178.419 88.16V113H172.839V108.92C171.959 110.08 170.679 111.16 168.999 112.16C167.319 113.12 165.419 113.6 163.299 113.6C160.939 113.6 158.799 113.1 156.879 112.1C154.999 111.06 153.499 109.56 152.379 107.6C151.299 105.64 150.759 103.3 150.759 100.58C150.759 97.86 151.319 95.5 152.439 93.5C153.599 91.46 155.139 89.9 157.059 88.82C159.019 87.7 161.179 87.14 163.539 87.14C165.659 87.14 167.499 87.6 169.059 88.52C170.619 89.44 171.879 90.64 172.839 92.12L173.259 88.16H178.419ZM164.799 108.98C166.839 108.98 168.579 108.42 170.019 107.3C171.499 106.14 172.439 104.58 172.839 102.62V97.7C172.359 95.94 171.359 94.52 169.839 93.44C168.319 92.32 166.579 91.76 164.619 91.76C163.139 91.76 161.759 92.12 160.479 92.84C159.239 93.56 158.239 94.58 157.479 95.9C156.759 97.18 156.399 98.64 156.399 100.28C156.399 101.88 156.779 103.34 157.539 104.66C158.299 105.98 159.319 107.04 160.599 107.84C161.879 108.6 163.279 108.98 164.799 108.98ZM211.293 110.66C210.173 111.58 208.833 112.3 207.273 112.82C205.753 113.34 204.193 113.6 202.593 113.6C199.913 113.6 197.533 113.06 195.453 111.98C193.413 110.9 191.813 109.38 190.653 107.42C189.533 105.42 188.973 103.12 188.973 100.52C188.973 97.96 189.573 95.7 190.773 93.74C191.973 91.74 193.573 90.2 195.573 89.12C197.573 88.04 199.733 87.5 202.053 87.5C205.853 87.5 208.993 88.54 211.473 90.62L208.653 94.28C207.853 93.68 206.933 93.18 205.893 92.78C204.853 92.34 203.733 92.12 202.533 92.12C201.053 92.12 199.693 92.5 198.453 93.26C197.253 93.98 196.293 94.98 195.573 96.26C194.893 97.54 194.553 98.96 194.553 100.52C194.553 102.08 194.913 103.5 195.633 104.78C196.393 106.06 197.413 107.08 198.693 107.84C199.973 108.6 201.433 108.98 203.073 108.98C205.113 108.98 206.893 108.38 208.413 107.18L211.293 110.66ZM233.137 108.8C235.217 108.8 237.237 108.08 239.197 106.64L241.777 110.78C240.457 111.66 239.017 112.36 237.457 112.88C235.937 113.36 234.457 113.6 233.017 113.6C230.257 113.6 227.837 113.04 225.757 111.92C223.717 110.76 222.137 109.18 221.017 107.18C219.897 105.18 219.337 102.92 219.337 100.4C219.337 97.96 219.937 95.74 221.137 93.74C222.377 91.7 224.057 90.1 226.177 88.94C228.297 87.74 230.617 87.14 233.137 87.14C236.377 87.14 239.077 88.1 241.237 90.02C243.437 91.9 244.937 94.54 245.737 97.94L226.057 104.84C226.777 106.08 227.737 107.06 228.937 107.78C230.177 108.46 231.577 108.8 233.137 108.8ZM232.717 91.58C230.437 91.58 228.557 92.38 227.077 93.98C225.597 95.58 224.857 97.62 224.857 100.1C224.857 100.7 224.877 101.16 224.917 101.48L239.377 96.14C238.777 94.78 237.917 93.68 236.797 92.84C235.717 92 234.357 91.58 232.717 91.58Z" fill="black"/>
<defs>
<filter id="filter0_d" x="41" y="40" width="124" height="121" filterUnits="userSpaceOnUse" color-interpolation-filters="sRGB">
<feFlood flood-opacity="0" result="BackgroundImageFix"/>
<feColorMatrix in="SourceAlpha" type="matrix" values="0 0 0 0 0 0 0 0 0 0 0 0 0 0 0 0 0 0 127 0"/>
<feOffset/>
<feGaussianBlur stdDeviation="2"/>
<feColorMatrix type="matrix" values="0 0 0 0 0 0 0 0 0 0 0 0 0 0 0 0 0 0 0.25 0"/>
<feBlend mode="normal" in2="BackgroundImageFix" result="effect1_dropShadow"/>
<feBlend mode="normal" in="SourceGraphic" in2="effect1_dropShadow" result="shape"/>
</filter>
</defs>
</svg>
