<svg id="svg" version="1.1" xmlns="http://www.w3.org/2000/svg" xmlns:xlink="http://www.w3.org/1999/xlink" width="400" height="400" viewBox="0, 0, 400,400"><g id="svgg"><path id="path0" d="M178.400 0.553 C 178.400 1.264,175.894 1.890,171.612 2.247 C 169.760 2.402,167.785 2.768,167.222 3.062 C 166.660 3.355,165.480 3.600,164.600 3.605 C 162.066 3.622,157.512 4.363,156.200 4.973 C 155.540 5.280,154.100 5.661,153.000 5.821 C 151.900 5.980,150.645 6.355,150.211 6.655 C 149.777 6.955,149.057 7.203,148.611 7.207 C 148.165 7.211,146.450 7.578,144.800 8.023 C 143.150 8.467,141.004 9.005,140.030 9.217 C 139.057 9.428,137.977 9.851,137.630 10.156 C 137.284 10.461,136.370 10.843,135.600 11.004 C 134.830 11.166,133.532 11.636,132.716 12.049 C 131.900 12.462,130.865 12.800,130.416 12.800 C 129.967 12.800,128.745 13.242,127.700 13.781 C 125.126 15.111,123.325 15.842,121.300 16.379 C 120.365 16.628,119.600 16.995,119.600 17.197 C 119.600 17.398,118.949 17.742,118.153 17.962 C 117.357 18.182,116.412 18.618,116.053 18.930 C 115.694 19.243,114.680 19.724,113.800 20.000 C 112.920 20.276,111.930 20.734,111.600 21.019 C 111.270 21.304,110.512 21.659,109.916 21.808 C 109.320 21.957,108.631 22.322,108.384 22.619 C 108.138 22.916,107.320 23.362,106.568 23.611 C 105.816 23.859,105.200 24.214,105.200 24.400 C 105.200 24.586,104.525 24.956,103.700 25.222 C 102.875 25.488,101.880 26.040,101.489 26.448 C 101.098 26.856,100.333 27.302,99.789 27.439 C 99.245 27.575,98.800 27.852,98.800 28.053 C 98.800 28.255,98.347 28.592,97.794 28.802 C 96.787 29.185,94.902 30.406,93.400 31.647 C 92.960 32.011,92.150 32.443,91.600 32.608 C 91.050 32.773,89.765 33.604,88.744 34.454 C 87.724 35.304,86.756 36.000,86.593 36.000 C 86.240 36.000,80.913 39.904,79.907 40.900 C 79.518 41.285,79.027 41.600,78.816 41.600 C 78.605 41.600,77.766 42.320,76.952 43.200 C 76.138 44.080,75.254 44.800,74.987 44.800 C 74.721 44.800,73.574 45.700,72.439 46.800 C 71.303 47.900,70.245 48.805,70.087 48.811 C 69.845 48.821,68.972 49.560,65.400 52.779 C 65.180 52.977,64.410 53.783,63.690 54.570 C 62.969 55.356,62.332 56.000,62.275 56.000 C 61.953 56.000,56.000 62.078,56.000 62.406 C 56.000 62.623,55.848 62.800,55.661 62.800 C 55.243 62.800,52.400 65.528,52.400 65.930 C 52.400 66.213,51.871 66.838,48.158 70.943 C 47.191 72.011,46.400 73.046,46.400 73.243 C 46.400 73.439,46.144 73.600,45.831 73.600 C 45.518 73.600,45.066 74.185,44.827 74.900 C 44.588 75.615,43.677 77.010,42.804 78.000 C 40.145 81.016,40.000 81.192,40.000 81.422 C 40.000 81.545,39.100 82.757,38.000 84.117 C 36.900 85.476,36.000 86.788,36.000 87.032 C 36.000 87.276,35.640 87.802,35.200 88.200 C 34.760 88.598,34.400 89.167,34.400 89.465 C 34.400 89.762,33.950 90.397,33.400 90.875 C 32.850 91.353,32.400 92.044,32.400 92.411 C 32.400 92.778,32.045 93.487,31.612 93.986 C 31.178 94.486,30.716 95.234,30.585 95.648 C 30.454 96.061,30.187 96.400,29.992 96.400 C 29.797 96.400,29.265 97.165,28.810 98.100 C 27.717 100.344,27.062 101.444,26.309 102.297 C 25.968 102.684,25.565 103.584,25.413 104.298 C 25.262 105.011,24.907 105.731,24.625 105.898 C 24.344 106.064,23.899 106.859,23.637 107.665 C 23.375 108.470,22.923 109.221,22.631 109.333 C 22.340 109.445,21.984 110.162,21.840 110.928 C 21.696 111.693,21.331 112.525,21.029 112.776 C 20.726 113.027,20.365 113.720,20.226 114.316 C 19.889 115.758,17.562 120.400,17.175 120.400 C 17.008 120.400,16.743 121.165,16.587 122.100 C 16.432 123.035,15.991 124.430,15.609 125.200 C 15.226 125.970,14.798 127.082,14.656 127.672 C 14.515 128.262,14.152 128.991,13.849 129.293 C 13.547 129.596,13.097 130.787,12.850 131.941 C 12.602 133.096,12.154 134.526,11.853 135.120 C 11.553 135.714,11.191 136.840,11.050 137.622 C 10.909 138.405,10.434 139.748,9.996 140.607 C 9.558 141.466,9.200 142.683,9.200 143.311 C 9.200 143.939,9.001 144.824,8.758 145.278 C 8.515 145.732,7.987 147.713,7.584 149.680 C 7.181 151.647,6.684 153.469,6.480 153.728 C 6.276 153.988,5.990 155.263,5.844 156.562 C 5.698 157.862,5.330 159.482,5.026 160.162 C 4.478 161.391,4.290 162.703,3.617 170.000 C 3.424 172.090,3.086 174.340,2.866 175.000 C 2.646 175.660,2.362 178.000,2.236 180.200 C 1.596 191.315,1.062 196.400,0.533 196.400 C 0.144 196.400,0.000 197.100,0.000 199.000 C 0.000 200.880,0.145 201.600,0.525 201.600 C 1.054 201.600,1.639 207.256,2.244 218.200 C 2.378 220.620,2.738 223.371,3.044 224.314 C 3.350 225.257,3.600 226.946,3.600 228.069 C 3.600 231.129,4.424 237.237,5.021 238.605 C 5.310 239.267,5.673 240.797,5.827 242.005 C 5.981 243.212,6.283 244.423,6.498 244.695 C 6.714 244.968,7.141 246.678,7.448 248.495 C 7.754 250.313,8.263 252.430,8.577 253.200 C 8.892 253.970,9.259 255.440,9.394 256.467 C 9.529 257.494,9.886 258.540,10.188 258.790 C 10.490 259.041,10.864 259.997,11.019 260.914 C 11.174 261.832,11.547 262.957,11.846 263.415 C 12.146 263.872,12.572 265.195,12.791 266.355 C 13.011 267.514,13.553 268.923,13.996 269.485 C 14.438 270.048,14.800 270.889,14.799 271.354 C 14.798 271.819,15.152 272.920,15.585 273.800 C 16.017 274.680,16.476 276.075,16.604 276.900 C 16.732 277.725,16.989 278.400,17.176 278.400 C 17.581 278.400,20.000 283.300,20.000 284.121 C 20.000 284.435,20.360 285.150,20.800 285.709 C 21.240 286.269,21.601 286.878,21.602 287.063 C 21.604 287.248,21.897 287.940,22.254 288.600 C 24.191 292.181,25.586 295.056,25.593 295.480 C 25.597 295.744,25.847 296.104,26.149 296.280 C 26.452 296.456,27.269 297.674,27.965 298.986 C 28.662 300.298,29.479 301.648,29.781 301.986 C 30.084 302.324,30.942 303.770,31.688 305.200 C 33.614 308.888,34.823 310.800,35.231 310.800 C 35.425 310.800,35.949 311.475,36.396 312.300 C 37.448 314.243,38.019 315.101,39.000 316.215 C 39.440 316.715,39.984 317.366,40.210 317.662 C 44.240 322.955,45.446 324.484,46.786 326.000 C 47.661 326.990,49.134 328.745,50.059 329.900 C 50.984 331.055,51.890 332.000,52.071 332.000 C 52.252 332.000,52.400 332.180,52.400 332.400 C 52.400 332.915,52.690 333.231,59.600 340.259 C 62.790 343.504,66.398 346.978,67.618 347.979 C 68.838 348.981,70.188 350.117,70.618 350.504 C 74.272 353.794,77.238 356.263,78.471 357.043 C 79.280 357.555,80.540 358.484,81.271 359.109 C 82.002 359.733,84.196 361.314,86.146 362.622 C 88.096 363.930,90.094 365.270,90.586 365.600 C 91.937 366.506,93.622 367.613,95.400 368.763 C 96.280 369.332,97.133 370.003,97.295 370.254 C 97.457 370.505,98.083 370.835,98.686 370.986 C 99.972 371.309,103.600 373.584,103.600 374.067 C 103.600 374.250,103.814 374.400,104.077 374.400 C 104.339 374.400,106.391 375.300,108.638 376.400 C 110.885 377.500,112.898 378.400,113.113 378.400 C 113.327 378.400,113.725 378.669,113.998 378.997 C 114.270 379.326,115.237 379.792,116.147 380.034 C 117.056 380.276,118.070 380.706,118.400 380.990 C 118.730 381.273,119.450 381.639,120.000 381.802 C 120.550 381.966,121.298 382.411,121.662 382.792 C 122.027 383.174,123.107 383.611,124.062 383.763 C 125.018 383.916,126.163 384.278,126.606 384.568 C 127.049 384.858,127.996 385.223,128.710 385.380 C 129.424 385.537,130.266 385.923,130.582 386.239 C 130.897 386.554,132.065 386.985,133.176 387.195 C 134.288 387.406,135.998 387.944,136.977 388.389 C 137.955 388.835,139.194 389.200,139.729 389.200 C 140.264 389.200,140.922 389.465,141.191 389.789 C 141.460 390.114,142.337 390.485,143.140 390.615 C 143.943 390.744,146.040 391.290,147.800 391.827 C 149.560 392.364,151.513 392.803,152.140 392.802 C 152.766 392.801,153.846 393.055,154.540 393.367 C 155.233 393.679,157.057 394.142,158.593 394.395 C 160.128 394.648,161.589 395.025,161.839 395.232 C 162.402 395.700,167.426 396.371,170.486 396.388 C 171.743 396.394,173.580 396.674,174.567 397.009 C 175.608 397.363,179.101 397.778,182.881 397.998 C 197.327 398.839,198.067 398.909,198.279 399.462 C 198.569 400.218,203.432 400.214,203.723 399.457 C 203.946 398.874,206.104 398.659,218.059 398.025 C 221.721 397.831,225.089 397.474,225.542 397.231 C 225.995 396.988,228.759 396.605,231.683 396.380 C 234.607 396.154,238.170 395.628,239.600 395.210 C 241.030 394.793,243.006 394.327,243.991 394.175 C 244.976 394.023,246.146 393.673,246.591 393.396 C 247.036 393.120,248.390 392.799,249.600 392.683 C 250.810 392.567,252.610 392.169,253.600 391.798 C 254.590 391.427,256.210 390.997,257.200 390.842 C 258.190 390.687,259.450 390.272,260.000 389.920 C 260.550 389.567,261.630 389.157,262.400 389.009 C 263.170 388.861,264.563 388.393,265.496 387.970 C 266.428 387.546,267.603 387.200,268.107 387.200 C 268.610 387.200,269.377 386.956,269.811 386.657 C 270.245 386.358,271.320 385.883,272.200 385.600 C 273.080 385.317,274.155 384.842,274.589 384.543 C 275.023 384.244,275.754 384.000,276.214 384.000 C 276.674 384.000,278.604 383.207,280.503 382.238 C 282.401 381.270,284.635 380.252,285.466 379.978 C 286.298 379.704,287.221 379.236,287.518 378.940 C 287.814 378.643,288.369 378.400,288.751 378.400 C 289.132 378.400,290.055 377.950,290.800 377.400 C 291.545 376.850,292.470 376.400,292.854 376.400 C 293.238 376.400,293.675 376.202,293.825 375.959 C 293.975 375.717,294.694 375.269,295.423 374.965 C 296.644 374.454,299.204 372.905,300.231 372.055 C 300.468 371.858,301.098 371.561,301.631 371.394 C 302.164 371.227,303.109 370.665,303.731 370.145 C 304.353 369.625,305.090 369.200,305.369 369.200 C 305.648 369.200,306.202 368.840,306.600 368.400 C 306.998 367.960,307.502 367.600,307.721 367.600 C 307.939 367.600,309.103 366.925,310.308 366.100 C 311.512 365.275,312.902 364.330,313.396 364.000 C 315.427 362.644,323.482 356.425,323.971 355.835 C 324.261 355.486,324.751 355.200,325.061 355.200 C 325.371 355.200,326.488 354.345,327.544 353.300 C 328.600 352.255,329.910 351.040,330.454 350.600 C 331.637 349.645,335.665 346.166,337.054 344.900 C 337.597 344.405,338.212 344.000,338.421 344.000 C 338.629 344.000,338.800 343.824,338.800 343.609 C 338.800 343.050,342.989 338.800,343.540 338.800 C 343.793 338.800,344.000 338.637,344.000 338.439 C 344.000 337.841,346.507 335.200,347.074 335.200 C 347.363 335.200,347.600 334.992,347.600 334.739 C 347.600 334.485,348.500 333.270,349.600 332.039 C 352.606 328.674,352.976 328.242,355.728 324.888 C 357.126 323.184,358.506 321.349,358.794 320.811 C 359.082 320.273,359.641 319.556,360.036 319.217 C 360.866 318.505,364.672 312.961,369.522 305.400 C 370.509 303.860,371.651 302.112,372.059 301.516 C 372.466 300.920,372.800 300.279,372.800 300.092 C 372.800 299.904,373.127 299.400,373.527 298.970 C 373.927 298.541,375.017 296.621,375.949 294.705 C 376.881 292.788,377.814 291.115,378.022 290.987 C 378.230 290.858,378.400 290.425,378.400 290.025 C 378.400 289.625,378.648 289.092,378.950 288.841 C 379.253 288.590,379.725 287.582,380.000 286.600 C 380.275 285.618,380.738 284.617,381.029 284.376 C 381.321 284.134,381.762 283.320,382.011 282.568 C 382.259 281.816,382.614 281.200,382.799 281.200 C 382.985 281.200,383.263 280.615,383.418 279.900 C 383.710 278.550,384.568 276.422,386.198 273.000 C 386.722 271.900,387.247 270.415,387.365 269.700 C 387.483 268.985,387.944 267.600,388.390 266.622 C 388.835 265.644,389.200 264.457,389.200 263.985 C 389.200 263.513,389.560 262.669,390.000 262.109 C 390.440 261.550,390.800 260.733,390.800 260.294 C 390.800 259.856,391.250 258.249,391.800 256.725 C 392.350 255.200,392.800 253.373,392.800 252.665 C 392.800 251.957,393.047 251.023,393.350 250.589 C 393.652 250.155,394.032 248.990,394.194 248.000 C 394.356 247.010,394.823 245.210,395.234 244.000 C 395.644 242.790,396.151 239.944,396.361 237.675 C 396.571 235.407,396.929 233.326,397.157 233.052 C 397.384 232.778,397.760 230.543,397.992 228.085 C 398.428 223.457,398.886 221.600,399.590 221.600 C 399.865 221.600,400.000 214.291,400.000 199.400 C 400.000 180.739,399.912 177.200,399.445 177.200 C 398.833 177.200,398.187 174.099,397.832 169.454 C 397.716 167.944,397.433 166.481,397.203 166.204 C 396.973 165.927,396.595 163.653,396.363 161.150 C 396.105 158.367,395.642 155.920,395.171 154.849 C 394.747 153.886,394.400 152.660,394.400 152.123 C 394.400 151.587,394.061 150.305,393.647 149.274 C 393.232 148.243,392.669 146.140,392.395 144.600 C 392.120 143.060,391.740 141.602,391.549 141.360 C 391.358 141.119,391.020 139.961,390.798 138.788 C 390.575 137.615,390.145 136.373,389.841 136.028 C 389.538 135.683,389.158 134.770,388.998 134.000 C 388.838 133.230,388.555 132.410,388.369 132.177 C 388.182 131.944,387.763 130.729,387.436 129.475 C 387.110 128.222,386.563 126.797,386.221 126.309 C 385.880 125.821,385.594 125.147,385.587 124.811 C 385.581 124.475,385.132 123.300,384.591 122.200 C 384.050 121.100,383.606 119.806,383.604 119.324 C 383.602 118.842,383.405 118.327,383.167 118.180 C 382.929 118.032,382.404 117.142,382.000 116.200 C 381.596 115.258,381.085 114.376,380.864 114.239 C 380.643 114.103,380.337 113.408,380.185 112.695 C 380.032 111.983,379.766 111.220,379.592 111.000 C 379.237 110.549,377.471 107.350,376.349 105.125 C 375.940 104.314,375.438 103.547,375.234 103.421 C 375.029 103.294,374.743 102.653,374.599 101.995 C 374.455 101.338,374.175 100.800,373.978 100.800 C 373.780 100.800,373.278 100.125,372.861 99.300 C 371.070 95.751,370.645 94.988,370.350 94.788 C 369.764 94.390,367.615 91.002,367.607 90.464 C 367.603 90.169,367.005 89.232,366.278 88.382 C 365.550 87.532,364.700 86.334,364.388 85.719 C 364.075 85.103,363.456 84.138,363.010 83.574 C 362.565 83.010,361.840 82.037,361.400 81.411 C 360.960 80.785,359.646 79.127,358.481 77.726 C 357.315 76.325,355.944 74.564,355.435 73.814 C 354.926 73.063,353.855 71.832,353.055 71.077 C 352.255 70.323,351.600 69.496,351.600 69.240 C 351.600 68.376,331.666 48.400,330.804 48.400 C 330.651 48.400,329.476 47.399,328.193 46.176 C 326.909 44.953,325.261 43.702,324.530 43.396 C 323.798 43.091,323.200 42.664,323.200 42.448 C 323.200 42.231,321.626 40.918,319.702 39.529 C 317.778 38.140,315.901 36.733,315.531 36.402 C 313.895 34.940,309.931 32.400,309.285 32.400 C 309.040 32.400,308.696 32.175,308.520 31.900 C 308.344 31.625,307.525 31.088,306.700 30.706 C 305.875 30.325,305.200 29.848,305.200 29.646 C 305.200 29.444,304.705 29.070,304.100 28.816 C 302.558 28.169,300.468 26.980,299.672 26.298 C 299.303 25.981,297.065 24.762,294.700 23.590 C 292.335 22.418,290.400 21.324,290.400 21.158 C 290.400 20.992,289.434 20.576,288.252 20.232 C 287.071 19.889,285.894 19.354,285.636 19.043 C 285.378 18.733,284.694 18.360,284.115 18.214 C 283.537 18.069,282.620 17.602,282.078 17.175 C 281.536 16.749,280.859 16.400,280.573 16.400 C 279.861 16.400,274.601 14.265,273.919 13.699 C 273.616 13.447,272.501 13.047,271.443 12.810 C 270.384 12.572,269.006 12.113,268.379 11.789 C 267.752 11.465,266.916 11.199,266.520 11.198 C 266.124 11.196,265.260 10.901,264.600 10.542 C 263.194 9.778,259.423 8.621,255.200 7.658 C 253.550 7.282,251.840 6.778,251.400 6.539 C 250.960 6.299,249.700 5.971,248.600 5.812 C 247.500 5.652,246.246 5.331,245.813 5.100 C 244.766 4.539,239.457 3.618,237.200 3.605 C 236.210 3.600,234.930 3.350,234.355 3.050 C 233.780 2.750,231.890 2.384,230.155 2.238 C 225.801 1.870,223.200 1.242,223.200 0.560 C 223.200 0.087,219.735 0.000,200.800 0.000 C 182.011 0.000,178.400 0.089,178.400 0.553 M208.600 2.415 C 210.360 2.619,215.099 2.973,219.130 3.202 C 223.162 3.430,228.292 3.973,230.530 4.407 C 232.769 4.842,235.268 5.198,236.085 5.199 C 236.902 5.199,238.432 5.534,239.485 5.943 C 240.538 6.352,242.454 6.806,243.742 6.952 C 245.030 7.098,246.431 7.403,246.855 7.629 C 247.279 7.856,249.015 8.288,250.713 8.588 C 252.411 8.889,254.340 9.418,255.000 9.765 C 255.660 10.111,256.567 10.396,257.015 10.398 C 257.464 10.399,258.486 10.734,259.287 11.142 C 260.088 11.551,261.874 12.107,263.256 12.379 C 264.639 12.651,266.132 13.127,266.574 13.437 C 267.016 13.747,267.764 14.000,268.235 14.000 C 268.706 14.000,269.531 14.345,270.067 14.767 C 270.604 15.189,271.753 15.661,272.621 15.816 C 273.490 15.971,274.761 16.435,275.447 16.849 C 276.133 17.262,276.964 17.600,277.293 17.600 C 277.623 17.600,278.350 17.960,278.909 18.400 C 279.469 18.840,280.168 19.202,280.463 19.204 C 280.758 19.206,281.900 19.650,283.000 20.191 C 284.100 20.732,285.201 21.181,285.446 21.187 C 285.691 21.194,286.336 21.549,286.878 21.975 C 287.420 22.402,288.337 22.869,288.915 23.014 C 289.494 23.160,290.169 23.522,290.416 23.819 C 290.662 24.116,291.521 24.576,292.323 24.841 C 293.125 25.105,294.600 25.897,295.600 26.600 C 296.600 27.303,298.089 28.099,298.909 28.370 C 299.729 28.641,300.400 29.016,300.400 29.204 C 300.400 29.392,300.805 29.669,301.300 29.819 C 301.795 29.969,302.560 30.408,303.000 30.794 C 303.440 31.180,304.290 31.745,304.888 32.048 C 306.787 33.011,313.695 37.711,316.258 39.783 C 316.950 40.342,317.681 40.800,317.883 40.800 C 318.085 40.800,319.139 41.604,320.225 42.587 C 321.311 43.569,322.328 44.379,322.484 44.387 C 322.641 44.394,323.091 44.726,323.484 45.125 C 323.878 45.524,325.100 46.559,326.199 47.425 C 327.299 48.291,328.397 49.180,328.640 49.400 C 328.883 49.620,330.027 50.610,331.183 51.600 C 332.948 53.112,345.174 65.216,347.547 67.800 C 348.207 68.519,349.996 70.662,354.355 75.955 C 355.150 76.920,356.565 78.620,357.500 79.731 C 358.435 80.843,359.200 81.873,359.200 82.021 C 359.200 82.169,359.695 82.924,360.300 83.700 C 361.497 85.234,361.958 85.888,363.310 87.974 C 364.386 89.635,365.001 90.543,366.700 92.977 C 367.415 94.002,368.000 94.986,368.000 95.165 C 368.000 95.344,368.540 96.169,369.200 97.000 C 369.860 97.831,370.400 98.740,370.400 99.022 C 370.400 99.303,370.555 99.593,370.744 99.667 C 370.933 99.740,371.477 100.610,371.953 101.600 C 373.066 103.915,373.721 105.024,374.491 105.897 C 374.832 106.284,375.235 107.183,375.386 107.895 C 375.538 108.608,375.825 109.292,376.026 109.416 C 376.450 109.678,379.200 115.289,379.200 115.893 C 379.200 116.118,379.451 116.510,379.758 116.765 C 380.065 117.020,380.430 117.834,380.569 118.574 C 380.707 119.314,381.176 120.370,381.611 120.923 C 382.045 121.475,382.400 122.170,382.400 122.469 C 382.400 122.768,382.747 123.660,383.172 124.452 C 383.596 125.244,384.072 126.591,384.230 127.446 C 384.387 128.301,384.850 129.429,385.258 129.954 C 385.666 130.479,386.000 131.163,386.000 131.476 C 386.000 131.788,386.354 132.822,386.787 133.772 C 387.220 134.723,387.696 136.288,387.844 137.250 C 387.991 138.213,388.447 139.668,388.856 140.484 C 389.265 141.300,389.600 142.345,389.600 142.806 C 389.600 143.267,389.940 144.399,390.355 145.322 C 390.770 146.245,391.331 148.350,391.601 150.000 C 391.871 151.650,392.244 153.190,392.430 153.422 C 392.616 153.654,392.971 155.184,393.219 156.822 C 393.467 158.460,393.924 160.199,394.235 160.686 C 394.546 161.173,394.800 162.315,394.800 163.223 C 394.800 164.131,395.166 166.669,395.613 168.863 C 396.085 171.182,396.583 175.896,396.801 180.126 C 397.007 184.127,397.456 189.830,397.797 192.800 C 398.432 198.320,398.339 204.725,397.560 209.200 C 397.349 210.410,396.999 214.761,396.782 218.868 C 396.552 223.235,396.061 227.886,395.600 230.068 C 395.167 232.121,394.809 234.520,394.804 235.400 C 394.799 236.280,394.520 237.528,394.183 238.173 C 393.847 238.818,393.388 240.665,393.164 242.276 C 392.940 243.888,392.520 245.790,392.230 246.503 C 391.940 247.216,391.579 248.790,391.428 250.000 C 391.276 251.210,390.914 252.567,390.622 253.016 C 390.330 253.465,389.881 254.846,389.624 256.085 C 389.367 257.325,388.896 258.554,388.578 258.818 C 388.260 259.082,388.000 259.787,388.000 260.385 C 388.000 262.035,385.936 268.140,385.020 269.200 C 384.735 269.530,384.380 270.520,384.231 271.400 C 384.083 272.280,383.626 273.720,383.216 274.600 C 382.807 275.480,382.005 277.193,381.436 278.406 C 380.866 279.619,380.400 280.812,380.400 281.057 C 380.400 281.302,380.130 281.726,379.800 282.000 C 379.470 282.274,379.197 282.791,379.194 283.149 C 379.191 283.507,378.927 284.250,378.608 284.800 C 378.288 285.350,377.663 286.520,377.219 287.400 C 376.774 288.280,376.250 289.270,376.054 289.600 C 375.857 289.930,375.398 290.830,375.032 291.600 C 374.344 293.049,374.022 293.614,372.500 296.053 C 372.005 296.846,371.600 297.706,371.600 297.964 C 371.600 298.222,371.417 298.651,371.193 298.917 C 370.191 300.107,368.754 302.313,368.181 303.541 C 367.837 304.278,367.388 305.088,367.184 305.341 C 365.405 307.538,364.873 308.316,364.642 309.055 C 364.495 309.526,363.935 310.426,363.397 311.055 C 362.055 312.628,361.469 313.366,361.000 314.075 C 359.044 317.034,358.340 317.985,357.209 319.193 C 356.492 319.959,355.792 320.881,355.653 321.242 C 355.408 321.877,353.153 324.691,351.297 326.677 C 350.800 327.208,349.474 328.748,348.350 330.099 C 346.127 332.770,335.027 343.900,331.693 346.800 C 330.556 347.790,328.764 349.354,327.712 350.276 C 324.448 353.136,321.272 355.600,320.850 355.600 C 320.627 355.600,320.210 355.929,319.923 356.332 C 319.635 356.734,317.960 358.039,316.200 359.232 C 314.440 360.424,312.761 361.626,312.469 361.903 C 312.177 362.179,311.558 362.608,311.094 362.857 C 310.630 363.105,310.059 363.464,309.825 363.655 C 308.642 364.622,305.168 366.800,304.810 366.800 C 304.584 366.800,304.400 366.962,304.400 367.161 C 304.400 367.359,303.847 367.715,303.170 367.950 C 302.494 368.186,301.400 368.834,300.739 369.390 C 300.079 369.945,299.282 370.400,298.969 370.400 C 298.656 370.400,298.400 370.566,298.400 370.769 C 298.400 370.972,297.725 371.355,296.900 371.620 C 296.075 371.884,295.124 372.341,294.786 372.635 C 293.853 373.445,289.690 375.600,289.057 375.600 C 288.749 375.600,288.282 375.861,288.017 376.180 C 287.752 376.498,286.875 376.974,286.068 377.238 C 285.261 377.501,284.509 377.854,284.399 378.022 C 284.210 378.309,281.822 379.332,278.259 380.653 C 277.412 380.967,276.454 381.489,276.131 381.812 C 275.807 382.135,275.151 382.401,274.671 382.403 C 274.192 382.404,273.263 382.759,272.606 383.192 C 271.950 383.625,270.600 384.090,269.606 384.225 C 268.613 384.361,267.312 384.816,266.716 385.236 C 266.120 385.656,265.345 386.000,264.994 386.000 C 264.643 386.000,263.559 386.363,262.585 386.807 C 261.612 387.250,259.956 387.720,258.907 387.850 C 257.858 387.980,256.280 388.415,255.400 388.817 C 254.520 389.219,253.080 389.676,252.200 389.832 C 251.320 389.988,250.490 390.285,250.355 390.492 C 250.221 390.699,248.350 391.130,246.199 391.450 C 244.048 391.770,241.972 392.201,241.586 392.407 C 241.201 392.614,239.213 392.972,237.169 393.204 C 235.125 393.435,233.203 393.832,232.898 394.085 C 232.593 394.338,230.601 394.675,228.472 394.834 C 226.342 394.992,222.530 395.397,220.000 395.733 C 212.650 396.709,201.587 397.014,200.600 396.269 C 199.824 395.683,199.797 395.127,199.685 377.692 L 199.569 359.720 195.322 359.460 C 192.987 359.317,189.071 359.200,186.622 359.200 C 184.011 359.200,181.242 358.959,179.929 358.617 C 178.698 358.296,176.116 357.838,174.190 357.599 C 172.265 357.360,170.220 356.925,169.645 356.632 C 169.070 356.340,167.340 355.979,165.800 355.830 C 163.052 355.564,157.367 354.078,155.000 353.006 C 154.340 352.707,153.080 352.344,152.200 352.199 C 151.320 352.055,149.812 351.591,148.849 351.168 C 147.886 350.746,146.744 350.400,146.311 350.400 C 145.878 350.400,145.046 350.062,144.462 349.650 C 143.878 349.237,142.770 348.766,142.000 348.604 C 141.230 348.441,140.404 348.151,140.165 347.959 C 139.926 347.768,138.943 347.333,137.980 346.993 C 135.708 346.191,132.045 344.396,131.769 343.949 C 131.650 343.757,131.271 343.600,130.926 343.600 C 130.034 343.600,125.537 341.266,124.684 340.360 C 124.291 339.942,123.656 339.600,123.273 339.600 C 122.891 339.600,122.133 339.287,121.589 338.903 C 120.384 338.055,118.638 337.054,116.900 336.216 C 116.185 335.871,115.600 335.429,115.600 335.234 C 115.600 335.038,115.032 334.680,114.337 334.438 C 113.642 334.196,112.822 333.638,112.514 333.199 C 112.206 332.759,111.708 332.400,111.406 332.400 C 111.104 332.400,110.619 332.173,110.329 331.895 C 110.038 331.617,109.265 331.046,108.610 330.627 C 107.133 329.679,106.557 329.227,105.462 328.156 C 104.988 327.691,104.240 327.192,103.800 327.047 C 103.360 326.902,102.220 326.067,101.266 325.192 C 100.312 324.316,99.412 323.598,99.266 323.596 C 99.120 323.594,98.073 322.739,96.940 321.696 C 95.807 320.653,93.671 318.720,92.195 317.400 C 88.501 314.099,80.002 305.369,79.998 304.873 C 79.997 304.723,79.232 303.782,78.298 302.783 C 77.364 301.784,76.150 300.365,75.600 299.630 C 75.050 298.895,74.195 297.822,73.700 297.247 C 73.206 296.671,72.801 296.041,72.800 295.846 C 72.800 295.651,72.395 295.097,71.900 294.615 C 71.405 294.134,70.640 293.232,70.200 292.611 C 69.760 291.991,68.995 290.935,68.500 290.264 C 68.005 289.593,67.600 288.820,67.600 288.545 C 67.600 288.270,67.285 287.809,66.900 287.519 C 66.174 286.974,65.256 285.538,64.202 283.300 C 63.865 282.585,63.423 282.000,63.221 282.000 C 63.018 282.000,62.624 281.370,62.346 280.600 C 62.067 279.830,61.724 279.200,61.584 279.200 C 61.203 279.200,60.400 277.279,60.400 276.369 C 60.400 275.932,60.122 275.468,59.782 275.338 C 59.181 275.107,56.400 269.855,56.400 268.950 C 56.400 268.702,56.142 268.283,55.826 268.021 C 55.510 267.759,55.138 267.030,55.000 266.400 C 54.862 265.770,54.502 265.050,54.200 264.800 C 53.898 264.550,53.528 263.772,53.377 263.072 C 53.226 262.373,52.786 261.170,52.400 260.400 C 52.014 259.630,51.564 258.380,51.400 257.623 C 51.236 256.865,50.855 255.998,50.552 255.695 C 50.249 255.392,49.900 254.662,49.776 254.072 C 49.652 253.482,49.312 252.452,49.021 251.781 C 48.729 251.111,48.271 249.491,48.002 248.181 C 47.733 246.872,47.339 245.585,47.126 245.323 C 46.914 245.060,46.477 243.722,46.157 242.348 C 45.837 240.975,45.418 239.660,45.226 239.426 C 45.034 239.192,44.674 237.314,44.425 235.253 C 44.176 233.193,43.731 231.033,43.436 230.453 C 43.142 229.874,42.771 228.158,42.612 226.639 C 42.453 225.121,42.070 222.961,41.761 221.839 C 40.248 216.351,40.243 182.929,41.754 177.200 C 42.073 175.990,42.460 173.830,42.614 172.400 C 42.768 170.970,43.124 169.350,43.405 168.800 C 43.687 168.250,44.121 166.180,44.369 164.200 C 44.618 162.220,45.171 159.610,45.598 158.400 C 46.025 157.190,46.380 155.808,46.387 155.329 C 46.394 154.849,46.647 154.210,46.949 153.908 C 47.252 153.605,47.776 152.108,48.114 150.579 C 48.883 147.110,50.366 142.800,50.791 142.800 C 50.967 142.800,51.234 142.125,51.385 141.300 C 51.535 140.475,51.996 139.220,52.409 138.512 C 52.822 137.803,53.276 136.600,53.419 135.838 C 53.562 135.076,54.021 134.143,54.440 133.764 C 54.858 133.386,55.200 132.667,55.200 132.167 C 55.200 131.666,55.446 131.011,55.747 130.710 C 56.048 130.409,56.430 129.721,56.595 129.181 C 56.959 127.990,59.073 124.031,59.789 123.200 C 60.073 122.870,60.438 122.166,60.600 121.636 C 60.762 121.106,61.593 119.666,62.447 118.436 C 63.300 117.206,63.999 116.040,63.999 115.845 C 64.000 115.649,65.035 113.974,66.300 112.123 C 67.565 110.271,68.907 108.197,69.281 107.513 C 69.656 106.830,70.115 106.164,70.302 106.035 C 70.489 105.906,71.262 104.913,72.021 103.829 C 72.779 102.744,74.073 101.124,74.895 100.229 C 75.717 99.333,76.392 98.452,76.395 98.270 C 76.408 97.406,90.052 83.256,95.463 78.495 C 98.645 75.695,102.294 72.801,102.659 72.787 C 102.846 72.780,103.630 72.130,104.400 71.341 C 105.170 70.553,106.385 69.656,107.100 69.349 C 107.815 69.041,108.400 68.634,108.400 68.443 C 108.400 68.253,108.940 67.873,109.600 67.600 C 110.260 67.327,110.800 66.972,110.800 66.811 C 110.800 66.485,114.670 64.000,115.178 64.000 C 115.356 64.000,115.749 63.702,116.051 63.338 C 116.353 62.974,117.140 62.421,117.800 62.109 C 120.455 60.855,122.141 59.907,123.926 58.667 C 124.957 57.951,126.544 57.147,127.453 56.881 C 128.361 56.614,129.328 56.127,129.602 55.798 C 129.875 55.469,130.408 55.200,130.787 55.200 C 131.166 55.200,131.799 54.844,132.193 54.408 C 132.587 53.972,133.560 53.505,134.355 53.370 C 135.150 53.236,136.257 52.805,136.816 52.413 C 137.374 52.021,138.444 51.566,139.193 51.402 C 139.942 51.237,140.802 50.855,141.105 50.552 C 141.408 50.249,142.138 49.899,142.728 49.774 C 143.318 49.649,144.250 49.310,144.800 49.020 C 145.350 48.730,146.750 48.293,147.911 48.048 C 149.073 47.804,150.423 47.355,150.911 47.052 C 151.400 46.748,152.698 46.284,153.795 46.020 C 154.892 45.757,155.973 45.389,156.196 45.203 C 156.420 45.017,158.112 44.658,159.956 44.406 C 161.800 44.153,163.690 43.708,164.155 43.417 C 164.620 43.125,165.900 42.764,167.000 42.614 C 168.100 42.464,169.797 42.076,170.771 41.752 C 171.744 41.427,174.946 40.990,177.884 40.780 C 180.823 40.570,183.986 40.210,184.914 39.980 C 185.841 39.750,189.440 39.455,192.912 39.324 C 196.383 39.193,199.316 38.936,199.429 38.754 C 199.541 38.571,199.622 30.878,199.609 21.658 C 199.576 -0.131,198.912 1.290,208.600 2.415 M176.596 11.928 C 176.739 12.298,177.028 14.760,177.240 17.400 C 177.451 20.040,177.876 23.460,178.186 25.000 C 179.702 32.546,179.380 36.000,177.161 36.000 C 175.650 36.000,174.933 34.825,174.600 31.800 C 174.455 30.480,174.088 28.138,173.785 26.596 C 173.279 24.029,172.409 16.158,172.261 12.816 C 172.159 10.506,175.760 9.768,176.596 11.928 M234.400 11.199 C 234.179 11.612,233.998 14.959,233.996 18.674 C 233.993 22.373,233.725 27.908,233.400 30.974 L 232.808 36.549 234.104 37.669 C 235.957 39.272,238.361 39.138,238.932 37.400 C 239.149 36.740,239.658 35.965,240.063 35.677 C 240.468 35.390,240.800 34.937,240.800 34.670 C 240.800 34.404,241.250 33.523,241.800 32.714 C 242.350 31.905,242.812 31.008,242.827 30.721 C 242.841 30.435,243.471 29.390,244.227 28.400 C 244.982 27.410,245.800 26.150,246.043 25.600 C 246.913 23.633,247.093 23.392,248.125 22.806 C 250.056 21.710,250.175 22.276,250.188 32.670 L 250.200 42.125 251.800 43.045 C 253.989 44.304,254.681 44.252,254.999 42.802 C 255.144 42.144,255.491 41.469,255.771 41.302 C 256.219 41.037,257.084 39.577,260.398 33.500 C 260.848 32.675,261.373 32.000,261.564 32.000 C 261.755 32.000,262.025 31.393,262.164 30.651 C 262.303 29.910,262.773 28.892,263.208 28.390 C 263.644 27.888,264.000 27.244,264.000 26.959 C 264.000 26.674,264.450 25.956,265.000 25.362 C 265.550 24.769,266.000 24.023,266.000 23.705 C 266.000 23.387,266.360 22.669,266.800 22.109 C 267.916 20.690,267.803 20.085,266.306 19.474 C 264.502 18.738,263.248 19.063,262.935 20.347 C 262.794 20.926,262.345 21.829,261.939 22.354 C 261.533 22.879,261.200 23.555,261.200 23.858 C 261.200 24.160,260.840 24.716,260.400 25.093 C 259.960 25.470,259.600 25.949,259.600 26.157 C 259.600 26.960,257.016 31.826,256.326 32.323 C 255.927 32.610,255.600 33.083,255.600 33.374 C 255.600 33.664,255.354 34.106,255.053 34.356 C 253.771 35.420,253.533 33.918,253.618 25.320 C 253.708 16.213,253.656 15.886,252.023 15.209 C 249.778 14.279,247.895 14.808,247.000 16.620 C 246.560 17.510,245.611 19.100,244.892 20.151 C 244.173 21.203,243.311 22.634,242.977 23.332 C 241.816 25.754,240.950 27.260,240.562 27.529 C 240.348 27.678,239.785 28.305,239.311 28.923 L 238.449 30.046 237.758 28.993 C 237.104 27.995,237.106 27.558,237.781 20.670 C 238.673 11.581,238.671 11.568,236.500 10.941 C 234.962 10.498,234.763 10.522,234.400 11.199 M165.906 13.400 C 166.002 14.130,163.349 18.684,161.874 20.321 C 161.538 20.694,161.141 21.488,160.992 22.084 C 160.843 22.680,160.479 23.368,160.183 23.614 C 159.669 24.041,163.186 28.000,164.079 28.000 C 164.247 28.000,165.603 29.109,167.092 30.465 C 168.581 31.820,170.385 33.278,171.100 33.704 C 172.659 34.633,172.697 34.939,171.418 36.218 C 170.063 37.574,165.600 36.825,165.600 35.243 C 165.600 35.090,164.674 34.258,163.541 33.394 C 162.409 32.531,160.774 31.144,159.909 30.312 C 159.043 29.480,158.214 28.802,158.067 28.805 C 155.173 28.865,154.674 32.055,156.595 38.215 C 156.969 39.414,155.096 41.340,153.895 40.991 C 152.462 40.574,151.735 39.410,151.463 37.099 C 151.324 35.913,150.948 34.415,150.627 33.771 C 150.307 33.127,149.871 31.198,149.659 29.486 C 149.447 27.773,149.076 26.132,148.834 25.840 C 148.591 25.549,148.200 24.267,147.965 22.992 C 147.729 21.718,147.277 20.278,146.959 19.794 C 146.346 18.858,146.528 17.858,147.523 16.700 C 149.126 14.834,151.698 16.898,152.166 20.426 C 152.691 24.384,154.164 25.899,155.349 23.700 C 155.675 23.095,156.323 21.880,156.789 21.000 C 158.849 17.105,161.351 13.387,162.288 12.828 C 163.492 12.110,165.783 12.472,165.906 13.400 M139.953 22.410 C 141.250 23.453,141.600 24.000,141.600 24.987 C 141.600 27.341,139.321 28.032,137.600 26.200 C 135.133 23.574,128.395 26.148,128.940 29.509 C 129.067 30.291,129.361 31.121,129.593 31.353 C 130.198 31.958,135.216 31.720,136.927 31.005 C 141.056 29.280,146.444 31.958,147.002 36.014 C 147.529 39.847,145.164 44.800,142.806 44.800 C 142.422 44.800,141.593 45.205,140.965 45.700 C 140.021 46.443,139.214 46.624,136.346 46.738 L 132.870 46.877 130.635 45.226 C 128.692 43.791,128.400 43.399,128.400 42.230 C 128.400 40.123,130.822 39.674,132.873 41.400 C 134.565 42.823,137.767 42.804,140.238 41.357 C 144.549 38.830,143.299 34.520,138.574 35.616 C 135.266 36.383,129.052 36.091,127.596 35.100 C 125.106 33.406,124.640 32.230,124.759 27.955 C 124.915 22.412,135.258 18.638,139.953 22.410 M275.600 27.525 C 275.600 30.141,275.845 32.890,276.201 34.281 C 277.093 37.763,277.148 40.952,276.331 41.858 C 275.963 42.266,275.531 43.140,275.370 43.800 C 275.209 44.460,274.745 45.429,274.339 45.954 C 273.933 46.479,273.600 47.097,273.600 47.328 C 273.600 47.559,273.261 48.120,272.846 48.574 C 271.565 49.977,271.433 51.084,272.481 51.636 C 272.986 51.902,273.516 52.297,273.657 52.514 C 274.141 53.256,275.838 52.428,276.533 51.112 C 276.914 50.391,277.475 49.350,277.781 48.800 C 278.086 48.250,278.755 46.921,279.268 45.847 C 280.238 43.816,282.174 42.093,285.000 40.749 C 285.880 40.331,287.267 39.586,288.082 39.094 C 292.049 36.701,294.769 35.200,295.141 35.200 C 296.039 35.200,295.991 34.355,295.040 33.403 C 293.792 32.156,290.821 31.987,289.687 33.100 C 288.651 34.116,285.827 36.000,285.340 36.000 C 285.110 36.000,284.497 36.369,283.978 36.819 C 281.170 39.255,280.098 37.572,280.040 30.636 L 280.000 25.871 278.728 24.736 C 278.028 24.111,277.323 23.600,277.161 23.600 C 276.998 23.600,276.581 23.491,276.233 23.357 C 275.679 23.145,275.600 23.667,275.600 27.525 M117.986 29.174 C 118.214 29.599,118.400 30.369,118.400 30.885 C 118.400 31.400,118.675 32.214,119.010 32.693 C 119.346 33.173,119.806 34.608,120.032 35.882 C 120.259 37.157,120.683 38.740,120.974 39.400 C 121.266 40.060,121.627 41.740,121.776 43.133 C 121.925 44.526,122.407 46.356,122.846 47.199 C 123.685 48.808,123.976 52.584,123.312 53.248 C 121.412 55.148,120.669 54.739,114.087 48.183 C 110.670 44.778,107.777 42.090,107.658 42.209 C 107.230 42.637,107.539 45.048,108.324 47.400 C 108.765 48.720,109.233 50.956,109.364 52.370 C 109.495 53.783,109.871 55.236,110.199 55.599 C 112.269 57.886,111.124 61.200,108.264 61.200 C 106.622 61.200,94.494 49.936,90.920 45.092 L 90.003 43.848 90.871 42.924 C 92.331 41.370,93.523 41.715,96.096 44.436 C 97.363 45.776,98.400 46.932,98.400 47.006 C 98.400 47.742,104.843 53.552,105.053 53.005 C 105.438 52.003,104.919 48.553,104.223 47.492 C 103.883 46.973,103.486 45.660,103.341 44.574 C 103.196 43.488,102.745 41.973,102.339 41.206 C 99.893 36.591,104.367 32.960,108.000 36.611 C 108.770 37.384,109.633 38.238,109.918 38.509 C 113.415 41.824,116.800 45.338,116.800 45.652 C 116.800 45.869,117.003 45.922,117.250 45.769 C 117.880 45.380,117.464 40.783,116.690 39.564 C 116.353 39.034,115.956 37.846,115.807 36.923 C 115.659 36.001,115.192 34.568,114.769 33.739 C 113.838 31.913,113.791 30.477,114.623 29.289 C 115.422 28.148,117.401 28.080,117.986 29.174 M303.498 39.302 C 302.894 39.961,302.400 40.566,302.400 40.647 C 302.400 40.859,299.720 44.337,299.007 45.050 C 298.673 45.384,298.400 45.824,298.400 46.029 C 298.400 46.233,298.085 46.742,297.700 47.160 C 297.315 47.577,296.550 48.584,296.000 49.396 C 295.450 50.208,294.235 51.844,293.300 53.031 C 292.365 54.218,291.600 55.337,291.600 55.519 C 291.600 55.701,291.280 56.198,290.889 56.625 C 290.498 57.051,289.787 57.955,289.309 58.633 L 288.441 59.867 290.520 61.428 C 291.664 62.287,292.690 63.086,292.800 63.204 C 292.910 63.322,293.450 63.723,294.000 64.096 C 294.550 64.469,295.772 65.320,296.716 65.988 C 300.069 68.361,305.272 69.476,306.976 68.187 C 307.404 67.864,308.041 67.600,308.393 67.600 C 308.745 67.600,309.926 66.791,311.017 65.802 C 312.108 64.813,313.123 64.003,313.273 64.002 C 313.423 64.001,313.673 63.595,313.828 63.100 C 313.983 62.605,314.535 61.691,315.055 61.069 C 315.575 60.447,316.000 59.666,316.000 59.332 C 316.000 58.999,316.360 58.269,316.800 57.709 C 318.215 55.911,317.960 50.247,316.367 48.081 C 315.206 46.502,309.562 41.601,308.904 41.600 C 308.610 41.599,307.044 40.370,305.398 38.847 C 304.612 38.119,304.573 38.129,303.498 39.302 M202.040 41.125 C 201.722 41.719,201.623 48.743,201.697 65.480 L 201.800 89.000 222.686 89.200 C 246.503 89.428,244.735 89.124,244.975 93.029 C 245.197 96.639,244.683 97.194,241.091 97.224 C 239.501 97.237,237.390 97.400,236.400 97.586 C 235.410 97.771,233.430 98.145,232.000 98.415 C 230.570 98.686,228.922 99.243,228.338 99.654 C 227.754 100.064,227.054 100.400,226.781 100.400 C 225.993 100.400,222.074 103.932,221.776 104.911 C 221.627 105.400,221.273 106.070,220.990 106.400 C 220.706 106.730,220.263 107.794,220.005 108.764 C 219.746 109.734,219.234 110.986,218.867 111.546 C 218.253 112.483,218.200 116.591,218.200 163.182 L 218.200 213.800 221.047 213.916 C 222.946 213.994,224.477 213.817,225.647 213.383 C 226.611 213.025,228.390 212.566,229.600 212.362 C 230.810 212.158,232.430 211.730,233.200 211.411 C 233.970 211.091,235.404 210.626,236.386 210.376 C 237.368 210.127,238.607 209.580,239.140 209.161 C 239.672 208.743,240.345 208.400,240.634 208.400 C 240.923 208.400,241.304 208.175,241.480 207.900 C 241.656 207.625,242.430 207.106,243.200 206.746 C 243.970 206.386,245.230 205.539,246.000 204.864 C 246.770 204.189,248.169 203.009,249.109 202.242 C 251.003 200.697,254.005 197.165,255.774 194.400 C 256.407 193.410,257.229 192.150,257.599 191.600 C 257.970 191.050,258.506 189.880,258.789 189.000 C 259.072 188.120,259.447 187.218,259.623 186.995 C 259.798 186.772,260.165 185.692,260.440 184.595 C 260.714 183.498,261.158 182.420,261.425 182.200 C 261.693 181.980,262.129 180.011,262.394 177.825 C 262.660 175.639,263.052 173.389,263.267 172.825 C 263.482 172.261,263.822 169.778,264.024 167.306 C 264.226 164.834,264.650 161.504,264.968 159.906 C 265.285 158.308,265.657 153.490,265.794 149.200 C 265.931 144.910,266.313 139.240,266.642 136.600 C 266.972 133.960,267.414 129.856,267.624 127.481 C 267.835 125.105,268.256 122.765,268.560 122.281 C 268.864 121.796,269.237 120.500,269.388 119.400 C 269.539 118.300,269.891 117.040,270.171 116.600 C 270.450 116.160,270.914 114.814,271.201 113.610 C 271.488 112.405,271.965 111.178,272.262 110.881 C 272.558 110.585,272.800 110.114,272.800 109.833 C 272.800 109.553,273.150 109.007,273.577 108.621 C 274.005 108.234,274.465 107.414,274.600 106.800 C 274.735 106.186,275.195 105.366,275.623 104.979 C 276.050 104.593,276.400 104.125,276.400 103.941 C 276.400 102.340,285.165 94.021,288.556 92.404 C 289.460 91.973,290.470 91.466,290.800 91.278 C 293.328 89.839,294.980 89.204,296.842 88.957 C 298.029 88.800,299.720 88.344,300.600 87.944 C 302.491 87.085,310.146 86.865,310.635 87.656 C 311.133 88.462,310.997 93.480,310.460 94.128 C 310.182 94.463,309.200 94.865,308.279 95.020 C 307.358 95.176,305.976 95.640,305.208 96.052 C 304.440 96.463,303.531 96.800,303.188 96.800 C 302.398 96.800,298.400 100.744,298.400 101.524 C 298.400 101.844,298.063 102.667,297.651 103.353 C 297.208 104.090,296.799 105.776,296.650 107.475 C 296.512 109.057,296.195 110.857,295.946 111.475 C 295.650 112.211,295.372 119.246,295.141 131.800 C 294.895 145.149,294.602 152.280,294.180 155.200 C 293.846 157.510,293.407 161.203,293.205 163.407 C 293.002 165.612,292.558 168.081,292.218 168.895 C 291.878 169.708,291.600 171.200,291.600 172.210 C 291.600 174.098,290.914 177.490,290.388 178.200 C 290.226 178.420,289.962 179.230,289.803 180.000 C 289.644 180.770,289.173 181.961,288.757 182.647 C 288.341 183.333,288.000 184.194,288.000 184.561 C 288.000 184.927,287.550 186.115,287.000 187.200 C 286.450 188.285,286.000 189.427,286.000 189.738 C 286.000 190.048,285.720 190.535,285.377 190.819 C 285.034 191.104,284.488 191.891,284.163 192.568 C 282.735 195.545,279.245 200.687,276.994 203.130 C 272.156 208.383,266.297 213.685,264.382 214.543 C 263.822 214.795,263.102 215.228,262.782 215.506 C 261.622 216.513,259.152 218.000,258.638 218.000 C 258.349 218.000,257.449 218.450,256.638 219.000 C 255.828 219.550,255.057 220.000,254.926 220.000 C 254.795 220.000,253.948 220.351,253.044 220.779 C 252.140 221.207,250.374 221.840,249.120 222.184 C 247.867 222.529,246.731 222.988,246.597 223.205 C 246.463 223.422,245.726 223.600,244.960 223.600 C 244.195 223.600,242.900 223.939,242.084 224.353 C 241.268 224.767,239.430 225.232,238.000 225.386 C 236.570 225.540,234.500 225.934,233.400 226.261 C 232.233 226.608,228.985 226.937,225.600 227.051 C 222.410 227.159,219.388 227.331,218.884 227.435 L 217.968 227.623 218.084 268.512 L 218.200 309.400 219.100 310.994 C 219.595 311.871,220.000 312.810,220.000 313.082 C 220.000 314.722,222.588 318.481,225.091 320.476 C 228.343 323.069,231.380 323.936,238.656 324.351 C 244.685 324.696,244.800 324.774,244.800 328.569 C 244.800 332.735,246.675 332.400,223.353 332.400 C 212.085 332.400,202.581 332.509,202.233 332.643 C 201.674 332.857,201.600 334.379,201.600 345.643 L 201.600 358.400 206.757 358.400 C 209.672 358.400,213.194 358.146,214.857 357.815 C 216.476 357.494,219.827 357.039,222.304 356.804 C 224.782 356.569,227.287 356.195,227.872 355.973 C 228.457 355.750,230.734 355.397,232.933 355.187 C 235.328 354.959,237.184 354.579,237.565 354.239 C 237.914 353.927,239.100 353.542,240.200 353.384 C 241.300 353.225,242.685 352.850,243.277 352.550 C 243.869 352.249,245.553 351.833,247.019 351.626 C 248.484 351.418,249.991 350.970,250.368 350.629 C 250.744 350.288,251.671 349.889,252.426 349.742 C 253.182 349.596,254.427 349.143,255.194 348.738 C 255.961 348.332,256.917 348.000,257.319 348.000 C 257.721 348.000,259.073 347.536,260.325 346.969 C 265.340 344.695,267.047 343.900,268.062 343.362 C 268.646 343.053,269.376 342.800,269.684 342.800 C 269.992 342.800,270.855 342.350,271.600 341.800 C 272.345 341.250,273.253 340.800,273.616 340.800 C 273.979 340.800,274.586 340.458,274.964 340.040 C 275.343 339.621,276.271 339.163,277.026 339.021 C 277.782 338.880,278.400 338.611,278.400 338.425 C 278.400 338.130,282.790 335.446,286.100 333.716 C 286.705 333.400,287.200 332.996,287.200 332.819 C 287.200 332.642,287.755 332.267,288.434 331.986 C 289.113 331.705,289.878 331.272,290.134 331.025 C 290.390 330.778,292.040 329.544,293.800 328.283 C 295.560 327.022,297.390 325.677,297.867 325.295 C 298.344 324.913,299.210 324.240,299.792 323.800 C 300.375 323.360,301.161 322.730,301.541 322.400 C 301.920 322.070,302.944 321.199,303.815 320.464 C 310.160 315.117,315.064 310.209,321.303 302.965 C 322.456 301.627,324.075 299.753,324.900 298.801 C 325.725 297.850,326.400 296.997,326.400 296.906 C 326.400 296.755,329.491 292.534,331.019 290.600 C 331.366 290.160,332.264 288.824,333.014 287.630 C 333.765 286.437,334.518 285.357,334.689 285.230 C 334.860 285.104,335.322 284.370,335.716 283.600 C 336.812 281.459,337.413 280.472,338.088 279.703 C 338.428 279.316,338.843 278.550,339.010 278.000 C 339.178 277.450,340.011 275.853,340.862 274.452 C 341.713 273.050,342.515 271.483,342.644 270.968 C 342.773 270.454,343.131 269.823,343.439 269.567 C 343.748 269.311,344.001 268.899,344.002 268.651 C 344.002 268.403,344.542 267.120,345.200 265.800 C 345.858 264.480,346.398 263.184,346.398 262.920 C 346.399 262.656,346.636 262.296,346.926 262.120 C 347.215 261.944,347.677 260.768,347.953 259.507 C 348.229 258.246,348.617 257.113,348.816 256.990 C 349.015 256.867,349.380 256.009,349.626 255.083 C 349.873 254.157,350.339 253.104,350.662 252.741 C 350.985 252.379,351.402 251.003,351.588 249.683 C 351.775 248.362,352.193 246.859,352.517 246.341 C 352.841 245.824,353.225 244.595,353.372 243.610 C 353.518 242.626,353.905 241.527,354.230 241.167 C 354.556 240.807,354.992 239.092,355.200 237.356 C 355.409 235.620,355.829 233.390,356.136 232.400 C 356.442 231.410,356.826 229.340,356.988 227.800 C 357.150 226.260,357.479 224.640,357.720 224.200 C 359.841 220.324,359.888 180.110,357.777 174.800 C 357.471 174.030,357.025 171.898,356.786 170.062 C 356.547 168.227,356.189 166.296,355.990 165.772 C 355.790 165.249,355.443 163.346,355.217 161.545 C 354.991 159.744,354.543 157.979,354.222 157.624 C 353.901 157.269,353.514 156.174,353.363 155.190 C 353.212 154.205,352.832 152.891,352.518 152.270 C 352.205 151.648,351.785 150.138,351.586 148.915 C 351.387 147.691,350.965 146.399,350.649 146.045 C 350.333 145.690,349.873 144.643,349.626 143.717 C 349.380 142.791,349.018 141.935,348.822 141.813 C 348.625 141.692,348.269 140.680,348.030 139.565 C 347.791 138.450,347.326 137.269,346.998 136.940 C 346.669 136.612,346.400 136.020,346.400 135.625 C 346.400 135.231,346.066 134.479,345.658 133.954 C 345.250 133.429,344.687 132.280,344.408 131.400 C 344.128 130.520,343.674 129.530,343.400 129.200 C 343.126 128.870,342.684 127.925,342.420 127.100 C 342.155 126.275,341.786 125.600,341.600 125.600 C 341.414 125.600,341.059 124.984,340.811 124.232 C 340.562 123.480,340.116 122.662,339.819 122.416 C 339.522 122.169,339.157 121.481,339.008 120.888 C 338.859 120.294,338.607 119.716,338.448 119.604 C 338.067 119.335,335.600 115.628,335.600 115.325 C 335.600 115.195,334.565 113.574,333.300 111.723 C 332.035 109.871,330.730 107.871,330.400 107.278 C 330.069 106.684,329.439 105.822,329.000 105.360 C 328.560 104.899,327.840 104.008,327.400 103.380 C 326.960 102.752,326.105 101.665,325.500 100.966 C 324.895 100.267,324.400 99.583,324.400 99.447 C 324.400 99.311,324.085 98.862,323.700 98.449 C 323.315 98.036,321.830 96.380,320.400 94.769 C 316.086 89.908,303.168 77.200,302.542 77.200 C 302.401 77.200,301.367 76.429,300.243 75.486 C 299.119 74.543,297.733 73.477,297.162 73.117 C 296.592 72.758,295.595 71.933,294.947 71.286 C 294.299 70.638,293.395 69.989,292.937 69.844 C 292.480 69.698,291.784 69.224,291.391 68.790 C 290.998 68.355,290.533 68.000,290.358 68.000 C 290.183 68.000,289.201 67.415,288.176 66.700 C 287.151 65.985,285.657 65.007,284.856 64.527 C 284.055 64.046,282.770 63.274,282.000 62.812 C 278.157 60.502,277.308 60.007,276.200 59.436 C 275.540 59.095,274.730 58.636,274.400 58.417 C 274.070 58.197,272.540 57.465,271.000 56.791 C 269.460 56.116,267.363 55.122,266.341 54.582 C 265.319 54.042,264.216 53.600,263.890 53.600 C 263.564 53.600,263.090 53.349,262.835 53.042 C 262.580 52.735,261.723 52.362,260.931 52.214 C 260.139 52.065,258.844 51.596,258.052 51.172 C 257.260 50.747,256.318 50.400,255.960 50.400 C 255.601 50.400,254.879 50.065,254.354 49.656 C 253.829 49.247,252.538 48.785,251.483 48.629 C 250.429 48.473,248.809 48.002,247.883 47.582 C 246.958 47.161,245.747 46.814,245.194 46.809 C 244.641 46.804,243.561 46.464,242.794 46.053 C 242.027 45.642,239.908 45.105,238.086 44.859 C 236.263 44.614,234.464 44.251,234.086 44.053 C 233.709 43.854,232.230 43.572,230.800 43.425 C 229.370 43.278,227.030 42.819,225.600 42.405 C 223.894 41.910,220.457 41.498,215.600 41.204 C 211.530 40.957,206.915 40.651,205.344 40.523 C 202.730 40.310,202.449 40.361,202.040 41.125 M308.198 45.300 C 311.296 47.680,312.851 49.444,313.194 50.967 C 313.664 53.060,312.937 56.699,311.941 57.231 C 311.534 57.450,311.200 57.993,311.200 58.438 C 311.200 59.373,307.530 63.409,305.925 64.239 C 304.159 65.152,299.600 64.663,299.600 63.561 C 299.600 63.362,299.429 63.200,299.220 63.200 C 299.011 63.200,297.931 62.525,296.821 61.700 C 294.343 59.860,294.244 58.960,296.252 56.510 C 297.051 55.535,298.342 53.811,299.122 52.678 C 299.901 51.545,300.689 50.434,300.874 50.209 C 302.392 48.359,303.600 46.623,303.600 46.292 C 303.600 44.601,306.479 43.980,308.198 45.300 M82.945 53.673 C 84.038 54.269,89.484 56.960,90.400 57.356 C 90.730 57.499,91.720 58.054,92.600 58.589 C 93.480 59.124,94.650 59.771,95.200 60.027 C 95.750 60.284,97.411 61.053,98.892 61.738 C 100.422 62.444,101.959 63.490,102.454 64.158 L 103.324 65.335 102.240 66.267 C 100.614 67.665,98.715 67.442,96.600 65.605 C 94.650 63.911,93.147 64.258,90.193 67.081 C 87.168 69.974,86.628 70.705,87.084 71.292 C 89.114 73.906,89.066 79.200,87.013 79.200 C 86.502 79.200,84.400 81.258,84.400 81.758 C 84.400 81.930,83.635 82.834,82.700 83.766 C 80.828 85.632,77.692 89.016,75.746 91.270 C 70.820 96.976,69.119 93.752,67.355 75.374 C 67.248 74.259,66.807 72.766,66.376 72.056 L 65.590 70.765 63.295 73.271 C 57.956 79.100,57.998 79.077,56.200 77.200 L 55.050 76.000 56.225 74.769 C 56.871 74.093,58.885 72.018,60.700 70.160 C 62.515 68.301,64.000 66.681,64.000 66.559 C 64.000 65.794,66.482 64.000,67.541 64.000 C 69.165 64.000,69.899 64.846,70.233 67.105 C 70.387 68.147,70.758 69.698,71.057 70.550 C 71.356 71.403,71.600 72.966,71.600 74.024 C 71.600 76.466,73.174 86.478,73.636 86.972 C 73.843 87.194,74.512 86.733,75.292 85.831 C 79.942 80.453,82.585 78.000,83.729 78.000 C 84.609 78.000,84.800 77.876,84.501 77.500 C 84.283 77.225,83.976 76.280,83.819 75.400 C 83.661 74.520,83.188 73.239,82.766 72.553 C 82.345 71.867,82.000 71.006,82.000 70.641 C 82.000 70.275,81.550 68.907,81.000 67.600 C 80.450 66.293,79.996 64.814,79.991 64.312 C 79.986 63.810,79.630 62.950,79.200 62.400 C 78.770 61.850,78.414 61.037,78.409 60.594 C 78.404 60.151,78.040 59.116,77.600 58.296 C 75.460 54.302,78.800 51.413,82.945 53.673 M82.629 59.069 C 82.498 59.411,82.745 60.263,83.177 60.964 C 83.610 61.664,84.085 62.994,84.233 63.918 C 84.542 65.851,85.712 66.224,87.000 64.800 C 87.398 64.360,87.947 64.000,88.219 64.000 C 88.766 64.000,89.200 63.123,89.200 62.017 C 89.200 61.530,88.789 61.218,87.919 61.044 C 87.215 60.903,86.270 60.465,85.819 60.070 C 84.384 58.813,82.905 58.349,82.629 59.069 M329.067 59.467 C 328.130 60.404,328.973 61.958,332.236 65.306 C 337.500 70.708,337.066 71.489,328.758 71.560 C 311.604 71.707,307.679 73.397,312.515 78.551 C 313.882 80.007,316.440 82.747,318.200 84.639 C 324.593 91.513,324.495 91.442,325.738 90.069 C 326.837 88.854,326.566 88.389,321.794 83.303 C 315.651 76.754,315.726 76.404,323.274 76.394 C 325.847 76.390,328.836 76.136,330.200 75.805 C 331.520 75.485,334.130 75.118,336.000 74.990 C 343.838 74.454,344.811 73.184,340.633 68.942 C 339.735 68.031,337.290 65.473,335.200 63.259 C 331.536 59.378,330.065 58.468,329.067 59.467 M348.264 79.110 C 347.859 79.199,347.196 79.571,346.792 79.936 C 346.387 80.301,345.487 81.050,344.792 81.600 C 344.096 82.150,343.085 83.005,342.543 83.500 C 342.002 83.995,341.414 84.400,341.238 84.400 C 341.061 84.400,340.458 84.805,339.897 85.300 C 339.336 85.795,338.454 86.522,337.938 86.914 C 337.422 87.307,336.460 88.064,335.800 88.596 C 331.145 92.346,330.012 93.200,329.699 93.200 C 329.346 93.200,327.600 95.030,327.600 95.400 C 327.600 97.009,330.984 98.326,332.158 97.173 C 333.526 95.829,337.452 92.800,337.826 92.800 C 338.016 92.800,338.538 92.440,338.986 92.000 C 340.139 90.866,345.607 86.415,346.793 85.645 C 347.340 85.290,348.068 84.730,348.411 84.400 C 348.754 84.070,349.522 83.442,350.117 83.005 C 351.801 81.769,350.319 78.656,348.264 79.110 M55.263 85.437 C 57.435 86.072,56.122 88.960,53.597 89.100 C 50.803 89.255,48.892 89.981,48.641 90.980 C 48.520 91.460,48.057 92.273,47.611 92.787 C 46.100 94.530,47.150 97.600,49.258 97.600 C 50.002 97.600,52.027 96.346,53.456 95.000 C 53.923 94.560,54.731 93.883,55.252 93.496 C 55.774 93.110,56.740 92.380,57.400 91.875 C 63.241 87.407,70.217 92.744,68.352 100.253 C 66.577 107.398,56.272 112.308,53.734 107.217 C 52.832 105.409,53.632 104.800,56.914 104.798 L 59.800 104.797 61.945 102.853 L 64.089 100.909 64.145 98.240 C 64.236 93.830,61.420 93.658,56.925 97.800 C 55.704 98.926,55.148 99.356,53.790 100.227 C 53.135 100.646,52.362 101.217,52.071 101.495 C 51.111 102.412,47.551 102.279,45.928 101.265 C 43.095 99.494,41.538 94.096,43.286 92.105 C 43.627 91.717,44.024 91.011,44.168 90.537 C 44.438 89.650,45.765 88.101,47.691 86.426 C 49.333 84.998,52.395 84.598,55.263 85.437 M91.843 89.033 C 90.763 91.846,91.923 93.574,95.317 94.211 C 96.137 94.365,97.210 94.805,97.703 95.190 C 98.197 95.575,98.983 96.010,99.450 96.156 C 102.267 97.038,105.486 102.254,105.825 106.487 C 105.954 108.089,106.322 110.634,106.644 112.143 C 107.059 114.087,107.341 119.739,107.612 131.543 C 107.823 140.704,108.168 149.190,108.380 150.400 C 108.591 151.610,108.942 155.963,109.158 160.074 C 109.431 165.245,109.736 167.902,110.148 168.699 C 110.475 169.333,110.864 171.009,111.012 172.425 C 111.160 173.841,111.594 175.630,111.976 176.400 C 112.359 177.170,112.784 178.628,112.920 179.640 C 113.057 180.652,113.438 182.002,113.768 182.640 C 114.868 184.766,116.338 188.213,116.614 189.313 C 116.764 189.911,117.035 190.400,117.216 190.400 C 117.398 190.400,117.657 190.749,117.792 191.176 C 117.928 191.602,118.840 193.147,119.819 194.607 C 120.799 196.068,121.600 197.396,121.600 197.559 C 121.600 197.722,122.095 198.433,122.700 199.138 C 123.305 199.843,124.160 200.899,124.600 201.484 C 128.095 206.134,136.996 213.649,141.500 215.752 C 142.215 216.086,142.800 216.545,142.800 216.772 C 142.800 216.999,143.295 217.302,143.900 217.446 C 145.050 217.718,148.966 219.375,150.000 220.027 C 150.746 220.497,150.719 220.487,154.600 221.717 C 156.360 222.274,158.790 222.857,160.000 223.012 C 161.210 223.167,162.670 223.535,163.245 223.829 C 163.820 224.123,165.865 224.560,167.790 224.799 C 169.716 225.038,172.298 225.496,173.529 225.817 C 174.761 226.138,177.448 226.400,179.502 226.400 C 182.948 226.400,183.313 226.477,184.232 227.396 L 185.228 228.391 185.069 265.096 C 184.910 302.124,184.641 309.823,183.464 311.136 C 183.136 311.501,182.746 312.520,182.596 313.400 C 182.447 314.280,181.982 315.488,181.563 316.084 C 181.143 316.680,180.800 317.333,180.800 317.536 C 180.800 318.769,174.815 323.600,173.287 323.600 C 172.741 323.600,171.643 324.002,170.847 324.494 C 169.570 325.284,168.743 325.406,163.800 325.540 C 157.639 325.707,157.615 325.717,157.606 328.267 C 157.594 331.466,155.665 331.200,178.843 331.200 L 199.600 331.200 199.600 211.196 L 199.600 91.193 178.700 91.296 L 157.800 91.400 157.800 93.800 L 157.800 96.200 163.680 96.400 C 167.612 96.534,169.726 96.766,170.060 97.100 C 170.335 97.375,171.039 97.600,171.624 97.600 C 172.209 97.600,173.351 98.050,174.162 98.600 C 174.972 99.150,175.763 99.600,175.918 99.600 C 177.445 99.600,182.167 106.125,182.568 108.790 C 182.717 109.774,183.123 110.894,183.471 111.278 C 184.684 112.619,184.879 119.391,185.057 166.350 C 185.222 210.099,185.188 213.350,184.555 214.050 C 183.353 215.378,174.384 214.958,170.292 213.381 C 169.462 213.062,168.362 212.800,167.846 212.800 C 167.330 212.800,166.450 212.440,165.891 212.000 C 165.331 211.560,164.449 211.200,163.930 211.200 C 163.411 211.200,162.323 210.750,161.514 210.200 C 160.705 209.650,159.861 209.200,159.639 209.200 C 157.395 209.200,144.000 196.297,144.000 194.136 C 144.000 193.841,143.850 193.600,143.667 193.600 C 143.112 193.600,140.800 188.765,140.800 187.606 C 140.800 187.011,140.440 186.198,140.000 185.800 C 139.560 185.402,139.200 184.751,139.200 184.353 C 139.200 183.955,138.844 182.725,138.408 181.620 C 137.960 180.485,137.437 177.712,137.204 175.245 C 136.978 172.844,136.536 170.266,136.223 169.516 C 135.909 168.765,135.533 166.092,135.387 163.576 C 135.240 161.059,134.869 157.491,134.560 155.648 C 134.252 153.804,134.000 150.479,134.000 148.258 C 134.000 142.578,133.187 131.144,132.721 130.261 C 132.506 129.855,132.179 127.908,131.994 125.935 C 131.809 123.962,131.403 121.954,131.092 121.474 C 130.781 120.993,130.409 119.729,130.266 118.664 C 130.123 117.599,129.644 115.911,129.203 114.913 C 128.761 113.915,128.400 112.774,128.400 112.378 C 128.400 111.981,128.144 111.401,127.831 111.089 C 127.296 110.554,126.948 109.940,125.018 106.140 C 124.588 105.293,123.913 104.365,123.518 104.077 C 123.123 103.790,122.800 103.400,122.800 103.210 C 122.800 102.636,119.060 98.637,116.056 96.000 C 114.633 94.750,112.145 93.269,110.706 92.814 C 109.884 92.554,109.108 92.175,108.982 91.971 C 108.856 91.767,108.428 91.600,108.030 91.600 C 107.633 91.600,106.853 91.242,106.297 90.805 C 105.695 90.331,104.175 89.850,102.543 89.617 C 101.034 89.401,98.830 89.039,97.645 88.812 C 94.407 88.193,92.132 88.279,91.843 89.033 M356.937 96.825 C 355.142 96.999,353.162 97.404,352.537 97.724 C 351.912 98.045,350.050 98.439,348.400 98.600 C 346.750 98.761,344.915 99.142,344.321 99.446 C 343.728 99.750,341.419 100.206,339.190 100.459 C 333.936 101.057,332.825 102.062,335.009 104.245 C 335.965 105.201,336.178 105.241,339.109 105.008 C 340.809 104.873,342.383 104.906,342.607 105.081 C 343.232 105.571,346.800 111.005,346.800 111.467 C 346.800 111.692,347.160 112.202,347.600 112.600 C 348.657 113.556,348.614 115.088,347.500 116.232 C 344.507 119.303,344.357 119.895,346.040 121.990 C 347.329 123.594,347.329 123.594,347.940 122.721 C 348.276 122.241,348.832 121.542,349.176 121.166 C 350.710 119.489,351.600 118.301,351.600 117.930 C 351.600 117.709,352.410 116.579,353.400 115.421 C 354.390 114.262,355.200 113.185,355.200 113.027 C 355.200 112.869,356.235 111.388,357.500 109.736 C 358.765 108.083,360.065 106.342,360.389 105.866 C 360.713 105.390,361.658 104.063,362.489 102.917 C 363.320 101.771,364.000 100.546,364.000 100.194 C 364.000 99.256,361.573 96.391,360.833 96.455 C 360.485 96.484,358.732 96.651,356.937 96.825 M356.971 101.829 C 357.748 102.605,357.784 102.391,356.598 104.022 C 354.610 106.755,353.777 107.755,352.407 109.055 L 351.014 110.376 349.723 109.125 C 345.741 105.266,347.039 102.231,352.936 101.610 C 354.511 101.444,355.922 101.284,356.071 101.254 C 356.221 101.224,356.626 101.483,356.971 101.829 M41.600 106.208 C 44.142 107.509,45.592 109.935,45.598 112.900 C 45.600 114.215,46.344 114.292,50.400 113.400 C 53.280 112.766,57.837 112.612,58.161 113.138 C 58.518 113.715,57.634 116.245,56.817 116.985 C 56.216 117.529,54.869 117.776,50.921 118.067 C 45.226 118.487,45.019 118.586,42.741 121.953 C 41.523 123.755,41.480 124.800,42.626 124.800 C 42.984 124.800,43.765 125.148,44.363 125.573 C 44.960 125.999,45.925 126.466,46.508 126.613 C 47.091 126.759,47.792 127.150,48.067 127.481 C 48.342 127.812,48.980 128.240,49.484 128.432 C 50.595 128.854,50.730 130.573,49.738 131.669 C 49.014 132.468,47.007 132.658,46.580 131.967 C 46.432 131.729,45.567 131.191,44.656 130.772 C 43.745 130.353,42.730 129.852,42.400 129.658 C 42.070 129.465,40.590 128.722,39.111 128.007 C 37.632 127.292,36.230 126.477,35.996 126.196 C 35.763 125.914,34.971 125.571,34.237 125.433 C 33.503 125.296,32.492 124.827,31.990 124.392 C 31.488 123.956,30.790 123.598,30.439 123.597 C 28.803 123.588,26.401 120.429,27.400 119.600 C 27.730 119.326,28.000 118.917,28.000 118.690 C 28.000 117.919,30.483 113.001,31.031 112.687 C 31.331 112.514,31.765 111.673,31.995 110.817 C 33.092 106.745,38.024 104.378,41.600 106.208 M36.569 111.458 C 35.767 112.260,34.857 113.524,34.546 114.267 C 34.236 115.010,33.626 115.974,33.191 116.409 C 31.639 117.961,32.619 120.148,35.326 121.173 C 37.286 121.916,38.370 121.711,38.889 120.500 C 39.149 119.895,39.652 118.950,40.008 118.400 C 41.823 115.598,41.747 111.913,39.851 110.670 C 38.442 109.747,38.228 109.799,36.569 111.458 M373.772 119.159 C 373.291 119.602,369.114 121.149,366.800 121.740 C 365.810 121.993,364.555 122.515,364.011 122.900 C 362.711 123.820,361.362 123.786,360.109 122.800 C 358.372 121.434,354.943 121.825,356.600 123.200 C 357.798 124.194,355.046 127.200,352.939 127.200 C 350.489 127.200,349.465 130.138,351.034 132.663 C 351.329 133.137,351.782 134.397,352.041 135.463 C 352.301 136.528,352.725 137.670,352.985 138.000 C 353.245 138.330,353.699 139.365,353.993 140.300 C 354.287 141.235,354.645 142.000,354.788 142.000 C 354.932 142.000,355.279 142.900,355.561 144.000 C 356.142 146.266,356.271 146.332,357.788 145.138 C 358.958 144.218,359.038 142.251,357.959 140.951 C 357.351 140.218,355.606 135.413,355.325 133.701 C 354.940 131.344,355.398 130.546,357.433 130.034 C 358.445 129.778,359.696 129.294,360.211 128.956 C 362.402 127.521,367.029 128.528,370.071 131.104 C 370.467 131.439,371.083 131.564,371.571 131.409 C 372.359 131.159,372.466 131.001,372.560 129.954 C 372.582 129.708,371.790 129.203,370.800 128.831 C 367.955 127.763,368.356 125.484,371.514 124.775 C 373.083 124.422,375.949 122.861,375.983 122.341 C 376.029 121.631,374.101 118.855,373.772 119.159 M47.130 134.348 C 49.425 135.803,46.520 138.521,42.010 139.138 C 39.296 139.509,38.000 140.468,38.000 142.106 C 38.000 142.555,37.528 143.920,36.951 145.139 L 35.903 147.356 37.274 148.578 C 38.028 149.250,39.310 150.389,40.123 151.110 C 42.390 153.120,41.825 157.191,39.455 155.922 C 38.408 155.362,32.376 150.503,31.715 149.687 C 31.449 149.358,30.877 148.889,30.445 148.645 C 29.507 148.114,22.182 142.190,20.900 140.924 C 19.701 139.741,19.765 138.446,21.100 136.879 L 22.200 135.589 29.000 135.185 C 32.740 134.962,36.610 134.627,37.600 134.440 C 39.995 133.988,46.463 133.925,47.130 134.348 M26.098 139.866 C 25.430 140.135,25.869 140.798,26.724 140.809 C 27.096 140.814,28.292 141.632,29.382 142.628 C 32.061 145.075,33.121 144.973,33.821 142.202 C 34.099 141.103,34.242 140.068,34.139 139.902 C 33.935 139.571,26.907 139.539,26.098 139.866 M17.773 150.756 C 17.894 150.951,18.489 151.235,19.096 151.385 C 19.703 151.536,20.560 151.984,21.000 152.380 C 21.440 152.777,22.457 153.218,23.260 153.361 C 24.063 153.504,24.925 153.869,25.176 154.171 C 25.427 154.474,26.120 154.843,26.716 154.990 C 27.312 155.138,28.160 155.582,28.600 155.976 C 29.040 156.370,30.018 156.809,30.774 156.951 C 31.529 157.093,32.429 157.455,32.774 157.754 C 33.118 158.054,34.075 158.516,34.900 158.780 C 35.725 159.045,36.400 159.392,36.400 159.551 C 36.400 159.709,37.029 160.067,37.799 160.345 C 40.200 161.213,40.267 164.345,37.902 165.180 C 36.301 165.746,29.898 166.355,24.800 166.426 C 21.701 166.470,17.764 167.009,19.444 167.160 C 19.688 167.182,20.525 167.632,21.303 168.160 C 22.081 168.688,23.141 169.246,23.659 169.399 C 25.238 169.869,28.919 171.662,29.505 172.248 C 29.809 172.552,30.359 172.809,30.729 172.819 C 34.115 172.914,37.396 176.702,36.068 178.984 C 35.277 180.342,35.968 180.217,23.600 181.229 C 10.914 182.268,11.110 182.281,10.660 180.365 C 10.109 178.014,11.953 177.449,21.800 176.948 C 26.784 176.695,29.750 176.141,28.400 175.716 C 27.012 175.278,18.241 171.127,18.000 170.793 C 17.890 170.641,17.080 170.288,16.200 170.009 C 11.740 168.595,11.512 165.190,15.760 163.435 C 17.044 162.905,26.348 162.026,30.924 162.004 C 32.092 161.998,31.329 161.313,29.843 161.034 C 29.092 160.894,28.382 160.530,28.266 160.227 C 28.149 159.924,27.457 159.548,26.727 159.393 C 25.997 159.238,25.130 158.878,24.800 158.593 C 24.470 158.308,23.390 157.861,22.400 157.600 C 21.410 157.339,20.318 156.874,19.974 156.568 C 19.629 156.261,18.778 155.896,18.083 155.757 C 16.678 155.476,16.225 155.045,15.888 153.673 C 15.436 151.828,16.969 149.455,17.773 150.756 M382.341 157.631 C 380.659 157.809,378.612 158.235,377.792 158.577 C 376.973 158.920,375.533 159.200,374.593 159.200 C 373.653 159.200,371.740 159.553,370.342 159.984 C 368.944 160.415,366.307 160.891,364.481 161.043 L 361.162 161.318 361.281 163.359 L 361.400 165.400 363.966 165.521 C 365.871 165.610,367.023 165.431,368.437 164.822 C 371.320 163.582,372.922 165.400,373.462 170.525 C 373.582 171.666,374.022 173.088,374.440 173.684 C 374.858 174.280,375.200 175.024,375.200 175.336 C 375.200 178.791,383.606 179.355,387.181 176.141 L 389.200 174.326 389.176 170.263 C 389.163 168.028,388.992 165.390,388.797 164.400 C 387.523 157.944,387.221 157.158,386.051 157.253 C 385.693 157.282,384.024 157.452,382.341 157.631 M385.043 164.561 C 387.263 169.329,385.522 173.600,381.357 173.600 C 378.590 173.600,377.085 171.831,376.465 167.846 C 375.789 163.503,376.233 162.880,380.318 162.445 C 383.775 162.078,383.916 162.141,385.043 164.561 M367.427 188.988 C 364.975 191.404,364.794 191.704,364.717 193.488 C 364.292 203.233,366.180 206.852,371.836 207.138 C 376.618 207.379,379.692 205.216,380.206 201.247 C 380.338 200.231,380.698 198.934,381.008 198.363 C 381.317 197.793,381.690 196.580,381.836 195.666 C 381.982 194.753,382.394 193.659,382.751 193.236 C 383.108 192.813,383.722 192.082,384.115 191.612 C 386.288 189.010,389.520 194.111,388.380 198.341 C 387.788 200.534,387.161 201.353,385.571 202.012 C 383.840 202.729,384.177 206.400,385.974 206.400 C 392.776 206.400,394.698 192.201,388.449 188.110 C 386.046 186.537,385.435 186.452,383.000 187.358 C 380.236 188.386,377.200 192.891,377.200 195.964 C 377.200 196.632,376.852 197.948,376.427 198.889 C 376.002 199.830,375.560 200.909,375.445 201.287 C 374.758 203.538,370.279 203.106,368.658 200.633 C 366.736 197.700,369.173 190.800,372.131 190.800 C 372.675 190.800,372.800 190.389,372.800 188.600 L 372.800 186.400 371.427 186.400 C 370.275 186.400,369.631 186.817,367.427 188.988 M14.410 197.026 C 14.624 197.590,14.800 199.210,14.800 200.626 L 14.800 203.200 24.300 203.206 C 34.805 203.212,35.704 203.381,35.934 205.390 C 36.143 207.205,35.222 207.600,30.787 207.600 C 28.664 207.600,24.199 207.718,20.864 207.862 L 14.800 208.125 14.800 211.036 C 14.800 215.067,14.391 216.000,12.624 216.000 C 11.653 216.000,11.102 215.764,10.814 215.226 C 10.200 214.079,10.260 197.100,10.880 196.480 C 11.805 195.555,13.978 195.891,14.410 197.026 M389.564 215.443 C 388.942 216.193,384.404 218.400,383.485 218.400 C 383.134 218.400,382.731 218.587,382.590 218.816 C 382.302 219.283,378.126 221.321,375.832 222.116 C 374.617 222.536,373.573 222.539,370.268 222.132 C 363.502 221.297,363.124 221.394,363.056 223.973 C 363.000 226.109,363.460 226.380,367.200 226.418 C 372.211 226.468,373.769 226.880,375.971 228.736 C 377.056 229.651,378.032 230.400,378.139 230.400 C 378.247 230.400,379.084 231.120,380.000 232.000 C 380.916 232.880,381.803 233.600,381.970 233.600 C 382.138 233.600,383.315 234.510,384.586 235.622 C 387.234 237.939,388.516 238.134,388.731 236.252 C 388.975 234.120,388.460 233.369,385.010 230.830 C 383.134 229.450,381.600 228.171,381.600 227.988 C 381.600 227.804,381.257 227.545,380.837 227.412 C 379.415 226.960,379.524 224.400,380.965 224.400 C 381.260 224.400,381.717 224.142,381.979 223.826 C 382.241 223.510,383.028 223.130,383.728 222.983 C 384.427 222.835,385.540 222.393,386.200 222.000 C 386.860 221.607,387.986 221.162,388.703 221.011 C 390.323 220.668,390.800 219.812,390.800 217.250 C 390.800 215.065,390.383 214.456,389.564 215.443 M35.897 218.100 C 36.114 218.375,36.402 219.320,36.536 220.200 C 36.670 221.080,37.054 222.784,37.390 223.987 C 37.725 225.190,38.000 227.044,38.000 228.107 C 38.000 229.170,38.280 230.581,38.622 231.242 C 38.974 231.924,39.191 233.150,39.122 234.072 L 39.000 235.700 36.200 236.455 C 34.660 236.871,31.352 237.473,28.849 237.792 C 26.346 238.111,23.715 238.564,23.002 238.799 C 21.115 239.422,15.503 239.986,14.847 239.618 C 13.055 238.615,11.053 222.881,12.576 221.768 C 14.691 220.221,15.832 222.251,16.390 228.555 C 16.883 234.121,17.533 235.505,19.400 234.966 C 19.840 234.839,20.650 234.636,21.200 234.514 C 23.046 234.105,23.187 233.761,22.929 230.264 C 22.797 228.469,22.469 226.550,22.201 226.000 C 21.933 225.450,21.602 224.411,21.465 223.692 C 20.949 220.976,24.568 219.583,25.339 222.200 C 25.533 222.860,25.960 224.030,26.288 224.800 C 26.616 225.570,27.021 227.690,27.187 229.512 C 27.354 231.333,27.610 232.944,27.757 233.091 C 28.178 233.512,30.836 233.324,31.322 232.838 C 31.563 232.597,32.062 232.400,32.431 232.400 C 34.248 232.400,34.245 230.825,32.408 221.009 C 32.010 218.882,32.037 218.562,32.657 218.109 C 33.548 217.458,35.385 217.452,35.897 218.100 M366.400 242.402 C 362.512 243.067,361.413 243.564,359.528 245.508 C 358.498 246.570,357.536 247.918,357.389 248.503 C 357.242 249.088,356.869 249.777,356.561 250.033 C 356.151 250.373,356.000 251.535,356.000 254.356 L 356.000 258.214 357.831 260.307 C 360.023 262.812,361.063 262.990,362.479 261.100 L 363.453 259.800 362.294 258.800 C 355.555 252.985,363.810 243.040,371.800 247.348 C 372.460 247.704,373.287 247.996,373.638 247.998 C 373.989 247.999,374.602 248.360,375.000 248.800 C 375.398 249.240,375.931 249.600,376.184 249.600 C 377.050 249.600,379.128 252.200,379.632 253.916 C 380.656 257.400,378.322 261.461,374.600 262.675 C 373.271 263.108,373.001 263.812,373.381 265.840 C 373.685 267.459,374.028 267.497,376.892 266.231 C 382.017 263.964,385.475 255.470,383.011 251.200 C 382.694 250.650,382.268 249.840,382.065 249.399 C 381.553 248.290,377.760 244.800,377.066 244.800 C 376.754 244.800,376.285 244.544,376.025 244.230 C 375.665 243.796,368.618 241.812,368.270 242.047 C 368.231 242.073,367.390 242.233,366.400 242.402 M19.820 244.987 C 20.139 245.750,20.400 246.654,20.400 246.995 C 20.400 247.337,20.841 248.314,21.380 249.168 L 22.359 250.720 23.880 250.177 C 24.716 249.879,26.053 249.627,26.851 249.618 C 27.649 249.608,28.514 249.344,28.774 249.031 C 29.034 248.718,30.001 248.339,30.923 248.187 C 31.845 248.036,33.627 247.561,34.882 247.131 C 37.780 246.139,42.269 245.953,42.820 246.802 C 43.807 248.323,42.317 250.394,40.224 250.409 C 39.551 250.414,38.260 250.754,37.356 251.164 C 36.452 251.575,34.922 252.042,33.956 252.203 C 32.990 252.363,31.750 252.722,31.200 252.999 C 30.650 253.276,28.884 253.736,27.275 254.020 C 23.193 254.742,22.840 255.527,24.199 260.868 C 24.419 261.734,24.279 262.061,23.455 262.601 C 21.475 263.898,19.917 262.288,19.394 258.404 C 19.232 257.196,18.761 255.579,18.349 254.810 C 17.937 254.041,17.600 252.921,17.600 252.321 C 17.600 251.721,17.240 250.316,16.800 249.200 C 15.628 246.228,15.763 244.438,17.200 243.892 C 18.605 243.357,19.252 243.627,19.820 244.987 M49.986 267.174 C 51.114 269.282,49.898 270.944,46.500 271.936 C 45.565 272.209,44.800 272.598,44.800 272.801 C 44.800 273.003,44.091 273.360,43.224 273.594 C 42.244 273.857,41.553 274.317,41.397 274.809 C 41.259 275.244,40.981 275.600,40.778 275.600 C 40.576 275.600,40.157 276.208,39.846 276.951 C 39.536 277.694,39.081 278.427,38.835 278.579 C 38.589 278.730,38.111 279.427,37.772 280.127 C 36.835 282.066,35.835 283.779,35.266 284.421 C 34.983 284.740,34.414 285.572,33.999 286.272 C 33.341 287.383,33.105 287.505,32.123 287.244 C 30.042 286.689,29.558 283.919,31.256 282.284 C 31.665 281.891,32.012 281.351,32.027 281.084 C 32.041 280.818,32.668 279.790,33.419 278.800 C 34.170 277.810,35.083 276.460,35.448 275.800 C 35.813 275.140,36.302 274.477,36.535 274.327 C 36.768 274.178,36.518 273.972,35.979 273.871 C 33.082 273.325,30.421 272.769,29.000 272.412 C 28.120 272.190,26.752 271.914,25.959 271.798 C 24.340 271.560,22.846 269.500,23.346 268.197 C 23.707 267.255,29.885 267.554,31.946 268.613 C 34.185 269.764,41.841 269.688,43.358 268.500 C 43.991 268.005,44.889 267.594,45.354 267.586 C 45.819 267.578,46.650 267.314,47.200 267.000 C 48.587 266.207,49.499 266.264,49.986 267.174 M350.613 267.958 C 350.485 268.363,350.024 269.016,349.590 269.409 C 348.515 270.382,348.597 270.937,349.900 271.498 C 350.505 271.758,351.360 272.198,351.800 272.477 C 354.023 273.881,354.738 274.248,356.335 274.800 C 359.496 275.893,359.622 280.501,356.546 282.494 C 356.296 282.656,355.977 283.397,355.838 284.139 C 355.584 285.491,354.769 286.478,353.553 286.906 C 352.804 287.170,349.633 285.694,346.392 283.572 C 344.449 282.300,343.741 282.283,342.632 283.479 C 341.539 284.658,341.210 286.800,342.123 286.800 C 342.994 286.800,348.127 289.526,348.496 290.185 C 348.685 290.523,349.263 290.800,349.779 290.800 C 350.800 290.800,354.853 292.796,355.844 293.787 C 356.181 294.124,356.759 294.400,357.129 294.401 C 357.821 294.402,362.444 296.690,362.800 297.208 C 362.910 297.369,363.545 297.618,364.211 297.762 C 366.601 298.280,367.434 294.039,365.102 293.226 C 364.415 292.986,363.570 292.553,363.226 292.264 C 362.882 291.975,361.867 291.529,360.970 291.274 C 359.210 290.773,358.096 289.320,358.337 287.839 C 358.529 286.660,361.473 280.817,362.525 279.528 L 363.400 278.456 365.600 279.495 C 366.810 280.066,367.940 280.766,368.111 281.051 C 368.282 281.335,369.056 281.687,369.831 281.832 C 370.605 281.977,371.473 282.330,371.759 282.616 C 372.185 283.042,372.505 282.840,373.539 281.495 C 374.989 279.608,375.067 279.257,374.100 278.959 C 373.715 278.840,373.130 278.573,372.800 278.366 C 372.470 278.159,371.480 277.634,370.600 277.200 C 369.720 276.766,368.730 276.243,368.400 276.038 C 368.070 275.834,365.730 274.647,363.200 273.401 C 360.670 272.155,357.160 270.404,355.400 269.510 C 353.640 268.617,351.896 267.736,351.523 267.554 C 351.034 267.314,350.782 267.426,350.613 267.958 M57.390 283.100 C 59.033 284.167,59.616 284.825,61.909 288.200 C 63.495 290.534,63.551 296.650,62.000 298.177 C 61.450 298.719,60.761 299.449,60.468 299.798 C 59.927 300.446,58.719 300.317,57.700 299.502 C 56.978 298.924,57.086 297.189,57.900 296.290 C 60.296 293.642,57.068 286.057,53.527 286.013 C 51.437 285.987,50.085 289.290,51.357 291.314 C 51.663 291.801,52.029 293.100,52.171 294.200 C 52.313 295.300,52.634 297.046,52.885 298.080 C 54.104 303.108,49.839 307.357,44.905 306.028 C 43.107 305.544,39.331 302.062,38.948 300.534 C 38.819 300.020,38.567 299.600,38.388 299.600 C 37.769 299.600,37.108 296.700,37.291 294.789 C 37.653 291.025,41.029 288.279,42.577 290.489 C 43.407 291.673,43.362 292.486,42.400 293.709 C 41.185 295.254,41.347 297.392,42.814 299.147 C 43.482 299.946,44.218 300.835,44.450 301.121 C 45.517 302.441,48.189 301.531,48.331 299.800 C 48.491 297.853,47.733 293.780,46.998 292.636 C 46.486 291.839,46.277 290.098,46.361 287.338 C 46.390 286.398,46.902 285.554,48.364 284.038 L 50.328 282.000 53.012 282.000 C 55.263 282.000,55.970 282.178,57.390 283.100 M336.400 296.397 C 335.850 296.580,334.929 296.833,334.354 296.959 C 329.497 298.023,325.412 306.335,326.755 312.422 C 328.553 320.571,341.412 326.480,347.346 321.883 C 349.321 320.354,351.600 318.019,351.600 317.526 C 351.600 317.265,351.939 316.680,352.354 316.226 C 354.189 314.215,354.121 306.064,352.254 304.197 C 351.894 303.837,351.600 303.348,351.600 303.109 C 351.600 302.514,347.588 298.857,346.600 298.552 C 346.160 298.416,345.491 298.035,345.114 297.703 C 343.699 296.462,338.530 295.686,336.400 296.397 M68.455 298.696 C 70.088 299.661,70.291 300.923,69.272 303.787 C 67.153 309.741,67.256 314.102,69.572 316.488 L 70.628 317.576 72.530 315.888 C 77.833 311.183,78.315 310.950,79.969 312.300 C 81.133 313.250,80.750 315.221,79.227 316.121 C 78.622 316.478,77.384 317.452,76.475 318.285 C 75.566 319.118,73.720 320.700,72.372 321.800 C 71.024 322.900,69.065 324.565,68.019 325.500 C 66.973 326.435,65.931 327.200,65.705 327.200 C 65.478 327.200,64.997 327.650,64.637 328.200 C 63.984 329.196,60.800 329.735,60.800 328.850 C 60.800 328.512,59.327 326.795,55.662 322.864 C 50.435 317.257,50.674 311.864,56.281 308.864 C 57.878 308.009,62.129 308.544,62.872 309.693 C 63.475 310.626,63.987 309.136,64.003 306.400 C 64.012 304.691,64.289 303.202,64.809 302.056 C 65.244 301.097,65.600 300.075,65.600 299.785 C 65.600 298.295,66.922 297.791,68.455 298.696 M340.490 300.547 C 340.791 300.848,341.452 301.226,341.960 301.387 C 342.844 301.668,345.463 303.249,346.109 303.892 C 347.561 305.336,348.800 306.866,348.800 307.213 C 348.800 307.443,349.185 308.153,349.655 308.789 C 351.059 310.687,350.399 313.024,347.374 316.870 C 344.832 320.101,339.581 320.186,335.711 317.060 C 330.605 312.935,328.591 307.862,331.002 305.198 C 331.331 304.834,331.600 304.345,331.600 304.110 C 331.600 303.530,334.295 301.200,334.965 301.200 C 335.260 301.200,335.726 300.930,336.000 300.600 C 336.632 299.839,339.745 299.802,340.490 300.547 M57.800 313.106 C 55.510 314.788,55.943 316.824,59.500 321.113 C 60.655 322.506,61.600 323.817,61.600 324.026 C 61.600 324.512,62.902 323.782,65.264 321.971 L 67.127 320.541 65.961 318.668 C 63.374 314.511,59.490 311.864,57.800 313.106 M315.800 317.008 C 315.140 317.570,314.121 318.473,313.536 319.015 C 312.951 319.557,312.361 320.000,312.227 320.000 C 312.092 320.000,311.221 320.722,310.291 321.605 C 309.361 322.488,307.438 324.271,306.018 325.567 C 303.212 328.129,302.922 330.000,305.333 330.000 C 306.248 330.000,306.737 329.642,310.165 326.461 C 314.784 322.175,316.574 321.706,318.630 324.242 C 319.274 325.034,320.654 326.609,321.697 327.742 C 322.740 328.874,323.595 329.921,323.597 330.068 C 323.599 330.215,324.407 331.115,325.393 332.068 C 326.380 333.021,327.190 334.019,327.193 334.286 C 327.197 334.553,327.528 334.947,327.929 335.162 C 328.330 335.377,329.164 336.283,329.783 337.176 C 331.118 339.101,331.165 339.110,332.759 337.711 C 334.426 336.248,334.324 335.308,332.267 333.187 C 331.314 332.204,329.184 329.780,327.533 327.800 C 324.205 323.808,322.927 322.357,319.400 318.566 L 317.000 315.986 315.800 317.008 M86.163 318.600 C 86.524 319.150,87.000 319.600,87.223 319.600 C 87.733 319.600,90.000 321.896,90.000 322.414 C 90.000 322.626,90.341 322.800,90.759 322.800 C 91.176 322.800,92.107 323.475,92.827 324.300 C 93.548 325.125,94.692 326.212,95.369 326.716 C 97.916 328.610,97.600 330.226,93.937 334.043 C 92.541 335.496,90.590 337.629,89.600 338.783 C 88.610 339.937,86.990 341.742,86.000 342.794 C 85.010 343.846,83.857 345.181,83.438 345.761 C 81.724 348.134,80.183 347.607,75.459 343.030 C 73.511 341.144,71.779 339.600,71.610 339.600 C 70.854 339.600,67.956 335.918,68.075 335.109 C 68.311 333.500,70.461 333.056,71.868 334.324 C 72.525 334.916,74.457 336.660,76.163 338.200 C 79.451 341.169,81.220 342.142,81.546 341.160 C 81.648 340.852,82.242 340.123,82.866 339.540 C 84.724 337.802,83.901 336.498,77.448 330.956 C 74.368 328.311,76.545 324.921,79.669 327.497 C 81.495 329.003,81.592 329.091,84.349 331.745 C 86.889 334.191,88.450 334.579,89.085 332.923 C 89.222 332.564,89.955 331.686,90.713 330.971 L 92.091 329.671 91.346 328.648 C 90.935 328.086,90.473 327.619,90.318 327.613 C 90.038 327.600,87.667 325.497,83.940 321.957 C 81.179 319.334,81.211 317.600,84.021 317.600 C 85.166 317.600,85.659 317.830,86.163 318.600 M107.386 335.984 C 108.241 336.929,107.993 339.478,106.837 341.635 C 106.434 342.388,105.968 343.806,105.803 344.785 C 105.637 345.765,105.074 347.703,104.551 349.092 C 104.028 350.482,103.600 352.045,103.600 352.566 C 103.600 353.088,103.330 353.618,103.000 353.745 C 102.312 354.009,102.179 355.200,102.837 355.200 C 103.078 355.200,103.369 354.840,103.484 354.400 C 103.599 353.960,103.874 353.600,104.094 353.600 C 104.535 353.600,106.413 352.098,109.231 349.493 C 110.239 348.562,111.921 347.080,112.971 346.200 C 114.020 345.320,115.286 344.195,115.785 343.700 C 119.114 340.395,121.745 345.591,119.211 350.465 C 118.792 351.271,118.328 352.621,118.180 353.465 C 118.032 354.309,117.688 355.360,117.415 355.800 C 117.143 356.240,116.792 357.320,116.634 358.200 C 116.477 359.080,116.018 360.520,115.614 361.400 C 115.211 362.280,114.764 363.678,114.621 364.506 C 114.318 366.267,112.276 368.592,111.347 368.235 C 111.010 368.106,110.591 368.000,110.416 368.000 C 109.812 368.000,109.074 365.634,109.512 365.100 C 109.737 364.825,110.136 363.790,110.398 362.800 C 110.660 361.810,111.105 360.730,111.387 360.400 C 111.668 360.070,112.019 359.127,112.166 358.306 C 112.314 357.484,112.783 356.044,113.208 355.106 C 113.911 353.557,114.290 350.800,113.800 350.800 C 113.570 350.800,112.992 351.294,110.159 353.913 C 107.511 356.361,103.518 359.874,102.556 360.602 C 98.874 363.390,96.519 358.767,98.794 353.216 C 99.203 352.217,99.649 350.731,99.785 349.913 C 99.920 349.095,100.285 348.172,100.595 347.862 C 101.357 347.100,101.880 343.200,101.220 343.200 C 100.954 343.200,98.685 345.213,96.178 347.674 C 89.616 354.113,88.049 354.862,86.926 352.101 C 86.458 350.947,86.480 350.723,87.128 350.101 C 88.725 348.568,91.278 346.400,91.486 346.400 C 91.608 346.400,92.574 345.545,93.633 344.500 C 94.693 343.455,96.424 341.826,97.480 340.880 C 98.536 339.933,100.388 338.268,101.596 337.180 C 104.089 334.933,106.065 334.525,107.386 335.984 M292.293 336.035 C 289.662 336.655,285.900 339.485,283.891 342.356 C 282.302 344.626,281.920 351.565,283.300 353.090 C 283.685 353.515,284.000 354.010,284.000 354.190 C 284.000 355.159,287.314 359.381,289.502 361.200 C 291.989 363.266,297.151 364.087,299.806 362.839 C 300.788 362.378,301.869 362.000,302.208 362.000 C 302.547 362.000,302.929 361.730,303.055 361.400 C 303.182 361.070,303.533 360.800,303.834 360.800 C 304.509 360.800,308.400 356.927,308.400 356.255 C 308.400 355.988,308.760 355.063,309.200 354.200 C 310.038 352.557,310.316 348.643,309.626 348.216 C 309.421 348.089,308.966 346.999,308.615 345.793 C 308.264 344.587,307.803 343.600,307.589 343.600 C 307.375 343.600,307.200 343.221,307.200 342.757 C 307.200 342.230,306.067 340.827,304.172 339.011 C 300.618 335.604,297.471 334.816,292.293 336.035 M298.244 340.247 C 300.854 341.777,303.372 344.463,303.925 346.307 C 304.188 347.186,304.673 348.128,305.002 348.402 C 306.081 349.297,305.786 353.115,304.486 355.074 C 302.358 358.282,300.735 359.200,297.195 359.200 L 294.100 359.200 291.750 356.849 C 287.666 352.764,286.957 351.017,287.148 345.517 C 287.302 341.110,294.159 337.853,298.244 340.247 M130.991 349.269 C 132.703 350.049,132.681 351.296,130.888 354.929 C 130.001 356.728,129.064 358.875,128.807 359.700 C 128.549 360.525,128.200 361.200,128.032 361.200 C 127.864 361.200,127.508 361.930,127.241 362.821 C 126.974 363.713,126.517 364.534,126.225 364.646 C 125.933 364.758,125.577 365.583,125.434 366.479 C 125.291 367.375,124.819 368.558,124.387 369.108 C 123.954 369.658,123.600 370.326,123.600 370.592 C 123.600 372.224,120.107 372.667,119.171 371.154 C 118.812 370.573,119.392 368.496,120.151 367.645 C 120.467 367.290,120.939 366.190,121.200 365.200 C 121.461 364.210,121.914 363.130,122.206 362.800 C 122.498 362.470,122.859 361.712,123.008 361.116 C 123.157 360.520,123.530 359.824,123.836 359.570 C 124.143 359.315,124.592 358.363,124.834 357.453 C 125.076 356.544,125.504 355.530,125.783 355.200 C 126.063 354.870,126.402 354.138,126.535 353.574 C 126.669 353.009,127.143 352.127,127.589 351.613 C 128.035 351.098,128.400 350.471,128.400 350.219 C 128.400 348.990,129.497 348.588,130.991 349.269 M261.626 351.674 C 259.058 352.470,255.825 354.507,254.251 356.319 C 254.003 356.605,253.440 357.200,253.000 357.643 C 252.012 358.636,251.931 361.999,252.868 363.090 C 253.204 363.481,253.706 364.642,253.983 365.672 C 254.261 366.701,254.908 367.937,255.420 368.419 L 256.352 369.295 257.723 368.447 C 258.477 367.981,259.720 367.600,260.485 367.600 C 261.340 367.600,262.139 367.309,262.558 366.846 C 262.934 366.431,263.772 365.986,264.420 365.856 C 265.868 365.566,266.015 364.336,264.711 363.423 C 263.590 362.638,262.522 362.637,261.018 363.421 C 259.062 364.441,257.200 363.210,257.200 360.896 C 257.200 359.755,257.397 359.099,257.785 358.950 C 258.106 358.827,258.472 358.403,258.597 358.009 C 259.199 356.111,261.873 355.018,265.910 355.018 L 269.715 355.018 271.452 356.991 C 274.664 360.642,275.995 364.777,275.231 368.731 C 274.396 373.047,267.267 376.710,264.450 374.271 C 262.746 372.795,259.794 373.287,259.333 375.124 C 258.539 378.289,266.614 379.622,272.000 377.216 C 278.505 374.310,281.487 367.462,278.951 361.251 C 278.648 360.509,278.400 359.512,278.400 359.035 C 278.400 358.527,277.324 356.989,275.799 355.319 C 271.838 350.978,267.479 349.857,261.626 351.674 M139.765 353.142 C 140.405 353.518,141.054 354.090,141.207 354.413 C 141.793 355.654,142.876 359.078,143.226 360.800 C 143.428 361.790,143.848 363.230,144.159 364.000 C 144.471 364.770,144.935 366.660,145.189 368.200 C 145.872 372.328,147.264 373.334,147.964 370.206 C 148.228 369.027,148.704 367.846,149.022 367.582 C 149.340 367.318,149.601 366.629,149.602 366.051 C 149.605 364.599,150.363 362.000,150.784 362.000 C 150.974 362.000,151.251 361.281,151.400 360.402 C 151.710 358.563,152.115 358.208,153.762 358.334 C 156.133 358.514,156.588 359.882,155.188 362.615 C 154.742 363.487,154.125 365.190,153.817 366.400 C 153.119 369.148,151.883 372.626,151.044 374.200 C 150.693 374.860,150.404 375.827,150.402 376.350 C 150.390 381.174,145.783 384.241,144.262 380.438 C 143.916 379.574,143.446 378.752,143.217 378.610 C 142.988 378.469,142.800 377.855,142.800 377.247 C 142.800 376.639,142.350 374.638,141.800 372.800 C 141.250 370.962,140.800 368.899,140.800 368.214 C 140.800 367.529,140.460 366.303,140.045 365.489 C 139.630 364.675,139.171 363.372,139.025 362.593 C 138.679 360.749,138.176 361.107,137.859 363.425 C 137.719 364.441,137.244 366.089,136.803 367.087 C 136.361 368.085,136.000 369.270,136.000 369.719 C 136.000 370.169,135.708 370.860,135.351 371.254 C 134.994 371.648,134.545 372.833,134.352 373.886 C 133.826 376.762,131.948 378.001,130.331 376.538 C 129.229 375.541,129.753 371.797,131.300 369.611 C 131.685 369.067,132.000 368.162,132.000 367.600 C 132.000 367.038,132.270 366.193,132.599 365.723 C 132.929 365.252,133.452 363.658,133.761 362.181 C 134.071 360.703,134.505 359.382,134.726 359.246 C 134.946 359.110,135.252 358.329,135.405 357.512 C 135.559 356.694,136.025 355.632,136.442 355.151 C 136.859 354.671,137.200 354.071,137.200 353.819 C 137.200 352.491,138.204 352.226,139.765 353.142 M241.600 358.693 C 239.546 359.070,239.137 361.060,240.632 363.400 C 240.913 363.840,241.335 365.606,241.571 367.325 C 241.806 369.044,242.163 370.758,242.364 371.133 C 242.565 371.508,242.950 373.342,243.220 375.208 C 243.490 377.073,243.956 378.955,244.255 379.389 C 244.555 379.823,244.800 380.838,244.800 381.645 C 244.800 383.961,245.886 385.000,247.829 384.544 C 249.651 384.115,250.231 382.022,249.034 380.195 C 248.693 379.676,248.213 377.935,247.966 376.326 C 247.719 374.717,247.349 373.194,247.144 372.942 C 246.939 372.690,246.575 370.800,246.335 368.742 C 246.095 366.684,245.562 364.332,245.150 363.516 C 244.737 362.700,244.398 361.620,244.395 361.116 C 244.380 358.599,243.983 358.255,241.600 358.693 M172.492 361.769 C 177.958 364.186,180.114 369.439,177.963 375.097 C 177.755 375.645,177.410 377.771,177.198 379.821 C 176.861 383.072,176.415 384.729,175.211 387.200 C 174.785 388.073,173.309 388.163,172.126 387.388 C 170.948 386.617,170.967 384.098,172.168 381.800 C 172.513 381.140,172.796 379.908,172.798 379.063 C 172.799 378.217,173.170 375.709,173.623 373.488 C 174.632 368.534,174.249 367.376,171.067 365.774 C 166.995 363.722,162.800 366.260,162.800 370.776 C 162.800 371.394,162.523 372.684,162.185 373.643 C 161.847 374.602,161.369 377.189,161.123 379.393 C 160.619 383.924,160.299 384.480,158.200 384.480 C 155.933 384.480,155.394 383.723,156.114 381.552 C 156.433 380.588,156.818 378.540,156.968 377.000 C 157.119 375.460,157.593 372.861,158.021 371.225 C 158.449 369.588,158.800 367.951,158.800 367.586 C 158.800 367.221,159.160 366.507,159.600 366.000 C 160.040 365.493,160.400 364.851,160.400 364.574 C 160.400 363.956,162.666 362.000,163.382 362.000 C 163.668 362.000,164.126 361.730,164.400 361.400 C 165.235 360.393,169.858 360.604,172.492 361.769 M230.200 361.147 C 228.840 361.452,228.827 361.618,229.804 366.000 C 230.123 367.430,230.559 370.267,230.772 372.304 C 230.993 374.411,231.428 376.390,231.780 376.893 C 232.121 377.380,232.400 378.544,232.400 379.481 C 232.400 384.018,234.370 387.707,236.532 387.217 C 238.528 386.765,238.507 386.804,237.804 384.812 C 237.472 383.870,237.200 382.319,237.200 381.365 C 237.200 380.410,236.840 378.716,236.400 377.600 C 235.960 376.484,235.597 374.992,235.594 374.285 C 235.591 373.578,235.303 371.830,234.954 370.400 C 234.605 368.970,234.108 366.270,233.850 364.400 C 233.334 360.663,233.138 360.488,230.200 361.147 " stroke="none" fill="#fff" fill-rule="evenodd"></path></g></svg>