<svg id="svg" version="1.1" xmlns="http://www.w3.org/2000/svg" xmlns:xlink="http://www.w3.org/1999/xlink" width="400" height="400" viewBox="0, 0, 400,400"><g id="svgg"><path id="path0" d="M190.940 7.667 C 87.956 12.740,7.865 97.173,7.865 200.667 C 7.865 319.705,112.275 409.678,229.667 391.798 C 313.920 378.965,380.210 310.345,390.800 225.000 C 405.588 105.817,309.939 1.805,190.940 7.667 M219.833 16.699 C 230.406 18.260,229.742 18.024,229.455 20.118 C 229.251 21.605,229.187 21.689,228.369 21.526 C 225.448 20.946,213.549 19.307,213.207 19.438 C 212.785 19.601,211.755 25.866,212.095 26.206 C 212.195 26.306,215.327 26.865,219.055 27.447 L 225.833 28.506 225.720 30.003 C 225.564 32.061,225.948 32.017,218.250 30.851 C 214.446 30.275,211.333 29.810,211.333 29.818 C 211.333 30.251,209.661 40.783,209.580 40.865 C 209.422 41.023,205.626 40.404,205.407 40.185 C 205.252 40.029,208.521 16.887,208.883 15.583 C 208.995 15.181,209.273 15.049,209.773 15.161 C 210.173 15.250,214.700 15.942,219.833 16.699 M187.155 16.178 C 198.721 19.190,200.725 34.953,190.198 40.107 C 179.289 45.449,167.833 39.846,167.833 29.167 C 167.833 21.686,171.510 17.616,179.833 15.883 C 181.432 15.550,185.351 15.708,187.155 16.178 M179.470 19.378 C 170.395 21.420,169.600 35.283,178.395 38.124 C 185.842 40.529,192.167 36.338,192.167 29.000 C 192.167 21.546,187.054 17.672,179.470 19.378 M134.207 35.786 L 131.683 44.954 133.841 49.684 C 136.420 55.335,136.401 54.642,134.002 55.725 L 132.026 56.617 131.158 54.725 C 130.680 53.685,129.684 51.483,128.944 49.833 L 127.599 46.833 119.754 43.003 C 109.753 38.121,110.327 38.606,113.076 37.355 C 115.971 36.036,115.234 35.858,122.374 39.609 L 128.581 42.870 129.154 40.185 C 129.469 38.708,130.258 35.456,130.907 32.959 L 132.088 28.417 134.294 27.430 C 135.507 26.886,136.552 26.482,136.615 26.530 C 136.678 26.579,135.595 30.744,134.207 35.786 M274.983 31.542 C 281.097 33.275,285.067 37.284,285.578 42.241 C 285.767 44.072,285.759 44.095,284.968 43.898 C 284.527 43.788,283.541 43.599,282.776 43.477 C 281.415 43.261,281.381 43.223,281.171 41.695 C 280.472 36.616,274.104 33.077,268.619 34.720 C 263.788 36.168,260.579 44.255,262.974 48.949 C 265.713 54.318,275.348 56.038,278.090 51.647 C 278.621 50.797,278.724 50.814,280.665 52.083 C 282.655 53.385,282.646 53.327,281.083 54.864 C 273.687 62.140,257.667 55.036,257.667 44.481 C 257.667 34.727,265.519 28.860,274.983 31.542 M200.854 41.292 C 201.515 41.695,202.241 42.682,202.916 44.093 L 203.957 46.272 206.395 46.457 C 215.382 47.139,218.743 47.483,223.167 48.175 C 334.314 65.573,389.856 193.216,327.159 287.167 C 262.041 384.747,116.020 375.719,62.990 270.833 C 12.932 171.824,80.147 53.948,190.816 46.662 C 193.740 46.470,196.146 46.279,196.163 46.239 C 198.266 41.196,199.157 40.257,200.854 41.292 M104.544 43.340 C 105.032 44.077,105.371 44.732,105.299 44.795 C 105.226 44.857,103.517 46.071,101.500 47.491 C 99.483 48.911,97.707 50.190,97.554 50.333 C 97.400 50.476,100.063 54.597,103.472 59.492 C 106.882 64.386,109.587 68.525,109.485 68.691 C 109.117 69.287,106.321 71.032,106.026 70.849 C 105.860 70.747,103.006 66.764,99.684 61.998 C 96.363 57.232,93.574 53.333,93.486 53.333 C 93.399 53.333,92.017 54.277,90.414 55.430 C 88.811 56.583,87.019 57.864,86.430 58.276 L 85.360 59.026 84.460 57.666 C 83.921 56.852,83.682 56.186,83.863 56.006 C 84.441 55.432,103.168 42.030,103.412 42.015 C 103.547 42.007,104.056 42.603,104.544 43.340 M309.106 50.640 C 309.964 51.267,310.667 51.873,310.667 51.988 C 310.667 52.282,306.042 78.334,305.825 79.264 C 305.657 79.984,301.626 77.491,301.681 76.701 C 301.688 76.590,302.050 74.777,302.485 72.671 C 303.426 68.111,303.983 69.166,298.368 64.883 C 292.902 60.714,293.741 60.880,289.667 63.167 C 287.870 64.175,286.301 65.000,286.180 65.000 C 285.780 65.000,282.833 62.619,282.833 62.295 C 282.833 61.836,306.765 49.071,307.189 49.304 C 307.385 49.412,308.247 50.013,309.106 50.640 M305.314 54.274 C 304.662 54.766,302.364 56.126,300.209 57.296 C 298.054 58.466,296.412 59.531,296.562 59.662 C 297.931 60.866,303.754 65.023,303.886 64.891 C 303.980 64.798,304.556 62.421,305.166 59.610 C 305.776 56.800,306.379 54.237,306.506 53.917 C 306.800 53.177,306.746 53.193,305.314 54.274 M82.671 73.333 C 86.764 78.008,90.347 82.109,90.634 82.445 C 91.118 83.014,91.042 83.162,89.548 84.574 L 87.941 86.092 87.184 85.296 C 84.626 82.606,71.333 67.289,71.333 67.031 C 71.333 66.331,74.483 64.005,74.861 64.425 C 75.063 64.650,78.578 68.658,82.671 73.333 M330.824 68.990 C 331.553 69.882,332.198 70.762,332.259 70.944 C 332.320 71.127,328.762 74.469,324.352 78.372 C 319.942 82.275,316.337 85.551,316.343 85.651 C 316.348 85.751,318.748 88.598,321.676 91.978 L 327.001 98.122 326.251 98.925 C 324.578 100.714,324.892 100.950,317.489 92.360 C 313.706 87.972,310.612 84.282,310.613 84.161 C 310.615 83.926,329.054 67.392,329.333 67.376 C 329.425 67.371,330.096 68.097,330.824 68.990 M65.511 80.150 C 66.900 80.730,66.893 80.660,65.750 82.718 C 64.866 84.308,64.792 84.359,63.667 84.154 C 63.025 84.037,62.425 83.937,62.333 83.931 C 57.947 83.664,52.512 92.681,55.507 95.257 C 57.112 96.638,58.240 96.014,63.836 90.644 C 69.985 84.745,73.023 83.766,76.389 86.598 C 83.664 92.720,71.594 110.324,62.502 106.852 C 60.716 106.170,60.747 106.356,62.037 104.102 C 62.839 102.700,63.197 102.347,63.620 102.540 C 69.139 105.059,78.339 93.958,73.898 90.138 C 72.061 88.558,70.821 89.207,64.537 95.040 C 59.152 100.038,56.398 101.100,53.641 99.242 C 45.886 94.016,56.776 76.500,65.511 80.150 M350.917 93.335 C 351.512 94.247,351.993 95.106,351.985 95.246 C 351.967 95.545,332.150 109.120,331.519 109.266 C 330.834 109.424,328.815 106.052,329.302 105.564 C 329.978 104.887,349.147 91.736,349.500 91.706 C 349.683 91.691,350.321 92.424,350.917 93.335 M48.218 107.533 C 50.701 108.952,51.651 112.402,50.557 116.030 L 50.114 117.500 51.994 116.566 C 53.757 115.691,64.514 113.403,64.927 113.816 C 65.038 113.927,62.934 118.117,62.545 118.560 C 62.516 118.592,60.257 119.016,57.525 119.501 C 52.012 120.480,49.453 121.301,48.422 122.420 C 47.739 123.162,44.575 128.692,44.745 128.849 C 44.793 128.894,46.783 130.007,49.167 131.321 C 51.550 132.636,53.635 133.843,53.800 134.005 C 54.275 134.472,52.275 138.045,51.667 137.815 C 51.011 137.568,30.573 126.323,30.259 126.037 C 29.941 125.748,37.303 112.051,38.914 109.934 C 41.574 106.438,44.832 105.598,48.218 107.533 M363.332 116.331 C 365.899 121.463,368.000 125.735,368.000 125.824 C 368.000 125.993,365.496 127.333,365.181 127.333 C 365.083 127.333,363.352 124.033,361.333 120.000 C 359.315 115.967,357.586 112.667,357.491 112.667 C 357.284 112.667,352.353 115.179,351.724 115.605 C 351.380 115.838,351.985 117.309,354.461 122.256 L 357.640 128.607 356.903 129.085 C 354.567 130.600,355.007 131.020,351.439 123.873 L 348.205 117.394 343.233 119.883 C 340.499 121.253,338.221 122.327,338.171 122.270 C 337.716 121.753,336.336 118.551,336.496 118.384 C 336.761 118.107,358.082 107.059,358.416 107.025 C 358.552 107.011,360.765 111.199,363.332 116.331 M42.833 111.321 C 41.402 111.920,34.382 122.893,35.053 123.484 C 35.436 123.821,41.311 127.000,41.552 127.000 C 42.351 127.000,47.333 116.358,47.333 114.651 C 47.333 111.875,45.230 110.319,42.833 111.321 M27.417 136.018 C 28.989 136.454,29.069 135.730,26.363 145.509 C 25.096 150.087,24.109 153.884,24.170 153.945 C 24.312 154.090,30.798 155.990,30.844 155.901 C 30.863 155.864,31.828 152.357,32.988 148.107 C 34.148 143.858,35.212 140.197,35.351 139.972 C 35.755 139.318,38.735 140.248,38.523 140.962 C 38.435 141.258,37.598 144.275,36.663 147.667 C 35.727 151.058,34.760 154.523,34.514 155.367 L 34.065 156.901 37.766 157.939 C 39.801 158.511,41.535 158.909,41.620 158.824 C 41.705 158.739,42.859 154.761,44.184 149.983 C 45.509 145.205,46.669 141.219,46.763 141.126 C 46.967 140.922,49.054 141.288,49.596 141.623 C 49.959 141.847,44.298 163.433,43.709 164.073 C 43.521 164.277,20.086 157.826,19.695 157.463 C 19.432 157.219,25.501 135.671,25.833 135.671 C 26.017 135.671,26.729 135.827,27.417 136.018 M368.246 137.838 C 371.500 138.805,375.061 142.261,376.901 146.238 C 384.440 162.535,363.398 174.195,354.173 158.833 C 347.329 147.437,356.168 134.251,368.246 137.838 M361.577 142.473 C 354.382 145.432,352.951 152.938,358.440 158.917 C 364.758 165.798,376.614 159.212,374.680 149.896 C 373.343 143.456,367.388 140.083,361.577 142.473 M30.674 172.500 L 41.678 179.833 41.474 181.833 C 41.197 184.536,42.038 184.114,27.833 188.680 C 20.867 190.920,15.034 192.829,14.873 192.923 C 14.401 193.197,15.001 188.536,15.486 188.167 C 15.726 187.983,20.801 186.422,26.763 184.697 L 37.604 181.561 35.052 180.002 C 29.937 176.877,17.834 168.949,17.840 168.727 C 17.925 165.964,18.413 164.306,19.021 164.722 C 19.378 164.967,24.622 168.467,30.674 172.500 M383.670 180.424 C 384.566 190.763,384.311 192.487,381.524 194.934 C 377.757 198.242,372.644 195.964,370.822 190.167 C 370.641 189.593,370.518 189.685,369.933 190.833 C 369.058 192.552,360.611 200.767,360.203 200.297 C 360.141 200.225,359.997 199.042,359.884 197.667 L 359.679 195.167 363.434 191.789 C 369.174 186.625,369.735 185.559,369.338 180.561 C 369.057 177.018,369.736 177.348,363.871 177.901 C 361.141 178.159,358.704 178.291,358.454 178.195 C 357.844 177.961,357.808 174.008,358.417 173.982 C 358.646 173.973,364.158 173.475,370.667 172.876 C 377.175 172.277,382.602 171.872,382.727 171.977 C 382.852 172.081,383.276 175.882,383.670 180.424 M376.250 176.791 L 372.667 177.082 372.667 178.458 C 372.669 187.340,374.231 191.818,377.329 191.818 C 380.437 191.818,381.214 189.644,380.641 182.542 C 380.104 175.873,380.539 176.443,376.250 176.791 M39.667 203.473 L 39.667 205.614 37.583 205.797 C 36.438 205.898,32.575 206.062,29.000 206.161 C 25.425 206.260,20.761 206.432,18.635 206.544 L 14.770 206.746 14.550 204.641 C 14.429 203.484,14.443 202.425,14.582 202.289 C 14.849 202.026,27.411 201.472,35.083 201.385 L 39.667 201.333 39.667 203.473 M373.585 208.116 C 380.232 209.093,385.741 209.963,385.827 210.049 C 385.963 210.186,385.400 214.413,385.231 214.526 C 385.195 214.549,380.538 217.397,374.880 220.855 C 366.980 225.683,364.738 227.197,365.214 227.381 C 365.554 227.513,369.658 228.171,374.333 228.842 C 379.008 229.514,382.887 230.115,382.952 230.178 C 383.154 230.373,382.614 234.333,382.384 234.346 C 382.264 234.353,376.642 233.566,369.889 232.596 L 357.612 230.833 357.826 229.000 C 357.943 227.992,358.110 226.942,358.197 226.667 C 358.284 226.392,363.003 223.332,368.684 219.868 C 374.366 216.404,378.951 213.506,378.874 213.429 C 378.775 213.330,361.585 210.714,360.750 210.671 C 360.411 210.653,360.953 206.332,361.294 206.336 C 361.407 206.337,366.938 207.138,373.585 208.116 M41.266 217.833 C 41.562 219.576,41.530 219.919,41.018 220.500 C 31.973 230.762,25.369 238.732,26.040 238.575 C 27.963 238.125,44.018 235.574,44.143 235.699 C 44.219 235.775,44.385 236.747,44.511 237.859 L 44.739 239.881 33.120 241.802 C 26.729 242.858,21.182 243.797,20.793 243.887 C 20.022 244.066,19.890 243.769,19.507 241.000 L 19.299 239.500 27.316 230.232 C 31.726 225.135,35.333 220.918,35.333 220.861 C 35.333 220.779,21.251 223.117,17.616 223.803 C 16.780 223.961,15.516 220.373,16.175 219.713 C 16.470 219.419,40.494 215.421,40.713 215.630 C 40.830 215.742,41.079 216.733,41.266 217.833 M367.798 243.056 C 374.234 244.737,379.610 246.205,379.745 246.318 C 379.935 246.477,379.144 250.142,378.822 250.595 C 378.724 250.733,355.003 244.448,354.780 244.224 C 354.605 244.050,355.244 240.812,355.564 240.250 C 355.768 239.892,355.066 239.731,367.798 243.056 M46.452 251.948 C 53.697 255.812,55.879 269.097,49.939 273.180 C 48.380 274.251,47.625 274.592,38.108 278.524 L 33.049 280.613 32.223 278.557 L 31.397 276.500 32.115 276.118 C 32.510 275.908,35.833 274.495,39.500 272.979 C 50.463 268.447,51.652 266.841,48.808 260.410 C 46.072 254.223,44.470 254.035,33.524 258.611 C 24.888 262.221,25.597 262.125,24.659 259.813 C 23.728 257.520,23.181 257.949,31.333 254.580 C 41.877 250.222,42.888 250.046,46.452 251.948 M361.497 262.073 L 370.020 272.979 369.031 274.939 L 368.041 276.900 365.771 277.114 C 361.898 277.480,340.000 277.375,340.000 276.990 C 340.000 276.802,340.452 275.752,341.005 274.657 L 342.010 272.667 346.170 272.667 L 350.329 272.667 352.998 267.337 C 356.201 260.941,356.183 262.027,353.150 258.314 C 351.767 256.619,350.703 255.067,350.788 254.866 C 352.107 251.718,352.474 250.992,352.703 251.072 C 352.852 251.124,356.809 256.074,361.497 262.073 M355.759 268.687 L 353.686 273.000 357.926 273.003 C 360.258 273.004,362.992 273.104,364.000 273.223 L 365.833 273.441 363.833 271.282 C 362.733 270.095,361.008 268.052,360.000 266.742 C 357.742 263.807,358.208 263.593,355.759 268.687 M66.956 305.042 C 68.108 306.715,68.926 308.188,68.775 308.315 C 67.652 309.262,63.695 311.998,63.459 311.991 C 63.102 311.980,59.167 306.516,59.167 306.032 C 59.167 305.644,63.970 302.035,64.515 302.014 C 64.706 302.006,65.805 303.369,66.956 305.042 M337.162 304.862 L 339.679 307.057 337.456 309.779 C 336.233 311.275,335.115 312.633,334.971 312.796 C 334.826 312.959,333.504 312.004,332.031 310.675 L 329.355 308.258 331.761 305.475 C 334.650 302.133,334.105 302.195,337.162 304.862 M95.590 320.996 C 102.456 324.200,106.288 330.100,104.464 334.660 C 103.818 336.273,103.891 336.266,101.748 334.915 C 100.407 334.069,100.096 333.720,100.342 333.331 C 102.939 329.222,93.085 320.915,89.667 324.333 C 88.121 325.879,88.925 327.436,94.188 333.090 C 99.765 339.081,100.842 343.217,97.610 346.234 C 90.705 352.681,74.123 339.788,78.233 331.168 C 78.851 329.873,78.950 329.873,81.007 331.171 C 82.142 331.888,82.359 332.183,82.186 332.775 C 81.300 335.805,82.169 338.225,85.085 340.847 C 89.258 344.598,93.546 345.340,94.881 342.541 C 95.644 340.941,94.836 339.392,91.123 335.333 C 85.519 329.209,84.242 326.816,85.024 323.909 C 86.092 319.943,90.644 318.688,95.590 320.996 M312.458 322.011 C 321.265 324.731,324.003 336.347,317.481 343.319 C 308.586 352.829,295.178 349.805,292.943 337.783 C 291.199 328.409,302.805 319.030,312.458 322.011 M304.474 325.586 C 298.129 327.856,295.387 333.875,298.142 339.486 C 301.358 346.037,308.379 347.206,314.002 342.125 C 321.358 335.479,313.748 322.269,304.474 325.586 M124.507 340.083 L 126.406 341.167 126.210 344.500 C 126.101 346.333,125.851 352.258,125.654 357.667 C 125.457 363.075,125.225 367.976,125.138 368.557 L 124.979 369.615 122.822 368.391 L 120.665 367.167 120.853 363.667 C 120.957 361.742,121.106 359.846,121.184 359.454 C 121.309 358.835,120.602 358.336,115.843 355.682 L 110.358 352.623 107.066 355.117 L 103.774 357.610 101.696 356.439 L 99.619 355.268 102.687 353.050 C 104.374 351.831,109.373 348.184,113.794 344.945 C 122.935 338.250,122.020 338.666,124.507 340.083 M284.425 341.212 C 285.016 341.516,286.008 342.152,286.629 342.624 L 287.758 343.482 286.157 344.891 L 284.556 346.300 283.596 345.492 C 278.748 341.412,268.834 347.250,268.892 354.151 C 268.977 364.403,279.602 367.759,287.397 359.996 C 290.162 357.243,290.357 356.601,289.101 354.403 L 288.148 352.734 284.657 354.695 C 282.738 355.773,280.982 356.658,280.757 356.661 C 280.388 356.666,278.802 354.046,279.060 353.858 C 279.119 353.815,281.567 352.459,284.500 350.844 C 287.433 349.229,289.935 347.852,290.059 347.783 C 290.313 347.642,294.667 355.570,294.667 356.174 C 294.667 358.825,287.536 365.347,282.746 367.078 C 267.843 372.463,257.712 354.040,270.352 344.539 C 275.360 340.774,280.991 339.443,284.425 341.212 M121.327 344.174 C 120.872 344.658,118.888 346.257,116.918 347.728 C 114.948 349.198,113.411 350.523,113.504 350.673 C 113.807 351.163,121.048 355.063,121.260 354.851 C 121.473 354.638,122.391 344.048,122.238 343.564 C 122.192 343.415,121.781 343.690,121.327 344.174 M143.200 349.710 C 145.097 350.188,144.628 349.319,149.650 361.667 C 152.074 367.625,154.166 372.614,154.299 372.754 C 154.433 372.894,155.713 369.069,157.145 364.254 C 158.577 359.439,159.867 355.371,160.011 355.213 C 160.218 354.987,163.476 355.789,163.941 356.181 C 164.042 356.265,157.055 379.902,156.787 380.386 C 156.720 380.507,155.720 380.299,154.566 379.923 L 152.466 379.241 147.816 367.824 C 145.259 361.544,143.074 356.578,142.961 356.787 C 142.848 356.996,141.594 361.067,140.175 365.833 C 138.756 370.600,137.568 374.531,137.534 374.570 C 137.353 374.773,133.508 373.385,133.551 373.132 C 133.602 372.831,138.316 356.887,139.881 351.725 C 140.542 349.545,140.833 348.992,141.237 349.148 C 141.521 349.256,142.404 349.509,143.200 349.710 M257.899 352.311 C 258.133 353.122,258.290 353.812,258.246 353.844 C 258.202 353.877,254.492 354.980,250.000 356.296 C 245.508 357.612,241.659 358.749,241.447 358.823 C 241.095 358.944,242.606 365.050,243.113 365.558 C 243.249 365.693,257.105 361.784,258.815 361.128 C 259.312 360.937,260.203 363.945,259.767 364.343 C 259.620 364.477,256.050 365.598,251.833 366.835 C 247.617 368.072,244.131 369.113,244.087 369.149 C 244.003 369.218,246.054 376.406,246.222 376.632 C 246.276 376.705,250.209 375.618,254.963 374.216 C 259.717 372.814,263.750 371.667,263.926 371.667 C 264.245 371.667,265.209 374.581,264.963 374.801 C 264.729 375.010,242.943 381.388,242.847 381.276 C 242.657 381.054,236.000 357.711,236.000 357.266 C 236.000 356.803,255.923 350.642,256.986 350.776 C 257.253 350.809,257.664 351.500,257.899 352.311 M229.808 371.167 C 230.677 377.583,231.464 383.157,231.556 383.552 C 231.744 384.362,231.455 384.498,228.822 384.831 L 227.144 385.043 225.535 373.438 C 224.650 367.055,223.850 361.361,223.758 360.784 L 223.591 359.735 225.712 359.430 C 228.430 359.039,227.996 357.795,229.808 371.167 M208.665 360.356 C 217.237 361.747,221.424 370.875,217.322 379.232 C 214.833 384.306,212.099 385.375,201.083 385.588 L 193.333 385.737 193.333 372.868 L 193.333 360.000 199.917 360.003 C 203.537 360.004,207.474 360.163,208.665 360.356 M197.667 372.833 L 197.667 382.056 203.250 381.945 C 211.132 381.787,213.121 380.486,213.994 374.914 C 215.235 366.994,212.267 363.902,203.250 363.722 L 197.667 363.610 197.667 372.833 " stroke="none" fill="#fff" fill-rule="evenodd"></path><path id="path2" d="M189.667 53.352 C 180.337 54.152,175.847 54.766,170.295 56.003 C 162.510 57.738,146.801 62.602,142.667 64.557 C 140.925 65.381,138.716 66.352,137.758 66.715 C 136.800 67.078,134.925 67.980,133.591 68.719 C 132.258 69.458,130.413 70.400,129.493 70.813 C 127.824 71.560,113.365 80.840,110.833 82.789 C 102.074 89.529,89.592 101.881,84.822 108.531 C 83.782 109.980,82.363 111.783,81.669 112.536 C 79.982 114.366,73.514 124.224,72.074 127.159 C 71.442 128.446,70.188 130.727,69.288 132.227 C 66.770 136.419,62.017 147.332,60.676 152.000 C 60.333 153.192,59.369 156.169,58.532 158.615 C 57.063 162.912,55.577 169.021,54.992 173.167 C 54.836 174.267,54.335 177.642,53.877 180.667 C 52.380 190.558,52.004 204.073,52.980 212.833 C 53.225 215.033,53.420 217.133,53.413 217.500 C 53.353 220.524,56.091 233.979,58.228 241.167 C 58.883 243.367,59.523 245.692,59.650 246.333 C 59.955 247.865,65.640 262.278,66.036 262.522 C 66.204 262.626,67.495 265.064,68.906 267.939 C 71.315 272.851,73.375 276.402,75.611 279.500 C 76.141 280.233,77.202 281.904,77.969 283.213 C 78.737 284.521,79.658 285.857,80.016 286.181 C 80.374 286.505,80.667 286.946,80.667 287.160 C 80.667 287.375,81.059 287.914,81.539 288.359 C 82.019 288.803,83.298 290.479,84.381 292.083 C 85.464 293.688,86.479 295.000,86.635 295.000 C 86.792 295.000,87.977 296.313,89.269 297.917 C 91.804 301.065,97.549 306.823,101.833 310.511 C 103.300 311.774,104.694 313.073,104.932 313.398 C 105.579 314.284,117.002 322.913,120.962 325.508 C 124.474 327.808,140.045 335.977,142.281 336.692 C 142.951 336.906,144.025 337.356,144.667 337.692 C 145.308 338.028,146.883 338.671,148.167 339.120 C 149.450 339.570,152.675 340.713,155.333 341.660 C 157.992 342.607,160.767 343.508,161.500 343.661 C 162.233 343.814,165.383 344.542,168.500 345.279 C 177.137 347.319,178.690 347.592,185.167 348.208 C 192.932 348.946,207.225 349.083,212.000 348.466 C 213.925 348.217,216.325 348.010,217.333 348.005 C 218.342 348.001,221.492 347.549,224.333 347.000 C 227.175 346.451,229.836 346.002,230.246 346.001 C 235.163 345.993,261.788 336.222,269.333 331.656 C 269.608 331.490,270.496 331.046,271.307 330.671 C 272.117 330.295,273.392 329.486,274.140 328.873 C 274.888 328.261,276.427 327.292,277.559 326.721 C 278.692 326.149,279.705 325.541,279.812 325.369 C 279.918 325.197,282.141 323.629,284.752 321.884 C 287.364 320.140,290.400 317.956,291.500 317.030 C 292.600 316.104,294.325 314.716,295.333 313.945 C 297.516 312.277,309.824 299.920,312.087 297.126 C 312.960 296.048,314.718 293.892,315.994 292.333 C 327.416 278.387,337.137 258.814,342.480 239.004 C 345.497 227.820,345.862 225.708,347.327 211.000 C 347.740 206.860,347.729 192.199,347.311 189.000 C 347.131 187.625,346.854 185.150,346.694 183.500 C 346.121 177.578,344.652 170.741,341.177 157.833 C 339.703 152.355,334.737 139.542,332.986 136.696 C 332.448 135.821,331.787 134.479,331.517 133.714 C 330.997 132.241,329.694 129.918,327.037 125.725 C 326.145 124.318,325.209 122.774,324.958 122.294 C 323.657 119.813,322.999 118.748,322.524 118.354 C 322.236 118.114,322.000 117.785,322.000 117.622 C 322.000 117.292,318.168 112.166,315.803 109.333 C 314.961 108.325,313.124 106.083,311.720 104.350 C 305.337 96.474,287.299 80.484,282.570 78.508 C 281.947 78.248,280.785 77.489,279.987 76.823 C 279.189 76.156,277.674 75.175,276.620 74.643 C 275.566 74.111,273.434 72.848,271.884 71.838 C 270.333 70.827,268.943 70.000,268.795 70.000 C 268.647 70.000,266.720 69.108,264.513 68.018 C 258.504 65.051,244.161 59.634,240.609 58.990 C 239.542 58.796,238.030 58.411,237.251 58.133 C 231.114 55.949,220.145 54.013,210.866 53.477 L 206.899 53.247 207.117 54.333 C 207.343 55.465,210.446 60.876,211.262 61.560 C 211.520 61.777,212.729 62.051,213.949 62.171 C 216.235 62.394,223.305 63.627,227.609 64.553 C 230.074 65.083,230.961 65.789,229.904 66.380 C 229.612 66.544,228.663 67.613,227.796 68.756 C 226.074 71.024,221.834 75.772,219.106 78.486 C 216.885 80.695,216.721 81.411,217.615 85.012 C 218.010 86.602,218.335 88.337,218.337 88.868 C 218.340 89.399,218.788 91.708,219.333 94.000 C 220.581 99.241,220.631 100.482,219.583 100.233 C 218.135 99.888,214.153 98.283,212.822 97.507 C 212.083 97.076,210.172 96.183,208.577 95.522 C 206.981 94.862,204.543 93.725,203.158 92.995 C 200.389 91.537,199.809 91.570,197.339 93.329 C 196.420 93.984,186.173 99.036,183.569 100.119 C 181.999 100.772,181.830 100.493,182.120 97.738 C 182.230 96.690,182.539 93.172,182.806 89.919 C 183.072 86.667,183.383 83.856,183.496 83.673 C 183.971 82.904,182.753 81.019,174.667 70.006 C 170.075 63.753,170.055 64.104,175.032 63.663 C 180.775 63.153,188.417 62.365,189.788 62.140 C 191.689 61.828,195.659 53.333,193.904 53.333 C 193.620 53.333,193.188 53.283,192.944 53.221 C 192.700 53.160,191.225 53.219,189.667 53.352 M197.275 57.403 C 196.235 59.537,195.131 62.083,194.822 63.062 L 194.261 64.842 195.923 67.338 C 197.707 70.016,199.187 71.591,199.565 71.213 C 199.845 70.933,199.712 59.144,199.392 55.846 L 199.167 53.524 197.275 57.403 M206.018 67.417 C 205.283 68.379,204.154 69.779,203.510 70.528 C 202.866 71.276,202.247 72.346,202.136 72.906 L 201.932 73.923 204.716 74.841 C 206.247 75.345,208.729 76.263,210.231 76.879 C 213.734 78.317,213.571 78.340,215.962 76.037 C 219.113 73.000,218.974 72.856,213.167 73.138 C 208.437 73.368,207.102 73.117,209.083 72.369 C 209.496 72.214,210.958 71.599,212.333 71.003 C 213.708 70.407,215.883 69.479,217.167 68.941 C 221.096 67.293,220.736 66.937,214.346 66.142 C 207.816 65.330,207.585 65.365,206.018 67.417 M178.333 68.646 C 178.333 69.327,179.045 70.436,180.594 72.167 C 181.414 73.083,182.611 74.658,183.253 75.667 C 183.895 76.675,184.914 78.049,185.516 78.721 C 187.358 80.772,187.363 80.800,186.970 86.474 C 186.773 89.330,186.665 91.827,186.730 92.024 C 186.887 92.495,191.101 86.628,193.306 82.869 C 194.262 81.239,195.628 79.064,196.342 78.036 C 198.645 74.720,197.596 73.304,192.000 72.174 C 191.358 72.045,188.658 71.210,186.000 70.319 C 180.620 68.516,178.333 68.017,178.333 68.646 M173.470 74.692 C 174.293 75.670,174.617 77.123,174.083 77.445 C 173.760 77.640,167.179 78.557,164.167 78.827 C 162.883 78.942,160.183 79.319,158.167 79.666 C 156.150 80.012,152.475 80.545,150.000 80.849 C 147.525 81.154,145.385 81.473,145.244 81.558 C 145.104 81.643,143.829 81.841,142.411 81.997 C 138.491 82.429,128.148 83.951,125.333 84.510 C 121.166 85.338,117.667 85.529,117.667 84.928 C 117.667 83.398,120.733 80.684,122.474 80.674 C 123.193 80.670,124.993 80.457,126.474 80.200 C 127.955 79.944,131.042 79.554,133.333 79.334 C 135.625 79.114,138.475 78.735,139.667 78.491 C 140.858 78.248,144.233 77.735,147.167 77.352 C 150.100 76.969,153.775 76.442,155.333 76.182 C 164.859 74.589,169.743 73.862,171.887 73.716 C 172.323 73.686,172.948 74.072,173.470 74.692 M231.167 76.832 C 239.614 78.412,245.520 79.393,248.167 79.658 C 249.817 79.823,252.817 80.256,254.833 80.621 C 256.850 80.985,261.125 81.673,264.333 82.148 C 267.542 82.624,271.817 83.314,273.833 83.681 C 275.850 84.049,277.750 84.346,278.054 84.341 C 278.585 84.334,282.000 88.086,282.000 88.676 C 282.000 89.199,281.494 89.283,280.158 88.983 C 279.429 88.819,276.508 88.293,273.667 87.814 C 270.825 87.335,266.982 86.658,265.127 86.310 C 263.271 85.962,257.721 85.142,252.793 84.487 C 247.865 83.832,242.408 83.018,240.667 82.678 C 238.925 82.338,236.600 81.957,235.500 81.831 C 234.400 81.706,231.625 81.243,229.333 80.803 C 227.042 80.363,224.691 80.003,224.111 80.002 C 221.647 79.998,221.387 79.163,223.250 77.233 C 224.664 75.768,225.301 75.736,231.167 76.832 M200.792 77.211 C 200.671 77.694,200.654 80.270,200.753 82.935 C 200.966 88.611,200.662 88.140,205.667 90.536 C 207.408 91.370,209.883 92.561,211.167 93.183 C 212.450 93.805,213.942 94.417,214.482 94.543 L 215.464 94.772 214.293 93.303 C 213.649 92.494,212.628 91.046,212.026 90.083 C 211.423 89.121,210.823 88.333,210.692 88.333 C 210.561 88.333,209.564 87.022,208.477 85.420 C 207.390 83.817,205.900 81.819,205.167 80.979 C 204.433 80.138,203.349 78.750,202.757 77.892 C 201.528 76.113,201.105 75.966,200.792 77.211 M178.563 82.829 C 180.153 84.420,180.156 84.416,173.939 87.995 C 170.909 89.740,166.420 92.415,163.965 93.941 C 161.509 95.467,157.625 97.768,155.333 99.053 C 148.606 102.827,148.013 102.626,162.093 101.350 L 168.353 100.782 169.593 99.610 C 170.275 98.965,171.733 97.758,172.833 96.926 C 173.933 96.095,175.119 95.096,175.468 94.707 C 176.435 93.630,177.230 93.823,177.993 95.320 C 178.936 97.169,178.851 97.651,177.333 99.038 C 175.375 100.827,175.529 101.076,179.250 102.129 C 185.134 103.795,192.022 107.584,196.429 111.578 C 200.233 115.025,200.195 115.029,204.962 110.803 C 205.808 110.054,208.450 108.479,210.833 107.303 L 215.167 105.167 220.083 105.053 C 225.390 104.930,225.606 104.836,224.125 103.290 C 223.260 102.387,223.255 102.350,223.663 100.188 C 224.144 97.639,224.455 97.511,226.249 99.125 C 226.937 99.744,229.042 101.530,230.926 103.094 L 234.352 105.937 237.862 106.176 C 241.294 106.410,244.950 106.223,246.844 105.717 C 247.840 105.450,242.750 101.693,239.667 100.418 C 239.025 100.153,238.198 99.658,237.829 99.317 C 237.460 98.977,236.575 98.455,235.863 98.157 C 235.151 97.860,233.189 96.748,231.504 95.686 C 229.819 94.625,227.254 93.132,225.804 92.369 C 222.770 90.774,222.345 90.470,221.568 89.342 C 220.888 88.356,220.775 85.130,221.413 84.918 C 222.047 84.706,236.927 93.073,243.667 97.430 C 245.225 98.438,247.578 99.800,248.895 100.458 C 250.212 101.115,252.237 102.269,253.395 103.022 C 255.874 104.633,255.848 104.633,263.333 102.984 C 270.587 101.386,270.932 101.371,271.372 102.635 C 271.809 103.889,272.882 104.241,274.652 103.710 C 276.859 103.049,280.088 103.220,280.785 104.034 C 281.311 104.649,281.576 104.701,282.942 104.458 C 289.981 103.206,289.989 103.218,289.995 114.919 L 290.000 124.004 292.250 125.443 C 293.487 126.234,298.325 129.109,303.000 131.831 C 307.675 134.554,313.750 138.153,316.500 139.829 C 321.646 142.966,328.041 146.646,329.098 147.078 C 329.922 147.415,330.724 149.480,330.602 150.949 C 330.482 152.387,329.158 152.578,327.848 151.348 C 327.450 150.973,326.928 150.667,326.690 150.667 C 326.451 150.667,325.541 150.142,324.667 149.500 C 323.793 148.858,322.872 148.333,322.622 148.332 C 322.372 148.332,321.342 147.830,320.333 147.217 C 309.214 140.455,305.459 138.219,303.333 137.095 C 301.958 136.367,300.083 135.322,299.167 134.772 C 291.490 130.165,290.518 129.705,290.200 130.533 C 290.103 130.785,290.024 135.970,290.024 142.055 L 290.024 153.119 291.596 154.643 C 292.460 155.481,294.102 156.917,295.245 157.833 C 298.829 160.709,306.804 167.530,307.494 168.310 C 307.857 168.721,308.907 169.598,309.827 170.260 C 310.747 170.922,312.063 171.959,312.751 172.565 C 314.450 174.061,314.640 173.997,316.189 171.417 C 317.947 168.488,318.192 168.722,318.045 173.190 L 317.923 176.879 319.878 178.735 C 320.954 179.756,322.817 181.396,324.018 182.379 C 330.943 188.044,331.230 188.409,330.355 190.450 C 329.412 192.650,328.611 192.729,326.833 190.797 C 325.301 189.132,317.864 183.311,317.387 183.403 C 316.175 183.636,315.198 193.473,316.350 193.839 C 317.666 194.256,330.688 193.322,333.052 192.640 C 335.577 191.911,336.000 191.867,336.000 192.330 C 336.000 192.991,332.897 196.716,331.065 198.254 C 330.031 199.123,328.656 200.372,328.009 201.030 C 325.556 203.526,314.777 211.436,311.734 212.973 C 309.709 213.996,309.678 214.420,311.491 216.358 C 313.353 218.348,314.659 221.077,316.983 227.833 C 317.930 230.583,318.958 233.229,319.269 233.713 C 320.076 234.971,322.468 238.021,323.414 239.000 C 323.857 239.458,324.503 240.283,324.850 240.833 C 325.606 242.033,328.723 245.785,329.100 245.950 C 330.487 246.557,331.302 249.633,330.552 251.427 C 329.745 253.356,329.138 253.580,328.083 252.336 C 327.579 251.741,326.267 250.282,325.167 249.093 L 323.167 246.931 322.959 248.382 C 322.731 249.973,322.164 251.708,321.449 253.000 C 321.196 253.458,319.989 255.777,318.768 258.153 C 316.806 261.968,316.170 262.865,313.318 265.833 C 309.825 269.469,308.728 271.104,309.310 271.805 C 309.503 272.038,310.094 273.265,310.623 274.531 C 311.152 275.797,312.124 277.717,312.782 278.796 C 315.049 282.514,314.836 284.683,312.106 285.693 C 311.353 285.971,308.642 281.763,306.049 276.286 C 304.664 273.362,304.483 273.328,300.688 275.282 C 296.879 277.243,293.033 278.667,291.547 278.667 C 289.871 278.667,289.667 279.108,289.667 282.720 L 289.667 285.974 288.255 286.354 C 287.277 286.618,284.798 286.664,280.172 286.505 C 272.339 286.237,271.975 286.334,272.592 288.534 C 273.228 290.800,275.025 295.796,275.343 296.178 C 275.511 296.381,275.889 297.586,276.183 298.856 C 276.477 300.127,277.143 302.142,277.662 303.333 C 278.181 304.525,278.785 306.171,279.002 306.990 C 279.220 307.810,279.834 309.576,280.366 310.915 C 281.531 313.848,281.568 314.663,280.579 315.593 C 279.946 316.188,277.723 317.333,277.202 317.333 C 276.970 317.333,275.164 312.498,274.338 309.667 C 273.936 308.292,272.883 305.292,271.997 303.000 C 271.111 300.708,270.280 298.308,270.151 297.667 C 270.021 297.025,269.709 296.204,269.457 295.842 C 269.206 295.481,269.000 294.907,269.000 294.567 C 269.000 294.005,267.215 289.370,266.214 287.333 L 265.805 286.500 255.152 286.500 C 249.294 286.500,244.309 286.634,244.076 286.797 C 243.482 287.213,243.936 287.811,248.053 292.044 C 254.086 298.246,255.419 301.882,252.629 304.525 C 252.063 305.061,251.140 306.175,250.577 307.000 C 250.015 307.825,248.980 309.134,248.277 309.909 C 246.842 311.492,246.812 311.689,247.476 315.074 C 248.330 319.430,249.000 323.540,249.000 324.429 C 249.000 324.909,249.225 326.165,249.500 327.220 C 250.434 330.806,250.247 331.772,248.387 332.965 C 246.013 334.489,244.667 334.247,244.667 332.298 C 244.667 331.801,244.214 328.977,243.661 326.022 C 243.107 323.066,242.559 319.739,242.443 318.627 C 242.164 315.958,241.975 315.943,237.943 318.269 C 229.045 323.403,219.380 325.587,206.603 325.350 C 203.239 325.288,203.333 325.062,203.333 333.155 C 203.333 340.582,203.521 340.140,200.361 340.157 C 198.035 340.169,198.047 340.215,198.037 331.586 C 198.031 326.557,197.922 324.780,197.598 324.459 C 197.166 324.030,189.839 322.338,188.401 322.335 C 185.783 322.329,177.779 319.440,169.387 315.472 C 164.507 313.164,165.249 311.579,162.532 330.104 C 162.107 333.002,161.607 335.527,161.420 335.713 C 160.936 336.197,158.131 335.713,157.241 334.992 L 156.506 334.397 157.131 330.948 C 157.475 329.052,157.873 326.300,158.016 324.833 C 158.158 323.367,158.528 321.042,158.836 319.667 C 159.145 318.292,159.469 315.442,159.556 313.333 L 159.715 309.500 158.330 308.667 C 157.568 308.208,156.399 307.158,155.731 306.333 C 155.063 305.508,153.898 304.207,153.142 303.441 C 152.386 302.675,151.567 301.550,151.323 300.941 C 151.078 300.332,150.337 299.008,149.677 298.000 C 149.017 296.992,147.507 294.538,146.322 292.548 C 145.137 290.557,143.663 288.340,143.048 287.620 L 141.929 286.311 138.548 286.405 C 134.385 286.522,134.385 286.522,137.461 291.433 C 141.283 297.534,144.930 308.379,145.246 314.583 C 145.460 318.761,145.201 318.902,142.720 315.968 C 139.612 312.293,132.765 305.333,132.257 305.333 C 131.726 305.333,131.000 308.150,131.000 310.209 C 131.000 310.813,130.712 312.551,130.360 314.070 C 130.007 315.590,129.530 318.108,129.298 319.667 C 128.604 324.330,128.002 324.197,125.131 318.750 C 119.412 307.898,117.529 305.686,95.419 283.851 C 89.576 278.081,88.504 276.454,88.004 272.609 C 87.517 268.854,87.595 267.416,88.466 264.167 C 88.908 262.517,89.429 260.267,89.623 259.167 C 91.771 246.979,93.437 243.591,98.473 241.169 L 100.994 239.957 100.990 222.395 C 100.988 212.736,100.855 204.624,100.694 204.369 C 100.399 203.901,98.842 205.303,96.667 207.992 C 96.208 208.559,95.158 209.784,94.333 210.714 C 93.508 211.644,90.883 214.777,88.500 217.675 C 79.636 228.455,78.455 229.861,76.474 231.989 C 75.360 233.187,73.716 235.142,72.821 236.333 C 68.006 242.746,67.088 243.304,65.821 240.583 C 64.766 238.317,64.775 238.237,66.261 236.576 C 66.954 235.801,67.956 234.520,68.487 233.730 C 69.017 232.940,69.701 232.160,70.006 231.997 C 70.310 231.834,71.219 230.830,72.026 229.767 C 74.763 226.158,77.166 223.167,77.419 223.055 C 77.558 222.993,78.381 222.018,79.249 220.888 C 81.720 217.667,91.174 206.330,92.774 204.667 C 93.568 203.842,95.101 201.967,96.180 200.500 C 97.259 199.033,98.778 197.134,99.556 196.280 L 100.970 194.727 100.902 179.558 C 100.864 171.215,100.734 164.289,100.612 164.167 C 100.254 163.810,99.042 164.612,96.824 166.676 C 95.681 167.739,94.283 168.848,93.716 169.141 C 93.150 169.434,92.530 169.966,92.339 170.323 C 92.148 170.680,90.981 171.681,89.746 172.548 C 88.511 173.414,86.600 174.965,85.500 175.993 C 84.400 177.021,81.700 179.318,79.500 181.097 C 73.849 185.667,72.377 186.899,67.667 190.999 C 65.375 192.993,62.900 195.082,62.167 195.640 C 61.433 196.198,60.433 196.978,59.943 197.373 C 58.483 198.551,58.000 198.054,58.000 195.375 L 58.000 193.062 59.750 191.532 C 60.712 190.691,62.325 189.328,63.333 188.503 C 70.312 182.797,83.964 171.408,86.649 169.053 C 87.831 168.015,90.094 166.117,91.678 164.833 C 97.488 160.126,100.606 157.283,100.744 156.567 C 100.990 155.288,100.818 131.374,100.561 131.116 C 100.204 130.760,97.520 132.153,90.080 136.559 C 86.461 138.702,82.450 140.991,81.167 141.646 C 79.883 142.302,78.158 143.305,77.333 143.875 C 76.508 144.445,74.858 145.399,73.667 145.995 C 72.475 146.591,70.643 147.604,69.595 148.246 C 67.618 149.458,66.667 149.498,66.667 148.369 C 66.667 147.215,67.438 144.333,67.747 144.333 C 67.912 144.333,68.674 143.907,69.440 143.386 C 71.193 142.195,76.956 138.926,80.650 137.027 C 82.199 136.231,85.424 134.375,87.817 132.902 C 90.209 131.430,93.592 129.457,95.333 128.519 C 101.335 125.287,100.825 126.548,100.699 115.241 C 100.579 104.439,100.220 105.254,104.975 105.543 L 108.530 105.759 109.106 104.879 C 109.667 104.023,109.773 104.000,113.121 104.000 C 116.465 104.000,116.570 103.977,116.939 103.167 C 117.148 102.708,117.510 102.336,117.743 102.340 C 118.248 102.349,124.678 103.135,128.667 103.676 C 130.379 103.909,132.885 103.972,135.000 103.837 C 138.867 103.590,138.087 103.925,147.565 98.440 C 149.250 97.465,150.759 96.667,150.918 96.667 C 151.076 96.667,152.097 96.115,153.186 95.441 C 154.975 94.334,156.395 93.528,160.492 91.298 C 161.221 90.901,162.571 90.021,163.492 89.342 C 164.413 88.663,166.667 87.306,168.500 86.325 C 170.333 85.345,172.807 83.896,173.996 83.105 C 176.613 81.365,177.071 81.337,178.563 82.829 M163.333 106.679 C 160.492 106.826,155.617 107.185,152.500 107.476 C 149.383 107.768,145.033 108.170,142.833 108.370 C 139.045 108.713,131.546 108.619,125.962 108.158 C 123.507 107.955,123.418 107.974,123.215 108.724 C 123.003 109.507,122.977 183.683,123.177 214.500 C 123.237 223.667,123.288 232.292,123.292 233.667 C 123.300 236.974,123.521 237.224,127.000 237.853 C 138.383 239.911,150.795 248.454,162.011 261.953 L 165.157 265.739 167.686 265.518 C 171.477 265.188,179.734 266.127,184.000 267.375 C 187.507 268.400,189.116 269.083,192.099 270.814 C 197.885 274.170,197.823 274.289,197.881 259.610 C 197.907 252.950,197.955 244.650,197.988 241.167 C 198.079 231.498,197.719 149.718,197.514 133.569 L 197.333 119.304 195.583 117.521 C 188.104 109.898,176.500 105.998,163.333 106.679 M261.942 108.993 C 261.452 109.141,260.102 109.366,258.942 109.493 C 257.782 109.620,254.958 110.119,252.667 110.602 C 247.477 111.695,238.891 111.794,232.833 110.831 C 228.185 110.092,219.891 109.984,217.333 110.629 C 212.876 111.753,205.528 116.949,203.301 120.552 C 202.523 121.811,202.477 131.564,202.858 215.000 C 202.963 238.008,203.034 259.758,203.015 263.333 C 202.977 270.795,203.034 271.000,204.871 270.074 C 205.584 269.715,207.674 268.957,209.517 268.389 L 212.867 267.355 213.272 262.761 C 213.755 257.290,213.756 257.239,213.343 257.494 C 212.807 257.825,207.293 258.366,206.623 258.153 C 206.157 258.005,206.000 257.632,206.000 256.670 C 206.000 255.002,207.227 254.532,211.562 254.542 C 214.579 254.549,214.627 254.536,214.828 253.691 C 214.940 253.219,215.121 252.535,215.231 252.169 C 215.412 251.564,215.377 251.549,214.831 252.003 C 213.533 253.082,205.563 253.747,205.202 252.806 C 204.562 251.137,205.693 250.000,207.995 250.000 C 208.909 250.000,210.303 249.827,211.091 249.616 C 213.195 249.054,214.872 249.455,215.172 250.592 C 215.400 251.458,215.439 251.422,215.994 249.823 C 216.950 247.072,220.043 240.557,220.782 239.740 C 222.543 237.791,229.800 237.614,236.500 239.356 C 237.967 239.738,240.367 240.250,241.833 240.495 C 243.300 240.740,247.500 242.025,251.167 243.349 C 254.833 244.674,258.808 246.108,260.000 246.537 C 261.192 246.965,262.879 247.320,263.750 247.325 L 265.333 247.333 265.333 245.522 C 265.333 243.401,265.470 243.478,261.167 243.173 C 255.259 242.756,253.183 241.536,252.219 237.915 C 250.283 230.649,250.815 231.387,247.867 231.871 C 246.759 232.053,243.631 231.618,237.736 230.463 C 236.737 230.268,236.493 229.557,237.002 228.327 C 237.498 227.131,237.324 227.140,244.000 228.000 C 246.842 228.366,249.291 228.666,249.443 228.666 C 249.793 228.667,249.466 225.227,248.667 220.500 C 246.618 208.387,252.035 198.061,263.026 193.128 C 265.878 191.848,265.679 194.419,265.653 159.224 C 265.641 141.959,265.642 124.758,265.657 121.000 C 265.671 117.242,265.586 112.929,265.469 111.417 L 265.254 108.667 264.044 108.695 C 263.378 108.711,262.432 108.845,261.942 108.993 M114.748 109.895 C 114.484 110.538,114.496 221.924,114.760 231.463 C 114.932 237.649,115.036 237.931,116.982 237.504 L 117.938 237.294 118.000 222.647 C 118.034 214.591,118.066 207.588,118.072 207.083 C 118.168 198.667,117.514 110.975,117.350 110.359 C 117.059 109.260,115.148 108.919,114.748 109.895 M272.233 109.574 C 270.728 109.800,270.740 109.442,270.853 149.762 C 270.971 192.092,270.871 189.828,272.610 189.501 C 274.757 189.099,274.923 188.888,275.167 186.254 C 275.439 183.318,275.093 111.320,274.801 110.156 C 274.590 109.314,274.338 109.257,272.233 109.574 M280.700 110.605 C 280.168 111.598,280.439 190.807,280.980 192.577 C 281.803 195.268,283.700 196.498,284.359 194.767 C 284.896 193.353,284.725 111.236,284.183 110.359 C 283.792 109.727,281.066 109.920,280.700 110.605 M106.204 110.857 C 106.093 111.145,106.009 116.582,106.017 122.940 C 106.024 129.298,106.027 144.925,106.023 157.667 C 106.016 177.343,106.088 194.470,106.332 231.442 C 106.380 238.698,106.373 238.667,107.849 238.667 C 109.245 238.667,109.418 238.375,109.512 235.865 C 109.949 224.173,109.376 111.545,108.876 110.735 C 108.505 110.135,106.445 110.229,106.204 110.857 M170.143 117.857 C 171.438 119.152,170.413 120.036,167.363 120.254 C 164.953 120.426,163.952 119.808,164.467 118.466 C 164.902 117.332,169.161 116.875,170.143 117.857 M177.791 118.317 C 178.385 118.543,178.665 118.894,178.662 119.408 C 178.651 120.964,178.330 121.085,175.363 120.651 L 172.631 120.251 172.732 119.217 C 172.908 117.424,174.634 117.117,177.791 118.317 M162.322 118.311 C 163.279 120.101,161.783 121.000,157.850 121.000 C 155.127 121.000,154.116 120.075,155.417 118.774 C 156.470 117.721,161.814 117.363,162.322 118.311 M183.356 119.537 C 185.531 120.183,193.989 124.505,194.597 125.283 C 196.045 127.131,194.319 128.418,192.258 127.026 C 190.381 125.760,184.892 123.298,182.237 122.531 C 180.052 121.900,179.305 120.966,179.977 119.709 C 180.432 118.859,180.977 118.831,183.356 119.537 M260.667 120.561 C 260.667 122.965,256.714 124.333,249.772 124.333 L 246.667 124.333 246.667 123.186 C 246.667 121.671,247.629 121.002,249.824 120.993 C 252.152 120.983,258.092 120.168,258.824 119.759 C 259.763 119.233,260.667 119.626,260.667 120.561 M147.500 120.004 C 148.783 120.007,150.039 120.140,150.289 120.299 C 150.854 120.657,150.865 141.601,150.301 142.166 C 149.783 142.684,134.105 143.066,132.917 142.589 C 132.378 142.372,132.333 141.519,132.333 131.350 L 132.333 120.346 133.083 120.175 C 134.447 119.865,137.782 119.745,141.500 119.872 C 143.517 119.941,146.217 120.000,147.500 120.004 M224.812 121.325 C 226.639 122.020,225.568 124.493,223.449 124.472 C 219.574 124.434,217.698 123.171,218.820 121.355 C 219.096 120.909,223.657 120.886,224.812 121.325 M214.917 121.851 C 215.401 122.000,215.484 123.868,215.019 124.155 C 214.847 124.261,213.834 124.505,212.769 124.695 C 211.705 124.885,210.040 125.332,209.071 125.687 C 206.692 126.560,206.053 126.516,205.650 125.456 C 204.743 123.070,210.980 120.644,214.917 121.851 M234.583 121.861 C 235.557 122.058,235.610 123.647,234.671 124.496 C 233.456 125.596,227.333 124.792,227.333 123.533 C 227.333 121.613,230.147 120.964,234.583 121.861 M243.167 122.833 C 243.167 124.490,241.564 125.260,238.934 124.866 C 236.032 124.431,236.684 121.799,239.750 121.572 C 243.128 121.323,243.167 121.338,243.167 122.833 M161.530 124.166 C 161.890 125.602,161.540 125.884,159.120 126.110 C 156.510 126.354,155.768 125.968,156.124 124.551 C 156.356 123.626,156.876 123.449,159.577 123.379 C 161.175 123.337,161.338 123.403,161.530 124.166 M170.103 123.821 C 172.989 124.335,173.667 124.719,173.667 125.838 C 173.667 126.914,173.014 127.045,169.556 126.660 C 164.467 126.094,164.333 126.052,164.333 125.030 C 164.333 123.221,165.440 122.989,170.103 123.821 M141.282 123.915 C 138.291 123.996,137.300 124.138,136.973 124.533 C 136.443 125.171,136.151 131.392,136.503 134.556 L 136.756 136.833 138.044 131.833 C 139.462 126.331,140.043 125.219,141.582 125.065 C 142.738 124.949,143.074 125.601,144.294 130.333 C 144.649 131.708,145.261 133.716,145.655 134.795 C 146.764 137.834,144.961 139.184,143.378 136.500 C 142.448 134.925,140.000 135.025,140.000 136.638 C 140.000 137.545,139.142 138.097,137.993 137.928 C 137.335 137.831,137.093 137.893,137.304 138.104 C 137.855 138.655,145.998 138.540,146.357 137.976 C 146.850 137.202,146.463 124.288,145.937 123.954 C 145.697 123.802,145.425 123.707,145.333 123.743 C 145.242 123.780,143.419 123.857,141.282 123.915 M179.167 125.453 C 182.794 126.422,184.367 127.691,183.636 129.057 C 183.238 129.801,183.325 129.809,179.333 128.649 C 176.102 127.710,175.855 127.576,175.724 126.692 C 175.462 124.929,176.205 124.662,179.167 125.453 M260.798 126.527 C 261.403 128.105,260.623 128.843,258.042 129.135 C 256.942 129.260,254.569 129.642,252.771 129.984 C 243.742 131.701,239.077 131.133,240.786 128.525 C 241.237 127.837,241.624 127.731,244.230 127.579 C 245.845 127.485,248.967 127.170,251.167 126.879 C 258.891 125.855,260.517 125.796,260.798 126.527 M220.083 126.532 C 221.436 126.700,221.667 126.837,221.667 127.468 C 221.667 129.125,221.030 129.424,217.269 129.534 C 215.058 129.598,212.862 129.887,211.308 130.318 C 209.954 130.693,208.131 131.000,207.257 131.000 L 205.667 131.000 205.667 129.524 L 205.667 128.047 207.417 127.691 C 212.660 126.622,213.711 126.464,216.000 126.402 C 217.375 126.365,219.213 126.423,220.083 126.532 M233.250 127.533 L 237.667 127.754 237.667 128.885 C 237.667 130.779,234.031 131.258,228.257 130.126 C 224.973 129.482,224.498 129.153,224.990 127.859 C 225.326 126.975,225.414 126.944,227.087 127.125 C 228.048 127.228,230.821 127.412,233.250 127.533 M189.871 129.562 C 192.363 130.782,193.963 132.263,194.211 133.578 C 194.512 135.171,193.750 135.237,191.638 133.802 C 190.646 133.127,189.198 132.290,188.421 131.941 C 186.861 131.240,186.187 130.319,186.504 129.321 C 186.786 128.433,187.697 128.498,189.871 129.562 M162.974 131.195 C 164.524 132.859,163.363 134.000,160.121 134.000 C 155.885 134.000,154.508 131.892,158.138 130.964 C 159.423 130.635,162.594 130.786,162.974 131.195 M171.500 131.695 C 174.254 132.434,174.711 135.010,172.083 134.984 C 167.443 134.939,165.049 133.758,165.772 131.872 C 166.021 131.225,169.363 131.121,171.500 131.695 M219.081 132.807 C 222.404 133.054,223.774 134.333,222.155 135.676 C 221.244 136.432,214.145 136.039,213.588 135.202 C 212.746 133.934,214.047 132.298,215.732 132.505 C 216.338 132.579,217.845 132.715,219.081 132.807 M178.269 133.043 C 182.019 133.944,181.652 136.764,177.886 135.989 C 175.342 135.466,175.000 135.206,175.000 133.793 C 175.000 132.497,175.510 132.380,178.269 133.043 M211.021 134.044 C 211.432 135.588,210.670 136.074,206.884 136.682 C 203.990 137.147,203.682 137.012,203.672 135.278 C 203.667 134.401,204.171 134.089,207.000 133.223 C 208.622 132.727,210.787 133.169,211.021 134.044 M260.880 134.167 C 261.573 135.973,259.966 137.000,256.450 137.000 C 254.189 137.000,253.565 136.116,254.750 134.592 C 255.525 133.596,260.527 133.249,260.880 134.167 M186.386 134.792 C 191.290 136.809,195.333 139.630,195.333 141.036 C 195.333 142.668,194.316 142.569,190.741 140.588 C 188.958 139.600,186.975 138.591,186.333 138.346 C 183.609 137.305,183.040 136.926,182.690 135.924 C 181.986 133.904,183.271 133.511,186.386 134.792 M235.667 134.516 C 241.432 134.757,241.667 134.808,241.667 135.831 C 241.667 137.815,236.097 138.591,229.629 137.510 C 225.309 136.788,225.333 136.799,225.333 135.520 C 225.333 133.992,225.525 133.908,228.500 134.130 C 229.967 134.239,233.192 134.413,235.667 134.516 M252.134 135.157 C 252.581 136.936,251.652 137.323,246.910 137.330 C 243.770 137.334,241.933 135.033,244.730 134.599 C 248.035 134.085,251.939 134.379,252.134 135.157 M162.417 138.401 C 163.123 138.751,163.200 140.419,162.535 140.971 C 161.699 141.665,155.201 141.305,155.058 140.557 C 154.865 139.552,155.295 138.392,155.917 138.238 C 156.957 137.981,161.816 138.103,162.417 138.401 M171.500 139.496 C 178.026 140.654,181.000 141.929,181.000 143.569 C 181.000 144.773,180.250 144.828,176.392 143.905 C 174.435 143.436,171.783 142.880,170.500 142.669 C 166.802 142.062,166.513 141.937,166.392 140.882 C 166.154 138.819,166.758 138.655,171.500 139.496 M211.022 140.345 C 211.832 140.778,211.858 141.874,211.069 142.297 C 210.538 142.581,205.241 143.706,205.128 143.558 C 203.542 141.491,208.309 138.893,211.022 140.345 M220.667 140.344 C 226.583 140.966,228.006 141.314,228.428 142.242 C 229.296 144.146,226.467 144.477,219.383 143.299 C 214.699 142.520,214.001 142.162,214.600 140.846 C 215.048 139.863,215.628 139.815,220.667 140.344 M261.000 140.296 C 262.069 140.591,262.404 142.504,261.436 142.784 C 257.577 143.901,255.355 143.352,255.338 141.278 C 255.330 140.256,258.722 139.668,261.000 140.296 M252.671 140.917 C 252.674 141.054,252.766 141.504,252.877 141.917 C 253.405 143.888,244.240 145.062,242.711 143.220 C 241.418 141.662,242.236 141.179,246.500 140.984 C 248.700 140.883,250.987 140.771,251.583 140.734 C 252.179 140.697,252.669 140.779,252.671 140.917 M239.939 142.083 C 240.196 144.322,231.252 144.871,230.925 142.637 C 230.711 141.184,231.299 140.999,235.833 141.088 L 239.833 141.167 239.939 142.083 M188.667 144.066 C 192.024 145.498,193.333 146.548,193.333 147.811 C 193.333 149.403,192.685 149.357,188.575 147.474 C 186.417 146.485,184.279 145.582,183.825 145.468 C 183.100 145.286,183.000 145.079,183.000 143.760 L 183.000 142.259 184.250 142.487 C 184.938 142.613,186.925 143.323,188.667 144.066 M166.981 145.561 C 170.456 146.172,170.654 146.301,170.662 147.948 L 170.667 149.062 168.917 148.914 C 160.302 148.188,159.000 147.823,159.000 146.131 C 159.000 144.839,161.759 144.642,166.981 145.561 M154.583 145.647 L 156.000 145.667 156.000 146.961 C 156.000 148.602,155.813 148.656,150.111 148.662 C 144.883 148.668,144.667 148.608,144.667 147.159 C 144.667 145.673,145.584 145.382,149.833 145.519 C 151.667 145.579,153.804 145.636,154.583 145.647 M260.167 147.667 C 260.167 148.922,259.129 149.476,257.741 148.962 C 255.987 148.313,257.430 145.816,259.274 146.309 C 260.017 146.508,260.167 146.735,260.167 147.667 M141.674 147.000 C 142.245 147.903,142.025 148.674,141.097 149.026 C 139.849 149.501,133.938 149.781,133.375 149.392 C 132.915 149.074,132.739 147.484,133.121 147.101 C 133.966 146.256,141.150 146.171,141.674 147.000 M214.259 147.186 C 215.799 148.264,214.608 149.666,212.583 149.158 C 212.171 149.055,210.573 149.271,209.032 149.639 C 205.823 150.406,205.667 150.368,205.667 148.824 C 205.667 146.976,212.186 145.733,214.259 147.186 M255.694 147.184 C 257.337 148.199,254.231 150.205,251.654 149.793 C 249.628 149.469,249.573 147.229,251.583 146.889 C 252.625 146.713,255.235 146.900,255.694 147.184 M226.333 147.647 C 228.442 147.818,230.279 147.967,230.417 147.979 C 230.833 148.014,230.696 149.894,230.250 150.263 C 229.407 150.959,227.387 151.045,224.304 150.515 C 219.442 149.680,218.702 149.425,218.472 148.507 C 218.137 147.173,218.559 146.903,220.626 147.131 C 221.657 147.245,224.225 147.477,226.333 147.647 M178.833 148.176 C 180.969 148.894,181.725 149.570,181.599 150.649 C 181.362 152.682,174.236 150.683,174.060 148.534 L 173.954 147.235 175.560 147.426 C 176.444 147.531,177.917 147.869,178.833 148.176 M247.270 148.898 C 247.419 150.445,245.867 150.826,239.404 150.830 C 233.888 150.834,233.568 150.730,233.747 149.000 L 233.833 148.167 238.667 148.000 C 247.461 147.697,247.150 147.664,247.270 148.898 M189.966 152.233 C 193.207 153.889,194.526 155.109,194.146 156.100 C 193.919 156.693,192.695 156.868,192.150 156.387 C 191.976 156.233,191.308 155.913,190.667 155.675 C 186.294 154.058,184.000 152.623,184.000 151.504 C 184.000 149.815,185.623 150.013,189.966 152.233 M161.250 152.371 C 162.199 152.724,162.324 154.532,161.417 154.784 C 161.096 154.874,157.083 154.996,152.500 155.057 L 144.167 155.167 144.063 153.914 C 143.933 152.339,143.682 152.414,150.333 152.053 C 155.919 151.750,159.893 151.866,161.250 152.371 M172.333 153.485 C 182.710 156.204,183.833 156.678,183.833 158.334 C 183.833 159.744,183.807 159.745,179.167 158.494 C 177.333 157.999,173.445 157.048,170.526 156.380 C 165.460 155.222,165.205 155.125,164.911 154.239 C 164.203 152.102,166.257 151.893,172.333 153.485 M220.891 153.454 C 224.166 154.179,224.167 154.179,224.271 155.256 C 224.398 156.569,223.701 156.645,219.287 155.799 C 217.203 155.399,215.617 155.322,213.000 155.491 C 206.103 155.938,206.515 155.984,206.396 154.750 C 206.167 152.383,213.206 151.754,220.891 153.454 M140.706 153.386 C 141.264 154.266,141.034 155.314,140.250 155.469 C 136.228 156.267,135.112 156.397,133.484 156.263 C 131.286 156.080,130.502 155.301,131.280 154.074 C 131.966 152.994,140.082 152.402,140.706 153.386 M259.733 153.512 C 260.533 155.268,259.878 155.457,249.900 156.345 C 244.988 156.783,244.667 156.721,244.667 155.336 C 244.667 153.986,245.198 153.815,250.333 153.510 C 252.625 153.374,255.175 153.147,256.000 153.006 C 258.803 152.527,259.316 152.597,259.733 153.512 M240.936 155.385 C 241.093 156.742,239.451 157.164,234.000 157.165 C 228.066 157.167,226.333 156.876,226.333 155.880 C 226.333 154.581,226.776 154.500,233.904 154.500 L 240.833 154.500 240.936 155.385 M190.706 159.000 C 192.335 159.733,193.809 160.333,193.982 160.333 C 194.526 160.333,195.333 161.777,195.333 162.751 C 195.333 163.954,194.579 164.238,193.414 163.474 C 192.911 163.144,191.158 162.327,189.518 161.659 C 186.272 160.335,185.788 159.892,186.124 158.552 C 186.430 157.334,187.166 157.406,190.706 159.000 M260.473 158.105 C 262.219 159.383,258.983 160.927,254.452 160.977 C 252.323 161.001,252.000 160.783,252.000 159.326 C 252.000 158.021,258.982 157.015,260.473 158.105 M216.619 158.700 C 217.726 159.086,218.373 160.427,217.751 161.049 C 217.567 161.233,216.161 161.426,214.625 161.479 C 213.090 161.532,210.468 161.846,208.800 162.176 C 205.201 162.889,204.583 162.754,204.729 161.287 C 204.915 159.418,213.390 157.574,216.619 158.700 M154.464 159.194 C 155.335 161.464,155.129 161.560,148.769 161.822 L 143.372 162.045 143.146 160.840 C 142.841 159.214,142.883 159.193,146.943 158.978 C 153.821 158.612,154.246 158.625,154.464 159.194 M162.667 158.999 C 165.806 159.277,170.613 160.136,174.098 161.041 C 175.569 161.422,176.174 162.500,175.667 163.833 C 175.313 164.764,175.212 164.804,174.352 164.343 C 173.324 163.793,163.656 161.970,160.667 161.763 C 157.680 161.555,157.347 161.374,157.338 159.944 C 157.331 158.584,157.546 158.545,162.667 158.999 M226.333 159.510 C 228.905 159.990,236.491 159.983,239.854 159.498 C 241.698 159.233,242.667 159.755,242.667 161.015 C 242.667 164.079,221.146 163.420,220.164 160.326 C 219.626 158.630,220.786 158.476,226.333 159.510 M249.667 159.333 C 251.252 160.919,249.639 162.182,246.333 161.942 C 243.910 161.766,244.001 159.212,246.441 158.906 C 248.628 158.632,249.017 158.684,249.667 159.333 M140.322 159.978 C 141.179 161.580,140.327 162.112,136.333 162.468 C 133.140 162.753,132.167 162.404,132.167 160.976 C 132.167 159.624,132.720 159.450,137.238 159.377 C 139.630 159.339,140.020 159.415,140.322 159.978 M290.143 160.774 C 290.050 161.017,290.017 168.854,290.070 178.191 L 290.167 195.167 291.313 195.276 C 295.097 195.636,301.304 191.845,305.729 186.469 C 306.886 185.064,308.562 183.070,309.452 182.040 C 312.228 178.827,312.199 177.839,309.276 175.963 C 308.391 175.395,307.667 174.820,307.667 174.685 C 307.667 174.550,304.929 172.181,301.583 169.420 C 298.237 166.659,295.050 163.920,294.500 163.333 C 292.553 161.257,290.435 160.013,290.143 160.774 M187.667 164.986 C 194.696 167.738,195.073 167.980,194.933 169.647 C 194.789 171.351,194.201 171.306,189.742 169.249 C 184.207 166.695,183.463 166.411,180.730 165.808 C 178.668 165.353,178.243 165.140,177.971 164.425 C 176.875 161.541,179.214 161.676,187.667 164.986 M261.683 164.031 C 262.737 166.000,261.166 166.834,256.833 166.606 L 254.833 166.500 254.724 165.348 C 254.566 163.690,255.243 163.333,258.552 163.333 C 261.010 163.333,261.351 163.409,261.683 164.031 M219.277 164.686 C 220.269 164.899,221.232 165.371,221.710 165.881 L 222.500 166.723 221.681 167.387 C 221.120 167.842,220.596 167.987,220.015 167.848 C 217.410 167.224,213.129 167.278,210.673 167.967 C 206.195 169.224,203.815 168.548,204.989 166.354 C 205.739 164.952,215.310 163.835,219.277 164.686 M252.190 165.140 C 252.643 166.946,252.367 167.167,249.662 167.167 L 247.167 167.167 247.167 166.167 C 247.167 164.416,251.772 163.475,252.190 165.140 M160.750 165.723 C 161.108 165.908,161.333 166.408,161.333 167.020 C 161.333 168.513,160.232 168.812,156.468 168.343 C 154.277 168.070,152.488 168.062,150.016 168.316 C 139.039 169.442,131.876 168.533,132.489 166.090 L 132.702 165.242 138.268 165.437 C 141.329 165.544,146.608 165.523,150.000 165.391 C 156.563 165.135,159.803 165.235,160.750 165.723 M231.833 165.833 C 233.667 165.833,237.337 165.766,239.990 165.683 L 244.813 165.532 245.030 166.594 C 245.313 167.977,244.985 168.215,242.154 168.678 C 237.970 169.362,228.187 169.024,225.811 168.112 C 224.163 167.479,225.495 165.304,227.333 165.628 C 227.975 165.741,230.000 165.833,231.833 165.833 M172.500 166.531 C 177.713 167.567,179.327 168.446,178.839 169.982 C 178.531 170.951,177.786 171.046,175.731 170.374 C 174.687 170.034,172.108 169.496,170.000 169.179 C 164.695 168.382,164.763 168.399,164.546 167.833 C 163.710 165.656,166.116 165.262,172.500 166.531 M260.950 169.366 C 263.572 170.280,261.872 172.000,258.348 172.000 C 257.280 172.000,254.981 172.293,253.237 172.652 C 248.723 173.581,244.258 173.883,243.783 173.292 C 242.424 171.599,243.367 170.536,246.167 170.606 C 246.900 170.625,249.150 170.351,251.167 169.999 C 256.908 168.994,259.417 168.832,260.950 169.366 M189.126 171.366 C 193.375 173.149,194.630 174.079,194.222 175.142 C 193.806 176.228,192.864 176.313,190.817 175.449 C 189.726 174.988,187.216 173.994,185.240 173.240 C 182.347 172.136,181.609 171.719,181.454 171.102 C 180.854 168.711,182.974 168.784,189.126 171.366 M156.736 171.209 C 157.638 171.767,156.971 173.643,155.750 173.982 C 153.593 174.582,143.779 174.440,143.536 173.806 C 143.156 172.816,143.332 171.738,143.917 171.480 C 145.350 170.846,155.791 170.626,156.736 171.209 M223.627 170.965 C 228.979 171.282,229.318 171.396,229.328 172.881 C 229.336 173.963,228.894 174.008,220.639 173.775 C 214.000 173.588,212.528 173.642,209.628 174.174 C 205.992 174.841,205.683 174.755,205.672 173.075 C 205.659 171.189,212.948 170.333,223.627 170.965 M139.917 171.552 C 141.963 171.827,142.130 174.154,140.131 174.529 C 136.029 175.298,131.607 173.743,132.349 171.792 L 132.680 170.922 135.590 171.142 C 137.190 171.264,139.137 171.448,139.917 171.552 M165.443 171.512 C 173.671 172.551,175.502 173.241,175.275 175.221 C 175.143 176.369,174.776 176.365,168.911 175.148 C 166.754 174.700,163.877 174.333,162.519 174.333 C 159.318 174.333,158.596 173.773,159.325 171.855 C 159.716 170.827,159.926 170.816,165.443 171.512 M241.530 171.833 C 242.003 173.717,240.141 174.476,235.516 174.285 C 232.479 174.160,232.015 173.914,232.005 172.423 C 231.998 171.395,232.064 171.383,239.744 171.065 C 241.172 171.006,241.340 171.079,241.530 171.833 M186.994 176.767 C 194.224 179.308,194.971 179.785,194.350 181.465 C 193.958 182.529,193.257 182.485,190.426 181.221 C 187.915 180.100,181.598 177.968,179.442 177.514 C 177.468 177.099,177.313 174.314,179.267 174.350 C 179.762 174.359,183.239 175.446,186.994 176.767 M261.433 176.112 C 262.391 178.609,260.586 179.042,248.833 179.135 L 244.833 179.167 244.730 178.102 C 244.634 177.102,244.716 177.012,246.064 176.640 C 248.857 175.868,261.177 175.445,261.433 176.112 M159.342 177.209 C 160.604 178.470,159.589 179.497,157.000 179.579 C 155.625 179.622,152.250 179.826,149.500 180.032 C 134.554 181.151,130.704 180.698,131.242 177.886 L 131.422 176.945 135.961 177.115 C 138.457 177.208,142.000 177.183,143.833 177.059 C 149.301 176.689,158.915 176.782,159.342 177.209 M170.833 177.887 C 177.115 179.051,183.000 181.450,183.000 182.846 C 183.000 183.563,181.965 184.393,181.374 184.150 C 179.068 183.205,166.646 180.333,164.863 180.333 C 162.538 180.333,160.999 178.313,162.583 177.342 C 163.271 176.921,166.921 177.162,170.833 177.887 M241.352 177.343 C 242.558 177.989,242.093 179.412,240.500 179.949 C 237.188 181.066,222.473 180.806,221.277 179.611 C 219.380 177.713,220.115 177.500,228.555 177.500 C 232.802 177.500,236.354 177.425,236.448 177.333 C 236.808 176.984,240.695 176.992,241.352 177.343 M218.600 177.733 C 218.820 177.953,219.000 178.550,219.000 179.060 C 219.000 180.143,218.762 180.222,214.833 180.443 C 213.367 180.525,210.620 180.941,208.730 181.368 C 204.905 182.231,204.682 182.161,204.672 180.109 C 204.663 178.232,216.995 176.128,218.600 177.733 M260.807 182.118 C 261.768 182.748,261.810 182.914,261.329 184.177 L 260.992 185.064 257.579 184.835 C 255.088 184.668,252.198 184.800,246.873 185.326 C 239.018 186.101,238.973 186.095,238.886 184.297 C 238.825 183.020,238.678 183.063,245.667 182.310 C 247.775 182.083,250.325 181.783,251.333 181.644 C 254.489 181.209,259.827 181.476,260.807 182.118 M190.898 183.601 L 193.833 184.920 193.934 186.265 C 194.042 187.701,193.134 188.469,192.222 187.713 C 191.996 187.525,190.690 186.969,189.322 186.478 C 184.674 184.810,183.717 184.082,184.195 182.577 C 184.517 181.562,187.312 181.989,190.898 183.601 M139.045 183.246 L 145.591 183.371 145.800 184.419 C 146.134 186.087,145.561 186.366,141.131 186.697 C 134.793 187.170,130.078 186.013,130.536 184.098 C 130.865 182.721,131.005 182.583,131.788 182.865 C 132.179 183.005,135.445 183.177,139.045 183.246 M166.785 183.028 C 168.656 183.526,169.333 184.203,169.333 185.576 L 169.333 186.715 167.417 186.505 C 166.362 186.389,164.399 186.131,163.053 185.930 C 161.547 185.706,158.312 185.641,154.637 185.762 C 149.034 185.946,148.647 185.920,148.334 185.334 C 147.865 184.459,147.918 183.796,148.502 183.213 C 149.133 182.581,164.523 182.425,166.785 183.028 M217.607 183.630 C 220.413 185.364,214.672 187.282,207.703 186.938 C 205.401 186.825,204.551 186.051,205.439 184.878 C 206.184 183.893,216.347 182.851,217.607 183.630 M226.934 184.888 L 227.036 186.276 224.934 186.499 C 221.135 186.902,220.184 186.684,220.060 185.385 C 219.866 183.365,219.983 183.299,223.578 183.405 L 226.833 183.500 226.934 184.888 M235.600 183.733 C 237.027 185.160,235.629 186.333,232.500 186.333 C 229.304 186.333,228.433 185.683,229.345 183.978 C 229.758 183.207,234.873 183.007,235.600 183.733 M174.667 185.000 C 176.042 185.360,177.491 185.658,177.888 185.661 C 181.576 185.690,194.553 191.436,194.271 192.916 C 194.077 193.935,192.998 193.738,185.795 191.364 C 181.924 190.089,177.574 188.807,176.129 188.515 C 171.668 187.614,170.940 187.077,171.650 185.211 C 171.833 184.728,172.025 184.336,172.075 184.339 C 172.125 184.342,173.292 184.640,174.667 185.000 M258.499 187.842 C 261.904 188.436,262.122 188.564,261.815 189.788 C 261.522 190.957,260.653 191.130,257.941 190.560 C 256.248 190.204,254.667 190.155,251.330 190.358 C 245.815 190.693,244.960 190.299,246.482 188.127 C 247.125 187.208,253.941 187.047,258.499 187.842 M155.250 188.592 C 156.757 190.528,155.499 191.329,150.320 191.729 C 147.852 191.919,145.308 192.137,144.667 192.213 C 136.478 193.184,130.103 192.277,130.402 190.185 C 130.497 189.524,130.714 189.499,136.667 189.459 C 141.169 189.429,143.508 189.264,145.333 188.848 C 146.708 188.534,148.625 188.235,149.593 188.184 C 150.561 188.133,151.413 188.031,151.487 187.958 C 151.845 187.600,154.876 188.111,155.250 188.592 M243.937 189.062 C 244.142 190.841,243.282 191.030,234.645 191.102 L 226.895 191.167 226.577 190.221 C 225.944 188.342,227.093 188.117,237.167 188.147 L 243.833 188.167 243.937 189.062 M165.833 189.206 C 175.775 191.210,177.025 191.752,176.022 193.625 C 175.518 194.567,174.753 194.526,170.626 193.334 C 167.428 192.410,164.760 191.946,159.952 191.478 C 158.141 191.301,158.064 191.254,157.907 190.230 C 157.590 188.155,159.436 187.916,165.833 189.206 M223.917 189.269 C 224.443 189.932,224.438 190.062,223.861 190.853 C 223.453 191.412,222.833 191.526,219.278 191.690 C 217.017 191.795,213.320 192.089,211.063 192.343 C 206.488 192.858,206.244 192.779,206.413 190.833 C 206.530 189.486,208.121 189.115,215.333 188.753 C 221.658 188.435,223.334 188.536,223.917 189.269 M308.835 190.688 C 307.920 191.403,307.115 192.154,307.048 192.357 C 306.847 192.960,300.382 197.632,298.283 198.692 C 296.390 199.647,290.046 200.994,287.417 200.998 C 285.984 201.001,286.016 201.504,287.625 204.275 C 288.744 206.203,290.463 209.891,291.112 211.755 C 291.752 213.597,299.406 213.574,302.833 211.720 C 311.978 206.774,312.228 206.616,316.901 202.838 C 318.038 201.919,319.425 200.818,319.984 200.391 C 321.633 199.133,321.271 199.000,316.188 199.000 C 309.118 199.000,309.265 199.134,310.331 193.667 C 311.261 188.894,311.224 188.821,308.835 190.688 M182.792 193.316 C 183.625 193.673,184.875 194.070,185.570 194.199 C 190.254 195.070,194.000 197.224,194.000 199.047 C 194.000 200.613,193.280 200.534,187.854 198.373 C 185.037 197.251,182.547 196.333,182.321 196.333 C 181.258 196.333,179.220 195.470,178.811 194.846 C 177.505 192.853,179.723 192.000,182.792 193.316 M254.473 193.645 C 255.102 194.166,255.170 195.787,254.583 196.240 C 253.743 196.888,242.525 196.260,242.391 195.557 C 242.075 193.904,242.575 193.373,244.586 193.227 C 248.342 192.953,253.924 193.189,254.473 193.645 M228.244 194.083 C 228.740 194.717,228.950 195.875,228.654 196.353 C 228.467 196.656,226.327 196.899,221.279 197.191 C 217.367 197.418,213.305 197.775,212.251 197.985 C 208.783 198.676,206.519 198.360,206.402 197.167 C 206.206 195.162,206.752 194.906,211.874 194.603 C 214.418 194.452,218.450 194.202,220.833 194.046 C 227.294 193.626,227.889 193.629,228.244 194.083 M240.464 194.194 C 241.261 196.269,240.280 196.906,236.201 196.966 C 231.988 197.027,231.667 196.923,231.667 195.493 C 231.667 194.280,231.816 194.208,235.000 193.890 C 238.299 193.560,240.263 193.670,240.464 194.194 M270.500 194.459 C 264.410 196.450,256.898 201.743,255.303 205.167 C 253.743 208.513,256.086 215.662,257.966 213.292 C 259.187 211.753,263.927 208.530,265.569 208.122 C 266.448 207.904,267.796 207.491,268.565 207.204 C 271.385 206.152,276.786 206.157,281.750 207.216 C 283.437 207.575,281.932 203.574,278.248 197.905 C 275.170 193.168,274.865 193.032,270.500 194.459 M133.769 194.673 C 134.538 194.859,136.667 195.122,138.500 195.256 L 141.833 195.500 141.935 196.894 L 142.036 198.287 140.465 198.523 C 135.588 199.254,131.000 198.066,131.000 196.073 C 131.000 194.183,131.244 194.059,133.769 194.673 M160.171 194.668 C 160.952 194.965,161.026 195.126,160.824 196.085 C 160.495 197.649,160.590 197.619,155.500 197.789 C 152.933 197.874,150.608 198.020,150.333 198.112 C 147.173 199.168,143.790 198.375,144.233 196.681 C 144.519 195.588,145.812 195.208,151.500 194.549 C 153.805 194.282,159.355 194.358,160.171 194.668 M171.098 195.848 C 180.656 198.690,181.000 198.857,181.000 200.655 C 181.000 202.017,178.702 201.742,172.000 199.576 C 170.258 199.014,167.483 198.387,165.833 198.183 L 162.833 197.813 162.727 196.709 C 162.461 193.958,164.154 193.784,171.098 195.848 M216.583 200.184 C 216.813 200.255,217.000 200.837,217.000 201.480 C 217.000 203.018,214.750 203.766,210.000 203.806 L 206.833 203.833 206.735 202.833 C 206.563 201.079,207.236 200.606,210.285 200.338 C 211.786 200.206,213.095 200.016,213.194 199.917 C 213.371 199.740,215.755 199.928,216.583 200.184 M229.602 201.231 C 229.725 202.936,229.563 202.985,223.377 203.094 C 218.826 203.174,218.180 202.854,219.115 200.979 C 219.639 199.928,220.444 199.776,225.333 199.807 L 229.500 199.833 229.602 201.231 M247.917 200.324 C 251.392 201.114,249.571 203.911,245.833 203.525 C 244.733 203.411,241.508 203.230,238.667 203.122 C 235.825 203.014,233.313 202.774,233.083 202.588 C 232.502 202.119,232.563 200.818,233.196 200.185 C 233.838 199.543,244.944 199.648,247.917 200.324 M187.500 201.021 C 193.797 203.297,193.985 203.413,193.995 205.043 C 194.006 207.010,193.351 206.917,185.259 203.802 C 183.508 203.128,182.716 201.820,183.346 200.643 C 183.729 199.927,184.721 200.017,187.500 201.021 M135.403 201.049 C 137.418 201.370,138.893 201.373,142.236 201.061 C 148.268 200.498,149.237 200.531,149.655 201.311 C 150.738 203.335,149.613 203.911,143.998 204.208 C 133.750 204.750,130.116 203.907,130.809 201.145 C 130.991 200.422,131.168 200.314,131.929 200.462 C 132.426 200.559,133.990 200.823,135.403 201.049 M165.167 201.505 C 166.633 201.759,168.394 202.055,169.079 202.164 C 170.426 202.378,171.113 203.212,170.938 204.420 C 170.811 205.292,169.514 205.695,168.333 205.228 C 167.875 205.047,164.410 204.809,160.634 204.699 C 152.736 204.470,151.523 203.991,152.986 201.678 C 153.631 200.657,159.764 200.570,165.167 201.505 M178.718 204.531 C 180.615 205.190,183.742 206.374,185.667 207.161 C 187.592 207.948,189.652 208.696,190.246 208.822 C 192.180 209.233,193.554 212.024,192.020 212.425 C 191.664 212.518,189.902 212.070,188.103 211.429 C 186.305 210.788,182.358 209.411,179.333 208.368 L 173.833 206.472 173.732 204.903 C 173.602 202.904,173.957 202.878,178.718 204.531 M223.267 205.733 C 224.992 207.458,223.392 208.611,218.939 208.852 C 217.048 208.955,213.987 209.340,212.137 209.708 C 210.287 210.076,208.112 210.330,207.304 210.272 L 205.833 210.167 205.833 208.668 C 205.833 206.781,206.553 206.489,212.444 205.977 C 214.666 205.784,216.551 205.560,216.631 205.480 C 216.981 205.130,222.889 205.356,223.267 205.733 M232.083 206.209 C 233.467 206.372,233.667 206.494,233.667 207.174 C 233.667 208.639,232.878 209.000,229.675 209.000 L 226.732 209.000 226.366 207.950 C 225.736 206.145,226.429 205.538,228.798 205.820 C 229.734 205.932,231.213 206.107,232.083 206.209 M242.973 206.708 C 246.346 207.285,247.127 208.121,245.883 209.821 C 245.049 210.963,236.667 209.659,236.667 208.388 C 236.667 206.405,238.437 205.933,242.973 206.708 M139.572 207.524 C 140.585 207.818,140.841 208.851,140.159 209.892 C 138.822 211.933,131.333 210.522,131.333 208.230 L 131.333 206.901 135.083 207.105 C 137.146 207.218,139.166 207.406,139.572 207.524 M154.615 207.206 C 155.791 207.441,156.161 208.199,155.698 209.418 C 155.208 210.705,148.197 211.556,144.375 210.792 C 143.219 210.560,142.850 208.816,143.792 208.034 C 144.713 207.270,152.105 206.704,154.615 207.206 M169.000 208.342 C 176.854 210.006,179.057 211.305,177.071 213.102 C 176.529 213.593,176.284 213.596,174.321 213.134 C 168.922 211.862,165.588 211.260,162.540 211.006 C 160.401 210.828,159.149 210.575,158.970 210.285 C 158.643 209.755,158.950 208.280,159.468 207.895 C 159.953 207.535,166.681 207.851,169.000 208.342 M272.131 210.652 C 270.764 211.219,270.510 215.458,271.808 216.049 C 273.526 216.832,274.935 216.160,275.194 214.435 C 275.687 211.146,274.492 209.671,272.131 210.652 M280.841 211.937 C 280.463 212.315,280.688 214.362,281.126 214.531 C 281.756 214.772,283.760 214.221,283.912 213.764 C 284.180 212.959,281.446 211.331,280.841 211.937 M187.789 213.895 C 194.372 216.138,195.145 216.572,195.270 218.086 C 195.411 219.784,194.921 219.893,191.955 218.824 C 190.605 218.337,188.375 217.563,187.000 217.103 C 180.422 214.901,180.309 214.825,181.102 213.161 C 181.764 211.773,181.465 211.740,187.789 213.895 M223.934 213.195 C 224.087 214.763,223.340 215.162,220.198 215.193 C 216.218 215.233,212.808 215.632,210.073 216.378 C 206.342 217.396,205.500 217.204,205.500 215.335 C 205.500 213.415,206.276 213.120,212.647 212.622 C 215.133 212.427,217.234 212.203,217.317 212.123 C 217.399 212.043,218.899 212.020,220.650 212.072 L 223.833 212.167 223.934 213.195 M236.333 213.040 C 238.992 213.240,241.692 213.538,242.333 213.700 C 242.975 213.863,243.904 213.997,244.398 213.998 C 245.360 214.000,246.333 215.047,246.333 216.081 C 246.333 217.209,244.993 217.451,242.127 216.840 C 240.559 216.506,237.148 216.205,233.667 216.094 C 226.619 215.870,226.333 215.791,226.333 214.064 C 226.333 212.135,225.484 212.222,236.333 213.040 M137.070 213.207 C 139.641 213.510,139.751 215.680,137.230 216.364 C 134.000 217.240,130.000 216.250,130.000 214.575 C 130.000 212.542,130.536 212.438,137.070 213.207 M157.239 213.541 C 158.215 213.802,158.512 214.845,157.883 215.804 C 157.277 216.729,142.195 217.485,140.666 216.666 C 139.964 216.291,139.881 214.676,140.530 214.024 C 140.919 213.634,155.962 213.198,157.239 213.541 M264.189 214.402 C 263.525 215.351,263.527 215.875,264.197 216.132 C 264.979 216.432,265.333 216.080,265.333 215.000 C 265.333 213.734,264.839 213.475,264.189 214.402 M169.302 215.050 C 175.073 216.317,174.974 216.280,175.212 217.230 C 175.706 219.198,174.365 219.538,169.500 218.678 C 168.217 218.451,165.817 218.088,164.167 217.872 L 161.167 217.479 161.061 216.205 C 160.847 213.618,162.026 213.452,169.302 215.050 M181.833 218.142 C 190.707 220.530,195.000 222.500,195.000 224.185 C 195.000 226.081,194.667 226.048,187.000 223.407 C 185.442 222.870,182.667 222.080,180.833 221.652 C 176.922 220.738,176.607 220.557,176.868 219.379 C 177.409 216.932,177.371 216.942,181.833 218.142 M253.336 220.417 C 253.342 225.933,256.391 236.342,258.333 237.480 C 259.652 238.252,263.517 238.354,266.414 237.692 C 267.284 237.494,269.067 237.180,270.377 236.994 C 274.952 236.345,278.449 235.274,282.333 233.331 C 284.442 232.277,286.886 231.170,287.765 230.873 C 288.644 230.575,290.725 229.619,292.389 228.749 L 295.414 227.167 299.297 227.057 C 304.571 226.908,308.709 228.416,312.292 231.792 L 313.751 233.167 313.531 231.706 C 313.410 230.903,312.887 229.328,312.369 228.206 C 311.850 227.085,311.022 225.174,310.528 223.961 C 309.194 220.686,308.497 220.171,303.988 219.127 C 297.546 217.635,291.157 217.886,282.000 219.989 C 269.079 222.957,264.558 222.777,256.371 218.968 C 254.833 218.252,253.520 217.667,253.454 217.667 C 253.388 217.667,253.335 218.904,253.336 220.417 M226.401 218.688 C 229.967 219.199,230.614 219.700,229.564 221.135 C 229.174 221.669,228.386 221.744,222.117 221.849 C 216.722 221.939,214.332 222.123,211.750 222.650 C 206.478 223.724,205.615 223.484,206.211 221.109 C 206.678 219.248,219.541 217.706,226.401 218.688 M236.526 220.153 C 238.276 221.300,237.264 223.157,235.054 222.854 C 231.478 222.365,230.986 221.958,231.698 220.085 C 232.072 219.099,234.980 219.140,236.526 220.153 M132.833 220.506 C 133.567 220.633,136.835 220.726,140.096 220.713 L 146.025 220.689 146.346 221.533 C 147.130 223.595,146.388 223.995,141.333 224.236 C 137.630 224.413,131.325 223.685,130.479 222.983 C 129.377 222.068,129.741 219.795,130.937 220.122 C 131.247 220.206,132.100 220.379,132.833 220.506 M245.561 221.431 C 247.218 223.120,246.005 224.553,243.231 224.185 C 239.765 223.725,238.344 222.370,239.801 220.914 C 240.361 220.353,244.904 220.761,245.561 221.431 M163.375 221.546 C 166.047 222.264,166.333 222.489,166.333 223.868 C 166.333 225.323,165.609 225.514,162.130 224.973 C 158.791 224.453,158.321 224.420,153.576 224.373 C 149.254 224.329,148.602 223.964,149.126 221.875 C 149.460 220.545,158.847 220.328,163.375 221.546 M174.156 222.824 C 177.238 223.132,181.030 224.206,186.667 226.367 C 194.233 229.267,194.667 229.564,194.667 231.859 C 194.667 233.167,193.836 233.170,191.000 231.874 C 189.548 231.210,188.115 230.667,187.817 230.667 C 187.519 230.667,186.094 230.148,184.652 229.513 C 183.209 228.879,180.710 228.115,179.098 227.816 C 177.486 227.516,175.348 227.060,174.347 226.802 C 173.346 226.544,172.087 226.333,171.550 226.333 C 170.271 226.333,169.684 225.496,169.918 224.009 C 170.127 222.683,170.524 222.301,171.497 222.493 C 171.865 222.565,173.062 222.714,174.156 222.824 M221.500 225.624 C 222.291 225.792,222.523 226.037,222.609 226.792 C 222.777 228.256,222.354 228.415,217.997 228.528 C 215.771 228.585,212.873 228.869,211.558 229.159 C 210.243 229.448,208.342 229.718,207.333 229.759 L 205.500 229.833 205.400 228.478 C 205.316 227.324,205.419 227.068,206.092 226.761 C 208.243 225.781,218.628 225.015,221.500 225.624 M228.667 226.326 C 230.233 226.743,229.544 229.333,227.867 229.333 C 225.068 229.333,223.763 228.087,224.840 226.443 C 225.382 225.616,225.940 225.599,228.667 226.326 M141.192 227.685 C 146.364 227.620,146.896 227.802,146.472 229.492 C 146.113 230.923,145.118 231.091,138.172 230.894 C 131.262 230.698,130.667 230.506,130.667 228.480 C 130.667 227.322,131.413 227.095,134.093 227.437 C 135.417 227.606,138.611 227.718,141.192 227.685 M152.499 227.333 C 153.689 227.786,153.585 229.608,152.333 230.237 C 150.980 230.918,148.423 230.791,148.012 230.022 C 146.769 227.699,149.368 226.142,152.499 227.333 M161.333 227.658 C 162.245 227.898,162.626 229.395,162.014 230.333 C 161.674 230.854,157.960 230.980,156.170 230.531 C 155.235 230.296,154.943 228.191,155.736 227.398 C 156.135 226.998,159.399 227.150,161.333 227.658 M234.926 227.519 C 236.657 228.731,235.387 230.541,233.079 230.152 C 230.846 229.775,230.667 229.668,230.667 228.711 C 230.667 227.017,233.198 226.309,234.926 227.519 M169.405 228.672 C 171.100 230.766,169.681 231.899,166.167 231.256 C 163.714 230.807,162.842 229.562,164.002 228.165 C 164.842 227.152,168.448 227.490,169.405 228.672 M178.667 230.705 C 180.225 231.262,182.025 231.836,182.667 231.980 C 183.308 232.124,184.583 232.548,185.500 232.922 C 186.417 233.296,188.517 234.142,190.167 234.803 C 193.405 236.099,194.333 236.886,194.333 238.335 C 194.333 239.741,193.559 239.783,190.384 238.551 C 183.650 235.938,174.435 233.000,172.974 233.000 C 171.534 233.000,170.709 230.777,171.750 229.704 C 172.362 229.073,175.286 229.496,178.667 230.705 M224.657 232.155 C 225.929 233.688,223.633 235.631,221.122 235.146 C 219.278 234.790,218.860 233.938,219.815 232.481 C 220.460 231.497,223.918 231.265,224.657 232.155 M235.321 233.008 C 239.677 234.137,240.224 234.491,239.763 235.884 C 239.390 237.011,238.275 237.257,236.192 236.674 C 235.443 236.464,232.881 235.956,230.499 235.544 C 225.759 234.725,225.544 234.572,226.361 232.600 L 226.781 231.585 229.141 231.802 C 230.438 231.921,233.219 232.464,235.321 233.008 M297.833 231.895 C 296.233 232.096,291.997 233.770,291.174 234.527 C 290.281 235.349,289.748 241.605,290.167 246.341 L 290.403 249.000 292.285 248.998 C 296.427 248.994,299.748 246.612,300.879 242.833 C 301.928 239.324,301.457 232.000,300.181 232.000 C 299.928 232.000,299.521 231.948,299.277 231.885 C 299.033 231.822,298.383 231.826,297.833 231.895 M217.934 233.374 C 218.062 234.899,218.268 234.829,211.516 235.533 C 205.274 236.184,204.618 236.048,205.304 234.245 C 205.926 232.609,208.477 232.041,214.833 232.127 L 217.833 232.167 217.934 233.374 M138.644 233.624 L 142.454 233.833 142.706 234.778 C 143.045 236.051,142.766 236.635,141.713 236.862 C 141.229 236.966,140.518 237.204,140.133 237.389 C 139.630 237.631,139.018 237.589,137.966 237.240 C 137.160 236.972,135.480 236.565,134.233 236.336 C 131.647 235.859,131.000 235.378,131.000 233.930 L 131.000 232.907 132.917 233.160 C 133.971 233.300,136.548 233.508,138.644 233.624 M154.417 233.824 C 155.193 234.153,155.238 236.504,154.473 236.798 C 153.761 237.071,147.496 237.020,145.833 236.727 C 143.936 236.393,143.666 234.602,145.395 233.818 C 146.551 233.294,153.176 233.299,154.417 233.824 M164.826 234.836 C 167.022 235.293,169.234 235.667,169.743 235.667 C 170.950 235.667,172.000 236.746,172.000 237.988 C 172.000 239.412,171.044 239.839,169.424 239.138 C 168.230 238.622,163.868 237.877,159.500 237.443 C 157.279 237.223,156.667 236.897,156.667 235.937 C 156.667 233.725,158.376 233.494,164.826 234.836 M306.333 236.424 C 306.333 240.937,303.876 248.019,301.740 249.663 C 301.242 250.047,300.104 250.940,299.214 251.647 C 295.774 254.377,290.217 254.989,277.333 254.057 C 265.402 253.195,261.555 252.434,252.667 249.179 C 245.492 246.552,243.673 245.961,241.833 245.661 C 240.917 245.511,239.144 245.067,237.894 244.674 C 229.829 242.137,222.667 242.504,222.667 245.455 C 222.667 245.733,221.767 248.666,220.667 251.973 C 217.777 260.659,217.962 261.333,223.240 261.333 C 225.451 261.333,235.581 263.664,241.244 265.476 C 251.299 268.694,262.140 271.927,263.500 272.115 C 264.233 272.216,266.258 272.625,268.000 273.024 C 276.611 274.997,294.740 273.742,298.805 270.891 C 299.339 270.517,300.779 269.729,302.005 269.142 C 303.231 268.554,304.326 267.832,304.440 267.537 C 304.553 267.242,304.824 267.000,305.043 267.000 C 305.706 267.000,309.415 263.291,310.833 261.210 C 312.845 258.257,313.947 256.573,314.350 255.833 C 314.840 254.933,315.623 253.552,316.968 251.213 C 319.092 247.518,317.886 244.014,312.580 238.463 C 307.689 233.347,306.333 232.905,306.333 236.424 M246.563 234.884 C 248.641 235.128,249.077 235.533,248.792 236.957 C 248.369 239.070,242.269 238.561,242.061 236.395 C 241.917 234.896,242.527 234.222,243.797 234.476 C 244.348 234.586,245.592 234.770,246.563 234.884 M184.988 240.168 C 193.691 243.191,193.874 243.284,194.194 244.888 C 194.432 246.076,193.545 246.648,192.409 246.040 C 192.069 245.859,190.751 245.469,189.479 245.174 C 188.207 244.879,185.417 243.973,183.278 243.159 C 181.140 242.345,178.371 241.401,177.125 241.059 C 175.037 240.487,174.838 240.353,174.577 239.345 C 173.863 236.590,174.931 236.675,184.988 240.168 M217.676 238.842 C 219.583 240.568,217.956 241.469,211.970 242.000 C 206.143 242.518,205.333 242.393,205.333 240.977 C 205.333 239.614,206.805 239.011,210.239 238.967 C 211.666 238.948,213.208 238.813,213.667 238.667 C 215.078 238.215,217.080 238.302,217.676 238.842 M281.801 238.958 L 280.769 239.594 280.590 243.381 C 280.314 249.204,280.372 249.387,282.457 249.266 L 284.167 249.167 284.167 243.833 C 284.167 237.854,284.034 237.581,281.801 238.958 M158.881 241.154 C 161.017 241.647,161.281 241.797,161.441 242.602 C 161.768 244.252,161.115 244.495,157.535 244.055 C 155.796 243.842,153.248 243.667,151.875 243.667 C 148.454 243.667,147.667 243.330,147.667 241.869 C 147.667 241.238,147.854 240.636,148.083 240.531 C 148.876 240.166,156.509 240.607,158.881 241.154 M272.669 241.964 C 271.545 242.277,271.010 243.471,271.010 245.667 C 271.010 247.952,271.172 248.197,272.871 248.481 C 274.858 248.813,275.335 248.213,275.329 245.393 C 275.321 241.645,275.054 241.301,272.669 241.964 M167.593 242.784 C 168.249 243.440,167.766 244.962,166.828 245.198 C 164.556 245.768,162.166 244.119,162.814 242.429 C 163.062 241.783,166.875 242.066,167.593 242.784 M117.644 242.456 C 117.541 242.566,115.591 242.817,113.311 243.014 C 105.792 243.664,99.888 245.484,98.367 247.620 C 96.574 250.138,93.333 263.661,93.333 268.625 C 93.333 271.518,93.457 271.569,98.772 270.888 C 101.189 270.578,103.649 270.327,104.239 270.329 C 104.829 270.331,107.304 269.872,109.739 269.308 C 123.437 266.137,134.063 269.234,142.581 278.881 C 143.636 280.076,145.100 281.703,145.833 282.495 C 146.567 283.287,148.517 286.439,150.167 289.498 C 151.817 292.557,153.628 295.609,154.192 296.280 C 154.756 296.951,155.824 298.400,156.565 299.500 C 158.046 301.698,160.267 303.946,162.833 305.847 C 163.750 306.526,164.950 307.504,165.500 308.020 C 166.050 308.536,167.193 309.254,168.039 309.615 C 168.886 309.977,170.674 310.893,172.013 311.651 C 174.628 313.133,175.426 313.451,183.345 316.168 C 194.595 320.029,208.414 321.520,217.667 319.873 C 230.043 317.670,235.049 315.303,242.612 308.075 C 243.773 306.965,244.943 305.856,245.212 305.612 C 249.457 301.746,249.200 299.489,243.961 294.643 C 236.407 287.654,235.997 287.520,232.940 291.041 C 226.540 298.413,215.086 301.157,201.000 298.694 C 187.777 296.382,178.225 290.092,168.559 277.333 C 163.083 270.105,159.766 265.898,159.233 265.503 C 158.983 265.318,157.648 263.817,156.267 262.167 C 145.879 249.756,134.472 243.399,120.926 242.469 C 119.225 242.353,117.748 242.347,117.644 242.456 M173.670 243.503 C 175.688 245.329,173.903 247.229,171.156 246.180 C 169.351 245.491,169.241 245.331,169.528 243.801 L 169.755 242.590 171.381 242.747 C 172.287 242.834,173.300 243.168,173.670 243.503 M183.167 245.767 C 187.771 247.163,192.763 249.254,193.891 250.258 C 195.651 251.826,194.186 254.781,192.403 253.259 C 191.724 252.679,181.856 248.746,179.550 248.137 C 177.692 247.646,176.814 246.967,176.520 245.793 C 176.053 243.933,177.104 243.929,183.167 245.767 M216.209 244.822 C 216.978 246.826,215.030 247.777,209.260 248.212 C 205.605 248.488,203.858 246.977,205.883 245.291 C 206.897 244.447,215.907 244.038,216.209 244.822 M162.750 247.527 C 166.212 248.118,166.332 248.183,166.430 249.515 C 166.559 251.269,164.400 251.480,156.396 250.498 C 154.642 250.282,153.100 248.890,153.444 247.833 C 153.726 246.967,158.545 246.808,162.750 247.527 M176.500 249.367 C 183.512 250.805,185.866 251.403,186.833 251.989 C 187.383 252.323,188.658 252.936,189.667 253.352 C 192.450 254.501,193.667 255.514,193.667 256.684 C 193.667 258.217,192.688 258.123,188.345 256.173 C 182.986 253.767,176.665 252.072,170.943 251.506 C 168.613 251.275,168.114 250.882,168.522 249.598 C 168.970 248.186,170.525 248.141,176.500 249.367 M243.227 248.783 C 243.322 248.878,242.860 251.204,242.200 253.952 C 241.540 256.700,241.000 259.097,241.000 259.277 C 241.000 259.457,242.416 259.946,244.146 260.363 L 247.292 261.121 247.102 262.144 C 246.997 262.706,246.805 263.286,246.674 263.432 C 246.258 263.896,237.495 261.514,237.536 260.948 C 237.556 260.676,238.225 257.711,239.021 254.359 L 240.470 248.264 241.763 248.437 C 242.474 248.533,243.133 248.688,243.227 248.783 M127.911 250.133 C 127.972 250.194,127.267 252.460,126.344 255.167 C 125.422 257.874,124.667 260.201,124.667 260.337 C 124.667 260.473,126.017 261.072,127.667 261.667 C 129.317 262.262,130.667 262.858,130.667 262.991 C 130.667 263.125,130.507 263.693,130.311 264.254 L 129.956 265.274 125.481 263.720 C 123.019 262.866,121.004 262.012,121.003 261.824 C 121.001 261.563,123.323 254.642,125.169 249.409 C 125.300 249.038,127.359 249.581,127.911 250.133 M254.119 251.995 C 254.659 252.517,251.343 265.379,250.715 265.194 C 250.414 265.105,249.745 264.931,249.230 264.808 C 248.715 264.685,248.356 264.415,248.433 264.209 C 248.509 264.002,249.230 261.011,250.035 257.562 L 251.498 251.290 252.665 251.504 C 253.308 251.622,253.962 251.843,254.119 251.995 M264.304 254.652 C 266.144 255.590,267.860 258.544,267.193 259.624 C 266.898 260.102,264.333 259.334,264.333 258.767 C 264.333 256.536,260.634 255.633,258.840 257.426 C 255.633 260.634,257.409 266.468,261.297 265.498 C 263.503 264.948,263.929 263.493,261.981 263.163 C 260.656 262.940,260.378 262.033,261.202 260.621 C 261.394 260.293,266.667 261.704,266.667 262.083 C 266.667 262.773,265.250 268.511,265.018 268.762 C 264.502 269.321,262.942 268.374,263.174 267.642 C 263.387 266.974,263.362 266.968,262.380 267.476 C 257.996 269.743,253.209 265.251,254.317 259.910 C 255.419 254.603,259.745 252.326,264.304 254.652 M165.481 254.328 C 167.903 254.725,168.484 255.221,168.175 256.630 L 167.947 257.667 165.167 257.667 C 161.506 257.667,161.333 257.583,161.333 255.822 C 161.333 253.955,161.916 253.745,165.481 254.328 M142.836 256.885 C 146.894 259.588,146.997 259.718,146.042 260.960 L 145.432 261.753 142.881 260.032 C 139.595 257.815,139.588 257.813,138.909 258.962 C 138.146 260.253,138.005 260.039,140.829 261.876 C 143.522 263.629,143.658 263.858,142.705 265.036 L 142.076 265.812 140.288 264.630 C 139.305 263.980,138.097 263.186,137.603 262.865 L 136.707 262.283 135.829 263.673 C 135.347 264.437,135.000 265.101,135.059 265.148 C 135.118 265.195,136.367 266.026,137.833 266.995 C 139.300 267.965,140.626 268.871,140.781 269.010 C 141.095 269.291,140.096 271.000,139.619 271.000 C 139.207 271.000,131.333 265.711,131.333 265.435 C 131.333 264.994,138.409 254.333,138.702 254.333 C 138.869 254.333,140.729 255.481,142.836 256.885 M176.500 255.625 C 178.107 256.147,178.867 257.911,177.901 258.877 C 177.195 259.583,170.022 257.525,169.809 256.555 C 169.376 254.586,172.127 254.204,176.500 255.625 M272.272 256.179 C 272.330 256.227,272.225 257.364,272.039 258.706 C 271.637 261.610,271.341 261.228,274.215 261.511 L 276.596 261.746 276.777 260.790 C 276.876 260.264,277.049 259.136,277.161 258.284 L 277.364 256.734 278.765 256.913 C 279.536 257.011,280.199 257.116,280.238 257.145 C 280.278 257.175,279.941 260.191,279.491 263.849 C 279.041 267.507,278.671 270.537,278.670 270.583 C 278.664 270.744,277.159 270.655,276.388 270.449 C 275.729 270.273,275.637 270.082,275.787 269.204 C 275.885 268.633,276.064 267.316,276.184 266.276 L 276.404 264.385 274.785 264.171 C 273.895 264.053,272.772 263.884,272.291 263.794 C 271.432 263.635,271.410 263.676,271.182 265.899 C 270.812 269.504,270.741 269.667,269.547 269.662 C 267.700 269.653,267.701 269.662,268.531 263.000 C 268.953 259.608,269.307 256.585,269.316 256.282 C 269.331 255.800,271.715 255.717,272.272 256.179 M187.743 258.230 C 191.831 259.578,193.000 260.466,193.000 262.223 C 193.000 263.757,192.388 263.899,190.210 262.868 C 189.210 262.395,186.992 261.614,185.280 261.132 C 181.267 260.003,180.667 259.623,180.667 258.215 C 180.667 256.254,181.759 256.256,187.743 258.230 M292.667 259.000 L 292.667 260.333 290.675 260.333 L 288.683 260.333 288.591 265.917 L 288.500 271.500 287.167 271.500 L 285.833 271.500 285.742 265.917 L 285.651 260.333 283.659 260.333 L 281.667 260.333 281.667 259.000 L 281.667 257.667 287.167 257.667 L 292.667 257.667 292.667 259.000 M153.315 265.094 L 157.129 269.022 156.235 269.917 L 155.340 270.812 153.832 269.332 L 152.325 267.853 148.399 271.768 L 144.474 275.683 143.570 274.740 C 142.286 273.400,142.270 273.429,146.518 269.429 L 150.370 265.802 148.976 264.218 L 147.581 262.634 148.355 261.811 C 149.313 260.791,148.814 260.461,153.315 265.094 M219.166 266.668 C 218.352 267.985,223.893 274.203,228.980 277.681 C 234.901 281.730,234.843 281.721,235.150 278.600 C 235.453 275.525,236.300 273.320,237.826 271.631 C 238.494 270.892,238.987 270.128,238.922 269.934 C 238.774 269.489,235.042 268.468,231.333 267.858 C 229.775 267.601,227.246 267.154,225.713 266.862 C 222.554 266.263,219.473 266.171,219.166 266.668 M170.417 270.569 C 169.445 270.756,169.467 271.354,170.484 272.451 C 171.272 273.301,171.434 273.333,174.934 273.333 C 179.361 273.333,184.981 274.476,187.968 275.984 C 190.242 277.132,191.165 277.253,191.476 276.443 C 191.682 275.905,191.186 275.345,190.500 275.343 C 190.317 275.342,188.667 274.593,186.833 273.678 C 181.395 270.963,174.828 269.719,170.417 270.569 M211.632 272.645 C 209.869 272.989,207.272 274.600,207.400 275.269 C 207.570 276.150,209.174 276.548,210.429 276.020 C 211.018 275.772,212.659 275.179,214.075 274.701 C 215.491 274.224,216.653 273.676,216.658 273.483 C 216.685 272.407,214.616 272.062,211.632 272.645 M245.913 272.634 C 244.392 272.855,242.970 273.748,243.421 274.199 C 243.803 274.581,253.885 274.789,254.113 274.420 C 254.621 273.598,248.479 272.260,245.913 272.634 M118.193 272.973 C 117.107 273.079,116.162 273.339,116.093 273.549 C 115.928 274.052,123.652 274.494,125.500 274.088 L 126.833 273.795 125.191 273.231 C 123.550 272.667,121.914 272.607,118.193 272.973 M107.658 274.855 C 107.480 275.325,107.333 276.754,107.333 278.030 C 107.333 280.948,107.384 280.973,113.591 281.035 C 130.808 281.208,136.667 281.074,136.667 280.508 C 136.667 279.125,135.708 279.016,122.762 278.922 C 108.881 278.822,109.910 279.041,109.726 276.154 C 109.571 273.717,108.376 272.967,107.658 274.855 M96.750 275.344 C 96.337 275.510,96.000 275.811,96.000 276.015 C 96.000 276.583,98.872 280.184,100.086 281.138 L 101.167 281.987 101.377 281.077 C 101.659 279.858,101.706 276.683,101.457 275.750 C 101.237 274.931,98.389 274.685,96.750 275.344 M165.637 280.360 L 169.431 284.387 168.552 285.266 L 167.673 286.145 166.165 284.665 L 164.658 283.186 160.719 287.115 L 156.779 291.044 155.823 289.790 L 154.867 288.537 158.836 284.768 L 162.805 281.000 161.339 279.506 L 159.873 278.012 160.661 277.173 C 161.715 276.051,161.363 275.825,165.637 280.360 M176.250 277.905 C 175.635 277.999,175.333 278.245,175.333 278.654 C 175.333 280.344,176.960 281.212,180.500 281.411 C 186.153 281.728,188.162 281.106,185.932 279.728 C 183.588 278.279,179.215 277.456,176.250 277.905 M198.167 278.081 C 196.436 278.690,194.342 280.752,194.336 281.855 C 194.330 282.683,199.127 284.332,201.500 284.318 C 203.283 284.307,207.141 282.972,207.260 282.324 C 207.642 280.247,200.923 277.112,198.167 278.081 M217.833 278.408 C 214.984 279.304,214.181 279.760,214.066 280.548 C 213.935 281.450,215.153 281.660,220.500 281.658 C 225.417 281.656,225.724 281.509,224.081 279.938 C 221.865 277.820,220.649 277.522,217.833 278.408 M241.583 279.587 C 240.789 279.762,240.846 280.573,241.670 280.834 C 243.129 281.297,282.925 281.144,283.492 280.673 C 283.839 280.385,283.914 280.114,283.704 279.904 C 283.397 279.597,242.927 279.292,241.583 279.587 M106.152 286.691 C 105.929 287.050,107.251 288.502,115.821 297.307 C 118.395 299.951,121.025 302.973,121.667 304.023 C 122.910 306.056,125.279 308.832,125.545 308.566 C 125.800 308.311,126.654 302.311,126.661 300.731 C 126.671 298.237,127.384 294.718,127.921 294.512 C 128.477 294.299,129.854 295.376,133.833 299.139 C 135.300 300.525,136.615 301.661,136.756 301.663 C 138.259 301.683,131.787 290.528,128.491 287.417 L 127.343 286.333 116.858 286.333 C 109.758 286.333,106.301 286.449,106.152 286.691 M170.822 287.321 L 171.768 288.309 170.156 290.196 L 168.544 292.084 170.247 293.708 C 172.309 295.676,172.153 295.683,174.000 293.536 L 175.500 291.794 176.583 292.603 C 178.008 293.668,178.261 293.187,173.295 298.849 C 170.891 301.591,168.893 303.869,168.856 303.912 C 168.818 303.955,168.315 303.502,167.737 302.906 L 166.686 301.821 168.510 299.774 C 170.726 297.286,170.722 297.511,168.583 295.616 L 166.833 294.065 164.777 296.283 L 162.720 298.500 161.691 297.491 L 160.662 296.483 165.081 291.422 C 170.112 285.660,169.588 286.034,170.822 287.321 M213.841 286.600 C 212.522 286.657,211.295 286.892,211.008 287.143 C 207.105 290.548,196.943 290.815,191.971 287.642 C 190.181 286.500,184.436 286.086,185.331 287.163 C 186.660 288.765,197.174 293.123,202.244 294.174 C 210.899 295.967,222.521 294.207,226.146 290.554 C 226.721 289.974,227.749 289.081,228.429 288.569 C 229.828 287.517,230.040 286.677,228.917 286.645 C 225.549 286.549,215.711 286.520,213.841 286.600 M182.630 296.684 L 186.972 299.035 186.426 300.182 L 185.879 301.328 182.734 299.648 C 181.004 298.723,179.550 298.012,179.503 298.067 C 179.456 298.122,179.174 298.646,178.876 299.233 L 178.334 300.299 181.153 301.835 L 183.971 303.372 183.434 304.497 L 182.898 305.623 180.199 304.231 C 178.714 303.466,177.396 302.791,177.268 302.731 C 177.062 302.635,175.667 305.034,175.667 305.483 C 175.667 305.580,176.829 306.249,178.250 306.969 C 182.151 308.946,182.194 308.991,181.522 310.292 L 180.965 311.368 178.066 309.805 C 172.741 306.935,172.001 306.501,172.000 306.254 C 172.000 306.005,178.087 294.333,178.217 294.333 C 178.256 294.333,180.242 295.391,182.630 296.684 M235.473 296.045 C 235.985 296.911,236.012 297.134,235.629 297.352 C 235.375 297.496,234.075 298.383,232.740 299.323 L 230.314 301.031 230.896 302.015 C 231.645 303.284,231.594 303.294,234.542 301.305 C 235.924 300.373,237.092 299.660,237.138 299.722 C 238.690 301.801,238.739 301.655,235.838 303.543 C 233.047 305.358,233.066 305.323,234.027 306.877 C 234.912 308.308,234.714 308.352,238.147 305.957 C 240.461 304.342,241.139 304.011,241.382 304.374 C 242.170 305.553,242.373 306.091,242.114 306.317 C 240.962 307.324,234.252 311.695,233.992 311.608 C 233.812 311.548,232.024 309.038,230.019 306.029 L 226.374 300.559 230.437 297.783 C 235.155 294.561,234.691 294.721,235.473 296.045 M191.064 300.632 C 195.117 302.002,196.295 302.626,196.848 303.695 C 197.874 305.679,197.106 308.266,195.264 309.029 C 194.525 309.335,194.403 309.516,194.697 309.870 C 194.910 310.126,194.993 310.863,194.890 311.577 C 194.790 312.268,194.606 313.606,194.482 314.550 L 194.255 316.266 192.758 315.756 C 191.279 315.252,191.263 315.231,191.485 314.040 C 192.213 310.136,192.200 310.050,190.819 309.473 C 188.356 308.443,187.992 308.586,187.204 310.893 C 186.817 312.026,186.398 313.054,186.272 313.176 C 186.014 313.430,183.667 312.730,183.667 312.400 C 183.667 311.888,187.839 299.667,188.014 299.667 C 188.121 299.667,189.493 300.101,191.064 300.632 M226.026 302.974 C 227.067 304.016,227.336 305.749,226.655 307.022 C 226.388 307.521,226.419 307.667,226.792 307.667 C 227.783 307.667,229.000 309.628,229.000 311.226 C 229.000 313.869,226.195 315.655,220.164 316.852 L 219.161 317.051 217.397 310.487 C 216.427 306.876,215.678 303.887,215.733 303.845 C 217.715 302.315,224.769 301.718,226.026 302.974 M189.282 304.601 L 188.758 306.240 190.491 306.787 C 194.210 307.959,196.343 305.514,192.917 304.006 C 190.035 302.738,189.869 302.765,189.282 304.601 M204.949 303.550 L 208.000 303.766 208.000 305.060 L 208.000 306.354 204.551 306.131 C 201.114 305.909,201.101 305.911,200.889 306.704 C 200.395 308.549,200.436 308.577,203.820 308.725 C 207.421 308.883,207.486 308.915,207.208 310.401 L 207.003 311.500 203.881 311.395 L 200.760 311.290 200.568 312.722 C 200.321 314.568,200.155 314.481,204.194 314.614 L 207.667 314.727 207.667 316.073 L 207.667 317.419 202.583 317.176 C 199.787 317.043,197.461 316.898,197.414 316.853 C 197.367 316.809,197.478 314.312,197.661 311.303 C 197.844 308.295,197.995 305.271,197.997 304.583 L 198.000 303.333 199.949 303.333 C 201.021 303.333,203.271 303.431,204.949 303.550 M220.500 305.123 C 219.127 305.541,218.961 306.014,219.613 307.658 C 219.898 308.376,223.800 307.336,224.139 306.451 C 224.779 304.784,223.342 304.259,220.500 305.123 M222.065 310.116 C 220.488 310.538,220.477 310.562,220.979 312.554 L 221.328 313.941 223.296 313.345 C 225.853 312.571,226.000 312.464,226.000 311.380 C 226.000 309.668,224.973 309.338,222.065 310.116 " stroke="none" fill="#fff" fill-rule="evenodd"></path></g></svg>