<svg id="svg" version="1.1" xmlns="http://www.w3.org/2000/svg" xmlns:xlink="http://www.w3.org/1999/xlink" width="400" height="400" viewBox="0, 0, 400,400"><g id="svgg"><path id="path0" d="M61.385 60.900 C 61.281 61.175,61.241 124.130,61.298 200.800 L 61.400 340.200 75.400 340.200 L 89.400 340.200 89.521 338.100 L 89.642 336.000 77.621 336.000 L 65.600 336.000 65.600 200.400 L 65.600 64.800 95.400 64.800 L 125.200 64.800 125.200 62.600 L 125.200 60.400 93.387 60.400 C 68.305 60.400,61.535 60.506,61.385 60.900 M262.000 62.600 L 262.000 64.800 294.400 64.800 L 326.800 64.800 326.800 76.400 L 326.800 88.000 329.000 88.000 L 331.200 88.000 331.200 74.200 L 331.200 60.400 296.600 60.400 L 262.000 60.400 262.000 62.600 M239.200 106.878 C 208.265 109.404,183.357 130.353,178.653 157.800 C 177.360 165.344,177.186 167.536,176.932 179.404 C 176.626 193.682,176.611 193.600,179.644 193.600 C 180.694 193.600,181.664 193.780,181.800 194.000 C 181.936 194.220,183.038 194.400,184.250 194.400 C 185.461 194.400,186.771 194.571,187.161 194.779 C 187.551 194.988,190.425 195.285,193.548 195.439 C 196.672 195.594,199.322 195.873,199.437 196.060 C 199.553 196.247,201.617 196.400,204.024 196.400 C 206.675 196.400,208.400 196.558,208.400 196.800 C 208.400 197.057,212.256 197.200,219.169 197.200 L 229.938 197.200 230.105 182.900 C 230.363 160.775,232.625 156.876,244.704 157.728 C 251.836 158.232,255.030 161.739,254.970 169.000 C 254.909 176.328,251.303 179.937,243.000 180.977 L 239.400 181.429 239.297 204.969 L 239.194 228.509 248.297 228.279 C 257.103 228.056,260.977 227.712,265.600 226.742 C 269.187 225.990,274.514 224.569,275.800 224.022 C 278.973 222.672,280.080 222.168,282.198 221.110 C 310.411 207.018,318.792 162.915,298.751 134.000 C 294.271 127.537,286.790 120.260,280.600 116.347 C 273.710 111.991,268.257 109.863,258.200 107.605 C 254.407 106.753,245.092 106.396,239.200 106.878 M91.383 111.301 C 91.277 111.577,91.238 133.414,91.295 159.830 C 91.407 211.014,91.340 209.200,93.126 209.200 C 93.336 209.200,94.024 209.469,94.654 209.798 C 95.284 210.126,96.115 210.396,96.500 210.398 C 96.885 210.399,97.200 210.580,97.200 210.800 C 97.200 211.020,97.560 211.200,98.000 211.200 C 98.440 211.200,98.800 211.380,98.800 211.600 C 98.800 211.820,99.250 212.000,99.800 212.000 C 100.350 212.000,100.800 212.144,100.800 212.321 C 100.800 212.498,101.745 212.963,102.900 213.355 C 105.114 214.107,105.739 214.348,108.000 215.321 C 108.770 215.653,110.210 216.152,111.200 216.430 C 112.190 216.707,113.171 217.085,113.380 217.267 C 113.589 217.450,114.084 217.600,114.480 217.600 C 114.876 217.600,115.200 217.780,115.200 218.000 C 115.200 218.220,115.729 218.400,116.376 218.400 C 117.023 218.400,117.658 218.570,117.786 218.777 C 117.914 218.984,118.827 219.275,119.814 219.423 C 120.802 219.571,121.708 219.852,121.829 220.046 C 121.949 220.241,122.487 220.400,123.024 220.400 C 123.561 220.400,124.000 220.560,124.000 220.755 C 124.000 220.950,124.495 221.212,125.100 221.338 C 128.514 222.049,130.781 222.647,131.040 222.906 C 131.201 223.068,131.753 223.200,132.267 223.200 C 132.780 223.200,133.200 223.380,133.200 223.600 C 133.200 223.820,133.830 224.000,134.600 224.000 C 135.370 224.000,136.000 224.159,136.000 224.353 C 136.000 224.548,137.170 224.832,138.600 224.985 C 140.030 225.138,141.200 225.429,141.200 225.632 C 141.200 226.521,144.308 226.020,144.541 225.093 C 144.854 223.846,144.877 113.045,144.564 111.800 L 144.313 110.800 117.944 110.800 C 97.189 110.800,91.534 110.907,91.383 111.301 M326.706 323.700 L 326.600 335.800 315.700 335.906 L 304.800 336.013 304.800 338.206 L 304.800 340.400 318.000 340.400 L 331.200 340.400 331.200 326.000 L 331.200 311.600 329.006 311.600 L 326.812 311.600 326.706 323.700 " stroke="none" fill="#fff" fill-rule="evenodd"></path><path id="path1" d="M149.900 51.082 C 150.395 51.178,151.205 51.178,151.700 51.082 C 152.195 50.987,151.790 50.909,150.800 50.909 C 149.810 50.909,149.405 50.987,149.900 51.082 M169.300 51.076 C 169.685 51.176,170.315 51.176,170.700 51.076 C 171.085 50.975,170.770 50.893,170.000 50.893 C 169.230 50.893,168.915 50.975,169.300 51.076 M171.881 51.481 C 172.155 51.677,172.425 53.105,172.511 54.812 L 172.660 57.800 172.630 54.632 C 172.607 52.173,172.466 51.428,172.000 51.302 C 171.576 51.187,171.541 51.240,171.881 51.481 M223.996 54.682 C 223.888 56.487,223.943 57.820,224.119 57.643 C 224.294 57.467,224.382 55.990,224.315 54.361 L 224.193 51.400 223.996 54.682 M232.567 59.000 C 232.567 63.180,232.626 64.836,232.698 62.679 C 232.771 60.523,232.770 57.103,232.698 55.079 C 232.625 53.056,232.566 54.820,232.567 59.000 M235.367 59.000 C 235.367 63.180,235.426 64.836,235.498 62.679 C 235.571 60.523,235.570 57.103,235.498 55.079 C 235.425 53.056,235.366 54.820,235.367 59.000 M138.493 62.484 L 138.400 73.168 135.100 73.302 L 131.800 73.437 135.113 73.519 C 139.199 73.619,138.838 74.760,138.700 62.193 L 138.586 51.800 138.493 62.484 M243.660 54.676 C 243.627 56.258,243.735 57.636,243.900 57.739 C 244.065 57.841,244.149 56.997,244.086 55.862 C 243.882 52.184,243.721 51.737,243.660 54.676 M190.390 56.081 C 190.284 57.116,190.345 57.815,190.526 57.634 C 190.707 57.453,190.793 56.607,190.719 55.753 L 190.583 54.200 190.390 56.081 M142.587 65.000 L 142.600 73.400 145.800 73.400 L 149.000 73.400 149.014 66.200 L 149.027 59.000 148.905 66.100 L 148.782 73.200 145.799 73.200 L 142.816 73.200 142.695 64.900 L 142.574 56.600 142.587 65.000 M158.091 64.900 L 158.000 73.200 155.009 73.200 L 152.018 73.200 151.895 65.700 L 151.772 58.200 151.786 65.800 L 151.800 73.400 154.906 73.517 C 158.732 73.661,158.445 74.418,158.300 64.589 L 158.182 56.600 158.091 64.900 M178.800 65.737 L 179.000 73.400 182.000 73.425 L 185.000 73.450 182.100 73.308 L 179.200 73.166 179.200 65.807 C 179.200 61.759,179.065 58.363,178.900 58.261 C 178.735 58.159,178.690 61.523,178.800 65.737 M219.067 58.267 C 218.920 58.413,218.800 61.826,218.800 65.850 L 218.800 73.168 215.500 73.311 L 212.200 73.455 215.600 73.427 L 219.000 73.400 219.200 65.699 C 219.310 61.464,219.385 57.999,219.367 57.999 C 219.348 58.000,219.213 58.120,219.067 58.267 M255.290 65.483 L 255.200 73.166 252.100 73.303 L 249.000 73.439 252.113 73.520 C 255.927 73.618,255.647 74.308,255.500 65.187 L 255.381 57.800 255.290 65.483 M61.067 60.267 C 60.696 60.637,60.729 340.309,61.100 340.538 C 61.265 340.640,61.400 277.561,61.400 200.362 C 61.400 123.163,61.385 60.000,61.367 60.000 C 61.348 60.000,61.213 60.120,61.067 60.267 M80.470 65.100 C 88.539 65.160,101.859 65.160,110.070 65.100 C 118.282 65.039,111.680 64.990,95.400 64.990 C 79.120 64.990,72.402 65.039,80.470 65.100 M294.094 65.099 L 326.388 65.205 326.503 76.502 L 326.618 87.800 326.609 76.400 L 326.600 65.000 294.200 64.996 L 261.800 64.993 294.094 65.099 M172.101 66.600 C 172.105 67.480,172.187 67.793,172.283 67.295 C 172.379 66.798,172.375 66.078,172.275 65.695 C 172.175 65.313,172.096 65.720,172.101 66.600 M161.337 70.200 C 161.339 71.960,161.409 72.630,161.493 71.689 C 161.578 70.749,161.577 69.309,161.491 68.489 C 161.405 67.670,161.336 68.440,161.337 70.200 M197.511 73.493 C 198.451 73.578,199.891 73.577,200.711 73.491 C 201.530 73.405,200.760 73.336,199.000 73.337 C 197.240 73.339,196.570 73.409,197.511 73.493 M325.800 114.276 C 332.670 114.562,339.510 114.575,339.339 114.300 C 339.237 114.135,335.518 114.036,331.076 114.079 C 326.634 114.123,324.260 114.212,325.800 114.276 M317.309 120.400 C 317.309 121.390,317.387 121.795,317.482 121.300 C 317.578 120.805,317.578 119.995,317.482 119.500 C 317.387 119.005,317.309 119.410,317.309 120.400 M328.521 120.698 C 330.677 120.771,334.097 120.770,336.121 120.698 C 338.144 120.625,336.380 120.566,332.200 120.567 C 328.020 120.567,326.364 120.626,328.521 120.698 M327.200 122.674 C 333.598 122.962,339.510 122.975,339.339 122.700 C 339.237 122.535,335.878 122.435,331.876 122.478 C 327.874 122.521,325.770 122.609,327.200 122.674 M290.400 123.725 C 290.400 123.794,290.985 124.379,291.700 125.025 L 293.000 126.200 291.825 124.900 C 290.730 123.688,290.400 123.416,290.400 123.725 M317.301 131.000 C 317.305 131.880,317.387 132.193,317.483 131.695 C 317.579 131.198,317.575 130.478,317.475 130.095 C 317.375 129.713,317.296 130.120,317.301 131.000 M317.936 134.204 C 318.353 135.064,319.421 136.092,320.400 136.574 C 320.730 136.736,320.570 136.519,320.044 136.091 C 319.518 135.662,318.741 134.882,318.317 134.356 C 317.732 133.630,317.640 133.594,317.936 134.204 M331.000 137.200 L 322.600 137.425 330.876 137.512 C 336.059 137.567,339.245 137.450,339.400 137.200 C 339.536 136.980,339.592 136.839,339.524 136.888 C 339.456 136.936,335.620 137.076,331.000 137.200 M317.861 141.100 C 317.758 141.265,320.043 141.353,322.937 141.296 C 332.795 141.101,333.813 140.959,325.924 140.879 C 321.592 140.836,317.963 140.935,317.861 141.100 M337.600 143.400 C 338.346 144.170,339.047 144.800,339.157 144.800 C 339.267 144.800,338.746 144.170,338.000 143.400 C 337.254 142.630,336.553 142.000,336.443 142.000 C 336.333 142.000,336.854 142.630,337.600 143.400 M327.507 155.890 C 328.226 155.979,329.306 155.977,329.907 155.886 C 330.508 155.795,329.920 155.722,328.600 155.724 C 327.280 155.726,326.788 155.801,327.507 155.890 M241.700 157.887 C 242.305 157.978,243.295 157.978,243.900 157.887 C 244.505 157.795,244.010 157.720,242.800 157.720 C 241.590 157.720,241.095 157.795,241.700 157.887 M309.701 165.400 C 309.705 166.280,309.787 166.593,309.883 166.095 C 309.979 165.598,309.975 164.878,309.875 164.495 C 309.775 164.113,309.696 164.520,309.701 165.400 M323.701 167.000 C 323.705 167.880,323.787 168.193,323.883 167.695 C 323.979 167.198,323.975 166.478,323.875 166.095 C 323.775 165.713,323.696 166.120,323.701 167.000 M176.901 168.600 C 176.905 169.480,176.987 169.793,177.083 169.295 C 177.179 168.798,177.175 168.078,177.075 167.695 C 176.975 167.313,176.896 167.720,176.901 168.600 M330.480 171.280 C 330.216 171.544,330.027 172.309,330.060 172.980 L 330.120 174.200 330.295 173.000 C 330.392 172.340,330.657 171.575,330.884 171.300 C 331.412 170.662,331.113 170.647,330.480 171.280 M328.137 175.126 L 328.075 178.600 328.451 175.434 C 328.658 173.692,328.686 172.129,328.514 171.959 C 328.341 171.790,328.172 173.215,328.137 175.126 M309.701 175.400 C 309.705 176.280,309.787 176.593,309.883 176.095 C 309.979 175.598,309.975 174.878,309.875 174.495 C 309.775 174.113,309.696 174.520,309.701 175.400 M176.572 183.600 C 176.572 188.770,176.629 190.885,176.699 188.300 C 176.768 185.715,176.768 181.485,176.699 178.900 C 176.629 176.315,176.572 178.430,176.572 183.600 M238.584 181.700 C 238.478 181.975,238.439 192.460,238.496 205.000 L 238.600 227.800 238.800 204.500 C 238.910 191.685,238.949 181.200,238.887 181.200 C 238.826 181.200,238.689 181.425,238.584 181.700 M317.702 187.600 C 317.832 188.080,318.659 188.205,321.832 188.225 L 325.800 188.250 322.014 188.109 C 319.657 188.021,318.097 187.785,317.883 187.484 C 317.638 187.139,317.586 187.173,317.702 187.600 M335.800 188.000 L 332.200 188.249 335.676 188.324 C 337.649 188.367,339.260 188.227,339.400 188.000 C 339.536 187.780,339.592 187.634,339.524 187.676 C 339.456 187.717,337.780 187.863,335.800 188.000 M331.600 188.916 C 331.600 189.442,331.052 189.591,328.700 189.703 L 325.800 189.841 328.713 189.921 C 331.502 189.997,332.765 189.431,331.849 188.516 C 331.712 188.379,331.600 188.559,331.600 188.916 M317.862 191.100 C 317.760 191.265,322.592 191.400,328.600 191.400 C 334.608 191.400,339.440 191.265,339.338 191.100 C 339.236 190.935,334.404 190.800,328.600 190.800 C 322.796 190.800,317.964 190.935,317.862 191.100 M230.193 243.800 C 230.193 269.540,230.241 280.011,230.300 267.069 C 230.359 254.127,230.358 233.067,230.300 220.269 C 230.241 207.471,230.193 218.060,230.193 243.800 M176.993 243.000 C 176.993 268.080,177.041 278.399,177.100 265.931 C 177.159 253.463,177.159 232.943,177.100 220.331 C 177.041 207.719,176.993 217.920,176.993 243.000 M293.578 213.100 L 292.200 214.600 293.700 213.222 C 295.096 211.938,295.384 211.600,295.078 211.600 C 295.012 211.600,294.337 212.275,293.578 213.100 M332.000 225.200 L 324.600 225.427 331.876 225.514 C 336.391 225.567,339.247 225.448,339.400 225.200 C 339.536 224.980,339.592 224.839,339.524 224.886 C 339.456 224.934,336.070 225.075,332.000 225.200 M144.591 258.200 C 144.591 276.020,144.640 283.368,144.700 274.530 C 144.760 265.691,144.760 251.111,144.700 242.130 C 144.640 233.148,144.591 240.380,144.591 258.200 M239.155 228.517 C 239.331 228.692,240.988 228.780,242.837 228.714 L 246.200 228.594 242.518 228.397 C 240.493 228.289,238.980 228.343,239.155 228.517 M250.707 228.690 C 251.426 228.779,252.506 228.777,253.107 228.686 C 253.708 228.595,253.120 228.522,251.800 228.524 C 250.480 228.526,249.988 228.601,250.707 228.690 M326.400 235.755 C 326.400 235.840,326.940 235.988,327.600 236.085 C 328.260 236.182,328.800 236.113,328.800 235.931 C 328.800 235.749,328.260 235.600,327.600 235.600 C 326.940 235.600,326.400 235.670,326.400 235.755 M330.399 235.900 C 330.399 236.065,331.704 236.151,333.299 236.091 C 338.547 235.893,339.068 235.736,334.700 235.667 C 332.335 235.630,330.400 235.735,330.399 235.900 M323.693 250.400 C 323.693 251.170,323.775 251.485,323.876 251.100 C 323.976 250.715,323.976 250.085,323.876 249.700 C 323.775 249.315,323.693 249.630,323.693 250.400 M317.309 252.400 C 317.309 253.390,317.387 253.795,317.482 253.300 C 317.578 252.805,317.578 251.995,317.482 251.500 C 317.387 251.005,317.309 251.410,317.309 252.400 M333.727 259.800 C 333.813 260.647,338.893 261.265,339.642 260.520 C 339.819 260.344,338.638 260.259,337.017 260.330 C 334.443 260.444,334.044 260.368,333.858 259.730 C 333.678 259.110,333.658 259.121,333.727 259.800 M322.821 260.021 C 323.355 260.360,326.342 260.581,325.967 260.255 C 325.875 260.175,324.999 260.008,324.021 259.882 C 322.870 259.735,322.446 259.784,322.821 260.021 M325.400 263.476 C 332.239 263.762,339.510 263.775,339.339 263.500 C 339.237 263.335,335.428 263.236,330.876 263.279 C 326.324 263.323,323.860 263.412,325.400 263.476 M331.800 278.000 L 324.200 278.227 331.676 278.313 C 336.325 278.367,339.246 278.249,339.400 278.000 C 339.536 277.780,339.592 277.639,339.524 277.687 C 339.456 277.734,335.980 277.875,331.800 278.000 M317.309 280.400 C 317.309 281.390,317.387 281.795,317.482 281.300 C 317.578 280.805,317.578 279.995,317.482 279.500 C 317.387 279.005,317.309 279.410,317.309 280.400 M317.914 283.404 C 318.141 283.847,318.748 284.566,319.263 285.002 C 320.167 285.766,320.165 285.752,319.206 284.597 C 317.613 282.679,317.479 282.555,317.914 283.404 M326.494 323.494 L 326.400 335.587 315.500 335.694 L 304.600 335.800 304.477 337.957 C 304.410 339.144,304.500 340.260,304.677 340.439 C 304.855 340.617,304.939 339.691,304.864 338.382 L 304.729 336.000 315.577 336.000 C 323.939 336.000,326.469 335.884,326.619 335.495 C 326.725 335.218,326.762 329.683,326.700 323.195 L 326.587 311.400 326.494 323.494 M131.511 327.493 C 132.451 327.578,133.891 327.577,134.711 327.491 C 135.530 327.405,134.760 327.336,133.000 327.337 C 131.240 327.339,130.570 327.409,131.511 327.493 M140.749 327.900 C 140.267 328.515,140.276 328.541,140.819 328.118 C 141.159 327.853,142.869 327.575,144.619 327.499 L 147.800 327.361 144.549 327.280 C 141.866 327.214,141.202 327.322,140.749 327.900 M173.867 327.467 C 173.497 327.837,173.529 349.200,173.900 349.200 C 174.065 349.200,174.149 344.348,174.088 338.417 L 173.975 327.633 177.288 327.498 L 180.600 327.363 177.367 327.281 C 175.588 327.237,174.013 327.320,173.867 327.467 M183.387 327.690 C 183.277 327.978,183.237 332.890,183.300 338.607 L 183.414 349.000 183.507 338.300 L 183.600 327.600 186.594 327.600 L 189.587 327.600 189.703 338.300 L 189.819 349.000 189.810 338.200 L 189.800 327.400 186.694 327.283 C 184.417 327.197,183.534 327.306,183.387 327.690 M218.566 327.745 C 218.444 328.063,218.418 328.926,218.508 329.662 C 218.656 330.869,218.678 330.833,218.736 329.300 L 218.800 327.600 221.791 327.600 L 224.781 327.600 224.905 334.400 L 225.029 341.201 225.015 334.300 L 225.000 327.400 221.894 327.283 C 219.474 327.192,218.739 327.294,218.566 327.745 M268.140 330.400 C 268.140 332.270,268.209 333.035,268.293 332.100 C 268.377 331.165,268.377 329.635,268.293 328.700 C 268.209 327.765,268.140 328.530,268.140 330.400 M276.711 327.493 C 277.651 327.578,279.091 327.577,279.911 327.491 C 280.730 327.405,279.960 327.336,278.200 327.337 C 276.440 327.339,275.770 327.409,276.711 327.493 M289.312 327.492 L 292.425 327.633 292.312 338.397 C 292.251 344.317,292.338 349.023,292.507 348.854 C 292.676 348.685,292.766 343.788,292.707 337.973 L 292.600 327.400 289.400 327.376 L 286.200 327.352 289.312 327.492 M166.400 328.925 C 166.400 328.994,166.985 329.579,167.700 330.225 L 169.000 331.400 167.825 330.100 C 166.730 328.888,166.400 328.616,166.400 328.925 M248.400 330.200 C 249.146 330.970,249.847 331.600,249.957 331.600 C 250.067 331.600,249.546 330.970,248.800 330.200 C 248.054 329.430,247.353 328.800,247.243 328.800 C 247.133 328.800,247.654 329.430,248.400 330.200 M218.520 334.000 C 218.520 335.210,218.595 335.705,218.687 335.100 C 218.778 334.495,218.778 333.505,218.687 332.900 C 218.595 332.295,218.520 332.790,218.520 334.000 M106.768 333.500 C 106.318 334.096,106.322 334.125,106.799 333.700 C 107.672 332.922,108.789 333.109,109.188 334.100 C 109.409 334.652,109.559 334.760,109.575 334.380 C 109.636 332.889,107.692 332.279,106.768 333.500 M274.924 335.000 C 274.926 336.320,275.001 336.812,275.090 336.093 C 275.179 335.374,275.177 334.294,275.086 333.693 C 274.995 333.092,274.922 333.680,274.924 335.000 M116.059 334.200 C 116.020 334.860,115.896 335.850,115.783 336.400 L 115.577 337.400 116.008 336.414 C 116.244 335.872,116.368 334.882,116.283 334.214 L 116.128 333.000 116.059 334.200 M261.729 334.500 C 261.284 334.995,260.776 335.670,260.601 336.000 C 260.263 336.637,260.355 336.550,261.976 334.700 C 262.506 334.095,262.849 333.600,262.739 333.600 C 262.629 333.600,262.175 334.005,261.729 334.500 M71.925 335.899 C 75.293 335.966,80.693 335.966,83.925 335.899 C 87.156 335.832,84.400 335.777,77.800 335.777 C 71.200 335.777,68.556 335.832,71.925 335.899 M107.367 338.568 C 107.392 340.670,107.544 341.375,108.000 341.499 C 108.422 341.613,108.458 341.560,108.121 341.320 C 107.858 341.133,107.573 339.814,107.488 338.390 L 107.334 335.800 107.367 338.568 M251.724 338.200 C 251.726 339.520,251.801 340.012,251.890 339.293 C 251.979 338.574,251.977 337.494,251.886 336.893 C 251.795 336.292,251.722 336.880,251.724 338.200 M164.500 336.676 C 164.885 336.776,165.515 336.776,165.900 336.676 C 166.285 336.575,165.970 336.493,165.200 336.493 C 164.430 336.493,164.115 336.575,164.500 336.676 M141.761 342.800 C 141.761 346.210,141.822 347.605,141.897 345.900 C 141.972 344.195,141.972 341.405,141.897 339.700 C 141.822 337.995,141.761 339.390,141.761 342.800 M244.901 338.200 C 244.905 339.080,244.987 339.393,245.083 338.895 C 245.179 338.398,245.175 337.678,245.075 337.295 C 244.975 336.913,244.896 337.320,244.901 338.200 M253.293 338.000 C 253.293 338.770,253.375 339.085,253.476 338.700 C 253.576 338.315,253.576 337.685,253.476 337.300 C 253.375 336.915,253.293 337.230,253.293 338.000 M274.953 342.200 C 274.953 344.840,275.018 345.868,275.097 344.484 C 275.175 343.101,275.174 340.941,275.095 339.684 C 275.016 338.428,274.952 339.560,274.953 342.200 M135.340 341.600 C 135.340 343.470,135.409 344.235,135.493 343.300 C 135.577 342.365,135.577 340.835,135.493 339.900 C 135.409 338.965,135.340 339.730,135.340 341.600 M166.700 338.689 C 167.415 338.778,168.585 338.778,169.300 338.689 C 170.015 338.601,169.430 338.528,168.000 338.528 C 166.570 338.528,165.985 338.601,166.700 338.689 M218.514 340.600 C 218.517 341.700,218.595 342.103,218.687 341.495 C 218.779 340.886,218.777 339.986,218.682 339.495 C 218.587 339.003,218.511 339.500,218.514 340.600 M128.509 342.000 C 128.509 342.990,128.587 343.395,128.682 342.900 C 128.778 342.405,128.778 341.595,128.682 341.100 C 128.587 340.605,128.509 341.010,128.509 342.000 M158.300 343.082 C 158.795 343.178,159.605 343.178,160.100 343.082 C 160.595 342.987,160.190 342.909,159.200 342.909 C 158.210 342.909,157.805 342.987,158.300 343.082 M203.500 343.082 C 203.995 343.178,204.805 343.178,205.300 343.082 C 205.795 342.987,205.390 342.909,204.400 342.909 C 203.410 342.909,203.005 342.987,203.500 343.082 M239.505 343.083 C 240.002 343.179,240.722 343.175,241.105 343.075 C 241.487 342.975,241.080 342.896,240.200 342.901 C 239.320 342.905,239.007 342.987,239.505 343.083 M117.734 346.000 C 117.734 347.650,117.805 348.325,117.891 347.500 C 117.978 346.675,117.978 345.325,117.891 344.500 C 117.805 343.675,117.734 344.350,117.734 346.000 M227.737 346.200 C 227.739 347.960,227.809 348.630,227.893 347.689 C 227.978 346.749,227.977 345.309,227.891 344.489 C 227.805 343.670,227.736 344.440,227.737 346.200 M196.000 346.147 C 196.770 346.982,197.760 347.855,198.200 348.087 C 198.640 348.319,198.910 348.425,198.800 348.322 C 196.242 345.943,194.728 344.767,196.000 346.147 M270.175 347.300 L 269.000 348.600 270.300 347.425 C 271.015 346.779,271.600 346.194,271.600 346.125 C 271.600 345.816,271.270 346.088,270.175 347.300 M158.300 349.882 C 158.795 349.978,159.605 349.978,160.100 349.882 C 160.595 349.787,160.190 349.709,159.200 349.709 C 158.210 349.709,157.805 349.787,158.300 349.882 M203.905 349.883 C 204.402 349.979,205.122 349.975,205.505 349.875 C 205.887 349.775,205.480 349.696,204.600 349.701 C 203.720 349.705,203.407 349.787,203.905 349.883 M239.505 349.883 C 240.002 349.979,240.722 349.975,241.105 349.875 C 241.487 349.775,241.080 349.696,240.200 349.701 C 239.320 349.705,239.007 349.787,239.505 349.883 M263.505 349.883 C 264.002 349.979,264.722 349.975,265.105 349.875 C 265.487 349.775,265.080 349.696,264.200 349.701 C 263.320 349.705,263.007 349.787,263.505 349.883 " stroke="none" fill="#fff" fill-rule="evenodd"></path><path id="path3" d="M147.895 51.524 C 143.665 52.580,142.800 54.862,142.800 64.960 L 142.800 73.200 145.800 73.200 L 148.800 73.200 148.800 66.174 C 148.800 58.986,149.048 57.600,150.334 57.600 C 151.855 57.600,152.000 58.322,152.000 65.880 L 152.000 73.200 155.000 73.200 L 158.000 73.200 158.000 64.554 C 158.000 54.883,157.742 53.794,155.080 52.249 C 153.711 51.453,149.769 51.056,147.895 51.524 M167.656 51.488 C 165.985 51.805,163.367 54.835,162.830 57.073 C 162.334 59.142,162.536 60.100,164.442 64.710 C 165.150 66.424,164.571 67.401,162.851 67.396 L 161.600 67.392 161.600 70.453 C 161.600 73.863,161.709 74.000,164.425 74.000 C 170.606 74.000,173.739 68.150,170.841 62.022 C 169.497 59.179,169.604 58.059,171.252 57.730 C 172.390 57.502,172.400 57.474,172.400 54.593 C 172.400 51.107,171.785 50.705,167.656 51.488 M132.000 62.400 L 132.000 73.200 135.200 73.200 L 138.400 73.200 138.400 62.400 L 138.400 51.600 135.200 51.600 L 132.000 51.600 132.000 62.400 M174.354 51.700 C 174.195 52.049,174.121 56.724,174.265 57.281 C 174.400 57.802,174.975 57.989,176.721 58.081 L 179.000 58.200 179.109 65.700 L 179.218 73.200 182.409 73.200 L 185.600 73.200 185.600 65.620 L 185.600 58.040 187.900 57.920 L 190.200 57.800 190.323 56.100 C 190.496 53.707,190.921 53.940,193.409 57.796 L 195.600 61.193 195.600 67.196 L 195.600 73.200 199.000 73.200 L 202.400 73.200 202.400 67.071 L 202.400 60.942 204.672 57.292 C 207.174 53.274,207.600 53.090,207.600 56.024 L 207.600 58.000 210.000 58.000 L 212.400 58.000 212.400 65.600 L 212.400 73.200 215.591 73.200 L 218.782 73.200 218.891 65.700 L 219.000 58.200 221.400 58.000 L 223.800 57.800 223.917 54.700 L 224.034 51.600 213.054 51.600 L 202.075 51.600 200.638 53.600 C 199.848 54.700,199.036 55.600,198.835 55.600 C 198.633 55.600,197.915 54.700,197.238 53.600 L 196.007 51.600 185.204 51.600 C 179.262 51.600,174.379 51.645,174.354 51.700 M226.066 60.300 C 226.206 69.388,226.297 69.897,228.150 71.935 C 230.918 74.979,237.551 74.535,240.111 71.134 C 241.650 69.090,242.066 66.216,241.925 58.600 L 241.800 51.800 238.700 51.683 L 235.600 51.566 235.600 58.809 C 235.600 66.303,235.364 67.600,234.000 67.600 C 232.637 67.600,232.400 66.303,232.400 58.826 L 232.400 51.600 229.166 51.600 L 225.932 51.600 226.066 60.300 M244.083 54.692 L 244.200 57.800 246.500 57.920 L 248.800 58.040 248.800 65.620 L 248.800 73.200 252.000 73.200 L 255.200 73.200 255.200 65.619 L 255.200 58.038 257.700 57.919 L 260.200 57.800 260.200 54.800 L 260.200 51.800 252.083 51.692 L 243.966 51.583 244.083 54.692 M61.462 60.300 C 61.294 60.572,84.272 60.569,114.000 60.293 C 120.270 60.235,111.056 60.145,93.524 60.094 C 75.992 60.042,61.564 60.135,61.462 60.300 M279.330 60.300 C 288.972 60.360,304.632 60.360,314.130 60.300 C 323.629 60.240,315.740 60.191,296.600 60.191 C 277.460 60.191,269.689 60.240,279.330 60.300 M125.320 62.800 C 125.320 64.010,125.395 64.505,125.487 63.900 C 125.578 63.295,125.578 62.305,125.487 61.700 C 125.395 61.095,125.320 61.590,125.320 62.800 M261.720 62.800 C 261.720 64.010,261.795 64.505,261.887 63.900 C 261.978 63.295,261.978 62.305,261.887 61.700 C 261.795 61.095,261.720 61.590,261.720 62.800 M331.380 74.400 C 331.380 81.990,331.434 85.095,331.499 81.300 C 331.565 77.505,331.565 71.295,331.499 67.500 C 331.434 63.705,331.380 66.810,331.380 74.400 M327.705 88.287 C 328.314 88.379,329.214 88.377,329.705 88.282 C 330.197 88.187,329.700 88.111,328.600 88.114 C 327.500 88.117,327.097 88.195,327.705 88.287 M239.900 106.682 C 240.395 106.778,241.205 106.778,241.700 106.682 C 242.195 106.587,241.790 106.509,240.800 106.509 C 239.810 106.509,239.405 106.587,239.900 106.682 M244.100 106.691 C 244.925 106.778,246.275 106.778,247.100 106.691 C 247.925 106.605,247.250 106.534,245.600 106.534 C 243.950 106.534,243.275 106.605,244.100 106.691 M249.900 106.682 C 250.395 106.778,251.205 106.778,251.700 106.682 C 252.195 106.587,251.790 106.509,250.800 106.509 C 249.810 106.509,249.405 106.587,249.900 106.682 M320.537 115.015 C 316.995 116.578,316.431 122.004,319.487 125.132 C 319.914 125.569,319.793 125.922,318.803 127.123 C 316.858 129.483,317.020 133.020,319.171 135.171 C 321.152 137.152,321.950 137.275,331.800 137.120 L 339.400 137.000 339.524 134.821 C 339.766 130.544,340.252 130.801,331.892 130.794 C 324.748 130.788,322.924 130.516,323.847 129.593 C 324.129 129.311,326.982 129.126,331.843 129.077 L 339.400 129.000 339.400 126.000 L 339.400 123.000 331.919 122.800 C 324.020 122.589,322.480 122.225,324.176 120.973 C 324.784 120.525,326.550 120.400,332.294 120.400 L 339.635 120.400 339.518 117.500 L 339.400 114.600 330.600 114.529 C 323.823 114.474,321.510 114.585,320.537 115.015 M291.200 125.000 C 292.395 126.210,293.463 127.200,293.573 127.200 C 293.683 127.200,292.795 126.210,291.600 125.000 C 290.405 123.790,289.337 122.800,289.227 122.800 C 289.117 122.800,290.005 123.790,291.200 125.000 M192.981 128.500 L 191.400 130.200 193.100 128.619 C 194.681 127.148,194.984 126.800,194.681 126.800 C 194.616 126.800,193.851 127.565,192.981 128.500 M317.867 141.467 C 317.533 141.800,317.515 145.713,317.843 146.567 C 318.031 147.059,318.695 147.200,320.816 147.200 C 323.498 147.200,323.549 147.220,323.673 148.300 C 323.874 150.047,329.073 150.249,329.272 148.518 C 329.380 147.571,329.607 147.380,330.755 147.271 C 333.654 146.994,334.921 148.033,333.789 149.761 C 333.221 150.628,333.282 150.811,334.860 152.940 C 336.893 155.684,337.287 155.722,338.809 153.322 C 341.321 149.361,339.796 144.006,335.520 141.766 C 334.385 141.171,318.433 140.901,317.867 141.467 M323.854 156.804 C 315.826 160.811,315.059 172.349,322.542 176.545 C 324.282 177.521,327.502 178.646,327.748 178.365 C 328.396 177.624,328.370 171.967,327.717 171.758 C 321.565 169.782,322.537 162.400,328.949 162.400 C 333.895 162.400,335.640 168.606,331.380 171.047 C 330.591 171.500,330.162 177.498,330.869 178.203 C 332.105 179.436,338.007 174.646,339.433 171.251 C 343.201 162.286,332.588 152.444,323.854 156.804 M309.744 170.400 C 309.744 172.490,309.812 173.345,309.894 172.300 C 309.976 171.255,309.976 169.545,309.894 168.500 C 309.812 167.455,309.744 168.310,309.744 170.400 M176.931 172.600 C 176.933 174.140,177.005 174.721,177.092 173.891 C 177.179 173.061,177.177 171.801,177.089 171.091 C 177.000 170.381,176.929 171.060,176.931 172.600 M230.000 183.933 L 230.000 197.200 219.200 197.200 C 212.267 197.200,208.400 197.057,208.400 196.800 C 208.400 196.558,206.675 196.400,204.024 196.400 C 201.617 196.400,199.553 196.247,199.437 196.060 C 199.322 195.873,196.672 195.594,193.548 195.439 C 190.425 195.285,187.551 194.988,187.161 194.779 C 186.771 194.571,185.461 194.400,184.250 194.400 C 183.038 194.400,181.936 194.220,181.800 194.000 C 181.664 193.780,180.728 193.600,179.720 193.600 C 178.543 193.600,177.729 193.383,177.444 192.993 C 177.118 192.546,177.027 205.267,177.101 240.893 C 177.157 267.572,177.202 289.625,177.201 289.900 C 177.200 290.295,182.734 290.400,203.542 290.400 L 229.883 290.400 230.095 230.700 C 230.211 197.865,230.237 170.925,230.153 170.833 C 230.069 170.742,230.000 176.637,230.000 183.933 M238.984 181.700 C 238.878 181.975,238.839 192.550,238.896 205.200 L 239.000 228.200 239.200 204.700 C 239.310 191.775,239.349 181.200,239.287 181.200 C 239.226 181.200,239.089 181.425,238.984 181.700 M317.843 182.233 C 317.709 182.581,317.600 183.736,317.600 184.800 C 317.600 188.008,317.589 188.000,321.880 188.000 C 325.338 188.000,325.693 188.071,325.884 188.800 C 326.157 189.844,331.600 190.041,331.600 189.008 C 331.600 188.263,332.617 188.029,336.400 187.901 L 339.400 187.800 339.524 185.621 C 339.592 184.423,339.543 183.028,339.416 182.521 L 339.185 181.600 328.635 181.600 C 319.384 181.600,318.056 181.678,317.843 182.233 M317.873 191.460 C 317.723 191.610,317.600 192.960,317.600 194.459 C 317.600 197.874,316.752 197.655,329.400 197.513 L 339.400 197.400 339.400 194.400 L 339.400 191.400 328.773 191.294 C 322.928 191.235,318.023 191.310,317.873 191.460 M91.331 248.600 L 91.400 290.200 117.900 290.303 L 144.400 290.406 144.405 258.503 C 144.408 240.956,144.473 226.240,144.548 225.800 C 144.623 225.360,144.608 225.225,144.513 225.500 C 144.316 226.074,141.200 226.198,141.200 225.632 C 141.200 225.429,140.030 225.138,138.600 224.985 C 137.170 224.832,136.000 224.548,136.000 224.353 C 136.000 224.159,135.370 224.000,134.600 224.000 C 133.830 224.000,133.200 223.820,133.200 223.600 C 133.200 223.380,132.780 223.200,132.267 223.200 C 131.753 223.200,131.201 223.068,131.040 222.906 C 130.781 222.647,128.514 222.049,125.100 221.338 C 124.495 221.212,124.000 220.950,124.000 220.755 C 124.000 220.560,123.561 220.400,123.024 220.400 C 122.487 220.400,121.949 220.241,121.829 220.046 C 121.708 219.852,120.802 219.571,119.814 219.423 C 118.827 219.275,117.914 218.984,117.786 218.777 C 117.658 218.570,117.023 218.400,116.376 218.400 C 115.729 218.400,115.200 218.220,115.200 218.000 C 115.200 217.780,114.876 217.600,114.480 217.600 C 114.084 217.600,113.589 217.450,113.380 217.267 C 113.171 217.085,112.190 216.707,111.200 216.430 C 110.210 216.152,108.770 215.653,108.000 215.321 C 105.739 214.348,105.114 214.107,102.900 213.355 C 101.745 212.963,100.800 212.498,100.800 212.321 C 100.800 212.144,100.350 212.000,99.800 212.000 C 99.250 212.000,98.800 211.820,98.800 211.600 C 98.800 211.380,98.440 211.200,98.000 211.200 C 97.560 211.200,97.200 211.020,97.200 210.800 C 97.200 210.580,96.885 210.399,96.500 210.398 C 96.115 210.396,95.284 210.126,94.654 209.798 C 94.024 209.469,93.336 209.200,93.126 209.200 C 92.644 209.200,91.801 208.370,91.495 207.593 C 91.366 207.267,91.292 225.720,91.331 248.600 M322.200 210.084 C 318.864 211.279,317.550 213.292,317.557 217.200 C 317.569 223.922,320.177 225.334,332.200 225.125 L 339.400 225.000 339.400 222.000 L 339.400 219.000 331.843 218.800 C 325.262 218.626,324.230 218.511,323.852 217.911 C 322.945 216.472,324.048 216.210,331.919 216.000 L 339.400 215.800 339.400 212.800 L 339.400 209.800 331.400 209.727 C 326.518 209.683,322.932 209.822,322.200 210.084 M294.975 211.300 L 293.800 212.600 295.100 211.425 C 295.815 210.779,296.400 210.194,296.400 210.125 C 296.400 209.816,296.070 210.088,294.975 211.300 M291.375 214.900 L 290.200 216.200 291.500 215.025 C 292.712 213.930,292.984 213.600,292.675 213.600 C 292.606 213.600,292.021 214.185,291.375 214.900 M246.905 228.687 C 247.514 228.779,248.414 228.777,248.905 228.682 C 249.397 228.587,248.900 228.511,247.800 228.514 C 246.700 228.517,246.297 228.595,246.905 228.687 M318.080 229.538 C 317.716 229.772,317.596 230.696,317.680 232.636 L 317.800 235.400 323.300 235.511 C 330.553 235.658,330.531 235.733,322.213 239.181 C 317.531 241.122,317.614 241.026,317.606 244.513 C 317.598 248.180,317.799 248.195,324.247 245.028 L 329.673 242.363 334.230 245.009 C 339.492 248.065,339.600 248.053,339.600 244.433 L 339.600 241.714 337.300 240.330 C 336.035 239.570,333.965 238.336,332.700 237.589 C 329.596 235.757,329.716 235.643,334.900 235.513 L 339.400 235.400 339.400 232.400 L 339.400 229.400 329.000 229.302 C 323.280 229.249,318.366 229.355,318.080 229.538 M318.080 249.680 C 317.294 250.466,317.484 254.805,318.367 256.254 C 320.626 259.958,325.166 260.929,329.560 258.647 C 332.035 257.362,333.384 257.600,333.836 259.403 C 334.088 260.404,334.175 260.430,336.948 260.317 L 339.800 260.200 339.917 257.985 C 340.222 252.240,334.039 248.926,328.278 251.744 C 324.926 253.384,323.600 252.954,323.600 250.226 C 323.600 249.074,319.129 248.631,318.080 249.680 M321.485 263.884 C 319.851 264.136,317.614 266.534,317.540 268.113 C 317.391 271.285,318.098 273.568,319.467 274.334 C 320.059 274.665,319.991 274.881,318.867 276.245 C 316.412 279.223,317.393 284.038,320.816 285.808 C 321.782 286.308,323.539 286.396,330.695 286.308 L 339.400 286.200 339.400 283.200 L 339.400 280.200 331.942 280.091 C 326.286 280.009,324.376 279.853,324.037 279.444 C 323.088 278.301,324.550 278.020,332.030 277.909 L 339.400 277.800 339.400 274.800 L 339.400 271.800 331.818 271.691 C 324.500 271.586,323.205 271.363,323.850 270.319 C 323.958 270.144,327.453 270.000,331.616 270.000 C 340.293 270.000,339.767 270.268,339.524 265.979 L 339.400 263.800 331.000 263.756 C 326.380 263.732,322.098 263.790,321.485 263.884 M327.907 311.490 C 328.626 311.579,329.706 311.577,330.307 311.486 C 330.908 311.395,330.320 311.322,329.000 311.324 C 327.680 311.326,327.188 311.401,327.907 311.490 M331.380 326.000 C 331.380 333.810,331.434 337.005,331.499 333.100 C 331.565 329.195,331.565 322.805,331.499 318.900 C 331.434 314.995,331.380 318.190,331.380 326.000 M104.597 327.546 C 100.458 329.426,99.883 331.293,100.078 342.200 L 100.200 349.000 103.300 349.117 L 106.400 349.234 106.400 341.466 C 106.400 333.306,106.564 332.538,108.238 332.867 C 109.664 333.147,109.887 334.373,108.700 335.405 C 107.354 336.576,107.030 340.896,108.254 341.365 C 111.269 342.522,115.318 339.522,115.816 335.761 C 116.684 329.223,110.642 324.800,104.597 327.546 M123.400 327.448 C 119.082 329.785,118.035 333.848,120.404 339.073 C 121.795 342.142,121.380 343.435,119.109 343.101 L 118.000 342.939 118.000 346.045 L 118.000 349.151 119.728 349.410 C 126.593 350.440,130.406 344.249,127.152 337.360 C 125.804 334.507,126.095 333.347,128.237 333.037 C 128.868 332.946,129.021 332.534,129.120 330.663 C 129.278 327.679,129.345 327.718,132.600 332.708 L 135.400 337.000 135.404 343.000 L 135.408 349.000 138.504 349.117 L 141.600 349.234 141.604 343.117 L 141.609 337.000 143.373 334.211 C 144.343 332.676,145.033 331.254,144.907 331.049 C 144.780 330.844,144.885 330.806,145.141 330.964 C 145.410 331.130,145.716 330.946,145.868 330.525 C 146.012 330.126,146.473 329.305,146.892 328.700 L 147.654 327.600 144.446 327.600 L 141.238 327.600 140.000 329.400 C 138.467 331.628,138.240 331.631,136.916 329.438 L 135.852 327.676 132.626 327.436 C 130.852 327.304,128.320 327.107,127.000 326.997 C 125.242 326.851,124.279 326.972,123.400 327.448 M155.400 327.283 C 150.215 329.095,146.699 335.366,147.975 340.525 C 150.972 352.645,167.039 352.784,170.222 340.717 L 170.728 338.800 168.614 338.800 C 167.451 338.800,165.956 338.691,165.291 338.558 C 164.195 338.339,164.057 338.429,163.816 339.525 C 162.561 345.241,154.400 343.994,154.400 338.085 C 154.400 333.246,160.896 331.131,163.038 335.273 C 163.776 336.701,170.404 337.085,170.396 335.700 C 170.364 330.040,161.595 325.117,155.400 327.283 M200.126 327.578 C 194.538 330.115,191.874 335.418,193.385 341.000 C 196.865 353.855,215.711 351.493,215.727 338.200 C 215.736 329.963,207.389 324.280,200.126 327.578 M235.312 327.839 C 229.967 330.426,227.529 336.572,229.624 342.173 C 233.159 351.619,246.479 352.052,250.711 342.859 C 255.088 333.349,244.755 323.271,235.312 327.839 M260.522 327.458 C 250.605 330.970,252.014 347.645,262.375 349.396 C 269.622 350.620,274.807 344.037,271.197 338.195 L 270.315 336.768 267.257 336.884 L 264.200 337.000 264.077 338.931 C 263.938 341.111,264.451 342.000,265.849 342.000 C 267.017 342.000,267.084 342.620,265.980 343.210 C 263.637 344.465,260.400 341.571,260.400 338.223 C 260.400 334.253,263.655 332.018,267.363 333.441 C 267.913 333.652,268.000 333.249,268.000 330.486 C 268.000 327.937,267.871 327.236,267.367 327.043 C 266.232 326.607,262.239 326.849,260.522 327.458 M174.093 338.300 L 174.200 349.000 177.200 349.000 L 180.200 349.000 180.314 344.900 C 180.419 341.130,180.491 340.800,181.214 340.800 C 181.920 340.800,182.000 340.517,182.000 338.000 C 182.000 335.467,181.924 335.200,181.200 335.200 C 180.456 335.200,180.400 334.933,180.400 331.400 L 180.400 327.600 177.193 327.600 L 173.987 327.600 174.093 338.300 M183.600 338.400 L 183.600 349.200 186.600 349.200 L 189.600 349.200 189.600 338.400 L 189.600 327.600 186.600 327.600 L 183.600 327.600 183.600 338.400 M218.800 335.865 C 218.800 346.224,219.047 346.872,223.719 348.750 C 224.334 348.998,225.459 349.200,226.219 349.200 L 227.600 349.200 227.600 346.000 C 227.600 343.098,227.528 342.800,226.823 342.800 C 225.117 342.800,224.800 341.471,224.800 334.311 L 224.800 327.600 221.800 327.600 L 218.800 327.600 218.800 335.865 M275.200 338.417 L 275.200 349.234 278.300 349.117 L 281.400 349.000 281.507 338.300 L 281.613 327.600 278.407 327.600 L 275.200 327.600 275.200 338.417 M286.093 338.300 L 286.200 349.000 289.200 349.000 L 292.200 349.000 292.307 338.300 L 292.413 327.600 289.200 327.600 L 285.987 327.600 286.093 338.300 M206.400 333.519 C 208.000 334.297,209.741 337.263,209.373 338.585 C 208.212 342.758,204.821 344.414,201.747 342.307 C 198.311 339.953,199.042 334.696,203.000 333.289 C 204.606 332.719,204.779 332.731,206.400 333.519 M241.920 333.362 C 247.524 336.278,244.978 344.536,238.942 343.021 C 234.687 341.953,234.404 335.230,238.537 333.419 C 240.187 332.696,240.625 332.688,241.920 333.362 M61.462 340.500 C 61.564 340.665,67.836 340.800,75.400 340.800 C 82.964 340.800,89.236 340.665,89.338 340.500 C 89.440 340.335,83.168 340.200,75.400 340.200 C 67.632 340.200,61.360 340.335,61.462 340.500 M311.500 340.699 C 315.075 340.766,320.925 340.766,324.500 340.699 C 328.075 340.633,325.150 340.579,318.000 340.579 C 310.850 340.579,307.925 340.633,311.500 340.699 " stroke="none" fill="#fff" fill-rule="evenodd"></path></g></svg>