<svg id="svg" version="1.1" xmlns="http://www.w3.org/2000/svg" xmlns:xlink="http://www.w3.org/1999/xlink" width="400" height="400" viewBox="0, 0, 400,400"><g id="svgg"><path id="path0" d="M184.600 10.138 C 180.713 11.301,177.350 13.858,174.003 18.196 C 172.110 20.650,172.033 21.368,173.835 19.774 C 179.498 14.765,184.378 13.354,189.510 15.243 C 193.806 16.825,195.767 17.003,197.701 15.989 C 203.386 13.008,209.522 12.795,212.485 15.477 C 213.087 16.021,213.200 16.031,213.200 15.537 C 213.200 14.288,209.769 11.936,206.372 10.855 C 204.530 10.268,199.528 10.270,197.569 10.856 C 196.284 11.242,195.808 11.199,194.523 10.582 C 192.664 9.689,186.953 9.434,184.600 10.138 M213.646 16.651 C 213.615 17.227,213.179 17.657,212.300 17.979 C 207.525 19.725,199.459 23.266,199.267 23.700 C 199.193 23.865,198.563 24.025,197.867 24.054 C 197.019 24.091,196.880 24.164,197.447 24.275 C 198.367 24.456,201.261 23.822,207.200 22.138 C 216.876 19.394,228.162 22.847,224.851 27.538 C 222.252 31.221,220.243 37.108,219.710 42.600 L 219.400 45.800 217.600 46.023 C 215.837 46.242,212.744 48.004,211.558 49.466 C 211.154 49.963,211.143 50.068,211.518 49.842 C 211.802 49.671,212.273 49.729,212.564 49.970 C 212.960 50.299,213.234 50.241,213.647 49.743 C 216.113 46.769,219.305 48.251,219.800 52.600 C 220.246 56.514,221.070 61.456,223.234 73.200 C 223.937 77.009,224.428 80.106,224.791 83.015 C 224.984 84.563,225.267 86.329,225.421 86.939 C 225.936 88.993,224.146 95.330,222.504 97.265 C 221.982 97.880,221.779 97.858,219.759 96.965 C 215.500 95.082,211.608 96.800,208.798 101.804 C 207.652 103.844,207.815 104.006,209.176 102.179 C 212.827 97.275,217.327 96.504,220.789 100.188 C 222.047 101.528,222.880 101.011,224.439 97.922 C 225.974 94.881,226.385 95.304,226.394 99.932 C 226.406 106.441,225.025 115.405,223.508 118.661 C 223.287 119.134,223.204 119.764,223.322 120.061 C 223.443 120.365,223.551 120.208,223.568 119.700 C 223.586 119.205,223.780 118.800,224.000 118.800 C 224.220 118.800,224.400 118.451,224.400 118.024 C 224.400 117.597,224.580 117.136,224.800 117.000 C 225.020 116.864,225.200 116.349,225.200 115.856 C 225.200 115.363,225.351 114.789,225.536 114.580 C 225.720 114.371,226.093 113.120,226.364 111.800 C 226.635 110.480,227.022 108.754,227.225 107.965 C 227.427 107.175,227.703 103.125,227.836 98.965 C 228.127 89.913,227.627 81.301,226.039 68.000 C 222.955 42.184,224.518 35.309,235.167 27.847 C 243.941 21.699,250.182 21.054,258.816 25.401 C 264.735 28.381,271.727 38.947,279.994 57.400 C 283.030 64.178,285.587 69.064,285.594 68.100 C 285.597 67.605,285.420 67.200,285.200 67.200 C 284.980 67.200,284.801 66.975,284.802 66.700 C 284.803 66.425,284.058 64.343,283.147 62.074 C 281.068 56.893,281.219 56.767,286.400 59.359 C 294.457 63.390,298.942 66.538,303.441 71.321 C 306.705 74.790,307.232 74.975,304.844 71.812 C 300.724 66.355,293.581 60.889,284.000 55.860 C 280.261 53.898,279.238 53.094,279.213 52.096 C 279.206 51.818,278.819 50.738,278.353 49.696 C 276.938 46.526,276.497 45.487,275.644 43.317 C 266.195 19.275,249.732 10.744,232.843 21.136 L 230.795 22.395 228.854 21.001 C 225.376 18.502,222.792 17.601,219.089 17.595 C 215.202 17.588,214.104 17.349,213.868 16.459 C 213.742 15.985,213.680 16.039,213.646 16.651 M162.200 22.316 C 160.394 22.964,154.236 26.966,150.800 29.724 C 146.574 33.117,139.615 37.362,131.000 41.802 C 126.820 43.956,122.410 46.257,121.200 46.914 C 119.990 47.572,117.049 49.167,114.666 50.459 C 106.424 54.927,101.501 59.920,99.618 65.721 C 99.277 66.771,98.486 67.733,97.062 68.832 C 84.328 78.653,77.773 86.527,74.852 95.511 C 74.403 96.892,73.201 100.132,72.180 102.711 C 68.723 111.447,65.518 122.936,66.117 124.447 C 66.254 124.792,66.349 124.685,66.368 124.162 C 66.401 123.308,68.432 117.171,69.997 113.200 C 70.737 111.321,75.790 100.443,78.510 94.873 C 81.095 89.580,90.726 85.607,98.212 86.746 C 99.856 86.995,102.505 87.380,104.100 87.600 C 105.695 87.820,110.960 88.635,115.800 89.412 C 120.640 90.189,126.310 91.094,128.400 91.424 C 136.097 92.637,137.445 92.862,139.600 93.291 C 140.810 93.533,144.140 93.756,147.000 93.788 C 153.850 93.864,153.315 93.537,164.207 104.301 C 176.175 116.128,183.686 127.098,188.789 140.200 C 190.820 145.415,192.115 147.491,190.803 143.428 C 186.969 131.555,186.714 130.896,182.606 122.240 C 181.833 120.610,181.200 119.162,181.200 119.022 C 181.200 118.881,181.015 118.549,180.788 118.283 C 180.562 118.017,179.204 115.827,177.771 113.415 C 174.892 108.568,173.254 106.314,168.800 101.070 C 167.150 99.127,165.080 96.680,164.200 95.631 C 163.320 94.583,161.655 92.607,160.500 91.242 C 159.345 89.876,158.400 88.498,158.400 88.179 C 158.400 87.861,158.152 87.600,157.850 87.600 C 157.547 87.600,156.297 87.157,155.072 86.615 C 152.341 85.407,146.830 84.789,137.800 84.679 L 131.400 84.600 131.479 82.285 C 131.523 81.012,131.940 78.895,132.407 77.579 C 132.874 76.264,133.197 74.879,133.124 74.502 C 132.945 73.571,130.834 78.332,129.977 81.600 L 129.295 84.200 120.616 84.173 C 111.072 84.143,109.908 83.859,112.593 82.219 C 113.331 81.769,115.408 80.050,117.209 78.400 C 121.174 74.768,132.240 68.800,135.011 68.800 C 135.775 68.800,139.769 66.256,139.268 66.089 C 139.039 66.013,138.075 66.207,137.126 66.520 C 135.550 67.041,132.755 67.682,126.800 68.890 C 122.605 69.741,119.194 72.169,115.911 76.641 C 114.822 78.125,112.658 80.490,110.677 82.361 L 109.237 83.721 102.118 83.791 C 94.370 83.866,92.119 84.227,87.864 86.073 C 86.359 86.726,85.020 87.154,84.890 87.023 C 83.889 86.022,95.163 77.574,102.546 73.792 C 104.086 73.003,104.542 72.354,104.969 70.344 C 105.806 66.400,110.241 62.706,130.000 49.495 C 142.412 41.196,144.119 39.894,154.100 31.111 C 163.132 23.165,164.290 22.639,170.189 23.809 C 172.014 24.171,173.933 24.387,174.454 24.288 C 175.197 24.147,175.122 24.097,174.105 24.054 C 173.392 24.025,172.456 23.697,172.023 23.327 C 171.591 22.957,170.824 22.599,170.319 22.532 C 167.776 22.192,162.905 22.062,162.200 22.316 M182.175 30.153 C 178.730 34.493,175.013 41.755,172.836 48.400 C 170.963 54.118,170.918 54.282,170.003 58.800 C 168.018 68.601,166.257 73.737,162.324 81.190 C 159.644 86.269,160.139 86.375,163.392 81.417 C 168.225 74.051,172.345 63.473,173.991 54.200 C 175.476 45.841,179.221 35.802,182.790 30.615 C 184.573 28.024,184.130 27.691,182.175 30.153 M151.694 37.100 C 147.503 42.460,144.478 49.432,142.659 57.922 C 141.891 61.509,141.046 64.704,140.782 65.022 C 140.441 65.433,140.425 65.748,140.726 66.111 C 141.028 66.474,140.938 68.062,140.416 71.611 C 139.643 76.863,139.104 81.956,139.465 80.600 C 139.582 80.160,139.840 79.629,140.039 79.420 C 140.237 79.211,140.400 78.602,140.400 78.066 C 140.400 77.531,140.564 76.442,140.765 75.646 C 140.966 74.851,141.322 73.300,141.555 72.200 C 142.326 68.568,143.645 63.017,143.979 62.000 C 144.159 61.450,145.452 57.490,146.851 53.200 C 149.540 44.955,152.554 38.297,153.698 38.077 C 154.394 37.942,156.397 40.707,158.279 44.400 C 159.362 46.525,159.463 46.117,158.532 43.371 C 157.262 39.623,154.584 35.600,153.359 35.600 C 153.088 35.600,152.339 36.275,151.694 37.100 M202.600 43.548 C 197.916 45.171,194.975 46.797,191.600 49.630 C 189.950 51.015,187.250 53.015,185.600 54.074 C 183.950 55.133,182.883 56.000,183.229 56.000 C 185.720 56.000,194.496 51.554,199.251 47.882 C 201.150 46.416,204.030 44.587,205.651 43.818 C 209.484 42.000,207.559 41.829,202.600 43.548 M210.876 54.069 C 207.981 60.199,206.723 68.448,207.606 75.505 C 208.431 82.093,208.378 82.679,206.727 85.244 C 204.258 89.078,200.177 90.465,195.769 88.969 C 192.605 87.895,191.771 89.095,191.491 95.123 C 191.193 101.552,188.925 107.737,184.446 114.332 C 182.374 117.384,182.365 117.718,184.412 115.588 C 189.374 110.423,193.065 103.434,194.650 96.200 C 195.042 94.416,194.739 94.483,199.911 95.031 C 206.970 95.780,214.020 87.144,212.088 80.114 C 211.859 79.281,211.402 77.610,211.072 76.400 C 209.193 69.509,209.321 62.364,211.450 55.259 C 212.678 51.160,212.461 50.710,210.876 54.069 M239.800 62.491 C 233.695 64.048,232.107 69.623,232.810 87.020 C 233.323 99.703,233.315 117.468,232.796 121.427 C 232.286 125.316,231.608 128.397,231.260 128.410 C 231.117 128.416,228.243 128.493,224.874 128.583 C 221.504 128.673,218.534 128.913,218.274 129.118 C 218.013 129.322,217.300 129.609,216.689 129.755 C 213.595 130.495,211.015 132.236,206.815 136.420 C 199.892 143.318,199.904 143.317,199.894 137.517 C 199.890 135.253,199.822 134.120,199.744 135.000 C 199.513 137.580,198.762 142.833,198.542 143.407 C 198.322 143.981,192.708 148.400,192.199 148.400 C 192.028 148.400,191.688 148.660,191.444 148.978 C 190.507 150.197,181.458 157.120,181.020 156.952 C 180.767 156.855,180.335 155.938,180.062 154.915 C 177.112 143.886,166.052 130.322,154.870 124.018 C 152.009 122.405,146.425 118.484,145.186 117.218 C 142.466 114.438,139.200 111.534,139.200 111.894 C 139.200 112.912,149.045 122.246,152.600 124.598 C 154.580 125.908,156.438 127.210,156.729 127.490 C 157.019 127.771,157.379 128.006,157.529 128.014 C 158.012 128.038,161.794 131.725,164.283 134.600 C 170.347 141.601,175.954 152.366,177.024 159.062 L 177.285 160.690 173.342 164.205 C 171.174 166.139,167.960 168.874,166.200 170.283 C 164.440 171.693,162.701 173.091,162.335 173.389 C 158.348 176.645,149.466 181.738,148.379 181.393 C 147.810 181.213,147.664 181.302,147.829 181.730 C 148.770 184.183,138.731 189.094,127.200 191.821 C 122.303 192.979,121.396 193.147,118.491 193.426 C 116.891 193.579,115.497 193.842,115.394 194.010 C 114.468 195.508,128.798 194.081,137.982 191.760 C 142.660 190.578,142.622 190.533,140.971 195.400 C 139.502 199.732,139.127 204.523,140.050 207.171 C 140.669 208.947,140.187 209.293,137.778 208.800 C 110.220 203.161,97.720 203.222,84.600 209.061 C 77.285 212.317,73.199 213.621,73.201 212.700 C 73.201 212.425,73.127 210.002,73.035 207.316 C 72.889 203.018,72.949 202.409,73.535 202.237 C 73.901 202.130,75.551 201.770,77.203 201.438 C 82.587 200.354,85.853 198.889,88.662 196.300 L 90.445 194.656 94.033 195.385 C 98.004 196.191,101.759 196.059,106.400 194.949 C 107.830 194.607,109.720 194.235,110.600 194.123 C 111.480 194.010,112.650 193.521,113.200 193.036 C 113.750 192.551,114.865 191.668,115.679 191.073 C 120.300 187.693,124.775 179.972,124.795 175.343 C 124.805 172.999,125.751 173.646,130.000 178.899 C 135.767 186.030,135.600 185.845,135.600 185.095 C 135.600 184.749,135.444 184.407,135.254 184.333 C 135.064 184.260,132.753 180.949,130.119 176.975 L 125.330 169.749 125.075 166.775 C 124.935 165.139,124.442 162.311,123.979 160.492 C 122.995 156.615,123.080 155.880,124.367 157.167 C 124.871 157.671,126.290 158.788,127.520 159.650 C 131.691 162.572,140.543 171.983,145.614 178.888 C 146.943 180.697,147.600 181.211,147.600 180.440 C 147.600 178.622,134.345 157.940,131.122 154.730 C 128.992 152.609,125.091 147.345,123.859 144.931 C 123.250 143.738,122.929 142.825,121.558 138.400 C 120.683 135.577,120.823 124.100,121.769 121.000 C 123.496 115.345,124.654 113.997,129.514 111.986 C 133.396 110.379,133.497 110.260,130.800 110.479 C 129.410 110.592,126.733 111.414,123.532 112.710 C 113.488 116.778,104.417 118.347,99.000 116.955 C 94.707 115.851,94.467 115.820,95.400 116.493 C 96.603 117.361,98.649 118.303,99.954 118.590 C 102.117 119.065,102.422 119.830,102.689 125.456 L 102.934 130.600 103.441 128.200 C 103.720 126.880,103.960 124.405,103.974 122.700 L 104.000 119.600 107.176 119.600 C 110.673 119.600,111.130 119.880,110.284 121.505 C 108.477 124.979,108.045 125.954,107.674 127.400 C 106.825 130.710,106.400 133.323,106.400 135.231 C 106.400 137.544,105.637 137.840,103.731 136.267 C 101.745 134.627,94.286 129.600,93.839 129.600 C 93.330 129.600,94.080 130.294,99.401 134.746 C 117.274 149.698,120.746 155.013,120.786 167.480 C 120.828 180.818,114.764 187.037,101.800 186.952 C 83.430 186.832,67.803 176.270,63.610 161.139 C 62.129 155.795,62.739 151.887,64.428 155.900 C 66.126 159.936,70.384 166.105,70.396 164.549 C 70.398 164.301,70.114 163.861,69.765 163.571 C 67.028 161.300,64.208 152.177,64.519 146.600 C 65.167 134.958,69.283 128.370,78.000 125.023 C 78.330 124.897,77.649 124.877,76.486 124.979 C 69.682 125.579,64.375 132.737,62.236 144.200 C 61.907 145.960,61.240 148.480,60.754 149.800 C 58.816 155.056,59.323 161.806,62.220 169.307 C 63.444 172.477,63.600 173.307,63.600 176.664 C 63.600 183.599,65.048 190.314,67.512 194.800 L 68.062 195.800 67.845 194.600 C 67.725 193.940,67.265 191.780,66.821 189.800 C 65.967 185.992,65.670 178.000,66.382 178.000 C 66.592 178.000,68.707 179.941,71.082 182.313 C 76.375 187.600,85.439 193.600,88.132 193.600 C 89.313 193.600,89.176 194.778,87.884 195.741 C 84.799 198.043,81.017 198.897,74.670 198.725 L 70.075 198.600 69.851 200.400 C 69.728 201.390,69.508 204.270,69.363 206.800 C 69.127 210.899,69.000 211.487,68.191 212.200 C 66.665 213.546,66.413 219.488,67.867 219.852 C 70.468 220.505,79.655 219.394,85.200 217.756 C 88.028 216.921,88.550 216.933,91.200 217.896 C 94.706 219.170,97.342 219.816,103.027 220.794 C 109.772 221.954,132.370 222.196,142.600 221.218 L 145.800 220.912 143.000 220.859 C 131.108 220.636,109.214 217.880,101.600 215.648 C 95.690 213.916,95.615 213.465,100.947 211.772 C 106.947 209.867,109.832 209.614,125.600 209.613 C 142.443 209.612,140.569 209.123,143.197 214.201 C 144.336 216.401,145.544 218.509,145.884 218.887 C 146.223 219.265,146.404 219.940,146.288 220.387 C 146.151 220.908,146.269 221.200,146.615 221.200 C 146.912 221.200,147.931 222.136,148.878 223.281 C 155.589 231.388,161.865 235.441,170.800 237.439 C 173.811 238.112,189.957 238.236,194.353 237.620 C 195.809 237.416,198.533 237.142,200.408 237.011 L 203.815 236.773 206.096 239.887 C 212.466 248.583,223.151 257.431,233.049 262.207 C 244.163 267.570,255.705 286.162,260.090 305.762 C 261.037 309.996,260.912 310.044,271.972 301.210 C 275.146 298.675,279.736 295.011,282.172 293.068 C 284.607 291.126,286.997 289.199,287.482 288.787 L 288.365 288.036 287.437 285.318 C 286.263 281.879,283.363 274.328,282.363 272.104 C 281.943 271.172,281.600 270.225,281.600 270.000 C 281.600 269.775,281.256 268.828,280.836 267.896 C 280.416 266.963,279.967 265.930,279.837 265.600 C 279.134 263.810,280.030 267.987,282.539 278.200 C 284.469 286.054,284.463 286.195,282.134 287.383 C 281.290 287.814,280.150 288.463,279.600 288.826 C 278.498 289.553,276.343 290.778,271.198 293.603 C 269.327 294.630,267.415 295.709,266.951 295.999 C 265.602 296.841,264.962 296.263,263.290 292.696 C 259.844 285.342,254.232 277.442,248.062 271.261 C 243.864 267.055,243.401 266.048,246.016 266.812 C 254.977 269.428,264.878 268.613,275.400 264.395 C 277.390 263.597,278.345 263.391,278.700 263.685 C 279.060 263.982,279.200 263.936,279.200 263.523 C 279.200 263.204,280.674 262.198,282.500 261.269 C 294.032 255.406,304.539 244.593,309.668 233.309 C 311.340 229.629,311.084 229.779,308.142 234.203 C 298.473 248.740,285.108 256.677,266.333 259.032 C 241.933 262.093,224.219 256.524,208.100 240.723 C 204.313 237.011,204.161 236.589,206.500 236.278 C 208.979 235.949,217.862 234.527,223.400 233.573 C 230.337 232.379,232.897 231.967,240.500 230.824 C 241.875 230.617,244.710 230.155,246.800 229.798 C 258.524 227.791,268.120 227.199,282.400 227.602 C 295.542 227.973,304.778 227.771,307.400 227.055 L 309.800 226.400 306.400 226.630 C 300.387 227.038,294.384 226.809,289.800 225.996 C 282.515 224.705,259.395 224.359,248.600 225.379 C 243.272 225.883,238.056 226.457,235.523 226.818 C 234.051 227.028,232.091 227.200,231.169 227.200 C 230.247 227.200,228.391 227.379,227.046 227.598 C 221.620 228.481,209.921 229.540,195.626 230.443 C 185.863 231.059,177.843 230.614,172.406 229.155 C 162.000 226.361,152.752 218.235,147.026 206.854 C 145.150 203.127,145.113 202.080,146.669 197.000 C 148.549 190.867,150.715 187.750,154.598 185.592 C 159.127 183.075,166.745 176.817,174.600 169.162 C 182.377 161.583,184.157 159.951,191.600 153.577 C 203.701 143.213,204.585 142.391,210.800 135.718 C 215.361 130.820,225.909 128.313,233.200 130.394 C 234.850 130.865,236.785 131.348,237.500 131.469 C 238.215 131.589,238.800 131.848,238.800 132.044 C 238.800 132.240,239.205 132.388,239.700 132.374 C 240.440 132.353,240.351 132.237,239.200 131.720 C 238.430 131.374,237.398 130.907,236.907 130.681 C 235.749 130.151,235.536 129.368,236.012 127.400 C 237.066 123.047,236.875 107.639,235.574 92.200 C 233.712 70.093,234.811 65.431,242.277 63.770 C 247.236 62.667,250.301 63.568,257.514 68.249 C 260.741 70.344,262.270 71.013,261.057 69.800 C 260.727 69.470,260.356 69.200,260.233 69.200 C 260.110 69.200,259.692 68.942,259.305 68.626 C 251.990 62.668,246.220 60.853,239.800 62.491 M287.770 74.853 C 287.027 75.013,287.694 75.123,289.600 75.153 C 299.072 75.304,303.398 77.598,308.214 85.022 C 312.261 91.261,314.047 96.152,315.026 103.678 C 315.662 108.566,316.909 116.107,317.560 119.000 C 317.757 119.880,318.136 121.590,318.400 122.800 C 318.664 124.010,319.034 125.630,319.222 126.400 C 319.410 127.170,319.676 128.340,319.812 129.000 C 319.949 129.660,320.212 130.560,320.397 131.000 C 320.582 131.440,320.824 132.160,320.934 132.600 C 321.114 133.317,323.675 140.576,326.013 147.000 C 329.091 155.451,328.193 172.201,323.580 192.400 C 323.102 194.490,322.623 196.920,322.515 197.800 C 322.407 198.680,322.156 199.571,321.959 199.780 C 321.762 199.989,321.621 200.619,321.646 201.180 C 321.683 201.982,321.730 202.029,321.867 201.400 C 321.963 200.960,322.194 200.240,322.380 199.800 C 323.689 196.711,326.402 186.810,328.408 177.800 C 330.957 166.351,331.790 151.939,330.211 146.600 C 328.967 142.393,328.988 141.996,330.568 139.648 C 336.074 131.465,336.202 122.987,330.955 113.988 C 329.569 111.612,327.793 109.191,323.039 103.200 C 317.934 96.766,316.615 94.785,313.850 89.400 C 310.279 82.445,305.183 77.019,300.600 75.292 C 299.264 74.788,289.600 74.458,287.770 74.853 M250.400 85.944 C 250.400 87.268,250.846 88.000,251.653 88.000 C 252.373 88.000,252.383 87.928,251.813 86.825 C 251.038 85.326,250.400 84.928,250.400 85.944 M251.011 94.200 C 251.101 96.840,251.444 102.641,251.772 107.091 C 252.730 120.050,251.772 127.381,248.408 132.849 L 247.225 134.772 248.058 135.356 C 248.946 135.977,250.001 135.815,249.998 135.057 C 249.997 134.806,250.514 133.250,251.147 131.600 C 253.439 125.629,254.173 114.731,252.884 105.800 C 252.630 104.040,252.230 100.710,251.993 98.400 C 251.169 90.334,250.830 88.885,251.011 94.200 M275.632 98.000 C 275.440 109.296,275.666 121.973,276.107 124.600 C 277.524 133.042,276.415 144.253,273.585 150.095 C 272.120 153.120,272.059 153.887,273.446 151.846 C 277.788 145.456,280.231 132.554,278.825 123.433 C 277.638 115.728,276.911 109.099,276.585 103.000 C 276.125 94.405,275.729 92.325,275.632 98.000 M321.409 104.047 C 322.724 106.273,324.299 108.928,324.909 109.947 C 330.568 119.404,331.676 125.334,328.830 130.940 C 326.906 134.731,326.756 134.635,325.148 128.600 C 324.562 126.400,323.689 123.340,323.208 121.800 C 320.131 111.944,317.641 100.000,318.662 100.000 C 318.857 100.000,320.093 101.821,321.409 104.047 M297.398 107.203 C 297.261 107.424,297.414 107.707,297.738 107.832 C 298.404 108.087,298.639 108.647,300.365 114.099 C 301.044 116.243,301.600 118.619,301.600 119.379 C 301.600 120.217,301.846 120.898,302.226 121.111 C 302.960 121.521,304.906 128.869,306.012 135.400 C 306.422 137.820,307.123 141.150,307.571 142.800 C 310.509 153.633,310.547 153.869,309.992 158.057 C 309.337 163.007,309.852 168.769,311.773 178.000 C 314.011 188.749,313.575 194.272,309.889 201.900 C 308.533 204.704,308.506 204.716,306.159 203.580 C 303.801 202.439,301.830 202.196,299.953 202.816 C 297.212 203.720,292.893 201.769,289.130 197.926 C 286.112 194.845,285.177 194.583,282.345 196.028 C 280.123 197.162,280.064 196.891,281.741 193.223 C 282.543 191.467,283.200 189.853,283.200 189.634 C 283.200 186.852,285.157 186.700,291.400 188.994 C 300.301 192.266,305.169 193.626,307.693 193.546 C 308.742 193.512,309.015 193.425,308.400 193.320 C 306.477 192.992,299.755 190.229,294.400 187.566 C 291.430 186.089,288.065 184.575,286.922 184.202 C 284.467 183.399,284.519 183.566,284.888 177.630 C 285.186 172.841,285.091 171.773,284.403 172.198 C 284.181 172.335,283.999 173.742,283.998 175.324 C 283.986 189.236,278.736 197.879,268.247 201.255 C 257.799 204.617,247.545 203.342,241.361 197.912 L 239.954 196.677 240.220 197.738 C 240.666 199.513,240.230 199.370,232.887 195.341 C 231.944 194.824,230.774 194.147,230.287 193.836 C 229.799 193.525,228.590 192.823,227.600 192.276 C 224.475 190.549,224.911 189.959,229.267 190.016 C 232.976 190.064,236.994 189.456,237.410 188.784 C 237.529 188.591,238.746 188.537,240.114 188.665 C 249.800 189.569,260.227 179.140,262.173 166.600 L 262.422 165.000 261.780 166.400 C 256.790 177.297,254.370 180.038,245.600 184.730 C 240.927 187.230,234.597 186.471,230.356 182.901 C 228.311 181.181,228.634 182.233,230.768 184.248 C 233.971 187.270,232.843 188.307,225.561 189.034 L 222.921 189.298 217.159 186.478 C 212.243 184.072,208.553 182.666,202.172 180.766 C 201.496 180.565,200.227 180.400,199.352 180.400 C 198.476 180.400,197.575 180.215,197.349 179.989 C 197.093 179.733,194.755 179.624,191.169 179.700 L 185.400 179.824 191.300 179.912 C 194.908 179.966,197.200 180.155,197.200 180.400 C 197.200 180.620,197.695 180.804,198.300 180.808 C 200.344 180.824,208.638 183.595,213.600 185.921 C 215.968 187.030,222.730 190.907,228.400 194.406 C 239.090 201.002,243.953 203.117,252.263 204.785 C 262.047 206.748,270.397 205.374,280.332 200.166 C 285.383 197.518,284.776 197.488,287.737 200.533 C 291.674 204.581,297.217 207.001,300.380 206.053 C 302.331 205.469,305.089 206.255,307.288 208.023 C 308.858 209.285,308.879 209.289,311.237 208.825 C 314.074 208.266,313.788 208.114,316.787 211.784 C 320.037 215.761,319.791 216.097,312.400 217.770 C 304.467 219.565,259.260 220.753,196.600 220.812 C 188.195 220.820,184.027 220.957,184.460 221.210 C 185.252 221.672,241.054 222.388,276.400 222.390 C 309.611 222.391,315.540 221.828,321.514 218.108 C 324.299 216.374,324.397 215.959,322.545 213.746 C 321.695 212.731,320.441 211.152,319.759 210.236 C 319.076 209.321,317.478 207.450,316.208 206.078 L 313.899 203.584 314.934 200.452 C 317.334 193.193,317.257 187.800,314.594 176.600 C 312.462 167.631,312.271 166.191,312.209 158.600 L 312.149 151.400 310.102 144.741 C 308.976 141.079,307.670 136.219,307.199 133.941 C 306.729 131.664,306.197 129.350,306.018 128.800 C 305.839 128.250,305.465 126.990,305.186 126.000 C 304.482 123.501,303.000 118.938,302.196 116.794 C 301.825 115.807,301.162 114.010,300.722 112.800 C 298.659 107.129,298.064 106.126,297.398 107.203 M203.600 108.705 C 206.690 111.226,212.791 117.371,212.828 118.000 C 212.849 118.367,212.938 118.417,213.055 118.129 C 213.598 116.798,207.603 110.164,204.076 108.193 C 201.625 106.823,201.482 106.976,203.600 108.705 M121.902 117.100 C 118.577 123.947,117.969 126.584,117.724 135.234 C 117.572 140.584,117.663 141.936,118.370 144.777 C 119.433 149.044,119.254 149.205,116.494 146.472 C 115.232 145.222,112.895 143.154,111.300 141.876 L 108.400 139.553 108.367 137.076 C 108.214 125.516,109.986 120.108,114.134 119.474 C 114.978 119.345,116.778 118.705,118.134 118.052 C 120.516 116.906,122.203 116.479,121.902 117.100 M301.055 126.200 C 299.929 138.392,299.066 142.496,296.013 150.171 C 294.119 154.934,292.629 157.761,289.902 161.771 C 285.979 167.539,284.727 171.703,286.700 172.418 C 287.305 172.637,288.160 172.993,288.600 173.208 C 294.372 176.032,299.412 176.030,305.400 173.202 C 305.840 172.994,306.830 172.749,307.600 172.656 C 308.370 172.563,307.920 172.532,306.600 172.586 C 305.280 172.641,303.030 172.904,301.600 173.172 C 297.176 174.000,291.116 172.066,287.813 168.772 C 287.279 168.240,288.512 166.054,290.857 163.374 C 297.431 155.861,300.024 150.277,301.151 141.200 C 301.733 136.519,302.013 127.420,301.651 125.000 L 301.351 123.000 301.055 126.200 M199.693 130.400 C 199.693 131.170,199.775 131.485,199.876 131.100 C 199.976 130.715,199.976 130.085,199.876 129.700 C 199.775 129.315,199.693 129.630,199.693 130.400 M258.199 145.200 C 258.345 145.750,258.563 146.614,258.683 147.120 C 258.813 147.670,259.148 147.991,259.517 147.920 C 260.594 147.711,260.483 146.904,259.189 145.532 C 258.005 144.276,257.948 144.257,258.199 145.200 M271.600 162.647 C 271.600 163.547,271.726 163.655,272.500 163.419 C 272.995 163.268,274.210 162.919,275.200 162.644 L 277.000 162.144 275.650 161.872 C 272.731 161.284,271.600 161.500,271.600 162.647 M311.000 225.600 L 309.800 225.905 311.100 225.953 C 311.815 225.979,312.400 225.820,312.400 225.600 C 312.400 225.380,312.355 225.221,312.300 225.247 C 312.245 225.273,311.660 225.432,311.000 225.600 " stroke="none" fill="#fff" fill-rule="evenodd"></path><path id="path1" d="M164.039 327.660 C 163.798 328.353,163.600 329.340,163.600 329.854 C 163.600 330.368,163.429 331.556,163.220 332.494 C 163.010 333.432,162.664 335.370,162.450 336.800 C 161.920 340.333,161.402 343.549,159.787 353.347 C 158.328 362.194,158.328 362.400,159.775 362.400 C 161.107 362.400,161.451 361.772,161.968 358.400 C 163.482 348.505,163.377 348.875,164.408 349.808 C 164.844 350.202,165.200 350.686,165.200 350.884 C 165.200 351.183,166.524 354.086,169.722 360.800 C 170.344 362.105,170.766 362.386,172.113 362.394 C 173.953 362.404,173.787 361.526,170.771 355.333 C 167.249 348.098,167.218 348.689,171.350 344.468 C 175.215 340.520,176.799 338.729,176.800 338.308 C 176.800 337.865,174.959 337.496,174.105 337.767 C 173.482 337.965,166.001 345.920,165.140 347.300 C 164.998 347.529,164.620 347.617,164.302 347.495 C 163.815 347.307,163.991 345.680,165.426 337.140 C 166.362 331.567,167.043 326.870,166.940 326.703 C 166.385 325.804,164.465 326.437,164.039 327.660 M245.590 327.426 C 245.376 327.990,245.200 328.901,245.200 329.449 C 245.200 329.997,245.034 331.200,244.831 332.123 C 244.628 333.045,244.269 335.060,244.033 336.600 C 243.797 338.140,242.796 344.416,241.808 350.548 C 239.916 362.292,239.912 362.400,241.375 362.400 C 242.736 362.400,243.137 361.673,243.598 358.369 C 244.017 355.365,247.274 335.253,247.998 331.200 C 248.769 326.881,248.688 326.400,247.190 326.400 C 246.259 326.400,245.890 326.637,245.590 327.426 M369.702 326.900 C 369.485 327.175,369.184 328.390,369.034 329.600 C 368.885 330.810,368.138 335.670,367.375 340.400 C 365.391 352.697,365.170 354.006,364.764 355.877 C 364.564 356.800,364.397 358.150,364.394 358.877 C 364.391 359.605,364.221 360.464,364.017 360.787 C 363.518 361.576,364.242 362.400,365.435 362.400 C 366.748 362.400,366.991 361.734,367.987 355.400 C 369.090 348.376,371.082 335.833,371.639 332.400 C 371.870 330.970,372.196 329.259,372.363 328.598 C 372.872 326.575,370.937 325.340,369.702 326.900 M57.725 328.314 C 57.020 328.762,56.345 330.797,56.617 331.653 C 57.037 332.976,59.920 332.694,60.226 331.300 C 60.358 330.695,60.545 329.952,60.640 329.649 C 61.030 328.414,59.017 327.492,57.725 328.314 M30.679 329.100 C 30.404 329.591,30.038 331.319,29.592 334.245 C 29.361 335.760,28.990 338.080,28.768 339.400 C 28.546 340.720,28.178 342.970,27.951 344.400 C 27.723 345.830,27.385 347.900,27.200 349.000 C 24.976 362.228,24.967 362.405,26.524 362.394 C 28.251 362.382,28.283 362.287,29.846 352.400 C 30.886 345.820,30.206 346.399,36.890 346.406 C 44.494 346.414,44.002 345.780,42.684 353.879 C 41.285 362.468,41.284 362.400,42.809 362.400 C 44.433 362.400,44.492 362.211,46.176 351.600 C 46.962 346.650,47.777 341.610,47.987 340.400 C 48.198 339.190,48.571 336.940,48.816 335.400 C 49.062 333.860,49.437 331.921,49.650 331.092 C 50.126 329.238,49.885 328.800,48.390 328.800 C 46.827 328.800,46.645 329.256,45.596 335.800 C 44.279 344.022,45.144 343.200,37.810 343.200 L 31.600 343.200 31.605 342.100 C 31.607 341.495,32.036 338.485,32.558 335.411 C 33.080 332.337,33.418 329.592,33.311 329.311 C 33.102 328.767,30.962 328.595,30.679 329.100 M56.123 338.100 C 55.917 338.375,55.358 341.030,54.881 344.000 C 54.405 346.970,53.567 352.171,53.019 355.557 C 51.951 362.163,51.963 362.400,53.375 362.400 C 54.763 362.400,55.030 361.801,55.780 357.000 C 56.157 354.580,56.996 349.395,57.643 345.478 C 58.291 341.561,58.715 338.186,58.587 337.978 C 58.248 337.431,56.563 337.514,56.123 338.100 M66.483 337.935 C 66.052 338.212,65.192 342.242,64.290 348.200 C 63.971 350.310,61.962 362.453,61.213 366.800 C 60.494 370.973,60.604 372.000,61.773 372.000 C 63.047 372.000,63.581 370.890,64.178 367.000 C 65.144 360.702,65.212 360.400,65.660 360.400 C 65.894 360.400,66.599 360.833,67.228 361.362 C 70.918 364.468,76.806 361.851,78.933 356.161 C 84.080 342.397,78.428 332.114,70.114 340.116 C 68.285 341.876,67.958 341.729,68.114 339.214 C 68.203 337.776,67.538 337.254,66.483 337.935 M91.960 338.396 C 85.227 341.955,82.140 357.894,87.512 361.366 C 91.521 363.958,99.200 362.500,99.200 359.146 C 99.200 358.238,98.921 358.223,97.002 359.025 C 91.553 361.302,87.821 359.017,88.080 353.561 L 88.200 351.017 92.540 350.507 C 99.530 349.687,102.377 347.599,102.393 343.280 C 102.412 338.483,96.782 335.848,91.960 338.396 M109.622 338.173 C 109.361 338.488,108.985 339.793,108.788 341.073 C 108.410 343.521,107.781 347.512,107.191 351.200 C 105.358 362.673,105.363 362.400,106.997 362.400 C 108.303 362.400,108.450 361.978,109.580 355.000 C 111.118 345.490,114.584 339.662,117.822 341.137 C 118.977 341.664,119.731 340.665,119.525 338.880 C 119.222 336.262,114.886 337.474,112.767 340.768 C 111.874 342.157,111.205 341.549,111.617 339.724 C 112.089 337.631,110.863 336.678,109.622 338.173 M125.852 338.507 C 120.807 341.418,121.171 347.945,126.561 351.212 C 130.168 353.398,130.852 356.251,128.345 358.652 C 126.780 360.152,123.628 360.244,121.668 358.848 C 120.076 357.715,119.200 357.974,119.200 359.578 C 119.200 362.858,126.564 363.800,130.246 360.992 C 132.453 359.308,133.740 354.910,132.725 352.519 C 132.197 351.274,130.042 348.800,129.485 348.800 C 127.738 348.800,124.891 345.203,125.391 343.627 C 126.335 340.653,128.953 339.500,131.851 340.781 C 134.040 341.750,134.650 341.404,134.447 339.310 C 134.277 337.549,128.455 337.005,125.852 338.507 M144.361 338.776 C 138.259 342.818,135.471 356.680,139.909 360.907 C 143.104 363.948,152.000 362.840,152.000 359.400 C 152.000 358.219,151.998 358.219,150.087 359.036 C 145.327 361.071,141.535 359.440,141.002 355.130 C 140.531 351.330,140.838 351.033,145.823 350.453 C 151.814 349.757,154.114 348.435,155.193 345.066 C 157.027 339.343,149.822 335.159,144.361 338.776 M183.355 338.362 C 178.104 341.564,178.530 347.595,184.274 351.350 C 186.988 353.124,187.899 354.916,187.082 356.869 C 185.810 359.907,182.050 360.750,179.004 358.680 C 177.297 357.520,176.817 357.729,176.806 359.638 C 176.786 363.020,184.112 363.873,187.644 360.901 C 191.933 357.293,191.381 352.047,186.349 348.596 C 182.877 346.215,182.286 345.003,183.426 342.602 C 184.670 339.980,188.655 339.298,190.406 341.407 C 191.091 342.233,192.000 341.452,192.000 340.037 C 192.000 337.729,186.228 336.611,183.355 338.362 M199.302 337.920 C 198.763 338.272,198.542 339.318,196.963 349.000 C 195.417 358.477,195.923 361.466,199.244 362.460 C 201.485 363.132,203.752 362.354,205.945 360.160 C 208.005 358.101,208.467 358.197,208.136 360.617 C 207.899 362.342,207.926 362.400,208.956 362.400 C 210.329 362.400,210.492 361.937,211.567 355.000 C 212.044 351.920,212.787 347.293,213.217 344.717 C 214.276 338.384,214.257 337.600,213.049 337.600 C 211.560 337.600,211.306 338.238,210.234 344.674 C 208.639 354.249,205.643 359.600,201.878 359.600 C 198.948 359.600,198.657 357.045,200.373 346.400 C 201.738 337.934,201.551 336.454,199.302 337.920 M224.129 338.523 C 217.110 343.367,215.552 361.184,222.023 362.605 C 224.017 363.043,226.510 362.113,228.577 360.160 C 230.893 357.973,230.884 357.972,230.562 360.400 C 230.305 362.339,230.328 362.400,231.299 362.400 C 232.789 362.400,232.975 361.923,233.954 355.600 C 234.448 352.410,235.005 348.990,235.192 348.000 C 235.379 347.010,235.742 344.850,235.998 343.200 C 236.254 341.550,236.527 339.868,236.605 339.461 C 236.811 338.376,236.408 337.600,235.637 337.600 C 234.691 337.600,234.000 338.394,234.000 339.480 C 234.000 340.674,233.067 340.666,232.121 339.464 C 230.468 337.362,226.490 336.894,224.129 338.523 M254.207 337.989 C 253.697 338.814,250.048 361.801,250.375 362.131 C 250.555 362.313,251.219 362.403,251.851 362.331 L 253.000 362.200 254.022 355.979 C 255.551 346.668,257.553 342.414,261.105 340.930 C 265.300 339.178,265.898 341.966,263.882 353.874 C 262.428 362.461,262.427 362.400,264.010 362.400 C 265.634 362.400,266.102 360.559,268.018 346.604 C 269.251 337.630,262.357 333.845,257.474 340.815 C 256.608 342.052,255.974 341.434,256.096 339.474 C 256.201 337.782,254.945 336.795,254.207 337.989 M280.200 338.264 C 272.829 342.142,269.984 358.824,276.191 361.769 C 284.146 365.544,291.278 358.398,291.329 346.600 C 291.350 341.619,290.813 340.129,288.410 338.500 C 286.759 337.382,282.129 337.248,280.200 338.264 M300.600 338.322 C 295.398 341.632,295.510 347.786,300.831 351.019 C 307.580 355.119,303.601 362.570,296.568 359.002 C 294.029 357.714,294.000 357.720,294.000 359.554 C 294.000 360.921,294.160 361.185,295.325 361.738 C 305.018 366.337,312.435 354.448,303.532 348.583 C 299.932 346.211,299.075 344.298,300.624 342.087 C 302.089 339.996,304.103 339.596,306.681 340.883 C 308.541 341.812,309.178 341.578,309.194 339.962 C 309.214 337.856,303.150 336.699,300.600 338.322 M319.019 338.509 C 313.137 341.840,309.961 356.725,314.223 360.986 C 317.087 363.851,324.351 362.760,325.338 359.317 C 325.898 357.366,325.439 356.561,324.374 357.626 C 318.498 363.502,313.567 356.767,316.569 346.965 C 318.441 340.855,324.216 338.354,326.860 342.509 C 327.473 343.472,328.449 342.410,328.324 340.916 C 328.063 337.785,322.731 336.406,319.019 338.509 M345.587 338.215 C 345.291 338.573,344.924 339.705,344.773 340.732 C 344.621 341.760,344.283 343.950,344.020 345.600 C 343.758 347.250,343.385 349.590,343.193 350.800 C 341.910 358.868,339.977 370.277,339.827 370.671 C 339.546 371.408,340.691 372.114,341.739 371.851 C 342.707 371.608,343.167 370.155,343.784 365.400 C 344.386 360.760,344.492 360.400,345.252 360.400 C 345.663 360.400,346.000 360.590,346.000 360.822 C 346.000 362.743,351.832 363.134,354.478 361.391 C 359.737 357.927,362.227 343.420,358.325 338.976 C 356.104 336.446,350.798 337.452,348.707 340.800 C 347.938 342.031,347.655 341.769,347.522 339.704 C 347.390 337.644,346.579 337.021,345.587 338.215 M76.090 341.185 C 80.479 344.637,76.219 359.600,70.847 359.600 C 68.714 359.600,66.208 356.958,66.294 354.800 C 66.635 346.242,72.376 338.263,76.090 341.185 M98.274 341.270 C 101.429 344.233,97.764 348.000,91.726 348.000 C 88.646 348.000,88.500 347.762,89.868 344.969 C 91.939 340.740,95.869 339.010,98.274 341.270 M151.190 341.190 C 154.252 344.252,150.913 347.972,145.087 347.991 C 141.835 348.002,141.485 347.557,142.775 345.048 C 144.996 340.729,148.927 338.927,151.190 341.190 M230.400 341.560 C 232.655 343.192,232.920 344.294,232.065 348.480 C 229.680 360.153,220.956 364.245,221.125 353.612 C 221.273 344.286,225.886 338.293,230.400 341.560 M285.775 340.862 C 288.376 342.046,289.056 347.134,287.369 352.789 C 284.692 361.764,275.960 362.167,276.014 353.313 C 276.066 344.924,280.968 338.671,285.775 340.862 M355.510 341.202 C 359.538 344.955,355.410 359.600,350.324 359.600 C 347.565 359.600,345.027 356.469,345.610 353.784 C 345.799 352.913,346.166 351.210,346.425 350.000 C 347.807 343.540,352.814 338.690,355.510 341.202 M330.887 358.510 C 329.940 361.128,330.458 362.400,332.471 362.400 C 333.947 362.400,334.892 360.947,334.726 358.931 C 334.540 356.669,331.667 356.354,330.887 358.510 M115.000 378.420 C 70.064 378.916,68.831 378.964,92.400 379.297 C 159.017 380.238,242.427 380.238,306.400 379.297 L 326.600 379.000 310.800 378.753 C 281.350 378.293,147.181 378.065,115.000 378.420 " stroke="none" fill="#ffffff" fill-rule="evenodd"></path></g></svg>