<svg version="1.2" baseProfile="tiny" id="Layer_1" xmlns="http://www.w3.org/2000/svg" xmlns:xlink="http://www.w3.org/1999/xlink"
	 x="0px" y="0px" width="300px" height="100px" viewBox="0 0 150 50" xml:space="preserve">
<g>
	<path fill="#FFFFFF" d="M10.8,37.7c0.1,0,0.2,0,0.3,0.1l0.8,0.9c-0.5,0.6-1,1-1.7,1.3c-0.7,0.3-1.5,0.5-2.4,0.5
		c-0.8,0-1.6-0.1-2.3-0.4c-0.7-0.3-1.3-0.7-1.7-1.2c-0.5-0.5-0.8-1.1-1.1-1.8c-0.3-0.7-0.4-1.5-0.4-2.3c0-0.9,0.1-1.6,0.4-2.4
		c0.3-0.7,0.7-1.3,1.2-1.8C4.4,30,5,29.6,5.7,29.3c0.7-0.3,1.5-0.4,2.4-0.4c0.8,0,1.6,0.1,2.2,0.4c0.6,0.3,1.2,0.6,1.6,1.1l-0.7,1
		c0,0.1-0.1,0.1-0.2,0.2c-0.1,0-0.2,0.1-0.3,0.1c-0.1,0-0.2,0-0.4-0.1c-0.1-0.1-0.3-0.2-0.5-0.3c-0.2-0.1-0.4-0.2-0.7-0.3
		c-0.3-0.1-0.7-0.1-1.1-0.1c-0.5,0-1,0.1-1.5,0.3c-0.4,0.2-0.8,0.5-1.2,0.8c-0.3,0.3-0.6,0.8-0.8,1.3c-0.2,0.5-0.3,1.1-0.3,1.7
		c0,0.6,0.1,1.2,0.3,1.7c0.2,0.5,0.4,0.9,0.7,1.3c0.3,0.3,0.7,0.6,1.1,0.8c0.4,0.2,0.9,0.3,1.4,0.3c0.3,0,0.6,0,0.8,0
		c0.2,0,0.4-0.1,0.6-0.1c0.2-0.1,0.4-0.2,0.6-0.3c0.2-0.1,0.4-0.2,0.5-0.4c0.1,0,0.1-0.1,0.2-0.1C10.6,37.8,10.7,37.7,10.8,37.7z"/>
	<path fill="#FFFFFF" d="M20.4,29v1.7h-5.1v3.2h4v1.6h-4v3.2h5.1v1.7h-7.2V29H20.4z"/>
	<path fill="#FFFFFF" d="M23.4,29c0.1,0,0.1,0,0.2,0c0,0,0.1,0.1,0.1,0.1c0,0,0.1,0.1,0.2,0.2l6,7.6c0-0.2,0-0.4,0-0.5
		c0-0.2,0-0.3,0-0.5V29h1.9v11.4h-1.1c-0.2,0-0.3,0-0.4-0.1c-0.1-0.1-0.2-0.1-0.3-0.3l-6-7.6c0,0.2,0,0.3,0,0.5c0,0.2,0,0.3,0,0.5v7
		h-1.9V29h1.1C23.3,29,23.3,29,23.4,29z"/>
	<path fill="#FFFFFF" d="M41.8,29v1.7h-3.4v9.7h-2.1v-9.7h-3.4V29H41.8z"/>
	<path fill="#FFFFFF" d="M45.2,36v4.5h-2.1V29h3.5c0.8,0,1.4,0.1,2,0.2c0.6,0.2,1,0.4,1.4,0.7c0.4,0.3,0.6,0.6,0.8,1
		c0.2,0.4,0.2,0.8,0.2,1.3c0,0.4-0.1,0.7-0.2,1.1c-0.1,0.3-0.3,0.7-0.5,0.9c-0.2,0.3-0.5,0.5-0.8,0.7c-0.3,0.2-0.7,0.4-1.1,0.5
		c0.3,0.2,0.5,0.4,0.7,0.7l2.9,4.2H50c-0.2,0-0.3,0-0.5-0.1c-0.1-0.1-0.2-0.2-0.3-0.3l-2.4-3.6c-0.1-0.1-0.2-0.2-0.3-0.3
		C46.4,36,46.3,36,46.1,36H45.2z M45.2,34.5h1.3c0.4,0,0.7,0,1-0.1c0.3-0.1,0.5-0.2,0.7-0.4c0.2-0.2,0.3-0.4,0.4-0.6
		s0.1-0.5,0.1-0.8c0-0.6-0.2-1-0.6-1.3c-0.4-0.3-1-0.5-1.7-0.5h-1.4V34.5z"/>
	<path fill="#FFFFFF" d="M57.5,38.7c0.4,0,0.8-0.1,1.1-0.2c0.3-0.1,0.6-0.3,0.8-0.6c0.2-0.2,0.4-0.5,0.5-0.9
		c0.1-0.4,0.2-0.7,0.2-1.2V29h2.1v6.8c0,0.7-0.1,1.3-0.3,1.9c-0.2,0.6-0.5,1.1-0.9,1.5c-0.4,0.4-0.9,0.7-1.5,1
		c-0.6,0.2-1.2,0.4-2,0.4s-1.4-0.1-2-0.4c-0.6-0.2-1.1-0.6-1.5-1c-0.4-0.4-0.7-0.9-0.9-1.5c-0.2-0.6-0.3-1.2-0.3-1.9V29h2.1v6.8
		c0,0.4,0.1,0.8,0.2,1.2c0.1,0.4,0.3,0.7,0.5,0.9c0.2,0.2,0.5,0.4,0.8,0.6C56.8,38.7,57.1,38.7,57.5,38.7z"/>
	<path fill="#FFFFFF" d="M70.4,36.2c0.1,0.2,0.2,0.4,0.2,0.5c0.1-0.2,0.2-0.4,0.2-0.6c0.1-0.2,0.2-0.4,0.3-0.5l3.4-6.3
		c0-0.1,0.1-0.1,0.1-0.2c0,0,0.1-0.1,0.1-0.1c0.1,0,0.1,0,0.2,0c0.1,0,0.1,0,0.2,0h1.6v11.4h-1.9v-7.4c0-0.1,0-0.3,0-0.4
		c0-0.2,0-0.3,0-0.5l-3.4,6.5c-0.1,0.1-0.2,0.3-0.3,0.3c-0.1,0.1-0.3,0.1-0.4,0.1h-0.3c-0.2,0-0.3,0-0.4-0.1
		c-0.1-0.1-0.2-0.2-0.3-0.3l-3.5-6.5c0,0.2,0,0.3,0,0.5c0,0.2,0,0.3,0,0.5v7.4h-1.9V29H66c0.1,0,0.2,0,0.2,0c0.1,0,0.1,0,0.2,0
		c0.1,0,0.1,0.1,0.2,0.1c0,0,0.1,0.1,0.1,0.2l3.4,6.3C70.2,35.9,70.3,36,70.4,36.2z"/>
	<path fill="#FFFFFF" d="M90.2,29v1.7h-3.4v9.7h-2.1v-9.7h-3.4V29H90.2z"/>
	<path fill="#FFFFFF" d="M98.5,29v1.7h-5.1v3.2h4v1.6h-4v3.2h5.1v1.7h-7.2V29H98.5z"/>
	<path fill="#FFFFFF" d="M102.4,36v4.5h-2.1V29h3.5c0.8,0,1.4,0.1,2,0.2c0.6,0.2,1,0.4,1.4,0.7c0.4,0.3,0.6,0.6,0.8,1
		c0.2,0.4,0.2,0.8,0.2,1.3c0,0.4-0.1,0.7-0.2,1.1c-0.1,0.3-0.3,0.7-0.5,0.9c-0.2,0.3-0.5,0.5-0.8,0.7c-0.3,0.2-0.7,0.4-1.1,0.5
		c0.3,0.2,0.5,0.4,0.7,0.7l2.9,4.2h-1.9c-0.2,0-0.3,0-0.5-0.1c-0.1-0.1-0.2-0.2-0.3-0.3l-2.4-3.6c-0.1-0.1-0.2-0.2-0.3-0.3
		c-0.1-0.1-0.3-0.1-0.5-0.1H102.4z M102.4,34.5h1.3c0.4,0,0.7,0,1-0.1c0.3-0.1,0.5-0.2,0.7-0.4c0.2-0.2,0.3-0.4,0.4-0.6
		s0.1-0.5,0.1-0.8c0-0.6-0.2-1-0.6-1.3c-0.4-0.3-1-0.5-1.7-0.5h-1.4V34.5z"/>
	<path fill="#FFFFFF" d="M120.9,40.4h-1.6c-0.2,0-0.3,0-0.5-0.1c-0.1-0.1-0.2-0.2-0.3-0.3l-0.9-2.3H113l-0.9,2.3
		c0,0.1-0.1,0.2-0.2,0.3c-0.1,0.1-0.3,0.1-0.5,0.1h-1.6l4.5-11.4h2.2L120.9,40.4z M113.5,36.1h3.6l-1.4-3.8
		c-0.1-0.2-0.1-0.4-0.2-0.6c-0.1-0.2-0.2-0.5-0.2-0.7c-0.1,0.3-0.1,0.5-0.2,0.7c-0.1,0.2-0.1,0.4-0.2,0.6L113.5,36.1z"/>
	<path fill="#FFFFFF" d="M124.1,36.4v4H122V29h3.7c0.8,0,1.4,0.1,2,0.3c0.6,0.2,1,0.4,1.4,0.7c0.4,0.3,0.6,0.7,0.8,1.2
		c0.2,0.4,0.3,0.9,0.3,1.5c0,0.6-0.1,1.1-0.3,1.5c-0.2,0.5-0.5,0.9-0.8,1.2c-0.4,0.3-0.8,0.6-1.4,0.8c-0.6,0.2-1.2,0.3-1.9,0.3
		H124.1z M124.1,34.8h1.6c0.4,0,0.7,0,1-0.1c0.3-0.1,0.5-0.2,0.7-0.4c0.2-0.2,0.3-0.4,0.4-0.7c0.1-0.3,0.1-0.6,0.1-0.9
		c0-0.3,0-0.6-0.1-0.8c-0.1-0.2-0.2-0.5-0.4-0.6c-0.2-0.2-0.4-0.3-0.7-0.4c-0.3-0.1-0.6-0.1-1-0.1h-1.6V34.8z"/>
	<path fill="#FFFFFF" d="M133.8,40.4h-2.1V29h2.1V40.4z"/>
	<path fill="#FFFFFF" d="M138.4,40.4h-2.1V29h2.1V40.4z"/>
</g>
<g>
	<path fill="#FFFFFF" d="M30,50.4c0,0.2,0,0.3-0.1,0.3c-0.1,0-0.1,0-0.1-0.1c0,0,0-0.1,0-0.1c0-0.2-0.3-0.3-0.9-0.4
		c-0.9-0.2-2.2-0.3-3.8-0.3c-1.7,0-3.2,0.1-4.4,0.3c-0.4,0.1-0.8,0.1-1,0.2c-0.5,0.1-0.8,0.1-1.1,0.1c-0.4,0-0.6-0.1-0.6-0.3
		c0-0.3,0.5-0.6,1.4-0.8c1-0.2,2.4-0.4,4.1-0.4c2.6,0,4.5,0.2,5.6,0.6C29.7,49.8,30,50.1,30,50.4z M33.8,44.4c0,0.6-0.8,1.1-2.2,1.6
		c-0.6,0.2-1.2,0.4-2,0.5c-1.7,0.4-3.4,0.6-4.9,0.6c-0.6,0-1,0-1.4,0c-0.1,0.1-0.2,0.2-0.4,0.3c-0.2,0.2-0.3,0.3-0.4,0.4
		c-0.1,0.1-0.2,0.2-0.3,0.3c-0.1,0.1-0.3,0.2-0.4,0.3c-0.3,0.2-0.5,0.4-0.8,0.5c-0.4,0.2-0.9,0.3-1.5,0.3c-0.1,0-0.3,0-0.4,0
		c-0.2,0-0.3-0.1-0.3-0.1c0,0,0,0,0-0.1c0,0,0,0,0.1,0c0,0,0.1,0,0.2,0c0.1,0,0.3,0,0.5,0c0.5,0,0.9-0.2,1.5-0.5
		c0.3-0.2,0.9-0.7,1.9-1.5c-0.9-0.1-1.5-0.3-1.6-0.6c0,0,0-0.1,0-0.1c0,0,0.1,0,0.1,0c0.1,0.1,0.5,0.2,1.2,0.2c0.3,0,0.5,0,0.9,0h0
		c0.7-0.5,1.4-1,2.1-1.5c0.7-0.4,1.4-0.8,2.2-1c1.2-0.4,2.5-0.6,3.7-0.6c0.6,0,1,0.1,1.4,0.2C33.5,43.8,33.8,44.1,33.8,44.4z
		 M32.5,44.4c0.1-0.1,0.2-0.2,0.2-0.4c0-0.3-0.6-0.4-1.7-0.4c-0.2,0-0.6,0-1.1,0.1c-0.6,0.1-1.1,0.2-1.6,0.4
		c-1.3,0.4-2.7,1.2-4.1,2.4c1.4-0.1,3-0.3,4.7-0.7C30.7,45.4,32,44.9,32.5,44.4z"/>
	<path fill="#FFFFFF" d="M34.2,48.4c0.6-0.2,0.9-0.4,0.9-0.6c0-0.2-0.2-0.3-0.6-0.3c-0.2,0-0.4,0-0.6,0.1c-0.5,0.1-0.9,0.3-1.3,0.6
		c-0.5,0.4-0.8,0.7-0.8,1c0,0.1,0.1,0.2,0.2,0.3c0.1,0.1,0.3,0.2,0.6,0.2c0.5,0,1.2-0.2,2-0.5c0.8-0.3,1.5-0.6,2.1-1
		c0.1-0.1,0.2-0.1,0.2,0c0,0,0,0.1-0.1,0.1c-0.4,0.2-0.7,0.4-0.8,0.4c-0.1,0.1-0.4,0.2-0.8,0.4c-0.4,0.2-0.7,0.3-1,0.4
		c-0.8,0.2-1.4,0.4-2,0.4c-0.5,0-1-0.1-1.3-0.2c-0.3-0.1-0.5-0.3-0.5-0.6c0-0.6,0.4-1,1.3-1.4c0.8-0.4,1.7-0.6,2.6-0.6
		c0.6,0,1,0.1,1.2,0.2c0.1,0.1,0.1,0.2,0.1,0.2c0,0.1,0,0.2-0.1,0.3c-0.2,0.2-0.6,0.4-1.1,0.5c-0.5,0.2-1.1,0.2-1.5,0.2
		c-0.2,0-0.3,0-0.3,0c0,0,0,0,0,0c0,0,0.1,0,0.2,0C33.1,48.7,33.6,48.6,34.2,48.4z"/>
	<path fill="#FFFFFF" d="M43.8,48.6c-0.1,0.1-0.1,0.2-0.1,0.3S43.8,49,44,49c0.1,0,0.4-0.1,0.7-0.2c0.3-0.1,0.5-0.3,0.6-0.3
		c0.1-0.1,0.2,0,0.2,0c0,0,0,0.1-0.1,0.1C45,48.8,44.7,49,44.6,49c-0.3,0.1-0.6,0.2-0.8,0.2c-0.4,0-0.6-0.1-0.6-0.3
		c-1.1,0.7-1.9,1.1-2.5,1.1c-0.4,0-0.7,0-0.9-0.1c-0.2-0.1-0.3-0.2-0.3-0.3c0-0.1,0-0.2,0.1-0.4C38.7,49.7,38,50,37.4,50
		c-0.4,0-0.7-0.1-0.9-0.2c-0.2-0.1-0.3-0.2-0.3-0.3c0-0.2,0.1-0.4,0.2-0.6c0.1-0.1,0.4-0.3,0.7-0.6c-0.7,0.3-1.1,0.5-1.1,0.6
		c-0.1,0-0.1,0-0.1,0c0-0.1,0.1-0.1,0.2-0.2c0.3-0.1,0.7-0.3,1.2-0.7c0.6-0.3,1-0.5,1.2-0.6c0.2-0.1,0.4-0.1,0.5-0.1
		c0.1,0,0.2,0,0.3,0c0.1,0,0.1,0,0,0.1c-0.3,0.2-0.6,0.5-0.9,0.8c-0.4,0.5-0.6,0.9-0.6,1.1c0,0,0,0.1,0,0.1c0.1,0.1,0.3,0.1,0.6,0
		c0.1-0.1,0.3-0.1,0.5-0.2c0.2-0.1,0.5-0.3,1.1-0.8c0.6-0.4,1-0.7,1.2-0.7c0.2-0.1,0.4-0.1,0.6-0.1c0.1,0,0.3,0,0.3,0.1
		c0.1,0,0.1,0.1,0.1,0.1c-0.6,0.3-0.9,0.8-1.1,1.4c-0.1,0.2-0.1,0.4,0,0.4c0.1,0,0.2,0,0.2,0c0.1,0,0.2,0,0.3-0.1
		c0.4-0.1,0.9-0.4,1.5-0.8c0-0.6,0.3-1,0.7-1.3c0.2-0.1,0.5-0.2,1-0.2c0.2,0,0.3,0,0.3,0.1L45,47.4C44.4,47.9,44,48.3,43.8,48.6z"/>
	<path fill="#FFFFFF" d="M51.5,48.4c-0.1,0-0.1,0-0.1-0.1c0-0.1,0-0.2,0.1-0.3c0-0.1,0.1-0.1,0.2-0.1c0.8,0,1.5-0.1,2.2-0.1
		c0.7,0,1.3,0,1.9,0.1c0.1,0,0.2,0,0.2,0.1c0,0.1-0.1,0.1-0.2,0.1c-0.8,0-1.6,0.1-2.5,0.2C52.1,48.3,51.6,48.4,51.5,48.4z"/>
	<path fill="#FFFFFF" d="M75,44.3c-0.1-0.1-0.2-0.1-0.5-0.1c-0.2,0-0.4,0-0.6,0c-0.2,0-0.4,0.1-0.7,0.1c-0.4,0.1-0.8,0.2-1,0.3
		c-1,0.3-1.9,0.7-2.8,1.1c-0.9,0.4-1.3,0.7-1.4,0.9c0,0.2,0.1,0.3,0.4,0.4c0.3,0.1,0.6,0.2,1,0.3c0.4,0.1,0.6,0.2,0.8,0.2
		c0.9,0.3,1.3,0.6,1.3,1c0,0.2-0.1,0.4-0.3,0.5c-0.3,0.3-0.7,0.5-1.3,0.7c-0.6,0.2-1.2,0.3-1.9,0.4c-0.7,0.1-1.3,0.1-1.8,0.1
		c-0.8,0-1.7-0.1-2.5-0.3c-0.8-0.2-1.4-0.5-1.6-1c0.4,0.2,1,0.4,1.7,0.5c0.7,0.1,1.4,0.1,2,0.1c1,0,1.7-0.1,2.2-0.1
		c0.5-0.1,0.9-0.2,1.2-0.3c0.3-0.1,0.7-0.2,1-0.4c0.3-0.2,0.4-0.3,0.4-0.5c0-0.2-0.2-0.4-0.6-0.5c0,0-0.4-0.1-1-0.2
		c-0.6-0.1-1.1-0.3-1.5-0.5c-0.3-0.2-0.5-0.4-0.5-0.6c0-0.4,0.5-0.9,1.4-1.3c0.9-0.5,1.9-0.8,3-1.1c1.1-0.3,2-0.4,2.8-0.4
		c0.5,0,1,0.1,1.3,0.2c0.3,0.1,0.4,0.3,0.4,0.5c0,0,0,0.1,0,0.1c0,0.2-0.6,0.6-1.8,1.3c-0.4,0.2-0.8,0.5-1.1,0.8
		c-0.3,0.3-0.5,0.5-0.5,0.8c0,0,0,0,0,0.1c-0.3-0.2-0.5-0.4-0.5-0.6c0-0.2,0.2-0.5,0.5-0.9C73.1,45.2,73.9,44.8,75,44.3z"/>
	<path fill="#FFFFFF" d="M75.4,46.6c0.2-0.2,0.4-0.4,0.6-0.5c0.1-0.1,0.3-0.2,0.4-0.3c0.1-0.1,0.3-0.1,0.6-0.2
		c0.3,0,0.6-0.1,0.9-0.1c0.3,0,0.4,0,0.4,0.1c0,0-0.2,0.2-0.7,0.5c-0.5,0.3-1,0.6-1.7,1.1c0.7,0.1,1.2,0.2,1.5,0.4
		c0.1,0.1,0.1,0.1,0,0.2c-0.1,0-0.1,0-0.2,0c-0.2-0.1-0.6-0.2-1.1-0.2c-0.2,0-0.5,0-0.7,0c-0.9,0.7-1.5,1.2-1.7,1.7
		c-0.1,0.1-0.1,0.2-0.1,0.3c0,0.2,0.2,0.3,0.5,0.3c0.3,0,0.8-0.1,1.4-0.4c0.8-0.4,1.5-0.7,2.1-1.1c0.1-0.1,0.2-0.1,0.2,0
		c0,0,0,0.1-0.1,0.1c-0.9,0.6-1.7,1-2.4,1.3c-0.6,0.3-1.2,0.4-1.8,0.4c-0.7,0-1.1-0.2-1.1-0.7c0-0.2,0.1-0.5,0.3-0.8l-0.3,0.2
		c-0.1,0.1-0.2,0.1-0.2,0c0,0-0.1,0-0.1-0.1c0,0,0-0.1,0.1-0.1c0.8-0.4,1.4-0.7,1.7-0.9c-0.2,0-0.3,0-0.4,0c-0.1,0-0.1-0.1-0.1-0.2
		c0-0.1,0-0.1,0.2-0.2c0.1-0.1,0.3-0.2,0.6-0.2c0.3,0,0.5-0.1,0.6-0.1C74.9,47,75.1,46.8,75.4,46.6z"/>
	<path fill="#FFFFFF" d="M83.4,48.4c-0.1,0.1-0.2,0.2-0.4,0.3c-0.1,0.1-0.3,0.2-0.5,0.4c-0.2,0.2-0.3,0.3-0.3,0.4s0.1,0.2,0.3,0.2
		s0.4-0.1,0.8-0.2c0.8-0.3,1.6-0.6,2.6-1.2c0.1-0.1,0.2-0.1,0.2,0c0,0,0,0,0,0s0,0-0.1,0.1c-1.9,1-3.3,1.6-4.1,1.6
		c-0.3,0-0.5-0.1-0.6-0.2c-0.2-0.1-0.3-0.2-0.3-0.4c0-0.1,0.1-0.3,0.3-0.6c-0.5,0.4-1,0.6-1.6,0.8c-0.6,0.2-1,0.3-1.3,0.3
		s-0.6-0.1-0.8-0.2c-0.2-0.1-0.3-0.3-0.3-0.4c0-0.5,0.4-0.9,1.1-1.4c0.6-0.3,1.2-0.6,2-0.7c0.4-0.1,0.7-0.1,1.1-0.1
		c0.3,0,0.7,0.1,1,0.2c0.3,0.1,0.5,0.2,0.6,0.4c0.3,0,0.6,0.1,0.7,0.2c0,0,0,0.1,0,0.1c0,0,0,0.1-0.1,0.2
		C83.6,48.3,83.5,48.3,83.4,48.4z M82.2,47.5c-0.2,0-0.5,0-0.8,0.1c-0.6,0.1-1.1,0.4-1.6,0.7c-0.8,0.6-1.2,1-1.2,1.2
		c0,0.1,0.1,0.2,0.3,0.2c0.2,0,0.4-0.1,0.8-0.2c0.4-0.1,0.8-0.3,1.4-0.7c0,0,0.2-0.1,0.4-0.2c0.2-0.1,0.4-0.2,0.6-0.3
		c0.5-0.3,0.8-0.5,0.8-0.7C82.7,47.5,82.5,47.5,82.2,47.5z"/>
	<path fill="#FFFFFF" d="M90.1,48c-0.5,0.3-0.9,0.6-1.2,0.9c-0.3,0.3-0.5,0.5-0.5,0.6s0.1,0.2,0.3,0.2c0.2,0,0.7-0.1,1.4-0.4
		c0.7-0.3,1.3-0.6,1.9-0.9c0.1,0,0.1,0,0.1,0c0,0,0.1,0,0.1,0c0,0,0,0.1-0.1,0.1c-1.4,0.8-2.5,1.2-3.3,1.4C88.7,50,88.5,50,88.4,50
		c-0.5,0-0.9-0.1-1.1-0.2c-0.2-0.1-0.3-0.2-0.3-0.3c0-0.2,0.1-0.4,0.2-0.6c0.5-0.4,1-0.8,1.3-1.1c0.1-0.1,0.1-0.2-0.1-0.2
		c-0.1,0-0.3-0.1-0.5-0.1s-0.3,0-0.3,0c-0.7,0.6-1.5,1-2.2,1.4c-0.1,0-0.1,0-0.1,0c0-0.1,0.1-0.1,0.2-0.2c0.8-0.4,1.4-0.8,1.9-1.2
		c-0.1,0-0.1-0.1-0.1-0.2c0-0.1,0-0.2,0-0.2c0-0.1,0.1-0.2,0.3-0.4c0.3-0.3,0.5-0.4,0.8-0.4c0.2,0,0.4,0.1,0.4,0.2
		c0,0.2-0.2,0.4-0.5,0.7c-0.2,0.1-0.3,0.2-0.5,0.3c0.4-0.1,1-0.1,1.8-0.1c0.4,0,0.7,0.1,0.8,0.3c0,0,0,0.1,0,0.1S90.3,47.9,90.1,48z
		"/>
	<path fill="#FFFFFF" d="M94.8,49.8c-0.7,0.2-1.4,0.3-1.9,0.3c-0.5,0-0.8-0.1-0.9-0.3c-0.1-0.1-0.1-0.2-0.1-0.3
		c0-0.3,0.1-0.5,0.3-0.8c-0.1,0.1-0.3,0.2-0.4,0.2c-0.1,0.1-0.2,0.1-0.2,0c0,0,0.1-0.1,0.3-0.2c0.2-0.1,0.5-0.3,0.9-0.5
		c0.4-0.2,0.7-0.4,0.9-0.5c0.7-0.3,1.4-0.5,2.1-0.5c0.3,0,0.6,0,0.8,0.1c0.4,0.1,0.6,0.3,0.6,0.6c0,0.4-0.3,0.8-1,1.2
		c-0.3,0.2-0.6,0.3-1.1,0.5c0.9-0.1,1.9-0.4,2.9-1c0.1,0,0.1,0,0.1,0c0,0,0.1,0,0.1,0c0,0,0,0.1-0.1,0.1
		C97,49.4,95.9,49.8,94.8,49.8C94.9,49.8,94.8,49.8,94.8,49.8z M96.4,48.7c0.3-0.2,0.4-0.5,0.4-0.6c0-0.2-0.1-0.3-0.4-0.4
		c-0.1-0.1-0.3-0.1-0.5-0.1c-0.7,0-1.3,0.2-1.9,0.5c-0.6,0.3-0.9,0.6-1.1,1c-0.1,0.1-0.1,0.3-0.1,0.4s0.1,0.2,0.3,0.3
		c0.2,0.1,0.4,0.1,0.6,0.1s0.5-0.1,0.9-0.2c0,0-0.1,0-0.1,0c-0.1,0-0.2-0.1-0.2-0.2c0-0.2,0.2-0.5,0.6-0.7c0.3-0.2,0.6-0.2,0.9-0.2
		C96.2,48.5,96.4,48.6,96.4,48.7z"/>
	<path fill="#FFFFFF" d="M105.9,48.6c-0.1,0.1-0.1,0.2-0.1,0.3s0.1,0.2,0.2,0.2c0.1,0,0.4-0.1,0.7-0.2c0.3-0.1,0.5-0.3,0.6-0.3
		c0.1-0.1,0.1,0,0.1,0c0,0,0,0.1,0,0.1c-0.4,0.2-0.6,0.3-0.8,0.4c-0.3,0.1-0.6,0.2-0.8,0.2c-0.4,0-0.6-0.1-0.6-0.3
		c-1.1,0.7-1.9,1.1-2.5,1.1c-0.4,0-0.7,0-0.9-0.1c-0.2-0.1-0.3-0.2-0.3-0.3c0-0.1,0-0.2,0.1-0.4c-0.9,0.6-1.6,0.9-2.2,0.9
		c-0.4,0-0.7-0.1-0.9-0.2c-0.2-0.1-0.3-0.2-0.3-0.3c0-0.2,0.1-0.4,0.2-0.6c0.1-0.1,0.4-0.3,0.7-0.6c-0.7,0.3-1.1,0.5-1.1,0.6
		c-0.1,0-0.1,0-0.1,0c0-0.1,0.1-0.1,0.2-0.2c0.3-0.1,0.7-0.3,1.2-0.7c0.6-0.3,1-0.5,1.2-0.6c0.2-0.1,0.4-0.1,0.5-0.1
		c0.1,0,0.2,0,0.3,0c0.1,0,0.1,0,0,0.1c-0.3,0.2-0.6,0.5-0.9,0.8c-0.4,0.5-0.6,0.9-0.6,1.1c0,0,0,0.1,0,0.1c0.1,0.1,0.3,0.1,0.6,0
		c0.1-0.1,0.3-0.1,0.5-0.2s0.5-0.3,1.1-0.8c0.6-0.4,1-0.7,1.2-0.7c0.2-0.1,0.4-0.1,0.6-0.1c0.1,0,0.3,0,0.3,0.1
		c0.1,0,0.1,0.1,0.1,0.1c-0.6,0.3-0.9,0.8-1.1,1.4c-0.1,0.2-0.1,0.4,0,0.4c0.1,0,0.2,0,0.2,0c0.1,0,0.2,0,0.3-0.1
		c0.4-0.1,0.9-0.4,1.5-0.8c0-0.6,0.3-1,0.7-1.3c0.2-0.1,0.5-0.2,1-0.2c0.2,0,0.3,0,0.3,0.1l-0.1,0.1C106.4,47.9,106,48.3,105.9,48.6
		z"/>
	<path fill="#FFFFFF" d="M110.4,47.5c-0.5,0.3-0.8,0.6-1.1,1c-0.3,0.4-0.5,0.7-0.5,0.9c0,0.2,0.1,0.3,0.3,0.3c0.2,0,0.6-0.1,1.1-0.3
		c0.5-0.2,1.1-0.5,1.8-0.8c0.1-0.1,0.2-0.1,0.2,0c0,0,0,0,0,0c-0.5,0.3-1,0.5-1.3,0.7c-0.4,0.2-0.8,0.3-1.3,0.5
		c-0.5,0.2-0.9,0.2-1.2,0.2c-0.4,0-0.7-0.1-0.9-0.2c-0.2-0.1-0.3-0.2-0.3-0.3c0-0.2,0.1-0.4,0.2-0.6c0.1-0.1,0.4-0.3,0.7-0.6
		c-0.1,0.1-0.3,0.2-0.6,0.3c-0.3,0.1-0.4,0.2-0.5,0.3c-0.1,0-0.1,0-0.1,0c0,0,0.1-0.1,0.3-0.2c0.2-0.1,0.6-0.3,1.1-0.6
		c0.6-0.3,1-0.5,1.2-0.6c0.2-0.1,0.4-0.1,0.5-0.1C110.2,47.4,110.3,47.4,110.4,47.5C110.4,47.4,110.4,47.4,110.4,47.5z M110.6,47
		c-0.1-0.1-0.2-0.1-0.1-0.3c0-0.1,0.1-0.2,0.3-0.4c0.2-0.1,0.4-0.2,0.7-0.2c0.1,0,0.2,0,0.3,0.1c0.1,0,0.1,0.1,0.1,0.2
		c0,0.1-0.1,0.2-0.3,0.3c-0.2,0.1-0.3,0.2-0.5,0.2C110.9,47,110.7,47,110.6,47z"/>
	<path fill="#FFFFFF" d="M116.9,47.6c0-0.1-0.1-0.2-0.3-0.2c-0.2,0-0.5,0.1-0.9,0.2c-0.4,0.1-0.8,0.3-1.3,0.6
		c-0.6,0.4-0.9,0.8-0.9,1.1c0,0.2,0.2,0.4,0.5,0.5c0.1,0,0.2,0,0.3,0c0.5,0,1-0.1,1.6-0.3c0.6-0.2,1.4-0.6,2.4-1.1
		c0.2-0.1,0.2-0.1,0.2,0c0,0,0,0.1-0.1,0.1c-1.3,0.7-2.3,1.2-3,1.3c-0.6,0.2-1.1,0.3-1.5,0.3c-1.3,0-1.9-0.3-1.9-0.8s0.4-1,1.3-1.4
		c0.8-0.4,1.7-0.6,2.6-0.6c0.6,0,1,0.1,1.2,0.2c0.1,0.1,0.2,0.2,0.2,0.2c0,0.1,0,0.2-0.1,0.3c-0.1,0.1-0.2,0.1-0.4,0.1
		s-0.2-0.1-0.1-0.2C116.8,47.8,116.9,47.7,116.9,47.6z"/>
	<path fill="#FFFFFF" d="M121,48.6c1-0.2,1.5-0.4,1.5-0.5c0-0.1-0.5-0.1-1.4-0.1c-1.2,0-1.8,0.1-2,0.4c-0.2-0.1-0.3-0.2-0.3-0.3
		c0,0,0-0.1,0-0.1c0.2-0.5,1.1-0.7,2.7-0.7c0.1,0,0.1,0,0.2,0c0.6,0,1,0.1,1.3,0.2c0.2,0.1,0.4,0.2,0.4,0.3c0,0.2-0.3,0.4-0.8,0.6
		c-0.3,0.1-1,0.3-1.9,0.5c0.2,0,0.5,0,0.9,0c0.4,0,0.8,0.1,1.3,0.2c0.5,0.1,0.8,0.3,0.9,0.5c0,0.1,0.1,0.2,0.1,0.3
		c0,0.1-0.1,0.3-0.3,0.5c-0.3,0.3-0.8,0.7-1.7,1.1c-0.8,0.4-1.6,0.7-2.5,0.9c-1.7,0.4-3.2,0.6-4.5,0.6c-0.7,0-1.2-0.1-1.5-0.3
		c-0.1-0.1-0.1-0.1-0.1-0.2c0-0.1,0-0.1,0.1-0.2c0.1-0.1,0.2-0.2,0.4-0.4c0.5-0.3,1.4-0.6,2.6-0.9c1.2-0.3,2.3-0.4,3.3-0.4
		c0.7,0,1.2,0.1,1.5,0.2c0.1,0.1,0.2,0.1,0.2,0.2c0,0-0.1,0.1-0.2,0c-0.1,0-0.3,0-0.6,0c-0.3,0-0.8,0-1.5,0.1
		c-0.7,0.1-1.5,0.2-2.4,0.4c-0.9,0.2-1.5,0.5-1.9,0.8c-0.1,0.1-0.2,0.2-0.2,0.3c0,0.2,0.3,0.3,0.9,0.3c0.9,0,2.1-0.2,3.5-0.6
		c1.2-0.3,2.1-0.7,2.9-1.2c0.5-0.3,0.7-0.7,0.7-0.9c0-0.1,0-0.2-0.1-0.3c-0.3-0.3-0.9-0.4-2-0.4c-0.1,0-0.3,0-0.6,0
		c-0.3,0-0.9,0.1-1.7,0.2c-0.2,0-0.3,0-0.3-0.1c0-0.1,0.2-0.2,0.4-0.3c0.1,0,0.1,0,0.2-0.1c0,0,0.3-0.1,0.9-0.1
		C120,48.8,120.5,48.7,121,48.6z"/>
</g>
<path fill="#FFFFFF" d="M81.5,15.4c-0.5-0.4-1-0.8-1.4-1.1c-0.4-0.3-0.6-0.4-0.7-0.4l0,0c0,0,0,0,0,0c0,0,0.3-0.2,0.7-0.4
	c0.4-0.3,0.9-0.7,1.4-1.1c0.5-0.4,0.9-0.9,1.3-1.3c0.3-0.4,0.5-0.7,0.5-0.7s-0.3-0.2-0.8-0.4c-0.5-0.2-1.1-0.5-1.8-0.7
	C80,9,79.3,8.8,78.8,8.7C78.3,8.6,78,8.6,78,8.6c0,0,0,0,0,0c0,0,0.2-0.3,0.3-0.7c0.2-0.4,0.4-1,0.6-1.6c0.2-0.6,0.2-1.2,0.3-1.7
	c0-0.2,0-0.5,0-0.6c0-0.1,0-0.2,0-0.2s-1.6,0-3,0.3c-0.7,0.1-1.4,0.4-1.8,0.6c-0.3,0.1-0.5,0.2-0.6,0.3c-0.1,0-0.1,0-0.2-0.1
	c0-0.1-0.1-0.3-0.2-0.6c-0.2-0.4-0.4-1-0.8-1.5c-0.2-0.3-0.4-0.5-0.6-0.8c-0.2-0.3-0.4-0.5-0.6-0.7c-0.4-0.4-0.7-0.6-0.7-0.6
	s-0.3,0.2-0.7,0.6c-0.2,0.2-0.4,0.4-0.6,0.7c-0.2,0.3-0.4,0.5-0.6,0.8c-0.4,0.5-0.6,1.1-0.8,1.5c-0.1,0.3-0.1,0.4-0.2,0.6
	c-0.1,0-0.1,0-0.2,0.1c-0.1-0.1-0.3-0.2-0.6-0.3c-0.4-0.2-1.1-0.4-1.8-0.6c-1.4-0.3-3-0.3-3-0.3s0,0.1,0,0.2c0,0.1,0,0.4,0,0.6
	c0,0.5,0.1,1.1,0.3,1.7c0.1,0.6,0.4,1.2,0.6,1.6c0.2,0.4,0.3,0.7,0.3,0.7v0c0,0-0.3,0-0.8,0.1c-0.5,0.1-1.2,0.2-1.8,0.4
	c-0.7,0.2-1.3,0.5-1.8,0.7c-0.5,0.2-0.8,0.4-0.8,0.4s0.2,0.3,0.5,0.7c0.3,0.4,0.8,0.9,1.3,1.3c0.5,0.4,1,0.8,1.4,1.1
	c0.4,0.3,0.6,0.4,0.7,0.4c0,0,0,0,0,0l0,0c0,0-0.3,0.2-0.7,0.4c-0.4,0.3-0.9,0.7-1.4,1.1c-0.5,0.4-0.9,0.9-1.3,1.3
	c-0.3,0.4-0.5,0.7-0.5,0.7s0.3,0.2,0.8,0.4c0.5,0.2,1.1,0.5,1.8,0.7c0.7,0.2,1.3,0.4,1.8,0.4c0.5,0.1,0.8,0.1,0.8,0.1c0,0,0,0,0,0
	c0,0-0.1,0.3-0.3,0.7c-0.2,0.4-0.4,1-0.6,1.6c-0.2,0.6-0.2,1.2-0.3,1.7c0,0.2,0,0.5,0,0.6c0,0.1,0,0.2,0,0.2s1.6,0,3-0.3
	c0.7-0.1,1.4-0.4,1.8-0.5c0.3-0.1,0.5-0.2,0.6-0.3c0.1,0,0.1,0,0.2,0.1c0,0.1,0.1,0.3,0.2,0.6c0.2,0.4,0.4,1,0.8,1.5
	c0.2,0.3,0.4,0.5,0.6,0.8c0.2,0.3,0.4,0.5,0.6,0.7c0.4,0.4,0.7,0.6,0.7,0.6s0.3-0.2,0.7-0.6c0.2-0.2,0.4-0.4,0.6-0.7
	c0.2-0.3,0.4-0.5,0.6-0.8c0.4-0.5,0.6-1.1,0.8-1.5c0.1-0.2,0.1-0.4,0.2-0.6c0.1,0,0.1,0,0.2-0.1c0.1,0.1,0.3,0.2,0.6,0.3
	c0.4,0.2,1.1,0.4,1.8,0.6c1.4,0.3,3,0.3,3,0.3s0-0.1,0-0.2c0-0.1,0-0.4,0-0.6c0-0.5-0.1-1.1-0.3-1.7c-0.1-0.6-0.4-1.2-0.6-1.6
	C78.1,19.2,78,19,78,19l0,0c0,0,0.3,0,0.8-0.1c0.5-0.1,1.2-0.2,1.8-0.4c0.7-0.2,1.3-0.5,1.8-0.7c0.5-0.2,0.8-0.4,0.8-0.4
	s-0.2-0.3-0.5-0.7C82.5,16.3,82,15.8,81.5,15.4z"/>
<g>
	<g>
		<path fill="#FFFFFF" d="M81,15.3c-0.5-0.4-1-0.8-1.3-1.1c-0.4-0.3-0.6-0.4-0.6-0.4l0,0c0,0,0,0,0,0c0,0,0.3-0.2,0.6-0.4
			c0.4-0.3,0.9-0.6,1.3-1.1c0.5-0.4,0.9-0.9,1.2-1.3c0.3-0.4,0.5-0.6,0.5-0.6S82.4,10.2,82,10c-0.5-0.2-1.1-0.5-1.7-0.6
			C79.6,9.2,79,9,78.5,9c-0.5-0.1-0.8-0.1-0.8-0.1v0c0,0,0.1-0.2,0.3-0.6c0.2-0.4,0.4-0.9,0.5-1.5c0.2-0.6,0.2-1.2,0.3-1.7
			c0-0.2,0-0.4,0-0.6c0-0.1,0-0.2,0-0.2s-1.5,0-2.8,0.3c-0.7,0.1-1.3,0.4-1.7,0.5c-0.3,0.1-0.5,0.2-0.6,0.3c0,0-0.1,0-0.2-0.1
			c0-0.1-0.1-0.3-0.2-0.5c-0.2-0.4-0.4-1-0.8-1.5c-0.2-0.3-0.4-0.5-0.6-0.8c-0.2-0.2-0.4-0.4-0.6-0.6c-0.4-0.4-0.7-0.6-0.7-0.6
			S70.4,1.5,70,1.8c-0.2,0.2-0.4,0.4-0.6,0.6c-0.2,0.2-0.4,0.5-0.6,0.8c-0.4,0.5-0.6,1.1-0.8,1.5c-0.1,0.2-0.1,0.4-0.2,0.5
			c-0.1,0-0.1,0-0.2,0.1c-0.1-0.1-0.3-0.2-0.6-0.3c-0.4-0.2-1.1-0.4-1.7-0.5c-1.3-0.3-2.8-0.3-2.8-0.3s0,0.1,0,0.2
			c0,0.1,0,0.3,0,0.6c0,0.5,0.1,1.1,0.2,1.7c0.1,0.6,0.4,1.1,0.5,1.5c0.2,0.4,0.3,0.6,0.3,0.6v0c0,0-0.3,0-0.8,0.1
			c-0.5,0.1-1.1,0.2-1.7,0.4c-0.6,0.2-1.3,0.4-1.7,0.6c-0.5,0.2-0.8,0.4-0.8,0.4s0.2,0.3,0.5,0.6c0.3,0.4,0.7,0.8,1.2,1.3
			c0.4,0.4,1,0.8,1.3,1.1c0.4,0.3,0.6,0.4,0.6,0.4c0,0,0,0,0,0l0,0c0,0-0.2,0.2-0.6,0.4c-0.4,0.3-0.9,0.6-1.3,1.1
			c-0.5,0.4-0.9,0.9-1.2,1.3c-0.3,0.4-0.5,0.6-0.5,0.6s0.3,0.2,0.8,0.4c0.5,0.2,1.1,0.5,1.7,0.7c0.6,0.2,1.3,0.3,1.7,0.4
			c0.5,0.1,0.8,0.1,0.8,0.1c0,0,0,0,0,0c0,0-0.1,0.2-0.3,0.6c-0.2,0.4-0.4,0.9-0.5,1.5c-0.2,0.6-0.2,1.2-0.2,1.7c0,0.2,0,0.4,0,0.6
			c0,0.1,0,0.2,0,0.2s1.5,0,2.8-0.3c0.7-0.1,1.3-0.4,1.7-0.5c0.3-0.1,0.5-0.2,0.6-0.3c0.1,0,0.1,0,0.2,0.1c0,0.1,0.1,0.3,0.2,0.5
			c0.2,0.4,0.4,1,0.8,1.5c0.2,0.3,0.4,0.5,0.6,0.8c0.2,0.2,0.4,0.4,0.6,0.6c0.4,0.4,0.7,0.6,0.7,0.6s0.3-0.2,0.7-0.6
			c0.2-0.2,0.4-0.4,0.6-0.6c0.2-0.2,0.4-0.5,0.6-0.8c0.4-0.5,0.6-1.1,0.8-1.5c0.1-0.2,0.1-0.4,0.2-0.5c0.1,0,0.1,0,0.2-0.1
			c0.1,0.1,0.3,0.2,0.6,0.3c0.4,0.2,1.1,0.4,1.7,0.5c1.3,0.3,2.8,0.3,2.8,0.3s0-0.1,0-0.2c0-0.1,0-0.3,0-0.6c0-0.5-0.1-1.1-0.3-1.7
			c-0.1-0.6-0.3-1.1-0.5-1.5c-0.2-0.4-0.3-0.6-0.3-0.6l0,0c0,0,0.3,0,0.8-0.1c0.5-0.1,1.1-0.2,1.7-0.4c0.7-0.2,1.3-0.4,1.7-0.6
			c0.5-0.2,0.8-0.4,0.8-0.4s-0.2-0.3-0.5-0.6C81.9,16.2,81.5,15.7,81,15.3z"/>
	</g>
	<g>
		<path d="M79.6,15.6c-0.4-0.4-0.8-0.7-1.2-0.9c-0.3-0.2-0.5-0.4-0.5-0.4c0,0,0,0,0,0l0,0c0,0,0.2-0.1,0.5-0.4
			c0.3-0.2,0.8-0.6,1.2-0.9c0.4-0.4,0.8-0.8,1-1.1c0.3-0.3,0.4-0.6,0.4-0.6s-0.3-0.1-0.7-0.3c-0.4-0.2-0.9-0.4-1.5-0.6
			c-0.6-0.2-1.1-0.3-1.5-0.4C77,10.1,76.7,10,76.7,10c0,0,0,0,0,0c0,0,0.1-0.2,0.3-0.6c0.2-0.3,0.3-0.8,0.5-1.3
			c0.1-0.5,0.2-1,0.2-1.4c0-0.2,0-0.4,0-0.5c0-0.1,0-0.2,0-0.2s-1.3,0-2.5,0.2c-0.6,0.1-1.1,0.3-1.5,0.5c-0.2,0.1-0.4,0.2-0.5,0.2
			c0,0-0.1,0-0.1-0.1c0-0.1-0.1-0.3-0.2-0.5c-0.1-0.3-0.3-0.8-0.7-1.3c-0.2-0.2-0.3-0.5-0.5-0.7c-0.2-0.2-0.4-0.4-0.5-0.5
			c-0.3-0.3-0.6-0.5-0.6-0.5S70.3,3.6,70,3.9c-0.2,0.2-0.4,0.3-0.5,0.5c-0.2,0.2-0.4,0.4-0.5,0.7c-0.3,0.4-0.5,0.9-0.7,1.3
			c-0.1,0.2-0.1,0.4-0.1,0.5c-0.1,0-0.1,0-0.2,0.1c-0.1-0.1-0.3-0.1-0.5-0.2c-0.4-0.1-0.9-0.3-1.5-0.5C64.8,6,63.5,6,63.5,6
			s0,0.1,0,0.2c0,0.1,0,0.3,0,0.5c0,0.4,0.1,0.9,0.2,1.4c0.1,0.5,0.3,1,0.5,1.3c0.1,0.3,0.3,0.6,0.3,0.6c0,0,0,0,0,0s-0.3,0-0.7,0.1
			c-0.4,0.1-1,0.2-1.5,0.4c-0.6,0.2-1.1,0.4-1.5,0.6c-0.4,0.2-0.7,0.3-0.7,0.3s0.2,0.2,0.4,0.6c0.3,0.3,0.6,0.7,1,1.1
			c0.4,0.4,0.8,0.7,1.2,0.9c0.3,0.2,0.5,0.4,0.5,0.4l0,0l0,0c0,0-0.2,0.1-0.5,0.4c-0.3,0.2-0.8,0.6-1.2,0.9c-0.4,0.4-0.8,0.8-1,1.1
			c-0.3,0.3-0.4,0.6-0.4,0.6s0.3,0.1,0.7,0.3c0.4,0.2,0.9,0.4,1.5,0.6c0.6,0.2,1.1,0.3,1.5,0.4c0.4,0.1,0.7,0.1,0.7,0.1c0,0,0,0,0,0
			c0,0-0.1,0.2-0.3,0.6c-0.2,0.3-0.4,0.8-0.5,1.3c-0.1,0.5-0.2,1-0.2,1.4c0,0.2,0,0.4,0,0.5c0,0.1,0,0.2,0,0.2s1.3,0,2.5-0.2
			c0.6-0.1,1.1-0.3,1.5-0.5c0.2-0.1,0.4-0.2,0.5-0.2c0,0,0.1,0,0.1,0.1c0,0.1,0.1,0.3,0.1,0.5c0.1,0.3,0.4,0.8,0.7,1.3
			c0.2,0.2,0.3,0.5,0.5,0.7c0.2,0.2,0.4,0.4,0.5,0.5c0.3,0.3,0.6,0.5,0.6,0.5s0.3-0.2,0.6-0.5c0.2-0.2,0.4-0.3,0.5-0.5
			c0.2-0.2,0.4-0.4,0.5-0.7c0.3-0.4,0.5-0.9,0.7-1.3c0.1-0.2,0.1-0.4,0.2-0.5c0,0,0.1,0,0.1-0.1c0.1,0.1,0.3,0.1,0.5,0.2
			c0.4,0.1,0.9,0.3,1.5,0.5c1.2,0.3,2.5,0.2,2.5,0.2s0-0.1,0-0.2c0-0.1,0-0.3,0-0.5c0-0.4-0.1-0.9-0.2-1.5c-0.1-0.5-0.3-1-0.5-1.3
			c-0.1-0.3-0.3-0.5-0.3-0.6v0c0,0,0.3,0,0.7-0.1c0.4-0.1,1-0.2,1.5-0.4c0.6-0.2,1.1-0.4,1.5-0.6c0.4-0.2,0.7-0.3,0.7-0.3
			s-0.2-0.2-0.4-0.6C80.4,16.4,80,16,79.6,15.6z"/>
	</g>
	<g>
		<g>
			<path fill="#FFFFFF" d="M72.9,18.1c-0.3-0.1-0.5-0.1-0.8-0.2c-0.5-0.1-1-0.1-1.5-0.1l0,0c-0.5,0-1,0-1.5,0.1
				c-0.3,0-0.5,0.1-0.8,0.2c-0.2,0.1-0.1,0.1-0.1,0.3c0,0.1,0.1,0.3,0.1,0.4c0.4,1,1.3,1,2.2,1c0.9,0,1.9,0,2.2-1
				c0-0.1,0.1-0.3,0.1-0.4C73,18.2,73.1,18.2,72.9,18.1z"/>
		</g>
		<g>
			<path fill="#FFFFFF" d="M70.6,17.8C71,17.8,70.8,17.8,70.6,17.8L70.6,17.8C70.4,17.8,70.2,17.8,70.6,17.8
				C70.6,17.8,70.6,17.8,70.6,17.8L70.6,17.8z"/>
		</g>
		<g>
			<path fill="#FFFFFF" d="M75.1,13.6c0-0.2-0.1-0.5-0.1-0.7c-0.1-0.4-0.1-0.9-0.2-1.3c-0.6,0.1-1.2,0.3-1.9,0.4
				c-0.2,0-0.3,0.1-0.5,0.1c-0.1-0.1-0.2-0.2-0.3-0.3c-0.2-0.2-0.4-0.4-0.6-0.5c0.9-0.1,1.8-0.2,2.7-0.3c0.2,0,0.2-0.3,0.1-0.4
				c-0.2-0.1-0.3-0.3-0.5-0.4c-0.3-0.3-0.6-0.5-0.9-0.8c0.1,0.1,0.2,0.2,0,0c-0.3-0.2-0.1-0.1,0,0c-0.5-0.3-1-0.6-1.5-0.6
				c-0.1,0-0.2-0.1-0.3,0C71,8.8,71,9,70.9,9.1c-0.1,0.1-0.2,0.4-0.3,0.4c-0.1,0-0.2-0.3-0.3-0.4c-0.1-0.1-0.1-0.3-0.2-0.4
				c-0.1-0.1-0.2,0-0.3,0c-0.6,0.1-1.1,0.3-1.5,0.6c0.1-0.1,0.3-0.2,0,0c-0.2,0.2-0.1,0.1,0,0c-0.3,0.2-0.6,0.5-0.9,0.8
				c-0.1,0.1-0.3,0.3-0.5,0.4c-0.1,0.1-0.1,0.4,0.1,0.4c0.9,0.1,1.8,0.2,2.7,0.3c-0.2,0.2-0.4,0.4-0.6,0.5c-0.1,0.1-0.2,0.2-0.3,0.3
				c-0.2,0-0.3-0.1-0.5-0.1c-0.6-0.1-1.2-0.3-1.9-0.4c-0.1,0.4-0.1,0.9-0.2,1.3c0,0.2-0.1,0.5-0.1,0.7c0,0.2-0.1,0.2,0.1,0.3
				c0.1,0.1,0.2,0.1,0.3,0.1c0.3,0.2,0.7,0.3,0.9,0.6c0.3,0.4,0.1,0.8,0,1.2c-0.2,0.9,0.2,1.4,1.1,1.6c0.4,0.1,0.8,0,1.2-0.1
				c0.4-0.2,0.6-0.5,0.9-0.8c0,0,0,0,0,0v0c0,0,0,0,0,0c0,0,0,0,0,0v0c0,0,0,0,0,0c0.3,0.3,0.5,0.6,0.9,0.8c0.4,0.2,0.8,0.2,1.2,0.1
				c0.9-0.2,1.3-0.7,1.1-1.6c-0.1-0.4-0.3-0.8,0-1.2c0.2-0.3,0.6-0.4,0.9-0.6c0.1-0.1,0.2-0.1,0.3-0.1
				C75.2,13.9,75.1,13.8,75.1,13.6z"/>
		</g>
	</g>
	<g>
		<path fill-rule="evenodd" d="M69.6,14.8c-0.4-0.3-0.7-0.5-1.1-0.8c0.1-0.1,0.2-0.2,0.3-0.3c0.1-0.1,0.2-0.2,0.3-0.4
			c0.5,0.3,1.1,0.4,1.6,0.4c0.6,0,1.1-0.2,1.6-0.5c0.1,0.1,0.2,0.2,0.3,0.4c0.1,0.1,0.2,0.2,0.3,0.3c-0.4,0.3-0.8,0.6-1.1,0.9
			c-0.3,0.3-0.7,0.5-1,0.8C70.3,15.3,70,15.1,69.6,14.8z"/>
	</g>
</g>
</svg>
